G04*
G04 #@! TF.GenerationSoftware,Altium Limited,Altium Designer,22.0.2 (36)*
G04*
G04 Layer_Color=8388736*
%FSLAX25Y25*%
%MOIN*%
G70*
G04*
G04 #@! TF.SameCoordinates,A7353FC2-99F2-474C-B2A2-24993EA34B63*
G04*
G04*
G04 #@! TF.FilePolarity,Negative*
G04*
G01*
G75*
G04:AMPARAMS|DCode=28|XSize=85.04mil|YSize=88.98mil|CornerRadius=21.26mil|HoleSize=0mil|Usage=FLASHONLY|Rotation=0.000|XOffset=0mil|YOffset=0mil|HoleType=Round|Shape=RoundedRectangle|*
%AMROUNDEDRECTD28*
21,1,0.08504,0.04646,0,0,0.0*
21,1,0.04252,0.08898,0,0,0.0*
1,1,0.04252,0.02126,-0.02323*
1,1,0.04252,-0.02126,-0.02323*
1,1,0.04252,-0.02126,0.02323*
1,1,0.04252,0.02126,0.02323*
%
%ADD28ROUNDEDRECTD28*%
G04:AMPARAMS|DCode=30|XSize=25mil|YSize=50mil|CornerRadius=6.25mil|HoleSize=0mil|Usage=FLASHONLY|Rotation=0.000|XOffset=0mil|YOffset=0mil|HoleType=Round|Shape=RoundedRectangle|*
%AMROUNDEDRECTD30*
21,1,0.02500,0.03750,0,0,0.0*
21,1,0.01250,0.05000,0,0,0.0*
1,1,0.01250,0.00625,-0.01875*
1,1,0.01250,-0.00625,-0.01875*
1,1,0.01250,-0.00625,0.01875*
1,1,0.01250,0.00625,0.01875*
%
%ADD30ROUNDEDRECTD30*%
G04:AMPARAMS|DCode=31|XSize=65mil|YSize=120mil|CornerRadius=16.25mil|HoleSize=0mil|Usage=FLASHONLY|Rotation=180.000|XOffset=0mil|YOffset=0mil|HoleType=Round|Shape=RoundedRectangle|*
%AMROUNDEDRECTD31*
21,1,0.06500,0.08750,0,0,180.0*
21,1,0.03250,0.12000,0,0,180.0*
1,1,0.03250,-0.01625,0.04375*
1,1,0.03250,0.01625,0.04375*
1,1,0.03250,0.01625,-0.04375*
1,1,0.03250,-0.01625,-0.04375*
%
%ADD31ROUNDEDRECTD31*%
%ADD32R,0.06500X0.06000*%
%ADD33R,0.07700X0.02500*%
%ADD34R,0.08900X0.21100*%
%ADD35R,0.10000X0.10000*%
G04:AMPARAMS|DCode=36|XSize=21.75mil|YSize=65.06mil|CornerRadius=6.94mil|HoleSize=0mil|Usage=FLASHONLY|Rotation=90.000|XOffset=0mil|YOffset=0mil|HoleType=Round|Shape=RoundedRectangle|*
%AMROUNDEDRECTD36*
21,1,0.02175,0.05118,0,0,90.0*
21,1,0.00787,0.06506,0,0,90.0*
1,1,0.01387,0.02559,0.00394*
1,1,0.01387,0.02559,-0.00394*
1,1,0.01387,-0.02559,-0.00394*
1,1,0.01387,-0.02559,0.00394*
%
%ADD36ROUNDEDRECTD36*%
G04:AMPARAMS|DCode=37|XSize=45.37mil|YSize=65.06mil|CornerRadius=12.84mil|HoleSize=0mil|Usage=FLASHONLY|Rotation=90.000|XOffset=0mil|YOffset=0mil|HoleType=Round|Shape=RoundedRectangle|*
%AMROUNDEDRECTD37*
21,1,0.04537,0.03937,0,0,90.0*
21,1,0.01968,0.06506,0,0,90.0*
1,1,0.02568,0.01968,0.00984*
1,1,0.02568,0.01968,-0.00984*
1,1,0.02568,-0.01968,-0.00984*
1,1,0.02568,-0.01968,0.00984*
%
%ADD37ROUNDEDRECTD37*%
G04:AMPARAMS|DCode=38|XSize=26mil|YSize=26mil|CornerRadius=8mil|HoleSize=0mil|Usage=FLASHONLY|Rotation=0.000|XOffset=0mil|YOffset=0mil|HoleType=Round|Shape=RoundedRectangle|*
%AMROUNDEDRECTD38*
21,1,0.02600,0.01000,0,0,0.0*
21,1,0.01000,0.02600,0,0,0.0*
1,1,0.01600,0.00500,-0.00500*
1,1,0.01600,-0.00500,-0.00500*
1,1,0.01600,-0.00500,0.00500*
1,1,0.01600,0.00500,0.00500*
%
%ADD38ROUNDEDRECTD38*%
G04:AMPARAMS|DCode=39|XSize=29.62mil|YSize=45.37mil|CornerRadius=8.91mil|HoleSize=0mil|Usage=FLASHONLY|Rotation=180.000|XOffset=0mil|YOffset=0mil|HoleType=Round|Shape=RoundedRectangle|*
%AMROUNDEDRECTD39*
21,1,0.02962,0.02756,0,0,180.0*
21,1,0.01181,0.04537,0,0,180.0*
1,1,0.01781,-0.00591,0.01378*
1,1,0.01781,0.00591,0.01378*
1,1,0.01781,0.00591,-0.01378*
1,1,0.01781,-0.00591,-0.01378*
%
%ADD39ROUNDEDRECTD39*%
G04:AMPARAMS|DCode=40|XSize=46mil|YSize=66mil|CornerRadius=13mil|HoleSize=0mil|Usage=FLASHONLY|Rotation=180.000|XOffset=0mil|YOffset=0mil|HoleType=Round|Shape=RoundedRectangle|*
%AMROUNDEDRECTD40*
21,1,0.04600,0.04000,0,0,180.0*
21,1,0.02000,0.06600,0,0,180.0*
1,1,0.02600,-0.01000,0.02000*
1,1,0.02600,0.01000,0.02000*
1,1,0.02600,0.01000,-0.02000*
1,1,0.02600,-0.01000,-0.02000*
%
%ADD40ROUNDEDRECTD40*%
G04:AMPARAMS|DCode=41|XSize=22mil|YSize=22mil|CornerRadius=11mil|HoleSize=0mil|Usage=FLASHONLY|Rotation=270.000|XOffset=0mil|YOffset=0mil|HoleType=Round|Shape=RoundedRectangle|*
%AMROUNDEDRECTD41*
21,1,0.02200,0.00000,0,0,270.0*
21,1,0.00000,0.02200,0,0,270.0*
1,1,0.02200,0.00000,0.00000*
1,1,0.02200,0.00000,0.00000*
1,1,0.02200,0.00000,0.00000*
1,1,0.02200,0.00000,0.00000*
%
%ADD41ROUNDEDRECTD41*%
G04:AMPARAMS|DCode=42|XSize=45.37mil|YSize=65.06mil|CornerRadius=12.84mil|HoleSize=0mil|Usage=FLASHONLY|Rotation=0.000|XOffset=0mil|YOffset=0mil|HoleType=Round|Shape=RoundedRectangle|*
%AMROUNDEDRECTD42*
21,1,0.04537,0.03937,0,0,0.0*
21,1,0.01968,0.06506,0,0,0.0*
1,1,0.02568,0.00984,-0.01968*
1,1,0.02568,-0.00984,-0.01968*
1,1,0.02568,-0.00984,0.01968*
1,1,0.02568,0.00984,0.01968*
%
%ADD42ROUNDEDRECTD42*%
G04:AMPARAMS|DCode=43|XSize=21.75mil|YSize=65.06mil|CornerRadius=6.94mil|HoleSize=0mil|Usage=FLASHONLY|Rotation=180.000|XOffset=0mil|YOffset=0mil|HoleType=Round|Shape=RoundedRectangle|*
%AMROUNDEDRECTD43*
21,1,0.02175,0.05118,0,0,180.0*
21,1,0.00787,0.06506,0,0,180.0*
1,1,0.01387,-0.00394,0.02559*
1,1,0.01387,0.00394,0.02559*
1,1,0.01387,0.00394,-0.02559*
1,1,0.01387,-0.00394,-0.02559*
%
%ADD43ROUNDEDRECTD43*%
%ADD44R,0.02568X0.02568*%
G04:AMPARAMS|DCode=45|XSize=46mil|YSize=80mil|CornerRadius=13mil|HoleSize=0mil|Usage=FLASHONLY|Rotation=90.000|XOffset=0mil|YOffset=0mil|HoleType=Round|Shape=RoundedRectangle|*
%AMROUNDEDRECTD45*
21,1,0.04600,0.05400,0,0,90.0*
21,1,0.02000,0.08000,0,0,90.0*
1,1,0.02600,0.02700,0.01000*
1,1,0.02600,0.02700,-0.01000*
1,1,0.02600,-0.02700,-0.01000*
1,1,0.02600,-0.02700,0.01000*
%
%ADD45ROUNDEDRECTD45*%
G04:AMPARAMS|DCode=46|XSize=65.06mil|YSize=45.37mil|CornerRadius=12.84mil|HoleSize=0mil|Usage=FLASHONLY|Rotation=180.000|XOffset=0mil|YOffset=0mil|HoleType=Round|Shape=RoundedRectangle|*
%AMROUNDEDRECTD46*
21,1,0.06506,0.01968,0,0,180.0*
21,1,0.03937,0.04537,0,0,180.0*
1,1,0.02568,-0.01968,0.00984*
1,1,0.02568,0.01968,0.00984*
1,1,0.02568,0.01968,-0.00984*
1,1,0.02568,-0.01968,-0.00984*
%
%ADD46ROUNDEDRECTD46*%
G04:AMPARAMS|DCode=47|XSize=61mil|YSize=71mil|CornerRadius=16.75mil|HoleSize=0mil|Usage=FLASHONLY|Rotation=90.000|XOffset=0mil|YOffset=0mil|HoleType=Round|Shape=RoundedRectangle|*
%AMROUNDEDRECTD47*
21,1,0.06100,0.03750,0,0,90.0*
21,1,0.02750,0.07100,0,0,90.0*
1,1,0.03350,0.01875,0.01375*
1,1,0.03350,0.01875,-0.01375*
1,1,0.03350,-0.01875,-0.01375*
1,1,0.03350,-0.01875,0.01375*
%
%ADD47ROUNDEDRECTD47*%
G04:AMPARAMS|DCode=48|XSize=25.68mil|YSize=29.62mil|CornerRadius=7.92mil|HoleSize=0mil|Usage=FLASHONLY|Rotation=90.000|XOffset=0mil|YOffset=0mil|HoleType=Round|Shape=RoundedRectangle|*
%AMROUNDEDRECTD48*
21,1,0.02568,0.01378,0,0,90.0*
21,1,0.00984,0.02962,0,0,90.0*
1,1,0.01584,0.00689,0.00492*
1,1,0.01584,0.00689,-0.00492*
1,1,0.01584,-0.00689,-0.00492*
1,1,0.01584,-0.00689,0.00492*
%
%ADD48ROUNDEDRECTD48*%
%ADD49C,0.20600*%
G36*
X65500Y16983D02*
X49854D01*
Y48156D01*
X65500D01*
Y16983D01*
D02*
G37*
G36*
X72378Y44332D02*
X70267Y43110D01*
X72378Y41899D01*
Y40521D01*
X69556Y42388D01*
X67012Y40732D01*
Y42154D01*
X68834Y43154D01*
X67012Y44154D01*
Y45520D01*
X69511Y43910D01*
X72378Y45765D01*
Y44332D01*
D02*
G37*
G36*
X72500Y39232D02*
Y39221D01*
X72489Y39188D01*
Y39143D01*
X72478Y39077D01*
X72456Y39010D01*
X72433Y38921D01*
X72378Y38732D01*
X72289Y38532D01*
X72167Y38332D01*
X72089Y38255D01*
X72000Y38177D01*
X71911Y38110D01*
X71800Y38066D01*
X71811Y38055D01*
X71856Y38032D01*
X71911Y37977D01*
X71989Y37910D01*
X72078Y37821D01*
X72156Y37710D01*
X72245Y37577D01*
X72322Y37421D01*
X72333Y37399D01*
X72344Y37343D01*
X72378Y37255D01*
X72411Y37132D01*
X72444Y36988D01*
X72467Y36821D01*
X72489Y36644D01*
X72500Y36455D01*
Y36377D01*
X72489Y36321D01*
Y36244D01*
X72478Y36166D01*
X72444Y35977D01*
X72389Y35766D01*
X72311Y35544D01*
X72200Y35333D01*
X72044Y35133D01*
X72033D01*
X72022Y35110D01*
X71956Y35055D01*
X71856Y34977D01*
X71711Y34888D01*
X71533Y34799D01*
X71322Y34722D01*
X71078Y34666D01*
X70945Y34655D01*
X70800Y34644D01*
X70789D01*
X70767D01*
X70722D01*
X70656Y34655D01*
X70589Y34666D01*
X70500Y34677D01*
X70311Y34733D01*
X70100Y34811D01*
X69989Y34866D01*
X69878Y34933D01*
X69778Y35010D01*
X69667Y35099D01*
X69567Y35199D01*
X69478Y35322D01*
X69467Y35333D01*
X69456Y35355D01*
X69434Y35388D01*
X69400Y35444D01*
X69367Y35522D01*
X69334Y35599D01*
X69289Y35699D01*
X69245Y35810D01*
X69200Y35944D01*
X69156Y36077D01*
X69123Y36233D01*
X69089Y36399D01*
X69056Y36588D01*
X69034Y36777D01*
X69011Y36988D01*
Y37843D01*
X68767D01*
X68745D01*
X68700D01*
X68623Y37832D01*
X68523Y37810D01*
X68423Y37777D01*
X68312Y37732D01*
X68223Y37666D01*
X68134Y37577D01*
X68123Y37566D01*
X68100Y37532D01*
X68067Y37466D01*
X68034Y37388D01*
X68001Y37277D01*
X67967Y37144D01*
X67945Y36988D01*
X67934Y36799D01*
Y36699D01*
X67945Y36621D01*
Y36533D01*
X67956Y36421D01*
X67978Y36310D01*
X68001Y36177D01*
Y36166D01*
X68012Y36110D01*
X68023Y36044D01*
X68045Y35944D01*
X68078Y35822D01*
X68111Y35677D01*
X68145Y35522D01*
X68189Y35355D01*
X67267Y35044D01*
Y35055D01*
X67245Y35088D01*
X67234Y35144D01*
X67200Y35221D01*
X67178Y35310D01*
X67145Y35410D01*
X67112Y35533D01*
X67067Y35666D01*
X67001Y35955D01*
X66934Y36277D01*
X66889Y36621D01*
X66878Y36966D01*
Y37066D01*
X66889Y37144D01*
Y37232D01*
X66901Y37332D01*
X66934Y37566D01*
X66989Y37832D01*
X67078Y38099D01*
X67200Y38355D01*
X67267Y38466D01*
X67356Y38577D01*
Y38588D01*
X67378Y38599D01*
X67445Y38666D01*
X67556Y38754D01*
X67700Y38855D01*
X67889Y38954D01*
X68123Y39043D01*
X68389Y39110D01*
X68545Y39121D01*
X68700Y39132D01*
X71022D01*
X71034D01*
X71067D01*
X71111D01*
X71167Y39143D01*
X71300Y39166D01*
X71356Y39177D01*
X71411Y39199D01*
X71433Y39210D01*
X71456Y39232D01*
X71478Y39266D01*
X71511Y39310D01*
X71544Y39366D01*
X71578Y39432D01*
X71611Y39521D01*
X72500Y39232D01*
D02*
G37*
G36*
X72378Y32588D02*
X68589D01*
X68567D01*
X68523D01*
X68456D01*
X68367Y32577D01*
X68189Y32566D01*
X68111Y32555D01*
X68056Y32533D01*
X68045D01*
X68034Y32522D01*
X67989Y32489D01*
X67945Y32433D01*
X67923Y32388D01*
Y32333D01*
X67934Y32277D01*
X67945Y32211D01*
X67978Y32122D01*
X68034Y32022D01*
X68111Y31911D01*
X68223Y31789D01*
X68367Y31677D01*
X72378D01*
Y30589D01*
X68589D01*
X68567D01*
X68523D01*
X68456D01*
X68367Y30578D01*
X68189Y30566D01*
X68111Y30555D01*
X68056Y30533D01*
X68045D01*
X68034Y30522D01*
X67989Y30489D01*
X67945Y30433D01*
X67923Y30389D01*
Y30333D01*
X67934Y30278D01*
X67945Y30211D01*
X67978Y30122D01*
X68034Y30022D01*
X68111Y29911D01*
X68223Y29789D01*
X68367Y29678D01*
X72378D01*
Y28500D01*
X67012D01*
Y29511D01*
X67567Y29566D01*
X67556D01*
X67512Y29589D01*
X67456Y29611D01*
X67389Y29655D01*
X67312Y29700D01*
X67223Y29766D01*
X67145Y29844D01*
X67067Y29944D01*
X67056Y29955D01*
X67034Y29989D01*
X67012Y30055D01*
X66967Y30133D01*
X66934Y30233D01*
X66912Y30344D01*
X66889Y30466D01*
X66878Y30611D01*
Y30678D01*
X66889Y30733D01*
X66912Y30855D01*
X66956Y31011D01*
X67034Y31166D01*
X67089Y31244D01*
X67145Y31322D01*
X67223Y31389D01*
X67312Y31444D01*
X67412Y31500D01*
X67523Y31533D01*
X67512Y31544D01*
X67478Y31555D01*
X67423Y31589D01*
X67356Y31633D01*
X67289Y31688D01*
X67212Y31755D01*
X67134Y31844D01*
X67067Y31944D01*
X67056Y31955D01*
X67034Y32000D01*
X67012Y32055D01*
X66967Y32144D01*
X66934Y32244D01*
X66912Y32366D01*
X66889Y32489D01*
X66878Y32633D01*
Y32722D01*
X66901Y32811D01*
X66923Y32933D01*
X66967Y33066D01*
X67034Y33200D01*
X67123Y33333D01*
X67245Y33455D01*
X67256Y33466D01*
X67312Y33500D01*
X67400Y33555D01*
X67523Y33611D01*
X67689Y33655D01*
X67901Y33711D01*
X68145Y33744D01*
X68278Y33755D01*
X68434D01*
X72378D01*
Y32588D01*
D02*
G37*
G36*
X28336Y75590D02*
X31649D01*
Y73350D01*
X28336D01*
Y70000D01*
X26041D01*
Y73350D01*
X22727D01*
Y75590D01*
X26041D01*
Y78959D01*
X28336D01*
Y75590D01*
D02*
G37*
G36*
X74828Y-30331D02*
X74902D01*
X74983Y-30346D01*
X75072Y-30353D01*
X75175Y-30368D01*
X75390Y-30413D01*
X75619Y-30479D01*
X75730Y-30516D01*
X75841Y-30568D01*
X75945Y-30620D01*
X76049Y-30686D01*
X76056Y-30694D01*
X76071Y-30701D01*
X76093Y-30723D01*
X76130Y-30753D01*
X76167Y-30790D01*
X76211Y-30834D01*
X76256Y-30886D01*
X76308Y-30945D01*
X76352Y-31019D01*
X76404Y-31093D01*
X76448Y-31182D01*
X76485Y-31271D01*
X76522Y-31375D01*
X76544Y-31486D01*
X76559Y-31597D01*
X76567Y-31722D01*
Y-31774D01*
X76559Y-31811D01*
X76552Y-31863D01*
X76544Y-31915D01*
X76522Y-32033D01*
X76478Y-32166D01*
X76411Y-32300D01*
X76367Y-32366D01*
X76315Y-32425D01*
X76263Y-32477D01*
X76197Y-32529D01*
X77802D01*
X77891Y-33395D01*
X72911D01*
Y-32633D01*
X73348Y-32603D01*
X73340Y-32596D01*
X73311Y-32581D01*
X73266Y-32559D01*
X73214Y-32514D01*
X73148Y-32462D01*
X73089Y-32403D01*
X73029Y-32322D01*
X72970Y-32226D01*
X72963Y-32211D01*
X72948Y-32181D01*
X72926Y-32122D01*
X72896Y-32048D01*
X72867Y-31959D01*
X72844Y-31863D01*
X72830Y-31752D01*
X72822Y-31641D01*
Y-31582D01*
X72837Y-31523D01*
X72852Y-31434D01*
X72881Y-31338D01*
X72918Y-31227D01*
X72978Y-31108D01*
X73052Y-30982D01*
X73155Y-30857D01*
X73274Y-30738D01*
X73348Y-30686D01*
X73429Y-30627D01*
X73518Y-30575D01*
X73607Y-30531D01*
X73710Y-30487D01*
X73821Y-30442D01*
X73940Y-30413D01*
X74073Y-30383D01*
X74213Y-30353D01*
X74361Y-30339D01*
X74517Y-30324D01*
X74687D01*
X74694D01*
X74724D01*
X74768D01*
X74828Y-30331D01*
D02*
G37*
G36*
X74791Y-34357D02*
X74857Y-34364D01*
X74998Y-34379D01*
Y-36658D01*
X75005D01*
X75013D01*
X75035Y-36651D01*
X75064D01*
X75138Y-36636D01*
X75235Y-36614D01*
X75338Y-36577D01*
X75449Y-36532D01*
X75553Y-36473D01*
X75649Y-36392D01*
X75656Y-36377D01*
X75686Y-36347D01*
X75723Y-36296D01*
X75760Y-36222D01*
X75804Y-36133D01*
X75841Y-36029D01*
X75871Y-35918D01*
X75878Y-35785D01*
Y-35748D01*
X75871Y-35696D01*
Y-35637D01*
X75864Y-35570D01*
X75849Y-35496D01*
X75812Y-35341D01*
X75804Y-35334D01*
X75797Y-35304D01*
X75782Y-35260D01*
X75753Y-35200D01*
X75723Y-35134D01*
X75679Y-35052D01*
X75634Y-34956D01*
X75575Y-34860D01*
X76100Y-34497D01*
X76108Y-34512D01*
X76137Y-34542D01*
X76182Y-34601D01*
X76234Y-34675D01*
X76293Y-34764D01*
X76352Y-34875D01*
X76411Y-34986D01*
X76456Y-35112D01*
X76463Y-35126D01*
X76470Y-35171D01*
X76493Y-35237D01*
X76507Y-35326D01*
X76530Y-35430D01*
X76552Y-35548D01*
X76559Y-35681D01*
X76567Y-35815D01*
Y-35896D01*
X76559Y-35948D01*
X76552Y-36022D01*
X76537Y-36096D01*
X76522Y-36185D01*
X76500Y-36281D01*
X76478Y-36384D01*
X76441Y-36488D01*
X76404Y-36592D01*
X76352Y-36703D01*
X76293Y-36806D01*
X76226Y-36910D01*
X76145Y-37006D01*
X76056Y-37095D01*
X76049Y-37102D01*
X76034Y-37117D01*
X76004Y-37139D01*
X75960Y-37161D01*
X75908Y-37198D01*
X75849Y-37235D01*
X75775Y-37280D01*
X75693Y-37317D01*
X75605Y-37361D01*
X75501Y-37406D01*
X75390Y-37443D01*
X75264Y-37472D01*
X75138Y-37502D01*
X74998Y-37524D01*
X74850Y-37539D01*
X74694Y-37546D01*
X74687D01*
X74672D01*
X74643D01*
X74606D01*
X74561Y-37539D01*
X74502D01*
X74376Y-37524D01*
X74228Y-37502D01*
X74073Y-37465D01*
X73903Y-37420D01*
X73740Y-37354D01*
X73732D01*
X73718Y-37346D01*
X73695Y-37332D01*
X73666Y-37317D01*
X73592Y-37272D01*
X73496Y-37206D01*
X73385Y-37124D01*
X73274Y-37028D01*
X73163Y-36917D01*
X73066Y-36784D01*
Y-36777D01*
X73059Y-36769D01*
X73044Y-36747D01*
X73029Y-36717D01*
X72992Y-36636D01*
X72941Y-36532D01*
X72896Y-36407D01*
X72859Y-36251D01*
X72830Y-36088D01*
X72822Y-35903D01*
Y-35837D01*
X72830Y-35785D01*
X72837Y-35726D01*
X72844Y-35652D01*
X72859Y-35578D01*
X72881Y-35489D01*
X72941Y-35311D01*
X72978Y-35215D01*
X73022Y-35119D01*
X73081Y-35030D01*
X73148Y-34941D01*
X73222Y-34853D01*
X73303Y-34771D01*
X73311Y-34764D01*
X73325Y-34756D01*
X73355Y-34734D01*
X73392Y-34705D01*
X73436Y-34675D01*
X73496Y-34638D01*
X73570Y-34601D01*
X73644Y-34557D01*
X73732Y-34520D01*
X73836Y-34483D01*
X73940Y-34446D01*
X74058Y-34416D01*
X74184Y-34386D01*
X74317Y-34364D01*
X74458Y-34357D01*
X74606Y-34349D01*
X74613D01*
X74643D01*
X74680D01*
X74731D01*
X74791Y-34357D01*
D02*
G37*
G36*
X76271Y-38397D02*
X76293Y-38427D01*
X76315Y-38479D01*
X76352Y-38538D01*
X76389Y-38612D01*
X76426Y-38701D01*
X76463Y-38789D01*
X76493Y-38893D01*
Y-38908D01*
X76507Y-38937D01*
X76515Y-38989D01*
X76530Y-39063D01*
X76544Y-39145D01*
X76552Y-39241D01*
X76567Y-39344D01*
Y-39515D01*
X76559Y-39559D01*
Y-39611D01*
X76552Y-39670D01*
X76530Y-39811D01*
X76485Y-39966D01*
X76433Y-40121D01*
X76352Y-40277D01*
X76308Y-40351D01*
X76248Y-40417D01*
X76241D01*
X76234Y-40432D01*
X76189Y-40469D01*
X76115Y-40521D01*
X76019Y-40580D01*
X75893Y-40647D01*
X75745Y-40699D01*
X75575Y-40736D01*
X75479Y-40743D01*
X75375Y-40750D01*
X73577D01*
Y-41520D01*
X72911D01*
Y-40750D01*
X72149D01*
X72053Y-39892D01*
X72911D01*
Y-38723D01*
X73577Y-38812D01*
Y-39892D01*
X75368D01*
X75383D01*
X75412D01*
X75457Y-39885D01*
X75508Y-39877D01*
X75575Y-39862D01*
X75634Y-39840D01*
X75693Y-39811D01*
X75745Y-39766D01*
X75753Y-39759D01*
X75760Y-39744D01*
X75782Y-39714D01*
X75804Y-39670D01*
X75827Y-39611D01*
X75841Y-39537D01*
X75856Y-39455D01*
X75864Y-39352D01*
Y-39293D01*
X75856Y-39233D01*
X75841Y-39145D01*
X75819Y-39048D01*
X75790Y-38930D01*
X75745Y-38812D01*
X75686Y-38686D01*
X76263Y-38390D01*
X76271Y-38397D01*
D02*
G37*
G36*
X75301Y-42275D02*
X75397Y-42297D01*
X75516Y-42319D01*
X75642Y-42356D01*
X75775Y-42408D01*
X75901Y-42482D01*
X75915Y-42489D01*
X75952Y-42519D01*
X76012Y-42571D01*
X76078Y-42637D01*
X76160Y-42726D01*
X76241Y-42837D01*
X76322Y-42963D01*
X76396Y-43104D01*
Y-43111D01*
X76404Y-43118D01*
X76411Y-43148D01*
X76426Y-43178D01*
X76433Y-43215D01*
X76448Y-43259D01*
X76478Y-43377D01*
X76515Y-43518D01*
X76537Y-43681D01*
X76559Y-43858D01*
X76567Y-44058D01*
Y-44103D01*
X76559Y-44162D01*
Y-44236D01*
X76544Y-44325D01*
X76530Y-44428D01*
X76515Y-44547D01*
X76485Y-44672D01*
X76448Y-44813D01*
X76404Y-44954D01*
X76352Y-45094D01*
X76293Y-45235D01*
X76219Y-45383D01*
X76130Y-45523D01*
X76026Y-45657D01*
X75915Y-45782D01*
X75375Y-45301D01*
X75383Y-45294D01*
X75397Y-45279D01*
X75420Y-45250D01*
X75449Y-45205D01*
X75486Y-45153D01*
X75531Y-45094D01*
X75568Y-45020D01*
X75612Y-44946D01*
X75664Y-44857D01*
X75701Y-44761D01*
X75782Y-44547D01*
X75812Y-44436D01*
X75834Y-44310D01*
X75849Y-44191D01*
X75856Y-44058D01*
Y-43992D01*
X75849Y-43925D01*
X75834Y-43836D01*
X75812Y-43740D01*
X75782Y-43636D01*
X75745Y-43533D01*
X75686Y-43437D01*
X75679Y-43429D01*
X75656Y-43400D01*
X75612Y-43363D01*
X75560Y-43311D01*
X75486Y-43266D01*
X75405Y-43229D01*
X75301Y-43200D01*
X75190Y-43192D01*
X75183D01*
X75161D01*
X75124D01*
X75079Y-43200D01*
X74983Y-43222D01*
X74887Y-43266D01*
X74879D01*
X74865Y-43281D01*
X74842Y-43296D01*
X74813Y-43326D01*
X74776Y-43355D01*
X74739Y-43400D01*
X74694Y-43451D01*
X74657Y-43518D01*
X74650Y-43525D01*
X74643Y-43555D01*
X74620Y-43592D01*
X74591Y-43659D01*
X74561Y-43733D01*
X74524Y-43829D01*
X74487Y-43940D01*
X74450Y-44066D01*
Y-44073D01*
X74443Y-44095D01*
X74428Y-44140D01*
X74406Y-44191D01*
X74384Y-44251D01*
X74361Y-44325D01*
X74332Y-44406D01*
X74295Y-44495D01*
X74213Y-44680D01*
X74125Y-44865D01*
X74014Y-45042D01*
X73962Y-45124D01*
X73903Y-45198D01*
X73895Y-45205D01*
X73888Y-45213D01*
X73843Y-45257D01*
X73769Y-45316D01*
X73673Y-45383D01*
X73547Y-45449D01*
X73399Y-45509D01*
X73237Y-45553D01*
X73140Y-45560D01*
X73044Y-45568D01*
X73037D01*
X73029D01*
X73007D01*
X72978D01*
X72911Y-45553D01*
X72822Y-45538D01*
X72719Y-45516D01*
X72600Y-45479D01*
X72489Y-45427D01*
X72378Y-45361D01*
X72363Y-45353D01*
X72326Y-45324D01*
X72275Y-45272D01*
X72208Y-45205D01*
X72134Y-45124D01*
X72060Y-45028D01*
X71993Y-44909D01*
X71927Y-44783D01*
Y-44776D01*
X71919Y-44769D01*
X71912Y-44746D01*
X71905Y-44717D01*
X71875Y-44643D01*
X71845Y-44539D01*
X71816Y-44421D01*
X71786Y-44280D01*
X71771Y-44125D01*
X71764Y-43955D01*
Y-43910D01*
X71771Y-43866D01*
Y-43799D01*
X71779Y-43718D01*
X71794Y-43622D01*
X71816Y-43518D01*
X71838Y-43407D01*
X71868Y-43281D01*
X71912Y-43155D01*
X71956Y-43022D01*
X72016Y-42896D01*
X72082Y-42763D01*
X72164Y-42630D01*
X72260Y-42504D01*
X72363Y-42378D01*
X72881Y-42837D01*
X72874Y-42845D01*
X72867Y-42859D01*
X72844Y-42889D01*
X72822Y-42926D01*
X72785Y-42970D01*
X72756Y-43022D01*
X72719Y-43089D01*
X72682Y-43155D01*
X72608Y-43318D01*
X72541Y-43496D01*
X72497Y-43696D01*
X72489Y-43799D01*
X72482Y-43910D01*
Y-43969D01*
X72489Y-44029D01*
X72497Y-44103D01*
X72519Y-44191D01*
X72541Y-44288D01*
X72578Y-44376D01*
X72622Y-44458D01*
X72630Y-44465D01*
X72645Y-44487D01*
X72674Y-44524D01*
X72719Y-44554D01*
X72770Y-44591D01*
X72837Y-44628D01*
X72911Y-44650D01*
X73000Y-44658D01*
X73007D01*
X73022D01*
X73052Y-44650D01*
X73089D01*
X73177Y-44621D01*
X73222Y-44606D01*
X73266Y-44576D01*
X73274Y-44569D01*
X73288Y-44561D01*
X73303Y-44539D01*
X73333Y-44502D01*
X73362Y-44465D01*
X73399Y-44413D01*
X73436Y-44347D01*
X73473Y-44273D01*
X73481Y-44265D01*
X73488Y-44236D01*
X73510Y-44184D01*
X73540Y-44117D01*
X73570Y-44029D01*
X73607Y-43918D01*
X73651Y-43792D01*
X73695Y-43651D01*
Y-43644D01*
X73703Y-43622D01*
X73718Y-43585D01*
X73732Y-43540D01*
X73755Y-43488D01*
X73777Y-43422D01*
X73836Y-43274D01*
X73910Y-43111D01*
X73999Y-42941D01*
X74102Y-42778D01*
X74221Y-42630D01*
Y-42623D01*
X74236Y-42615D01*
X74280Y-42571D01*
X74354Y-42512D01*
X74458Y-42445D01*
X74583Y-42378D01*
X74746Y-42327D01*
X74931Y-42282D01*
X75035Y-42275D01*
X75146Y-42267D01*
X75153D01*
X75168D01*
X75190D01*
X75220D01*
X75301Y-42275D01*
D02*
G37*
G36*
X77390Y45422D02*
X77429D01*
X77512Y45405D01*
X77612Y45389D01*
X77717Y45361D01*
X77828Y45322D01*
X77934Y45267D01*
X77939D01*
X77945Y45261D01*
X77978Y45239D01*
X78028Y45200D01*
X78089Y45156D01*
X78156Y45089D01*
X78228Y45011D01*
X78294Y44923D01*
X78356Y44823D01*
Y44817D01*
X78361Y44811D01*
X78367Y44795D01*
X78378Y44773D01*
X78400Y44712D01*
X78428Y44634D01*
X78456Y44540D01*
X78478Y44423D01*
X78494Y44301D01*
X78500Y44162D01*
Y44134D01*
X78494Y44101D01*
Y44057D01*
X78483Y44001D01*
X78472Y43935D01*
X78461Y43863D01*
X78439Y43785D01*
X78411Y43701D01*
X78383Y43613D01*
X78345Y43524D01*
X78294Y43435D01*
X78239Y43341D01*
X78178Y43252D01*
X78100Y43163D01*
X78017Y43080D01*
X77656Y43457D01*
X77662Y43463D01*
X77667Y43474D01*
X77684Y43491D01*
X77706Y43513D01*
X77728Y43541D01*
X77756Y43574D01*
X77817Y43657D01*
X77878Y43763D01*
X77928Y43879D01*
X77950Y43940D01*
X77961Y44007D01*
X77973Y44073D01*
X77978Y44140D01*
Y44151D01*
X77973Y44190D01*
X77967Y44240D01*
X77956Y44306D01*
X77934Y44379D01*
X77906Y44451D01*
X77862Y44523D01*
X77806Y44589D01*
X77795Y44595D01*
X77773Y44617D01*
X77734Y44645D01*
X77679Y44673D01*
X77606Y44706D01*
X77517Y44728D01*
X77418Y44750D01*
X77301Y44756D01*
X77296D01*
X77284D01*
X77268D01*
X77246D01*
X77190Y44750D01*
X77118Y44739D01*
X77040Y44723D01*
X76963Y44695D01*
X76890Y44662D01*
X76829Y44617D01*
X76824Y44612D01*
X76807Y44595D01*
X76779Y44562D01*
X76752Y44523D01*
X76729Y44467D01*
X76702Y44406D01*
X76685Y44334D01*
X76679Y44251D01*
Y44212D01*
X76685Y44184D01*
X76691Y44118D01*
X76707Y44034D01*
Y44029D01*
X76713Y44018D01*
X76718Y43996D01*
X76729Y43962D01*
X76740Y43929D01*
X76757Y43885D01*
X76796Y43785D01*
Y43319D01*
X74964D01*
Y45311D01*
X75470Y45233D01*
Y43940D01*
X76313D01*
X76308Y43951D01*
X76291Y43973D01*
X76274Y44018D01*
X76247Y44079D01*
X76224Y44151D01*
X76208Y44234D01*
X76191Y44334D01*
X76186Y44445D01*
Y44495D01*
X76191Y44545D01*
X76202Y44617D01*
X76219Y44695D01*
X76247Y44778D01*
X76280Y44867D01*
X76324Y44950D01*
X76330Y44961D01*
X76346Y44989D01*
X76380Y45028D01*
X76424Y45078D01*
X76480Y45133D01*
X76546Y45195D01*
X76624Y45250D01*
X76713Y45300D01*
X76724Y45305D01*
X76757Y45322D01*
X76807Y45339D01*
X76879Y45366D01*
X76968Y45389D01*
X77068Y45405D01*
X77179Y45422D01*
X77301Y45428D01*
X77307D01*
X77318D01*
X77334D01*
X77362D01*
X77390Y45422D01*
D02*
G37*
G36*
X78056Y41803D02*
X78106Y41792D01*
X78167Y41770D01*
X78228Y41748D01*
X78289Y41709D01*
X78350Y41659D01*
X78356Y41654D01*
X78372Y41631D01*
X78400Y41598D01*
X78422Y41559D01*
X78450Y41504D01*
X78478Y41437D01*
X78494Y41365D01*
X78500Y41287D01*
Y41248D01*
X78494Y41210D01*
X78483Y41160D01*
X78461Y41099D01*
X78439Y41037D01*
X78400Y40977D01*
X78350Y40915D01*
X78345Y40910D01*
X78322Y40893D01*
X78289Y40865D01*
X78245Y40843D01*
X78195Y40815D01*
X78128Y40788D01*
X78056Y40771D01*
X77978Y40766D01*
X77967D01*
X77945D01*
X77906Y40771D01*
X77856Y40782D01*
X77795Y40804D01*
X77740Y40827D01*
X77679Y40865D01*
X77617Y40915D01*
X77612Y40921D01*
X77595Y40943D01*
X77567Y40977D01*
X77540Y41021D01*
X77517Y41071D01*
X77490Y41137D01*
X77473Y41210D01*
X77468Y41287D01*
Y41326D01*
X77473Y41365D01*
X77484Y41415D01*
X77506Y41476D01*
X77529Y41537D01*
X77567Y41598D01*
X77617Y41659D01*
X77623Y41665D01*
X77645Y41681D01*
X77679Y41709D01*
X77717Y41737D01*
X77773Y41759D01*
X77834Y41787D01*
X77900Y41803D01*
X77978Y41809D01*
X77989D01*
X78017D01*
X78056Y41803D01*
D02*
G37*
G36*
X78439Y37319D02*
X77917D01*
Y38146D01*
X75625D01*
X76080Y37430D01*
X75636Y37164D01*
X74964Y38235D01*
Y38790D01*
X77917D01*
Y39461D01*
X78439D01*
Y37319D01*
D02*
G37*
G36*
Y35637D02*
Y34933D01*
X75758Y34000D01*
Y34683D01*
X77884Y35293D01*
X75758Y35915D01*
Y36570D01*
X78439Y35637D01*
D02*
G37*
G36*
X-26041Y-73350D02*
X-22727D01*
Y-75590D01*
X-26041D01*
Y-78959D01*
X-28336D01*
Y-75590D01*
X-31649D01*
Y-73350D01*
X-28336D01*
Y-70000D01*
X-26041D01*
Y-73350D01*
D02*
G37*
%LPC*%
G36*
X63000Y45656D02*
Y42391D01*
X52571Y45656D01*
D01*
Y36976D01*
X63000Y40242D01*
Y36976D01*
X52571D01*
X63000D01*
Y45656D01*
D02*
G37*
G36*
Y35960D02*
Y34744D01*
X60668D01*
Y35960D01*
X59102D01*
Y34744D01*
X56403D01*
Y33045D01*
X59102Y32878D01*
Y30679D01*
X52971Y33244D01*
X52354Y31629D01*
X59351Y28646D01*
X52354D01*
Y31629D01*
Y28646D01*
X63000D01*
D01*
X60668D01*
Y32861D01*
X63000D01*
Y35960D01*
D02*
G37*
G36*
Y26480D02*
Y26281D01*
X61401Y26480D01*
D01*
Y21882D01*
X61167Y22182D01*
X60934Y22466D01*
X60718Y22732D01*
X60501Y22982D01*
X60301Y23215D01*
X60101Y23432D01*
X59918Y23615D01*
X59768Y23798D01*
X59618Y23948D01*
X59485Y24081D01*
X59368Y24198D01*
X59268Y24298D01*
X59185Y24365D01*
X59135Y24415D01*
X59102Y24448D01*
X59085Y24465D01*
X58702Y24798D01*
X58335Y25064D01*
X58019Y25298D01*
X57735Y25498D01*
X57502Y25631D01*
X57319Y25731D01*
X57252Y25764D01*
X57202Y25798D01*
X57186Y25814D01*
X57169D01*
X56836Y25964D01*
X56519Y26064D01*
X56219Y26147D01*
X55936Y26197D01*
X55703Y26231D01*
X55536Y26247D01*
X55453D01*
X55403D01*
X55386D01*
X55370D01*
X55070Y26231D01*
X54787Y26181D01*
X54520Y26114D01*
X54303Y26047D01*
X54120Y25981D01*
X53970Y25914D01*
X53887Y25864D01*
X53854Y25847D01*
X53604Y25681D01*
X53404Y25498D01*
X53204Y25298D01*
X53054Y25114D01*
X52937Y24948D01*
X52837Y24814D01*
X52787Y24715D01*
X52771Y24698D01*
Y24681D01*
X52637Y24381D01*
X52538Y24081D01*
X52471Y23782D01*
X52421Y23498D01*
X52388Y23248D01*
X52371Y23049D01*
Y22882D01*
X52388Y22482D01*
X52438Y22116D01*
X52504Y21782D01*
X52571Y21499D01*
X52654Y21266D01*
X52721Y21099D01*
X52754Y21033D01*
X52771Y20983D01*
X52787Y20966D01*
Y20949D01*
X52954Y20650D01*
X53154Y20383D01*
X53370Y20133D01*
X53587Y19917D01*
X53787Y19733D01*
X53937Y19600D01*
X54004Y19550D01*
X54054Y19517D01*
X54070Y19483D01*
X52371D01*
X63000D01*
Y26480D01*
D02*
G37*
%LPD*%
G36*
X61084Y41341D02*
X52571Y39059D01*
Y43657D01*
X61084Y41341D01*
D02*
G37*
G36*
X55736Y24248D02*
X56003Y24198D01*
X56253Y24148D01*
X56469Y24081D01*
X56652Y23998D01*
X56802Y23948D01*
X56886Y23898D01*
X56902Y23882D01*
X56919D01*
X57186Y23715D01*
X57486Y23532D01*
X57769Y23315D01*
X58052Y23099D01*
X58285Y22899D01*
X58485Y22732D01*
X58552Y22665D01*
X58602Y22615D01*
X58635Y22599D01*
X58652Y22582D01*
X58852Y22399D01*
X59068Y22199D01*
X59535Y21732D01*
X60018Y21266D01*
X60484Y20799D01*
X60701Y20566D01*
X60901Y20366D01*
X61084Y20183D01*
X61234Y20016D01*
X61367Y19883D01*
X61467Y19783D01*
X61534Y19717D01*
X61551Y19700D01*
X63000D01*
Y19483D01*
X54087D01*
X55036Y20716D01*
X54820Y20916D01*
X54653Y21099D01*
X54503Y21266D01*
X54387Y21416D01*
X54303Y21532D01*
X54254Y21616D01*
X54220Y21682D01*
X54203Y21699D01*
X54120Y21866D01*
X54070Y22049D01*
X54020Y22232D01*
X54004Y22399D01*
X53987Y22549D01*
X53970Y22665D01*
Y22765D01*
X53987Y23015D01*
X54037Y23232D01*
X54104Y23415D01*
X54170Y23582D01*
X54237Y23698D01*
X54303Y23798D01*
X54353Y23848D01*
X54370Y23865D01*
X54537Y23998D01*
X54703Y24098D01*
X54887Y24165D01*
X55070Y24215D01*
X55220Y24248D01*
X55353Y24265D01*
X55436D01*
X55470D01*
X55736Y24248D01*
D02*
G37*
%LPC*%
G36*
X70911Y37843D02*
X69889D01*
Y37221D01*
X69900Y37088D01*
X69923Y36944D01*
X69945Y36766D01*
X69989Y36599D01*
X70045Y36444D01*
X70122Y36310D01*
X70134Y36299D01*
X70167Y36266D01*
X70211Y36210D01*
X70289Y36155D01*
X70378Y36099D01*
X70489Y36044D01*
X70622Y36010D01*
X70767Y35999D01*
X70778D01*
X70833D01*
X70900Y36010D01*
X70978Y36021D01*
X71067Y36044D01*
X71167Y36077D01*
X71256Y36121D01*
X71333Y36188D01*
X71345Y36199D01*
X71367Y36221D01*
X71389Y36277D01*
X71422Y36332D01*
X71467Y36421D01*
X71489Y36521D01*
X71511Y36644D01*
X71522Y36777D01*
Y36832D01*
X71511Y36888D01*
X71500Y36966D01*
X71478Y37066D01*
X71456Y37166D01*
X71411Y37266D01*
X71356Y37377D01*
X71345Y37388D01*
X71322Y37421D01*
X71289Y37477D01*
X71233Y37543D01*
X71178Y37621D01*
X71100Y37699D01*
X71011Y37777D01*
X70911Y37843D01*
D02*
G37*
G36*
X74805Y-31227D02*
X74694D01*
X74687D01*
X74665D01*
X74635D01*
X74591D01*
X74539Y-31234D01*
X74480D01*
X74339Y-31249D01*
X74191Y-31264D01*
X74043Y-31293D01*
X73903Y-31330D01*
X73836Y-31352D01*
X73784Y-31382D01*
X73769Y-31389D01*
X73740Y-31412D01*
X73695Y-31449D01*
X73644Y-31500D01*
X73599Y-31560D01*
X73555Y-31641D01*
X73525Y-31737D01*
X73510Y-31841D01*
Y-31878D01*
X73518Y-31915D01*
X73525Y-31967D01*
X73540Y-32026D01*
X73562Y-32092D01*
X73592Y-32159D01*
X73636Y-32226D01*
X73644Y-32233D01*
X73658Y-32255D01*
X73688Y-32285D01*
X73725Y-32329D01*
X73769Y-32381D01*
X73821Y-32425D01*
X73888Y-32477D01*
X73954Y-32529D01*
X75538D01*
X75553Y-32522D01*
X75590Y-32485D01*
X75649Y-32440D01*
X75708Y-32366D01*
X75767Y-32285D01*
X75827Y-32174D01*
X75864Y-32055D01*
X75871Y-31989D01*
X75878Y-31915D01*
Y-31900D01*
X75871Y-31856D01*
X75864Y-31796D01*
X75841Y-31722D01*
X75812Y-31641D01*
X75760Y-31552D01*
X75693Y-31478D01*
X75605Y-31404D01*
X75590Y-31397D01*
X75553Y-31375D01*
X75479Y-31345D01*
X75383Y-31315D01*
X75323Y-31301D01*
X75257Y-31286D01*
X75183Y-31271D01*
X75101Y-31256D01*
X75013Y-31241D01*
X74916Y-31234D01*
X74805Y-31227D01*
D02*
G37*
G36*
X74376Y-35193D02*
X74369D01*
X74361D01*
X74339D01*
X74310Y-35200D01*
X74236Y-35208D01*
X74139Y-35223D01*
X74043Y-35245D01*
X73932Y-35282D01*
X73829Y-35334D01*
X73732Y-35393D01*
X73725Y-35400D01*
X73695Y-35422D01*
X73658Y-35467D01*
X73607Y-35526D01*
X73562Y-35593D01*
X73525Y-35681D01*
X73496Y-35785D01*
X73488Y-35903D01*
Y-35955D01*
X73503Y-36014D01*
X73518Y-36088D01*
X73547Y-36170D01*
X73584Y-36259D01*
X73644Y-36347D01*
X73725Y-36429D01*
X73732Y-36436D01*
X73769Y-36458D01*
X73821Y-36495D01*
X73895Y-36532D01*
X73991Y-36577D01*
X74102Y-36614D01*
X74228Y-36643D01*
X74376Y-36666D01*
Y-35193D01*
D02*
G37*
%LPD*%
D28*
X-34646Y-26000D02*
D03*
X-15354D02*
D03*
D30*
X28547Y-21500D02*
D03*
X22454D02*
D03*
D31*
X14000Y-65000D02*
D03*
X-14000D02*
D03*
X14000Y65000D02*
D03*
X-14000D02*
D03*
D32*
X-9250Y-62500D02*
D03*
X9250D02*
D03*
Y62500D02*
D03*
X-9250D02*
D03*
D33*
X26350Y-74250D02*
D03*
X-26350Y74250D02*
D03*
D34*
X66141Y-38033D02*
D03*
D35*
X12000Y43000D02*
D03*
X-12000D02*
D03*
D36*
X-62500Y20689D02*
D03*
Y40374D02*
D03*
Y36437D02*
D03*
Y28563D02*
D03*
Y32500D02*
D03*
Y24626D02*
D03*
Y-30063D02*
D03*
Y-34000D02*
D03*
Y-37937D02*
D03*
Y-11874D02*
D03*
Y-4000D02*
D03*
Y-7937D02*
D03*
Y-63D02*
D03*
Y3874D02*
D03*
D37*
X-77000Y16000D02*
D03*
Y45063D02*
D03*
Y-25500D02*
D03*
Y-42500D02*
D03*
Y8500D02*
D03*
Y-16500D02*
D03*
D38*
X-54000Y19700D02*
D03*
Y15700D02*
D03*
D39*
X-48040Y16295D02*
D03*
X-40560D02*
D03*
X-44300Y26105D02*
D03*
D40*
X6500Y-77000D02*
D03*
X-6500D02*
D03*
X6500Y77000D02*
D03*
X-6500D02*
D03*
D41*
X28500Y-14501D02*
D03*
X17000Y-55500D02*
D03*
D42*
X-14532Y-77000D02*
D03*
X14532D02*
D03*
Y77000D02*
D03*
X-14532D02*
D03*
D43*
X5906Y-62500D02*
D03*
X-1969D02*
D03*
X1969D02*
D03*
X-5906D02*
D03*
X-9843D02*
D03*
X9843D02*
D03*
X-5906Y62500D02*
D03*
X1969D02*
D03*
X-1969D02*
D03*
X5906D02*
D03*
X9843D02*
D03*
X-9843D02*
D03*
D44*
X29000Y-57300D02*
D03*
Y-60700D02*
D03*
D45*
X73000Y-7200D02*
D03*
Y-22800D02*
D03*
Y7200D02*
D03*
Y22800D02*
D03*
D46*
X-27500Y-61500D02*
D03*
X-27500Y-51500D02*
D03*
X-34000Y-61500D02*
D03*
X-34000Y-51500D02*
D03*
X-34000Y-37000D02*
D03*
X-34000Y-47000D02*
D03*
X-27500Y-37000D02*
D03*
X-27500Y-47000D02*
D03*
D47*
X-18000Y-38000D02*
D03*
Y-54000D02*
D03*
D48*
X2234Y-21000D02*
D03*
X-8234D02*
D03*
X16734D02*
D03*
X6266D02*
D03*
D49*
X-98287Y-52776D02*
D03*
X98287D02*
D03*
Y52776D02*
D03*
X-98287D02*
D03*
M02*
