G04*
G04 #@! TF.GenerationSoftware,Altium Limited,Altium Designer,22.0.2 (36)*
G04*
G04 Layer_Color=16711935*
%FSLAX25Y25*%
%MOIN*%
G70*
G04*
G04 #@! TF.SameCoordinates,A7353FC2-99F2-474C-B2A2-24993EA34B63*
G04*
G04*
G04 #@! TF.FilePolarity,Positive*
G04*
G01*
G75*
%ADD10C,0.01000*%
D10*
X69300Y92863D02*
G03*
X92863Y69300I23563J0D01*
G01*
X69300Y101997D02*
G03*
X65748Y111024I-13700J-179D01*
G01*
X-65748D02*
G03*
X-69300Y101997I10148J-9205D01*
G01*
X-92863Y69300D02*
G03*
X-69300Y92863I0J23563D01*
G01*
X-101997Y69300D02*
G03*
X-111024Y65748I179J-13700D01*
G01*
Y-65748D02*
G03*
X-101997Y-69300I9205J10148D01*
G01*
X-69300Y-92863D02*
G03*
X-92863Y-69300I-23563J0D01*
G01*
X-69300Y-101997D02*
G03*
X-65748Y-111024I13700J179D01*
G01*
X65748D02*
G03*
X69300Y-101997I-10148J9205D01*
G01*
X92863Y-69300D02*
G03*
X69300Y-92863I0J-23563D01*
G01*
X101997Y-69300D02*
G03*
X111024Y-65748I-179J13700D01*
G01*
Y65748D02*
G03*
X101997Y69300I-9205J-10148D01*
G01*
X69300Y92863D02*
Y101997D01*
X-65748Y111024D02*
X65748D01*
X-69300Y92863D02*
Y101997D01*
X-101997Y69300D02*
X-92863D01*
X-111024Y-65748D02*
Y65748D01*
X-101997Y-69300D02*
X-92863D01*
X-69300Y-101997D02*
Y-92863D01*
X-65748Y-111024D02*
X65748D01*
X69300Y-101997D02*
Y-92863D01*
X92863Y-69300D02*
X101997D01*
X111024Y-65748D02*
Y65748D01*
X92863Y69300D02*
X101997D01*
M02*
