G04*
G04 #@! TF.GenerationSoftware,Altium Limited,Altium Designer,22.0.2 (36)*
G04*
G04 Layer_Color=32896*
%FSLAX25Y25*%
%MOIN*%
G70*
G04*
G04 #@! TF.SameCoordinates,B24A499B-10B0-4348-9313-877DE5855C24*
G04*
G04*
G04 #@! TF.FilePolarity,Positive*
G04*
G01*
G75*
%ADD12C,0.00100*%
%ADD13C,0.00787*%
%ADD14C,0.00600*%
%ADD84C,0.00984*%
G36*
X950Y46350D02*
X600Y46350D01*
Y47650D01*
X950Y47650D01*
Y46350D01*
D02*
G37*
G36*
X-600D02*
X-950D01*
Y47650D01*
X-600D01*
Y46350D01*
D02*
G37*
G36*
X950Y39350D02*
X600Y39350D01*
Y40650D01*
X950Y40650D01*
Y39350D01*
D02*
G37*
G36*
X-600D02*
X-950D01*
Y40650D01*
X-600D01*
Y39350D01*
D02*
G37*
G36*
X18650Y27600D02*
X17350D01*
X17350Y27950D01*
X18650D01*
X18650Y27600D01*
D02*
G37*
G36*
X4650D02*
X3350D01*
X3350Y27950D01*
X4650D01*
X4650Y27600D01*
D02*
G37*
G36*
X-10350D02*
X-11650D01*
X-11650Y27950D01*
X-10350D01*
X-10350Y27600D01*
D02*
G37*
G36*
X-24350D02*
X-25650D01*
X-25650Y27950D01*
X-24350D01*
X-24350Y27600D01*
D02*
G37*
G36*
X25650Y26100D02*
X25300D01*
Y27900D01*
X25650D01*
Y26100D01*
D02*
G37*
G36*
X24700D02*
X24350D01*
Y27900D01*
X24700D01*
Y26100D01*
D02*
G37*
G36*
X11650D02*
X11300D01*
Y27900D01*
X11650D01*
Y26100D01*
D02*
G37*
G36*
X10700D02*
X10350D01*
Y27900D01*
X10700D01*
Y26100D01*
D02*
G37*
G36*
X-3350D02*
X-3700D01*
Y27900D01*
X-3350D01*
Y26100D01*
D02*
G37*
G36*
X-4300D02*
X-4650D01*
Y27900D01*
X-4300D01*
Y26100D01*
D02*
G37*
G36*
X-17350D02*
X-17700D01*
Y27900D01*
X-17350D01*
Y26100D01*
D02*
G37*
G36*
X-18300D02*
X-18650D01*
Y27900D01*
X-18300D01*
Y26100D01*
D02*
G37*
G36*
X18650Y26050D02*
X17350D01*
Y26400D01*
X18650D01*
Y26050D01*
D02*
G37*
G36*
X4650D02*
X3350D01*
Y26400D01*
X4650D01*
Y26050D01*
D02*
G37*
G36*
X-10350D02*
X-11650D01*
Y26400D01*
X-10350D01*
Y26050D01*
D02*
G37*
G36*
X-24350D02*
X-25650D01*
Y26400D01*
X-24350D01*
Y26050D01*
D02*
G37*
G36*
X-66850Y-3400D02*
X-67200D01*
Y-1600D01*
X-66850D01*
Y-3400D01*
D02*
G37*
G36*
X-67800D02*
X-68150D01*
Y-1600D01*
X-67800D01*
Y-3400D01*
D02*
G37*
G36*
X-66850Y-13900D02*
X-67200D01*
Y-12100D01*
X-66850D01*
Y-13900D01*
D02*
G37*
G36*
X-67800D02*
X-68150D01*
Y-12100D01*
X-67800D01*
Y-13900D01*
D02*
G37*
G36*
X15150Y-17900D02*
X13850D01*
Y-17550D01*
X15150D01*
Y-17900D01*
D02*
G37*
G36*
X650Y-18400D02*
X300D01*
Y-16600D01*
X650D01*
Y-18400D01*
D02*
G37*
G36*
X-300D02*
X-650D01*
Y-16600D01*
X-300D01*
Y-18400D01*
D02*
G37*
G36*
X22650Y-19400D02*
X22300D01*
Y-17600D01*
X22650D01*
Y-19400D01*
D02*
G37*
G36*
X21700D02*
X21350D01*
Y-17600D01*
X21700D01*
Y-19400D01*
D02*
G37*
G36*
X15150Y-19450D02*
X13850D01*
X13850Y-19100D01*
X15150D01*
X15150Y-19450D01*
D02*
G37*
G36*
X9900Y-19700D02*
X8100D01*
Y-19350D01*
X9900D01*
Y-19700D01*
D02*
G37*
G36*
X6400D02*
X4600D01*
Y-19350D01*
X6400D01*
Y-19700D01*
D02*
G37*
G36*
X9900Y-20650D02*
X8100D01*
Y-20300D01*
X9900D01*
Y-20650D01*
D02*
G37*
G36*
X6400D02*
X4600D01*
Y-20300D01*
X6400D01*
Y-20650D01*
D02*
G37*
G36*
X650Y-21900D02*
X300D01*
Y-20100D01*
X650D01*
Y-21900D01*
D02*
G37*
G36*
X-300D02*
X-650D01*
Y-20100D01*
X-300D01*
Y-21900D01*
D02*
G37*
G36*
X-6850D02*
X-7200D01*
Y-20100D01*
X-6850D01*
Y-21900D01*
D02*
G37*
G36*
X-7800D02*
X-8150D01*
Y-20100D01*
X-7800D01*
Y-21900D01*
D02*
G37*
G36*
X-14350D02*
X-14700D01*
Y-20100D01*
X-14350D01*
Y-21900D01*
D02*
G37*
G36*
X-15300D02*
X-15650D01*
Y-20100D01*
X-15300D01*
Y-21900D01*
D02*
G37*
G36*
X24900Y-23700D02*
X23100D01*
Y-23350D01*
X24900D01*
Y-23700D01*
D02*
G37*
G36*
X-14350Y-23900D02*
X-15650D01*
X-15650Y-23550D01*
X-14350D01*
X-14350Y-23900D01*
D02*
G37*
G36*
X24900Y-24650D02*
X23100D01*
Y-24300D01*
X24900D01*
Y-24650D01*
D02*
G37*
G36*
X-14350Y-25450D02*
X-15650D01*
Y-25100D01*
X-14350D01*
Y-25450D01*
D02*
G37*
G36*
Y-27400D02*
X-15650D01*
Y-27050D01*
X-14350D01*
Y-27400D01*
D02*
G37*
G36*
X9900Y-27700D02*
X8100D01*
Y-27350D01*
X9900D01*
Y-27700D01*
D02*
G37*
G36*
X6400D02*
X4600D01*
Y-27350D01*
X6400D01*
Y-27700D01*
D02*
G37*
G36*
X9900Y-28650D02*
X8100D01*
Y-28300D01*
X9900D01*
Y-28650D01*
D02*
G37*
G36*
X6400D02*
X4600D01*
Y-28300D01*
X6400D01*
Y-28650D01*
D02*
G37*
G36*
X-14350Y-28950D02*
X-15650D01*
X-15650Y-28600D01*
X-14350D01*
X-14350Y-28950D01*
D02*
G37*
G36*
X-66850Y-30900D02*
X-68150D01*
Y-30550D01*
X-66850D01*
Y-30900D01*
D02*
G37*
G36*
X-50000Y-31500D02*
X-55000D01*
Y-26500D01*
X-50000Y-31500D01*
D02*
G37*
G36*
X24900Y-32200D02*
X23100D01*
Y-31850D01*
X24900D01*
Y-32200D01*
D02*
G37*
G36*
X-66850Y-32450D02*
X-68150D01*
X-68150Y-32100D01*
X-66850D01*
X-66850Y-32450D01*
D02*
G37*
G36*
X24900Y-33150D02*
X23100D01*
Y-32800D01*
X24900D01*
Y-33150D01*
D02*
G37*
G36*
X6400Y-35700D02*
X4600D01*
Y-35350D01*
X6400D01*
Y-35700D01*
D02*
G37*
G36*
X-66850Y-35900D02*
X-67200D01*
Y-34100D01*
X-66850D01*
Y-35900D01*
D02*
G37*
G36*
X-67800D02*
X-68150D01*
Y-34100D01*
X-67800D01*
Y-35900D01*
D02*
G37*
G36*
X-24600Y-36200D02*
X-26400D01*
Y-35850D01*
X-24600D01*
Y-36200D01*
D02*
G37*
G36*
X-61100D02*
X-62900D01*
Y-35850D01*
X-61100D01*
Y-36200D01*
D02*
G37*
G36*
X9950Y-36650D02*
X9600D01*
Y-35350D01*
X9950D01*
Y-36650D01*
D02*
G37*
G36*
X8400Y-35350D02*
Y-36650D01*
X8050Y-36650D01*
Y-35350D01*
X8400Y-35350D01*
D02*
G37*
G36*
X6400Y-36650D02*
X4600D01*
Y-36300D01*
X6400D01*
Y-36650D01*
D02*
G37*
G36*
X-24600Y-37150D02*
X-26400D01*
Y-36800D01*
X-24600D01*
Y-37150D01*
D02*
G37*
G36*
X-61100D02*
X-62900D01*
Y-36800D01*
X-61100D01*
Y-37150D01*
D02*
G37*
G36*
X15150Y-37400D02*
X13850D01*
Y-37050D01*
X15150D01*
Y-37400D01*
D02*
G37*
G36*
X-66850Y-37900D02*
X-68150D01*
Y-37550D01*
X-66850D01*
Y-37900D01*
D02*
G37*
G36*
X22650Y-38900D02*
X22300D01*
Y-37100D01*
X22650D01*
Y-38900D01*
D02*
G37*
G36*
X21700D02*
X21350D01*
Y-37100D01*
X21700D01*
Y-38900D01*
D02*
G37*
G36*
X15150Y-38950D02*
X13850D01*
X13850Y-38600D01*
X15150D01*
X15150Y-38950D01*
D02*
G37*
G36*
X-66850Y-39450D02*
X-68150D01*
X-68150Y-39100D01*
X-66850D01*
X-66850Y-39450D01*
D02*
G37*
G36*
X22650Y-55900D02*
X21350D01*
X21350Y-55550D01*
X22650D01*
X22650Y-55900D01*
D02*
G37*
G36*
X22650Y-57450D02*
X21350D01*
Y-57100D01*
X22650D01*
Y-57450D01*
D02*
G37*
G36*
X-32000Y23000D02*
X-40586D01*
Y58500D01*
X-32000D01*
Y23000D01*
D02*
G37*
G36*
X41673Y68923D02*
X38854D01*
Y69655D01*
X41673D01*
Y68923D01*
D02*
G37*
G36*
X46239Y67184D02*
X45351D01*
X45033Y68264D01*
X43530D01*
X43212Y67184D01*
X42295D01*
X43745Y71816D01*
X44788D01*
X46239Y67184D01*
D02*
G37*
G36*
X-17859Y-37368D02*
X-18194D01*
Y-36601D01*
X-18695D01*
Y-37368D01*
X-19030D01*
Y-35634D01*
X-18695D01*
Y-36321D01*
X-18194D01*
Y-35634D01*
X-17859D01*
Y-37368D01*
D02*
G37*
G36*
X-19775Y-36709D02*
Y-37368D01*
X-20111D01*
Y-36706D01*
X-20676Y-35634D01*
X-20335D01*
X-19947Y-36432D01*
X-19565Y-35634D01*
X-19210D01*
X-19775Y-36709D01*
D02*
G37*
G36*
X-14920Y-36717D02*
X-15975D01*
Y-36443D01*
X-14920D01*
Y-36717D01*
D02*
G37*
G36*
X-13363Y-37368D02*
X-13665D01*
Y-36579D01*
X-13662Y-36474D01*
X-13659Y-36366D01*
X-13654Y-36258D01*
X-13648Y-36205D01*
X-13645Y-36155D01*
X-13643Y-36111D01*
X-13637Y-36066D01*
X-13634Y-36031D01*
X-13632Y-35997D01*
X-13629Y-35969D01*
Y-35950D01*
X-13626Y-35939D01*
Y-35934D01*
X-14122Y-37368D01*
X-14535D01*
Y-35634D01*
X-14233D01*
Y-36424D01*
Y-36496D01*
X-14235Y-36562D01*
Y-36621D01*
X-14238Y-36673D01*
X-14241Y-36715D01*
Y-36731D01*
Y-36745D01*
X-14244Y-36759D01*
Y-36767D01*
Y-36770D01*
Y-36773D01*
X-14249Y-36828D01*
X-14252Y-36881D01*
X-14258Y-36931D01*
X-14263Y-36975D01*
X-14266Y-37014D01*
X-14269Y-37044D01*
Y-37055D01*
X-14272Y-37064D01*
Y-37067D01*
Y-37069D01*
X-13776Y-35634D01*
X-13363D01*
Y-37368D01*
D02*
G37*
G36*
X-11017Y-35607D02*
X-10942Y-35618D01*
X-10875Y-35634D01*
X-10817Y-35654D01*
X-10792Y-35665D01*
X-10768Y-35676D01*
X-10748Y-35684D01*
X-10731Y-35693D01*
X-10718Y-35698D01*
X-10709Y-35704D01*
X-10704Y-35709D01*
X-10701D01*
X-10637Y-35754D01*
X-10582Y-35801D01*
X-10535Y-35853D01*
X-10496Y-35903D01*
X-10463Y-35947D01*
X-10452Y-35967D01*
X-10441Y-35983D01*
X-10432Y-35997D01*
X-10427Y-36008D01*
X-10421Y-36014D01*
Y-36017D01*
X-10388Y-36094D01*
X-10363Y-36177D01*
X-10344Y-36258D01*
X-10333Y-36332D01*
X-10327Y-36368D01*
X-10324Y-36399D01*
X-10322Y-36427D01*
Y-36452D01*
X-10319Y-36471D01*
Y-36485D01*
Y-36496D01*
Y-36499D01*
X-10324Y-36601D01*
X-10335Y-36695D01*
X-10341Y-36740D01*
X-10349Y-36778D01*
X-10360Y-36817D01*
X-10369Y-36850D01*
X-10377Y-36881D01*
X-10388Y-36909D01*
X-10396Y-36933D01*
X-10402Y-36953D01*
X-10410Y-36967D01*
X-10413Y-36981D01*
X-10418Y-36986D01*
Y-36989D01*
X-10460Y-37061D01*
X-10504Y-37122D01*
X-10549Y-37174D01*
X-10596Y-37219D01*
X-10634Y-37252D01*
X-10665Y-37277D01*
X-10679Y-37285D01*
X-10687Y-37291D01*
X-10693Y-37296D01*
X-10695D01*
X-10765Y-37330D01*
X-10834Y-37354D01*
X-10900Y-37374D01*
X-10964Y-37385D01*
X-10992Y-37391D01*
X-11017Y-37393D01*
X-11039Y-37396D01*
X-11058D01*
X-11075Y-37399D01*
X-11097D01*
X-11158Y-37396D01*
X-11216Y-37391D01*
X-11272Y-37380D01*
X-11324Y-37366D01*
X-11374Y-37349D01*
X-11418Y-37330D01*
X-11463Y-37310D01*
X-11499Y-37288D01*
X-11535Y-37269D01*
X-11565Y-37249D01*
X-11590Y-37230D01*
X-11612Y-37213D01*
X-11629Y-37199D01*
X-11640Y-37188D01*
X-11648Y-37183D01*
X-11651Y-37180D01*
X-11493Y-36978D01*
X-11457Y-37003D01*
X-11421Y-37028D01*
X-11391Y-37044D01*
X-11363Y-37061D01*
X-11338Y-37072D01*
X-11321Y-37083D01*
X-11310Y-37086D01*
X-11308Y-37089D01*
X-11274Y-37100D01*
X-11241Y-37108D01*
X-11208Y-37116D01*
X-11177Y-37119D01*
X-11150Y-37122D01*
X-11128Y-37125D01*
X-11108D01*
X-11072Y-37122D01*
X-11036Y-37119D01*
X-10975Y-37102D01*
X-10920Y-37078D01*
X-10873Y-37050D01*
X-10837Y-37022D01*
X-10809Y-36997D01*
X-10792Y-36981D01*
X-10790Y-36978D01*
X-10787Y-36975D01*
X-10765Y-36945D01*
X-10748Y-36911D01*
X-10718Y-36836D01*
X-10695Y-36759D01*
X-10682Y-36681D01*
X-10676Y-36643D01*
X-10671Y-36609D01*
X-10668Y-36579D01*
Y-36551D01*
X-10665Y-36529D01*
Y-36513D01*
Y-36501D01*
Y-36499D01*
X-10668Y-36438D01*
X-10671Y-36382D01*
X-10676Y-36332D01*
X-10684Y-36285D01*
X-10693Y-36241D01*
X-10704Y-36202D01*
X-10715Y-36166D01*
X-10726Y-36136D01*
X-10737Y-36108D01*
X-10748Y-36083D01*
X-10759Y-36064D01*
X-10768Y-36047D01*
X-10776Y-36036D01*
X-10781Y-36028D01*
X-10787Y-36022D01*
Y-36019D01*
X-10812Y-35992D01*
X-10837Y-35969D01*
X-10862Y-35950D01*
X-10889Y-35934D01*
X-10942Y-35906D01*
X-10992Y-35889D01*
X-11039Y-35878D01*
X-11056Y-35875D01*
X-11072Y-35873D01*
X-11086Y-35870D01*
X-11139D01*
X-11175Y-35875D01*
X-11238Y-35889D01*
X-11299Y-35909D01*
X-11352Y-35931D01*
X-11396Y-35956D01*
X-11413Y-35967D01*
X-11429Y-35975D01*
X-11441Y-35983D01*
X-11449Y-35989D01*
X-11454Y-35992D01*
X-11457Y-35994D01*
X-11626Y-35792D01*
X-11582Y-35756D01*
X-11537Y-35726D01*
X-11499Y-35698D01*
X-11460Y-35679D01*
X-11429Y-35665D01*
X-11407Y-35654D01*
X-11391Y-35648D01*
X-11388Y-35645D01*
X-11385D01*
X-11338Y-35632D01*
X-11288Y-35620D01*
X-11238Y-35612D01*
X-11194Y-35607D01*
X-11155Y-35604D01*
X-11122Y-35601D01*
X-11094D01*
X-11017Y-35607D01*
D02*
G37*
G36*
X-11712Y-37368D02*
X-12044D01*
X-12163Y-36964D01*
X-12726D01*
X-12845Y-37368D01*
X-13188D01*
X-12645Y-35634D01*
X-12255D01*
X-11712Y-37368D01*
D02*
G37*
G36*
X-16421D02*
X-16753D01*
Y-36767D01*
X-16933D01*
X-16992Y-36764D01*
X-17044Y-36762D01*
X-17097Y-36753D01*
X-17144Y-36745D01*
X-17188Y-36734D01*
X-17230Y-36723D01*
X-17266Y-36709D01*
X-17299Y-36695D01*
X-17330Y-36684D01*
X-17357Y-36670D01*
X-17379Y-36659D01*
X-17399Y-36648D01*
X-17413Y-36640D01*
X-17424Y-36632D01*
X-17429Y-36629D01*
X-17432Y-36626D01*
X-17465Y-36598D01*
X-17493Y-36568D01*
X-17518Y-36532D01*
X-17540Y-36499D01*
X-17557Y-36463D01*
X-17573Y-36427D01*
X-17595Y-36355D01*
X-17601Y-36321D01*
X-17607Y-36291D01*
X-17612Y-36260D01*
X-17615Y-36235D01*
X-17618Y-36216D01*
Y-36202D01*
Y-36191D01*
Y-36188D01*
X-17615Y-36138D01*
X-17609Y-36091D01*
X-17601Y-36047D01*
X-17590Y-36008D01*
X-17573Y-35972D01*
X-17560Y-35936D01*
X-17543Y-35906D01*
X-17526Y-35878D01*
X-17507Y-35856D01*
X-17490Y-35834D01*
X-17476Y-35817D01*
X-17462Y-35801D01*
X-17449Y-35789D01*
X-17440Y-35781D01*
X-17435Y-35778D01*
X-17432Y-35776D01*
X-17396Y-35751D01*
X-17357Y-35729D01*
X-17316Y-35709D01*
X-17274Y-35693D01*
X-17188Y-35668D01*
X-17105Y-35651D01*
X-17066Y-35645D01*
X-17030Y-35643D01*
X-16997Y-35640D01*
X-16970Y-35637D01*
X-16947Y-35634D01*
X-16421D01*
Y-37368D01*
D02*
G37*
G36*
X19000Y-71500D02*
X-19000D01*
Y-64500D01*
X19000D01*
Y-71500D01*
D02*
G37*
G36*
X-26087Y2500D02*
X-68913D01*
Y9500D01*
X-26087D01*
Y2500D01*
D02*
G37*
G36*
X37375Y63700D02*
X24625D01*
Y75200D01*
X37375D01*
Y63700D01*
D02*
G37*
G36*
X-16051Y-73157D02*
X-16010Y-73164D01*
X-15977Y-73175D01*
X-15951Y-73190D01*
X-15925Y-73205D01*
X-15910Y-73216D01*
X-15899Y-73223D01*
X-15895Y-73227D01*
X-15869Y-73257D01*
X-15851Y-73286D01*
X-15840Y-73320D01*
X-15832Y-73346D01*
X-15825Y-73371D01*
X-15821Y-73394D01*
Y-73408D01*
Y-73412D01*
X-15825Y-73453D01*
X-15832Y-73490D01*
X-15843Y-73523D01*
X-15858Y-73549D01*
X-15873Y-73571D01*
X-15884Y-73586D01*
X-15891Y-73597D01*
X-15895Y-73601D01*
X-15925Y-73627D01*
X-15958Y-73645D01*
X-15991Y-73656D01*
X-16021Y-73664D01*
X-16051Y-73671D01*
X-16073Y-73675D01*
X-16091D01*
X-16132Y-73671D01*
X-16173Y-73664D01*
X-16206Y-73653D01*
X-16236Y-73638D01*
X-16258Y-73623D01*
X-16273Y-73612D01*
X-16284Y-73605D01*
X-16287Y-73601D01*
X-16313Y-73571D01*
X-16332Y-73538D01*
X-16347Y-73508D01*
X-16354Y-73479D01*
X-16361Y-73453D01*
X-16365Y-73431D01*
Y-73416D01*
Y-73412D01*
X-16361Y-73375D01*
X-16354Y-73338D01*
X-16339Y-73308D01*
X-16328Y-73283D01*
X-16313Y-73260D01*
X-16298Y-73246D01*
X-16291Y-73234D01*
X-16287Y-73231D01*
X-16258Y-73205D01*
X-16225Y-73186D01*
X-16191Y-73172D01*
X-16162Y-73164D01*
X-16136Y-73157D01*
X-16114Y-73153D01*
X-16091D01*
X-16051Y-73157D01*
D02*
G37*
G36*
X2705Y-75784D02*
X2257D01*
Y-74759D01*
X1587D01*
Y-75784D01*
X1140D01*
Y-73468D01*
X1587D01*
Y-74385D01*
X2257D01*
Y-73468D01*
X2705D01*
Y-75784D01*
D02*
G37*
G36*
X-13853Y-75784D02*
X-14330D01*
X-15055Y-73468D01*
X-14611D01*
X-14097Y-75358D01*
X-13590Y-73468D01*
X-13128D01*
X-13853Y-75784D01*
D02*
G37*
G36*
X6708Y-75784D02*
X6305D01*
Y-74729D01*
X6308Y-74589D01*
X6312Y-74444D01*
X6320Y-74300D01*
X6327Y-74230D01*
X6331Y-74163D01*
X6334Y-74104D01*
X6342Y-74045D01*
X6346Y-73997D01*
X6349Y-73952D01*
X6353Y-73915D01*
Y-73889D01*
X6357Y-73875D01*
Y-73867D01*
X5694Y-75784D01*
X5143D01*
Y-73468D01*
X5546D01*
Y-74522D01*
Y-74618D01*
X5543Y-74707D01*
Y-74785D01*
X5539Y-74855D01*
X5535Y-74911D01*
Y-74933D01*
Y-74951D01*
X5531Y-74970D01*
Y-74981D01*
Y-74985D01*
Y-74988D01*
X5524Y-75062D01*
X5520Y-75133D01*
X5513Y-75199D01*
X5506Y-75258D01*
X5502Y-75310D01*
X5498Y-75351D01*
Y-75366D01*
X5494Y-75377D01*
Y-75380D01*
Y-75384D01*
X6157Y-73468D01*
X6708D01*
Y-75784D01*
D02*
G37*
G36*
X-5302D02*
X-5705D01*
Y-74729D01*
X-5702Y-74589D01*
X-5698Y-74444D01*
X-5691Y-74300D01*
X-5683Y-74230D01*
X-5680Y-74163D01*
X-5676Y-74104D01*
X-5668Y-74045D01*
X-5665Y-73997D01*
X-5661Y-73952D01*
X-5657Y-73915D01*
Y-73889D01*
X-5654Y-73875D01*
Y-73867D01*
X-6316Y-75784D01*
X-6867D01*
Y-73468D01*
X-6464D01*
Y-74522D01*
Y-74618D01*
X-6468Y-74707D01*
Y-74785D01*
X-6471Y-74855D01*
X-6475Y-74911D01*
Y-74933D01*
Y-74951D01*
X-6479Y-74970D01*
Y-74981D01*
Y-74985D01*
Y-74988D01*
X-6486Y-75062D01*
X-6490Y-75133D01*
X-6497Y-75199D01*
X-6505Y-75258D01*
X-6508Y-75310D01*
X-6512Y-75351D01*
Y-75366D01*
X-6516Y-75377D01*
Y-75380D01*
Y-75384D01*
X-5853Y-73468D01*
X-5302D01*
Y-75784D01*
D02*
G37*
G36*
X9842Y-73431D02*
X9942Y-73445D01*
X10031Y-73468D01*
X10108Y-73493D01*
X10142Y-73508D01*
X10175Y-73523D01*
X10201Y-73534D01*
X10223Y-73545D01*
X10242Y-73553D01*
X10253Y-73560D01*
X10260Y-73567D01*
X10264D01*
X10349Y-73627D01*
X10423Y-73690D01*
X10486Y-73760D01*
X10538Y-73826D01*
X10582Y-73886D01*
X10597Y-73912D01*
X10612Y-73934D01*
X10623Y-73952D01*
X10630Y-73967D01*
X10638Y-73975D01*
Y-73978D01*
X10682Y-74082D01*
X10715Y-74193D01*
X10741Y-74300D01*
X10756Y-74400D01*
X10763Y-74448D01*
X10767Y-74489D01*
X10771Y-74526D01*
Y-74559D01*
X10774Y-74585D01*
Y-74603D01*
Y-74618D01*
Y-74622D01*
X10767Y-74759D01*
X10752Y-74885D01*
X10745Y-74944D01*
X10734Y-74996D01*
X10719Y-75047D01*
X10708Y-75092D01*
X10697Y-75133D01*
X10682Y-75170D01*
X10671Y-75203D01*
X10663Y-75229D01*
X10652Y-75247D01*
X10649Y-75266D01*
X10641Y-75273D01*
Y-75277D01*
X10586Y-75373D01*
X10526Y-75454D01*
X10467Y-75525D01*
X10404Y-75584D01*
X10353Y-75628D01*
X10312Y-75662D01*
X10293Y-75673D01*
X10282Y-75680D01*
X10275Y-75688D01*
X10271D01*
X10179Y-75732D01*
X10086Y-75765D01*
X9997Y-75791D01*
X9912Y-75806D01*
X9875Y-75813D01*
X9842Y-75817D01*
X9812Y-75821D01*
X9787D01*
X9764Y-75824D01*
X9735D01*
X9653Y-75821D01*
X9576Y-75813D01*
X9502Y-75799D01*
X9431Y-75780D01*
X9365Y-75758D01*
X9306Y-75732D01*
X9246Y-75706D01*
X9198Y-75677D01*
X9150Y-75651D01*
X9109Y-75625D01*
X9076Y-75599D01*
X9047Y-75577D01*
X9024Y-75558D01*
X9009Y-75543D01*
X8998Y-75536D01*
X8995Y-75532D01*
X9206Y-75262D01*
X9254Y-75295D01*
X9302Y-75329D01*
X9342Y-75351D01*
X9380Y-75373D01*
X9413Y-75388D01*
X9435Y-75403D01*
X9450Y-75406D01*
X9454Y-75410D01*
X9498Y-75425D01*
X9542Y-75436D01*
X9587Y-75447D01*
X9627Y-75451D01*
X9664Y-75454D01*
X9694Y-75458D01*
X9720D01*
X9768Y-75454D01*
X9816Y-75451D01*
X9898Y-75429D01*
X9972Y-75395D01*
X10034Y-75358D01*
X10082Y-75321D01*
X10120Y-75288D01*
X10142Y-75266D01*
X10145Y-75262D01*
X10149Y-75258D01*
X10179Y-75218D01*
X10201Y-75173D01*
X10242Y-75073D01*
X10271Y-74970D01*
X10290Y-74866D01*
X10297Y-74814D01*
X10305Y-74770D01*
X10308Y-74729D01*
Y-74692D01*
X10312Y-74663D01*
Y-74641D01*
Y-74626D01*
Y-74622D01*
X10308Y-74541D01*
X10305Y-74467D01*
X10297Y-74400D01*
X10286Y-74337D01*
X10275Y-74278D01*
X10260Y-74226D01*
X10245Y-74178D01*
X10231Y-74137D01*
X10216Y-74100D01*
X10201Y-74067D01*
X10186Y-74041D01*
X10175Y-74019D01*
X10164Y-74004D01*
X10157Y-73993D01*
X10149Y-73986D01*
Y-73982D01*
X10116Y-73945D01*
X10082Y-73915D01*
X10049Y-73889D01*
X10012Y-73867D01*
X9942Y-73830D01*
X9875Y-73808D01*
X9812Y-73793D01*
X9790Y-73790D01*
X9768Y-73786D01*
X9749Y-73782D01*
X9679D01*
X9631Y-73790D01*
X9546Y-73808D01*
X9465Y-73834D01*
X9394Y-73864D01*
X9335Y-73897D01*
X9313Y-73912D01*
X9291Y-73923D01*
X9276Y-73934D01*
X9265Y-73941D01*
X9257Y-73945D01*
X9254Y-73949D01*
X9028Y-73678D01*
X9087Y-73630D01*
X9146Y-73590D01*
X9198Y-73553D01*
X9250Y-73527D01*
X9291Y-73508D01*
X9320Y-73493D01*
X9342Y-73486D01*
X9346Y-73482D01*
X9350D01*
X9413Y-73464D01*
X9479Y-73449D01*
X9546Y-73438D01*
X9605Y-73431D01*
X9657Y-73427D01*
X9701Y-73423D01*
X9738D01*
X9842Y-73431D01*
D02*
G37*
G36*
X-2168D02*
X-2068Y-73445D01*
X-1980Y-73468D01*
X-1902Y-73493D01*
X-1869Y-73508D01*
X-1835Y-73523D01*
X-1809Y-73534D01*
X-1787Y-73545D01*
X-1769Y-73553D01*
X-1757Y-73560D01*
X-1750Y-73567D01*
X-1746D01*
X-1661Y-73627D01*
X-1587Y-73690D01*
X-1524Y-73760D01*
X-1473Y-73826D01*
X-1428Y-73886D01*
X-1413Y-73912D01*
X-1399Y-73934D01*
X-1388Y-73952D01*
X-1380Y-73967D01*
X-1373Y-73975D01*
Y-73978D01*
X-1328Y-74082D01*
X-1295Y-74193D01*
X-1269Y-74300D01*
X-1254Y-74400D01*
X-1247Y-74448D01*
X-1243Y-74489D01*
X-1240Y-74526D01*
Y-74559D01*
X-1236Y-74585D01*
Y-74603D01*
Y-74618D01*
Y-74622D01*
X-1243Y-74759D01*
X-1258Y-74885D01*
X-1265Y-74944D01*
X-1276Y-74996D01*
X-1291Y-75047D01*
X-1302Y-75092D01*
X-1314Y-75133D01*
X-1328Y-75170D01*
X-1339Y-75203D01*
X-1347Y-75229D01*
X-1358Y-75247D01*
X-1362Y-75266D01*
X-1369Y-75273D01*
Y-75277D01*
X-1424Y-75373D01*
X-1484Y-75454D01*
X-1543Y-75525D01*
X-1606Y-75584D01*
X-1658Y-75628D01*
X-1698Y-75662D01*
X-1717Y-75673D01*
X-1728Y-75680D01*
X-1735Y-75688D01*
X-1739D01*
X-1832Y-75732D01*
X-1924Y-75765D01*
X-2013Y-75791D01*
X-2098Y-75806D01*
X-2135Y-75813D01*
X-2168Y-75817D01*
X-2198Y-75821D01*
X-2224D01*
X-2246Y-75824D01*
X-2276D01*
X-2357Y-75821D01*
X-2435Y-75813D01*
X-2509Y-75799D01*
X-2579Y-75780D01*
X-2646Y-75758D01*
X-2705Y-75732D01*
X-2764Y-75706D01*
X-2812Y-75677D01*
X-2860Y-75651D01*
X-2901Y-75625D01*
X-2934Y-75599D01*
X-2964Y-75577D01*
X-2986Y-75558D01*
X-3001Y-75543D01*
X-3012Y-75536D01*
X-3015Y-75532D01*
X-2805Y-75262D01*
X-2757Y-75295D01*
X-2708Y-75329D01*
X-2668Y-75351D01*
X-2631Y-75373D01*
X-2597Y-75388D01*
X-2575Y-75403D01*
X-2560Y-75406D01*
X-2557Y-75410D01*
X-2512Y-75425D01*
X-2468Y-75436D01*
X-2424Y-75447D01*
X-2383Y-75451D01*
X-2346Y-75454D01*
X-2316Y-75458D01*
X-2290D01*
X-2242Y-75454D01*
X-2194Y-75451D01*
X-2113Y-75429D01*
X-2039Y-75395D01*
X-1976Y-75358D01*
X-1928Y-75321D01*
X-1891Y-75288D01*
X-1869Y-75266D01*
X-1865Y-75262D01*
X-1861Y-75258D01*
X-1832Y-75218D01*
X-1809Y-75173D01*
X-1769Y-75073D01*
X-1739Y-74970D01*
X-1720Y-74866D01*
X-1713Y-74814D01*
X-1706Y-74770D01*
X-1702Y-74729D01*
Y-74692D01*
X-1698Y-74663D01*
Y-74641D01*
Y-74626D01*
Y-74622D01*
X-1702Y-74541D01*
X-1706Y-74467D01*
X-1713Y-74400D01*
X-1724Y-74337D01*
X-1735Y-74278D01*
X-1750Y-74226D01*
X-1765Y-74178D01*
X-1780Y-74137D01*
X-1795Y-74100D01*
X-1809Y-74067D01*
X-1824Y-74041D01*
X-1835Y-74019D01*
X-1846Y-74004D01*
X-1854Y-73993D01*
X-1861Y-73986D01*
Y-73982D01*
X-1894Y-73945D01*
X-1928Y-73915D01*
X-1961Y-73889D01*
X-1998Y-73867D01*
X-2068Y-73830D01*
X-2135Y-73808D01*
X-2198Y-73793D01*
X-2220Y-73790D01*
X-2242Y-73786D01*
X-2261Y-73782D01*
X-2331D01*
X-2379Y-73790D01*
X-2464Y-73808D01*
X-2546Y-73834D01*
X-2616Y-73864D01*
X-2675Y-73897D01*
X-2697Y-73912D01*
X-2719Y-73923D01*
X-2734Y-73934D01*
X-2745Y-73941D01*
X-2753Y-73945D01*
X-2757Y-73949D01*
X-2982Y-73678D01*
X-2923Y-73630D01*
X-2864Y-73590D01*
X-2812Y-73553D01*
X-2760Y-73527D01*
X-2719Y-73508D01*
X-2690Y-73493D01*
X-2668Y-73486D01*
X-2664Y-73482D01*
X-2660D01*
X-2597Y-73464D01*
X-2531Y-73449D01*
X-2464Y-73438D01*
X-2405Y-73431D01*
X-2353Y-73427D01*
X-2309Y-73423D01*
X-2272D01*
X-2168Y-73431D01*
D02*
G37*
G36*
X17915D02*
X18012Y-73445D01*
X18097Y-73468D01*
X18174Y-73493D01*
X18208Y-73508D01*
X18237Y-73519D01*
X18263Y-73531D01*
X18285Y-73542D01*
X18304Y-73549D01*
X18315Y-73556D01*
X18322Y-73564D01*
X18326D01*
X18407Y-73619D01*
X18482Y-73686D01*
X18544Y-73752D01*
X18600Y-73819D01*
X18641Y-73878D01*
X18655Y-73904D01*
X18670Y-73926D01*
X18681Y-73945D01*
X18689Y-73960D01*
X18696Y-73967D01*
Y-73971D01*
X18741Y-74074D01*
X18774Y-74185D01*
X18796Y-74296D01*
X18811Y-74396D01*
X18818Y-74444D01*
X18822Y-74489D01*
X18826Y-74526D01*
Y-74559D01*
X18829Y-74585D01*
Y-74603D01*
Y-74618D01*
Y-74622D01*
X18826Y-74729D01*
X18818Y-74829D01*
X18807Y-74922D01*
X18789Y-75011D01*
X18770Y-75092D01*
X18752Y-75162D01*
X18729Y-75229D01*
X18703Y-75292D01*
X18681Y-75344D01*
X18659Y-75388D01*
X18641Y-75429D01*
X18618Y-75462D01*
X18604Y-75484D01*
X18593Y-75503D01*
X18585Y-75514D01*
X18581Y-75517D01*
X18533Y-75573D01*
X18478Y-75617D01*
X18422Y-75658D01*
X18367Y-75695D01*
X18308Y-75725D01*
X18248Y-75750D01*
X18189Y-75769D01*
X18134Y-75788D01*
X18082Y-75799D01*
X18034Y-75810D01*
X17989Y-75813D01*
X17952Y-75821D01*
X17923D01*
X17897Y-75824D01*
X17878D01*
X17793Y-75821D01*
X17716Y-75817D01*
X17645Y-75810D01*
X17586Y-75799D01*
X17534Y-75788D01*
X17497Y-75780D01*
X17482Y-75776D01*
X17471D01*
X17468Y-75773D01*
X17464D01*
X17394Y-75750D01*
X17327Y-75725D01*
X17264Y-75695D01*
X17205Y-75669D01*
X17157Y-75647D01*
X17120Y-75628D01*
X17105Y-75621D01*
X17094Y-75614D01*
X17090Y-75610D01*
X17087D01*
Y-74467D01*
X17945D01*
X17901Y-74818D01*
X17523D01*
Y-75392D01*
X17579Y-75418D01*
X17634Y-75440D01*
X17690Y-75454D01*
X17741Y-75462D01*
X17790Y-75469D01*
X17827Y-75473D01*
X17860D01*
X17904Y-75469D01*
X17949Y-75466D01*
X18026Y-75443D01*
X18093Y-75410D01*
X18145Y-75373D01*
X18189Y-75340D01*
X18219Y-75306D01*
X18234Y-75284D01*
X18241Y-75281D01*
Y-75277D01*
X18263Y-75236D01*
X18282Y-75192D01*
X18300Y-75144D01*
X18315Y-75092D01*
X18337Y-74985D01*
X18352Y-74877D01*
X18356Y-74826D01*
X18359Y-74777D01*
X18363Y-74733D01*
Y-74696D01*
X18367Y-74666D01*
Y-74641D01*
Y-74626D01*
Y-74622D01*
X18363Y-74541D01*
X18359Y-74467D01*
X18352Y-74400D01*
X18341Y-74337D01*
X18330Y-74278D01*
X18315Y-74226D01*
X18300Y-74178D01*
X18285Y-74137D01*
X18271Y-74100D01*
X18259Y-74067D01*
X18245Y-74041D01*
X18234Y-74019D01*
X18223Y-74004D01*
X18215Y-73993D01*
X18208Y-73986D01*
Y-73982D01*
X18178Y-73945D01*
X18145Y-73915D01*
X18112Y-73889D01*
X18078Y-73867D01*
X18008Y-73830D01*
X17945Y-73808D01*
X17886Y-73793D01*
X17864Y-73790D01*
X17841Y-73786D01*
X17823Y-73782D01*
X17756D01*
X17716Y-73790D01*
X17675Y-73797D01*
X17645Y-73804D01*
X17616Y-73812D01*
X17597Y-73819D01*
X17582Y-73823D01*
X17579Y-73826D01*
X17538Y-73845D01*
X17501Y-73867D01*
X17460Y-73889D01*
X17427Y-73912D01*
X17397Y-73934D01*
X17375Y-73952D01*
X17357Y-73963D01*
X17353Y-73967D01*
X17109Y-73716D01*
X17168Y-73660D01*
X17223Y-73612D01*
X17279Y-73575D01*
X17327Y-73542D01*
X17368Y-73519D01*
X17397Y-73501D01*
X17420Y-73493D01*
X17423Y-73490D01*
X17427D01*
X17490Y-73468D01*
X17553Y-73453D01*
X17619Y-73438D01*
X17679Y-73431D01*
X17730Y-73427D01*
X17775Y-73423D01*
X17812D01*
X17915Y-73431D01*
D02*
G37*
G36*
X15784Y-73956D02*
X15843Y-73963D01*
X15899Y-73975D01*
X15947Y-73989D01*
X15988Y-74004D01*
X16017Y-74015D01*
X16036Y-74023D01*
X16043Y-74026D01*
X16095Y-74056D01*
X16139Y-74089D01*
X16176Y-74119D01*
X16206Y-74148D01*
X16228Y-74178D01*
X16247Y-74200D01*
X16254Y-74215D01*
X16258Y-74219D01*
X16276Y-73997D01*
X16657D01*
Y-75784D01*
X16225D01*
Y-74526D01*
X16169Y-74459D01*
X16143Y-74433D01*
X16117Y-74407D01*
X16095Y-74389D01*
X16077Y-74374D01*
X16065Y-74367D01*
X16062Y-74363D01*
X16025Y-74341D01*
X15988Y-74326D01*
X15951Y-74311D01*
X15921Y-74304D01*
X15895Y-74300D01*
X15873Y-74296D01*
X15821D01*
X15795Y-74300D01*
X15769Y-74308D01*
X15751Y-74311D01*
X15736Y-74319D01*
X15725Y-74326D01*
X15721Y-74330D01*
X15718D01*
X15703Y-74344D01*
X15688Y-74363D01*
X15669Y-74400D01*
X15666Y-74418D01*
X15662Y-74430D01*
X15658Y-74441D01*
Y-74444D01*
X15651Y-74478D01*
X15647Y-74515D01*
X15644Y-74589D01*
X15640Y-74626D01*
Y-74652D01*
Y-74670D01*
Y-74677D01*
Y-75784D01*
X15207D01*
Y-74496D01*
X15214Y-74407D01*
X15229Y-74326D01*
X15248Y-74256D01*
X15274Y-74200D01*
X15300Y-74156D01*
X15318Y-74123D01*
X15333Y-74104D01*
X15340Y-74097D01*
X15392Y-74049D01*
X15455Y-74011D01*
X15518Y-73986D01*
X15581Y-73971D01*
X15636Y-73960D01*
X15658Y-73956D01*
X15681D01*
X15695Y-73952D01*
X15721D01*
X15784Y-73956D01*
D02*
G37*
G36*
X8913Y-75784D02*
X8469D01*
X8310Y-75244D01*
X7559D01*
X7400Y-75784D01*
X6941D01*
X7666Y-73468D01*
X8188D01*
X8913Y-75784D01*
D02*
G37*
G36*
X-3097D02*
X-3541D01*
X-3700Y-75244D01*
X-4451D01*
X-4610Y-75784D01*
X-5069D01*
X-4344Y-73468D01*
X-3822D01*
X-3097Y-75784D01*
D02*
G37*
G36*
X-9465Y-75784D02*
X-10874D01*
X-10922Y-75406D01*
X-9909D01*
Y-73468D01*
X-9465D01*
Y-75784D01*
D02*
G37*
G36*
X-15448Y-74330D02*
X-15947D01*
Y-75454D01*
X-15433D01*
Y-75784D01*
X-16850D01*
Y-75454D01*
X-16376D01*
Y-73997D01*
X-15448D01*
Y-74330D01*
D02*
G37*
G36*
X-18245Y-73956D02*
X-18185Y-73963D01*
X-18130Y-73975D01*
X-18082Y-73989D01*
X-18041Y-74004D01*
X-18012Y-74015D01*
X-17993Y-74023D01*
X-17986Y-74026D01*
X-17934Y-74056D01*
X-17889Y-74089D01*
X-17853Y-74119D01*
X-17823Y-74148D01*
X-17801Y-74178D01*
X-17782Y-74200D01*
X-17775Y-74215D01*
X-17771Y-74219D01*
X-17753Y-73997D01*
X-17371D01*
Y-75784D01*
X-17804D01*
Y-74526D01*
X-17860Y-74459D01*
X-17886Y-74433D01*
X-17912Y-74407D01*
X-17934Y-74389D01*
X-17952Y-74374D01*
X-17964Y-74367D01*
X-17967Y-74363D01*
X-18004Y-74341D01*
X-18041Y-74326D01*
X-18078Y-74311D01*
X-18108Y-74304D01*
X-18134Y-74300D01*
X-18156Y-74296D01*
X-18208D01*
X-18234Y-74300D01*
X-18259Y-74308D01*
X-18278Y-74311D01*
X-18293Y-74319D01*
X-18304Y-74326D01*
X-18308Y-74330D01*
X-18311D01*
X-18326Y-74344D01*
X-18341Y-74363D01*
X-18359Y-74400D01*
X-18363Y-74418D01*
X-18367Y-74430D01*
X-18371Y-74441D01*
Y-74444D01*
X-18378Y-74478D01*
X-18382Y-74515D01*
X-18385Y-74589D01*
X-18389Y-74626D01*
Y-74652D01*
Y-74670D01*
Y-74677D01*
Y-75784D01*
X-18822D01*
Y-74496D01*
X-18814Y-74407D01*
X-18800Y-74326D01*
X-18781Y-74256D01*
X-18755Y-74200D01*
X-18729Y-74156D01*
X-18711Y-74123D01*
X-18696Y-74104D01*
X-18689Y-74097D01*
X-18637Y-74049D01*
X-18574Y-74011D01*
X-18511Y-73986D01*
X-18448Y-73971D01*
X-18393Y-73960D01*
X-18371Y-73956D01*
X-18348D01*
X-18334Y-73952D01*
X-18308D01*
X-18245Y-73956D01*
D02*
G37*
G36*
X13642Y-74137D02*
X13668Y-74104D01*
X13694Y-74074D01*
X13723Y-74052D01*
X13757Y-74030D01*
X13823Y-73997D01*
X13890Y-73975D01*
X13949Y-73963D01*
X13975Y-73956D01*
X14001D01*
X14019Y-73952D01*
X14045D01*
X14123Y-73956D01*
X14197Y-73971D01*
X14260Y-73989D01*
X14319Y-74011D01*
X14363Y-74037D01*
X14397Y-74056D01*
X14419Y-74071D01*
X14423Y-74074D01*
X14426D01*
X14482Y-74123D01*
X14534Y-74178D01*
X14578Y-74234D01*
X14611Y-74285D01*
X14637Y-74333D01*
X14659Y-74374D01*
X14667Y-74385D01*
X14671Y-74396D01*
X14674Y-74404D01*
Y-74407D01*
X14704Y-74489D01*
X14722Y-74570D01*
X14737Y-74652D01*
X14748Y-74726D01*
X14756Y-74792D01*
Y-74818D01*
X14759Y-74844D01*
Y-74862D01*
Y-74877D01*
Y-74885D01*
Y-74888D01*
X14756Y-74966D01*
X14752Y-75044D01*
X14744Y-75110D01*
X14733Y-75177D01*
X14719Y-75240D01*
X14704Y-75295D01*
X14689Y-75347D01*
X14674Y-75392D01*
X14659Y-75436D01*
X14645Y-75469D01*
X14630Y-75503D01*
X14615Y-75529D01*
X14604Y-75547D01*
X14596Y-75562D01*
X14589Y-75569D01*
Y-75573D01*
X14556Y-75617D01*
X14519Y-75654D01*
X14478Y-75688D01*
X14437Y-75717D01*
X14393Y-75743D01*
X14352Y-75762D01*
X14267Y-75791D01*
X14193Y-75810D01*
X14160Y-75817D01*
X14130Y-75821D01*
X14108Y-75824D01*
X14075D01*
X14019Y-75821D01*
X13964Y-75813D01*
X13916Y-75802D01*
X13875Y-75791D01*
X13838Y-75780D01*
X13812Y-75769D01*
X13797Y-75762D01*
X13790Y-75758D01*
X13746Y-75732D01*
X13705Y-75702D01*
X13675Y-75669D01*
X13653Y-75639D01*
X13634Y-75614D01*
X13623Y-75591D01*
X13620Y-75577D01*
X13616Y-75573D01*
X13598Y-75784D01*
X13209D01*
Y-73308D01*
X13642Y-73260D01*
Y-74137D01*
D02*
G37*
G36*
X4773Y-76380D02*
X3075D01*
Y-76017D01*
X4773D01*
Y-76380D01*
D02*
G37*
G36*
X-7237D02*
X-8935Y-76380D01*
Y-76017D01*
X-7237Y-76017D01*
Y-76380D01*
D02*
G37*
G36*
X-74151Y-16041D02*
X-74562D01*
Y-14456D01*
X-74151D01*
Y-16041D01*
D02*
G37*
G36*
X-74941Y-16856D02*
X-75282Y-17393D01*
X-73564D01*
Y-16773D01*
X-73173D01*
Y-18379D01*
X-73564D01*
Y-17875D01*
X-75777D01*
Y-17459D01*
X-75274Y-16657D01*
X-74941Y-16856D01*
D02*
G37*
G36*
X-75161Y-19107D02*
X-75216Y-19157D01*
X-75257Y-19202D01*
X-75295Y-19244D01*
X-75324Y-19282D01*
X-75345Y-19311D01*
X-75357Y-19331D01*
X-75365Y-19348D01*
X-75369Y-19352D01*
X-75390Y-19394D01*
X-75403Y-19440D01*
X-75415Y-19485D01*
X-75419Y-19527D01*
X-75424Y-19564D01*
X-75428Y-19593D01*
Y-19618D01*
X-75424Y-19681D01*
X-75411Y-19735D01*
X-75394Y-19781D01*
X-75378Y-19822D01*
X-75361Y-19851D01*
X-75345Y-19876D01*
X-75332Y-19889D01*
X-75328Y-19893D01*
X-75286Y-19926D01*
X-75245Y-19951D01*
X-75199Y-19968D01*
X-75153Y-19980D01*
X-75116Y-19989D01*
X-75082Y-19993D01*
X-75062D01*
X-75053D01*
X-74987Y-19989D01*
X-74920Y-19976D01*
X-74858Y-19964D01*
X-74804Y-19947D01*
X-74758Y-19926D01*
X-74721Y-19914D01*
X-74700Y-19901D01*
X-74695Y-19897D01*
X-74691D01*
X-74625Y-19855D01*
X-74550Y-19810D01*
X-74479Y-19756D01*
X-74409Y-19702D01*
X-74350Y-19652D01*
X-74300Y-19610D01*
X-74284Y-19593D01*
X-74271Y-19581D01*
X-74263Y-19577D01*
X-74259Y-19573D01*
X-74209Y-19527D01*
X-74155Y-19477D01*
X-74038Y-19361D01*
X-73918Y-19244D01*
X-73801Y-19128D01*
X-73747Y-19069D01*
X-73697Y-19019D01*
X-73651Y-18974D01*
X-73614Y-18932D01*
X-73581Y-18899D01*
X-73556Y-18874D01*
X-73539Y-18857D01*
X-73535Y-18853D01*
X-73173D01*
Y-20496D01*
X-73572Y-20546D01*
Y-19398D01*
X-73631Y-19473D01*
X-73689Y-19544D01*
X-73743Y-19610D01*
X-73797Y-19672D01*
X-73847Y-19731D01*
X-73897Y-19785D01*
X-73943Y-19831D01*
X-73980Y-19876D01*
X-74017Y-19914D01*
X-74051Y-19947D01*
X-74080Y-19976D01*
X-74105Y-20001D01*
X-74126Y-20018D01*
X-74138Y-20030D01*
X-74146Y-20039D01*
X-74151Y-20043D01*
X-74246Y-20126D01*
X-74338Y-20192D01*
X-74417Y-20251D01*
X-74488Y-20301D01*
X-74546Y-20334D01*
X-74591Y-20359D01*
X-74608Y-20367D01*
X-74621Y-20376D01*
X-74625Y-20380D01*
X-74629D01*
X-74712Y-20417D01*
X-74791Y-20442D01*
X-74866Y-20463D01*
X-74937Y-20475D01*
X-74995Y-20484D01*
X-75037Y-20488D01*
X-75057D01*
X-75070D01*
X-75074D01*
X-75078D01*
X-75153Y-20484D01*
X-75224Y-20471D01*
X-75290Y-20455D01*
X-75345Y-20438D01*
X-75390Y-20421D01*
X-75428Y-20405D01*
X-75449Y-20392D01*
X-75457Y-20388D01*
X-75519Y-20346D01*
X-75569Y-20301D01*
X-75619Y-20251D01*
X-75656Y-20205D01*
X-75686Y-20163D01*
X-75711Y-20130D01*
X-75723Y-20105D01*
X-75727Y-20101D01*
Y-20097D01*
X-75761Y-20022D01*
X-75785Y-19947D01*
X-75802Y-19872D01*
X-75815Y-19801D01*
X-75823Y-19739D01*
X-75827Y-19689D01*
Y-19647D01*
X-75823Y-19548D01*
X-75810Y-19456D01*
X-75794Y-19373D01*
X-75777Y-19302D01*
X-75756Y-19244D01*
X-75740Y-19202D01*
X-75731Y-19186D01*
X-75727Y-19173D01*
X-75723Y-19169D01*
Y-19165D01*
X-75681Y-19090D01*
X-75631Y-19024D01*
X-75577Y-18961D01*
X-75523Y-18907D01*
X-75473Y-18861D01*
X-75436Y-18828D01*
X-75419Y-18815D01*
X-75407Y-18807D01*
X-75403Y-18799D01*
X-75399D01*
X-75161Y-19107D01*
D02*
G37*
G36*
X-73173Y-21407D02*
X-74438Y-21461D01*
X-74492D01*
X-74550Y-21465D01*
X-74608D01*
X-74666D01*
X-74716D01*
X-74754D01*
X-74770D01*
X-74783D01*
X-74787D01*
X-74791D01*
X-74862D01*
X-74924D01*
X-74983D01*
X-75037Y-21461D01*
X-75087D01*
X-75132D01*
X-75170Y-21457D01*
X-75207D01*
X-75236D01*
X-75261Y-21453D01*
X-75282D01*
X-75303D01*
X-75324Y-21449D01*
X-75332D01*
X-73618Y-21782D01*
Y-22214D01*
X-75332Y-22522D01*
X-75278Y-22518D01*
X-75211Y-22514D01*
X-75141D01*
X-75070Y-22510D01*
X-75007D01*
X-74978D01*
X-74958D01*
X-74937D01*
X-74920D01*
X-74912D01*
X-74908D01*
X-74825D01*
X-74741Y-22514D01*
X-74662D01*
X-74591Y-22518D01*
X-74529D01*
X-74483Y-22522D01*
X-74467D01*
X-74454D01*
X-74446D01*
X-74442D01*
X-73173Y-22580D01*
Y-23046D01*
X-75777Y-22901D01*
Y-22322D01*
X-74084Y-22006D01*
X-75777Y-21673D01*
Y-21095D01*
X-73173Y-20954D01*
Y-21407D01*
D02*
G37*
G36*
Y-23874D02*
X-74325D01*
Y-24627D01*
X-73173D01*
Y-25130D01*
X-75777D01*
Y-24627D01*
X-74746D01*
Y-23874D01*
X-75777D01*
Y-23371D01*
X-73173D01*
Y-23874D01*
D02*
G37*
G36*
Y-27252D02*
X-73572Y-27302D01*
Y-26262D01*
X-74833Y-27289D01*
X-75182D01*
Y-25775D01*
X-74779D01*
Y-26728D01*
X-73518Y-25696D01*
X-73173D01*
Y-27252D01*
D02*
G37*
G36*
X-74151Y-29544D02*
X-74562D01*
Y-27959D01*
X-74151D01*
Y-29544D01*
D02*
G37*
G36*
X-31083Y68973D02*
X-33902D01*
Y69705D01*
X-31083D01*
Y68973D01*
D02*
G37*
G36*
X-26991Y67234D02*
X-28374D01*
X-28656Y67249D01*
X-28789Y67263D01*
X-28907Y67286D01*
X-29026Y67308D01*
X-29129Y67330D01*
X-29233Y67360D01*
X-29322Y67389D01*
X-29403Y67419D01*
X-29470Y67448D01*
X-29536Y67471D01*
X-29581Y67493D01*
X-29625Y67515D01*
X-29655Y67530D01*
X-29669Y67545D01*
X-29677D01*
X-29773Y67611D01*
X-29847Y67678D01*
X-29921Y67759D01*
X-29980Y67841D01*
X-30032Y67929D01*
X-30076Y68018D01*
X-30106Y68107D01*
X-30136Y68188D01*
X-30173Y68344D01*
X-30187Y68418D01*
X-30195Y68477D01*
X-30202Y68529D01*
Y68566D01*
Y68588D01*
Y68595D01*
X-30187Y68780D01*
X-30150Y68943D01*
X-30106Y69084D01*
X-30047Y69195D01*
X-29988Y69284D01*
X-29943Y69343D01*
X-29906Y69380D01*
X-29891Y69395D01*
X-29773Y69483D01*
X-29647Y69557D01*
X-29529Y69609D01*
X-29410Y69646D01*
X-29314Y69668D01*
X-29233Y69683D01*
X-29203Y69691D01*
X-29166D01*
X-29285Y69705D01*
X-29396Y69742D01*
X-29499Y69787D01*
X-29581Y69839D01*
X-29655Y69890D01*
X-29706Y69927D01*
X-29736Y69957D01*
X-29751Y69972D01*
X-29832Y70083D01*
X-29899Y70194D01*
X-29943Y70312D01*
X-29973Y70416D01*
X-29988Y70512D01*
X-30002Y70593D01*
Y70623D01*
Y70645D01*
Y70653D01*
Y70660D01*
X-29995Y70778D01*
X-29980Y70882D01*
X-29958Y70986D01*
X-29928Y71074D01*
X-29891Y71163D01*
X-29847Y71237D01*
X-29803Y71304D01*
X-29758Y71363D01*
X-29714Y71415D01*
X-29669Y71459D01*
X-29588Y71533D01*
X-29558Y71555D01*
X-29536Y71570D01*
X-29521Y71585D01*
X-29514D01*
X-29322Y71681D01*
X-29114Y71748D01*
X-28915Y71800D01*
X-28722Y71829D01*
X-28633Y71844D01*
X-28552Y71851D01*
X-28478Y71859D01*
X-28419D01*
X-28367Y71866D01*
X-26991D01*
Y67234D01*
D02*
G37*
G36*
X-35625Y63750D02*
X-48375D01*
Y75250D01*
X-35625D01*
Y63750D01*
D02*
G37*
G36*
X13250Y20500D02*
Y13500D01*
X-13250D01*
Y20500D01*
X13250D01*
D02*
G37*
%LPC*%
G36*
X-33703Y52375D02*
X-38335D01*
Y51177D01*
X-38328Y51110D01*
X-38320Y51021D01*
X-38306Y50925D01*
X-38291Y50814D01*
X-38276Y50696D01*
X-38217Y50437D01*
X-38173Y50303D01*
X-38128Y50170D01*
X-38069Y50037D01*
X-38002Y49904D01*
X-37928Y49778D01*
X-37839Y49660D01*
X-37832Y49652D01*
X-37817Y49630D01*
X-37788Y49600D01*
X-37743Y49563D01*
X-37684Y49512D01*
X-37617Y49460D01*
X-37529Y49408D01*
X-37433Y49349D01*
X-37321Y49290D01*
X-37188Y49238D01*
X-37040Y49179D01*
X-36878Y49134D01*
X-36700Y49097D01*
X-36500Y49068D01*
X-36285Y49045D01*
X-36049Y49038D01*
X-38335D01*
D01*
X-33703D01*
Y52375D01*
D02*
G37*
G36*
Y48217D02*
X-34347D01*
Y47713D01*
X-36626D01*
Y48217D01*
X-37277D01*
Y47033D01*
X-36485Y46929D01*
X-36493D01*
X-36500Y46922D01*
X-36522Y46914D01*
X-36552Y46907D01*
X-36626Y46877D01*
X-36722Y46833D01*
X-36826Y46774D01*
X-36929Y46700D01*
X-37033Y46611D01*
X-37129Y46507D01*
X-37137Y46492D01*
X-37166Y46448D01*
X-37203Y46381D01*
X-37247Y46293D01*
X-37284Y46182D01*
X-37321Y46056D01*
X-37351Y45908D01*
X-37358Y45745D01*
Y45693D01*
X-37351Y45641D01*
X-37344Y45567D01*
X-37336Y45479D01*
X-37314Y45375D01*
X-37292Y45264D01*
X-37255Y45153D01*
X-37358D01*
D01*
X-33703D01*
Y48217D01*
D02*
G37*
G36*
Y44124D02*
X-34361D01*
Y43096D01*
X-36611D01*
Y44095D01*
X-37277D01*
Y42237D01*
X-34361D01*
Y41290D01*
X-38964D01*
X-33703D01*
Y44124D01*
D02*
G37*
G36*
X-38446Y43347D02*
X-38454D01*
X-38483D01*
X-38528Y43340D01*
X-38579Y43325D01*
X-38631Y43310D01*
X-38698Y43288D01*
X-38757Y43251D01*
X-38816Y43199D01*
X-38824Y43192D01*
X-38838Y43170D01*
X-38861Y43140D01*
X-38890Y43088D01*
X-38920Y43037D01*
X-38942Y42970D01*
X-38957Y42889D01*
X-38964Y42807D01*
Y42763D01*
X-38957Y42718D01*
X-38942Y42667D01*
X-38927Y42607D01*
X-38898Y42541D01*
X-38861Y42474D01*
X-38809Y42415D01*
X-38802Y42408D01*
X-38779Y42393D01*
X-38750Y42363D01*
X-38705Y42334D01*
X-38653Y42311D01*
X-38594Y42282D01*
X-38520Y42267D01*
X-38446Y42260D01*
X-38439D01*
X-38409D01*
X-38365Y42267D01*
X-38313Y42282D01*
X-38254Y42297D01*
X-38195Y42326D01*
X-38128Y42363D01*
X-38069Y42415D01*
X-38061Y42422D01*
X-38047Y42445D01*
X-38025Y42474D01*
X-37995Y42519D01*
X-37965Y42578D01*
X-37943Y42644D01*
X-37928Y42726D01*
X-37921Y42807D01*
Y42844D01*
X-37928Y42889D01*
X-37943Y42948D01*
X-37958Y43007D01*
X-37980Y43074D01*
X-38017Y43140D01*
X-38069Y43199D01*
X-38076Y43207D01*
X-38098Y43222D01*
X-38128Y43244D01*
X-38173Y43273D01*
X-38224Y43303D01*
X-38291Y43325D01*
X-38365Y43340D01*
X-38446Y43347D01*
D02*
G37*
G36*
X-33703Y40513D02*
D01*
Y39270D01*
X-37277Y40513D01*
Y37087D01*
X-33703Y38330D01*
Y37087D01*
Y40513D01*
D02*
G37*
G36*
X-35494Y36391D02*
X-35583D01*
X-35627Y36384D01*
X-35686D01*
X-35812Y36369D01*
X-35960Y36347D01*
X-36115Y36310D01*
X-36285Y36266D01*
X-36448Y36199D01*
X-36456D01*
X-36470Y36192D01*
X-36493Y36177D01*
X-36522Y36162D01*
X-36596Y36118D01*
X-36693Y36051D01*
X-36803Y35970D01*
X-36915Y35873D01*
X-37025Y35762D01*
X-37122Y35629D01*
Y35622D01*
X-37129Y35614D01*
X-37144Y35592D01*
X-37159Y35563D01*
X-37196Y35481D01*
X-37247Y35378D01*
X-37292Y35252D01*
X-37329Y35096D01*
X-37358Y34934D01*
X-37366Y34749D01*
Y34682D01*
X-37358Y34630D01*
X-37351Y34571D01*
X-37344Y34497D01*
X-37329Y34423D01*
X-37307Y34334D01*
X-37247Y34157D01*
X-37211Y34060D01*
X-37166Y33964D01*
X-37107Y33875D01*
X-37040Y33787D01*
X-36966Y33698D01*
X-36885Y33616D01*
X-36878Y33609D01*
X-36863Y33602D01*
X-36833Y33579D01*
X-36796Y33550D01*
X-36752Y33520D01*
X-36693Y33483D01*
X-36619Y33446D01*
X-36544Y33402D01*
X-36456Y33365D01*
X-36352Y33328D01*
X-36248Y33291D01*
X-36130Y33261D01*
X-36004Y33232D01*
X-35871Y33209D01*
X-35730Y33202D01*
X-35583Y33195D01*
X-37366D01*
X-33621D01*
Y34741D01*
X-33629Y34793D01*
X-33636Y34867D01*
X-33651Y34941D01*
X-33666Y35030D01*
X-33688Y35126D01*
X-33710Y35230D01*
X-33747Y35333D01*
X-33784Y35437D01*
X-33836Y35548D01*
X-33895Y35651D01*
X-33962Y35755D01*
X-34043Y35851D01*
X-34132Y35940D01*
X-34139Y35947D01*
X-34154Y35962D01*
X-34184Y35984D01*
X-34228Y36007D01*
X-34280Y36044D01*
X-34339Y36081D01*
X-34413Y36125D01*
X-34495Y36162D01*
X-34584Y36206D01*
X-34687Y36251D01*
X-34798Y36288D01*
X-34924Y36317D01*
X-35050Y36347D01*
X-35190Y36369D01*
X-35338Y36384D01*
X-35494Y36391D01*
D02*
G37*
G36*
X-33703Y32203D02*
X-34347D01*
Y31700D01*
X-36626D01*
Y32203D01*
X-37277D01*
Y31019D01*
X-36485Y30915D01*
X-36493D01*
X-36500Y30908D01*
X-36522Y30901D01*
X-36552Y30893D01*
X-36626Y30864D01*
X-36722Y30819D01*
X-36826Y30760D01*
X-36929Y30686D01*
X-37033Y30597D01*
X-37129Y30494D01*
X-37137Y30479D01*
X-37166Y30434D01*
X-37203Y30368D01*
X-37247Y30279D01*
X-37284Y30168D01*
X-37321Y30042D01*
X-37351Y29894D01*
X-37358Y29731D01*
Y29680D01*
X-37351Y29628D01*
X-37344Y29554D01*
X-37336Y29465D01*
X-37314Y29361D01*
X-37292Y29250D01*
X-37255Y29139D01*
X-37358D01*
D01*
X-33703D01*
Y32203D01*
D02*
G37*
%LPD*%
G36*
X-34398Y51073D02*
X-34413Y51021D01*
X-34428Y50947D01*
X-34450Y50858D01*
X-34487Y50762D01*
X-34539Y50659D01*
X-34606Y50548D01*
X-34694Y50437D01*
X-34798Y50333D01*
X-34931Y50237D01*
X-35094Y50148D01*
X-35183Y50111D01*
X-35287Y50074D01*
X-35390Y50044D01*
X-35501Y50022D01*
X-35627Y50000D01*
X-35760Y49985D01*
X-35901Y49970D01*
X-36049D01*
X-36056D01*
X-36093D01*
X-36138D01*
X-36197Y49978D01*
X-36278D01*
X-36360Y49985D01*
X-36456Y50000D01*
X-36552Y50007D01*
X-36766Y50044D01*
X-36966Y50104D01*
X-37062Y50141D01*
X-37151Y50185D01*
X-37233Y50229D01*
X-37299Y50289D01*
X-37307D01*
X-37314Y50303D01*
X-37351Y50348D01*
X-37403Y50414D01*
X-37462Y50511D01*
X-37521Y50636D01*
X-37573Y50777D01*
X-37610Y50947D01*
X-37625Y51036D01*
Y51480D01*
X-34398D01*
Y51073D01*
D02*
G37*
G36*
X-33703Y49038D02*
X-35989D01*
X-35923Y49045D01*
X-35834D01*
X-35730Y49060D01*
X-35605Y49068D01*
X-35471Y49090D01*
X-35324Y49112D01*
X-35175Y49149D01*
X-35020Y49186D01*
X-34872Y49238D01*
X-34717Y49297D01*
X-34576Y49371D01*
X-34443Y49452D01*
X-34317Y49549D01*
X-34214Y49660D01*
X-34206Y49667D01*
X-34191Y49689D01*
X-34169Y49719D01*
X-34132Y49771D01*
X-34095Y49830D01*
X-34051Y49904D01*
X-34006Y49985D01*
X-33962Y50081D01*
X-33910Y50192D01*
X-33866Y50303D01*
X-33821Y50437D01*
X-33784Y50570D01*
X-33747Y50718D01*
X-33725Y50873D01*
X-33710Y51036D01*
X-33703Y51206D01*
Y49038D01*
D02*
G37*
G36*
X-34347Y46152D02*
X-33703D01*
Y45153D01*
X-37255D01*
X-35879Y45286D01*
Y45930D01*
X-36582D01*
Y45945D01*
X-36574Y45974D01*
X-36567Y46026D01*
X-36544Y46093D01*
X-36515Y46174D01*
X-36463Y46263D01*
X-36397Y46352D01*
X-36308Y46448D01*
X-36293Y46455D01*
X-36256Y46492D01*
X-36197Y46537D01*
X-36115Y46589D01*
X-36012Y46655D01*
X-35879Y46722D01*
X-35730Y46788D01*
X-35560Y46848D01*
X-34347D01*
Y46152D01*
D02*
G37*
G36*
X-34443Y38789D02*
X-37277Y37960D01*
Y39603D01*
X-34443Y38789D01*
D02*
G37*
G36*
X-35812Y34038D02*
X-35819D01*
X-35827D01*
X-35849D01*
X-35879Y34046D01*
X-35952Y34053D01*
X-36049Y34068D01*
X-36145Y34090D01*
X-36256Y34127D01*
X-36360Y34179D01*
X-36456Y34238D01*
X-36463Y34245D01*
X-36493Y34268D01*
X-36530Y34312D01*
X-36582Y34371D01*
X-36626Y34438D01*
X-36663Y34527D01*
X-36693Y34630D01*
X-36700Y34749D01*
Y34800D01*
X-36685Y34860D01*
X-36670Y34934D01*
X-36641Y35015D01*
X-36604Y35104D01*
X-36544Y35193D01*
X-36463Y35274D01*
X-36456Y35281D01*
X-36419Y35304D01*
X-36367Y35341D01*
X-36293Y35378D01*
X-36197Y35422D01*
X-36086Y35459D01*
X-35960Y35489D01*
X-35812Y35511D01*
Y34038D01*
D02*
G37*
G36*
X-35153Y35496D02*
X-35124D01*
X-35050Y35481D01*
X-34953Y35459D01*
X-34850Y35422D01*
X-34739Y35378D01*
X-34635Y35318D01*
X-34539Y35237D01*
X-34532Y35222D01*
X-34502Y35193D01*
X-34465Y35141D01*
X-34428Y35067D01*
X-34384Y34978D01*
X-34347Y34874D01*
X-34317Y34763D01*
X-34310Y34630D01*
Y34593D01*
X-34317Y34541D01*
Y34482D01*
X-34324Y34416D01*
X-34339Y34342D01*
X-34376Y34186D01*
X-34384Y34179D01*
X-34391Y34149D01*
X-34406Y34105D01*
X-34435Y34046D01*
X-34465Y33979D01*
X-34510Y33898D01*
X-34554Y33801D01*
X-34613Y33705D01*
X-34088Y33343D01*
X-34080Y33357D01*
X-34051Y33387D01*
X-34006Y33446D01*
X-33955Y33520D01*
X-33895Y33609D01*
X-33836Y33720D01*
X-33777Y33831D01*
X-33733Y33957D01*
X-33725Y33972D01*
X-33718Y34016D01*
X-33696Y34083D01*
X-33681Y34171D01*
X-33658Y34275D01*
X-33636Y34393D01*
X-33629Y34527D01*
X-33621Y34660D01*
Y33195D01*
X-35457D01*
X-35397Y33202D01*
X-35331Y33209D01*
X-35190Y33224D01*
Y35503D01*
X-35183D01*
X-35175D01*
X-35153Y35496D01*
D02*
G37*
G36*
X-34347Y30138D02*
X-33703D01*
Y29139D01*
X-37255D01*
X-35879Y29273D01*
Y29916D01*
X-36582D01*
Y29931D01*
X-36574Y29961D01*
X-36567Y30013D01*
X-36544Y30079D01*
X-36515Y30161D01*
X-36463Y30249D01*
X-36397Y30338D01*
X-36308Y30434D01*
X-36293Y30442D01*
X-36256Y30479D01*
X-36197Y30523D01*
X-36115Y30575D01*
X-36012Y30642D01*
X-35879Y30708D01*
X-35730Y30775D01*
X-35560Y30834D01*
X-34347D01*
Y30138D01*
D02*
G37*
%LPC*%
G36*
X44278Y71098D02*
X43701Y68982D01*
X44862D01*
X44278Y71098D01*
D02*
G37*
G36*
X-12446Y-35903D02*
X-12662Y-36695D01*
X-12227D01*
X-12446Y-35903D01*
D02*
G37*
G36*
X-16753Y-35895D02*
X-16933D01*
X-16994Y-35897D01*
X-17044Y-35909D01*
X-17091Y-35922D01*
X-17130Y-35942D01*
X-17161Y-35964D01*
X-17188Y-35989D01*
X-17210Y-36014D01*
X-17230Y-36042D01*
X-17244Y-36069D01*
X-17255Y-36094D01*
X-17260Y-36119D01*
X-17266Y-36141D01*
X-17269Y-36161D01*
X-17271Y-36174D01*
Y-36186D01*
Y-36188D01*
X-17269Y-36249D01*
X-17258Y-36299D01*
X-17244Y-36344D01*
X-17227Y-36377D01*
X-17210Y-36402D01*
X-17197Y-36421D01*
X-17186Y-36432D01*
X-17183Y-36435D01*
X-17147Y-36460D01*
X-17108Y-36476D01*
X-17066Y-36490D01*
X-17028Y-36499D01*
X-16992Y-36504D01*
X-16964Y-36507D01*
X-16753D01*
Y-35895D01*
D02*
G37*
G36*
X-6227Y-65599D02*
X-9787Y-65599D01*
X-8373Y-65599D01*
X-8462Y-65606D01*
X-8565Y-65614D01*
X-8684Y-65628D01*
X-8817Y-65650D01*
X-8950Y-65680D01*
X-9076Y-65717D01*
X-9083D01*
X-9091Y-65724D01*
X-9135Y-65739D01*
X-9194Y-65769D01*
X-9276Y-65806D01*
X-9380Y-65858D01*
X-9483Y-65932D01*
X-9601Y-66013D01*
X-9720Y-66109D01*
X-9268Y-66650D01*
X-9261Y-66642D01*
X-9246Y-66635D01*
X-9224Y-66620D01*
X-9194Y-66598D01*
X-9150Y-66575D01*
X-9106Y-66546D01*
X-8987Y-66479D01*
X-8847Y-66420D01*
X-8684Y-66368D01*
X-8514Y-66331D01*
X-8417Y-66316D01*
X-8277D01*
X-8240Y-66324D01*
X-8196Y-66331D01*
X-8151Y-66339D01*
X-8025Y-66368D01*
X-7892Y-66413D01*
X-7751Y-66487D01*
X-7677Y-66531D01*
X-7611Y-66583D01*
X-7544Y-66642D01*
X-7478Y-66716D01*
Y-66724D01*
X-7463Y-66738D01*
X-7448Y-66760D01*
X-7426Y-66790D01*
X-7404Y-66834D01*
X-7374Y-66886D01*
X-7344Y-66953D01*
X-7315Y-67027D01*
X-7285Y-67108D01*
X-7256Y-67204D01*
X-7226Y-67308D01*
X-7204Y-67427D01*
X-7182Y-67552D01*
X-7167Y-67686D01*
X-7159Y-67834D01*
X-7152Y-67996D01*
Y-68004D01*
Y-68033D01*
Y-68078D01*
X-7159Y-68137D01*
Y-68211D01*
X-7167Y-68292D01*
X-7182Y-68381D01*
X-7197Y-68485D01*
X-7233Y-68692D01*
X-7293Y-68899D01*
X-7374Y-69099D01*
X-7418Y-69188D01*
X-7478Y-69269D01*
X-7485Y-69276D01*
X-7492Y-69284D01*
X-7537Y-69328D01*
X-7611Y-69395D01*
X-7707Y-69469D01*
X-7833Y-69543D01*
X-7981Y-69609D01*
X-8144Y-69654D01*
X-8240Y-69661D01*
X-8336Y-69669D01*
X-8388D01*
X-8447Y-69661D01*
X-8521Y-69654D01*
X-8602Y-69647D01*
X-8691Y-69624D01*
X-8780Y-69602D01*
X-8869Y-69573D01*
X-8876Y-69565D01*
X-8906Y-69558D01*
X-8950Y-69528D01*
X-9017Y-69498D01*
X-9091Y-69454D01*
X-9172Y-69410D01*
X-9268Y-69343D01*
X-9365Y-69276D01*
X-9787Y-69817D01*
X-9779Y-69824D01*
X-9757Y-69839D01*
X-9727Y-69868D01*
X-9683Y-69906D01*
X-9624Y-69950D01*
X-9557Y-70002D01*
X-9476Y-70053D01*
X-9380Y-70105D01*
X-9283Y-70165D01*
X-9165Y-70216D01*
X-9047Y-70268D01*
X-8913Y-70312D01*
X-8773Y-70350D01*
X-8625Y-70379D01*
X-8469Y-70394D01*
X-8307Y-70401D01*
X-6227D01*
X-8247D01*
X-8203Y-70394D01*
X-8151D01*
X-8092Y-70386D01*
X-8025Y-70379D01*
X-7951Y-70364D01*
X-7781Y-70335D01*
X-7604Y-70283D01*
X-7418Y-70216D01*
X-7233Y-70127D01*
X-7226D01*
X-7211Y-70113D01*
X-7189Y-70098D01*
X-7152Y-70076D01*
X-7071Y-70009D01*
X-6967Y-69920D01*
X-6841Y-69802D01*
X-6723Y-69661D01*
X-6605Y-69498D01*
X-6493Y-69306D01*
Y-69299D01*
X-6479Y-69284D01*
X-6471Y-69247D01*
X-6449Y-69210D01*
X-6434Y-69158D01*
X-6412Y-69091D01*
X-6382Y-69017D01*
X-6360Y-68936D01*
X-6338Y-68847D01*
X-6308Y-68744D01*
X-6286Y-68640D01*
X-6272Y-68522D01*
X-6242Y-68270D01*
X-6227Y-67996D01*
Y-67922D01*
X-6235Y-67870D01*
Y-67804D01*
X-6242Y-67730D01*
X-6249Y-67649D01*
X-6264Y-67552D01*
X-6294Y-67352D01*
X-6346Y-67138D01*
X-6412Y-66916D01*
X-6501Y-66709D01*
Y-66701D01*
X-6516Y-66686D01*
X-6531Y-66657D01*
X-6553Y-66620D01*
X-6582Y-66575D01*
X-6612Y-66524D01*
X-6701Y-66405D01*
X-6804Y-66272D01*
X-6930Y-66132D01*
X-7078Y-66006D01*
X-7248Y-65887D01*
X-7256D01*
X-7271Y-65873D01*
X-7293Y-65858D01*
X-7330Y-65843D01*
X-7374Y-65821D01*
X-7426Y-65798D01*
X-7492Y-65769D01*
X-7559Y-65739D01*
X-7715Y-65688D01*
X-7892Y-65643D01*
X-8092Y-65614D01*
X-8299Y-65599D01*
X-6227D01*
D01*
D02*
G37*
G36*
X17505Y-65688D02*
X14308D01*
X16099D01*
X16039Y-65695D01*
X15966Y-65702D01*
X15877Y-65710D01*
X15780Y-65717D01*
X15677Y-65732D01*
X15455Y-65776D01*
X15225Y-65843D01*
X15114Y-65887D01*
X15003Y-65939D01*
X14900Y-65998D01*
X14804Y-66065D01*
X14796Y-66072D01*
X14782Y-66080D01*
X14759Y-66102D01*
X14722Y-66132D01*
X14685Y-66176D01*
X14648Y-66220D01*
X14604Y-66280D01*
X14552Y-66339D01*
X14508Y-66413D01*
X14463Y-66494D01*
X14426Y-66590D01*
X14382Y-66686D01*
X14352Y-66790D01*
X14330Y-66909D01*
X14315Y-67034D01*
X14308Y-67168D01*
Y-67242D01*
X14315Y-67293D01*
X14323Y-67360D01*
X14337Y-67441D01*
X14352Y-67523D01*
X14367Y-67611D01*
X14426Y-67804D01*
X14471Y-67900D01*
X14515Y-67996D01*
X14574Y-68085D01*
X14641Y-68181D01*
X14715Y-68263D01*
X14804Y-68337D01*
X14811Y-68344D01*
X14826Y-68352D01*
X14855Y-68374D01*
X14893Y-68396D01*
X14944Y-68426D01*
X15003Y-68455D01*
X15078Y-68492D01*
X15159Y-68522D01*
X15248Y-68559D01*
X15344Y-68596D01*
X15455Y-68625D01*
X15573Y-68655D01*
X15699Y-68677D01*
X15840Y-68699D01*
X15980Y-68707D01*
X16136Y-68714D01*
X16617D01*
Y-70320D01*
X14308D01*
X17505D01*
Y-65688D01*
D02*
G37*
G36*
X14049Y-66746D02*
X10149D01*
X10726Y-70320D01*
X11755D01*
X12088Y-67870D01*
X12450Y-70320D01*
X13457D01*
X14049Y-66746D01*
D02*
G37*
G36*
X7034Y-66664D02*
X6982D01*
X6930Y-66672D01*
X6856Y-66679D01*
X6767Y-66686D01*
X6664Y-66709D01*
X6553Y-66731D01*
X6442Y-66768D01*
X6575Y-68144D01*
X7219D01*
Y-67441D01*
X7233D01*
X7263Y-67449D01*
X7315Y-67456D01*
X7382Y-67478D01*
X7463Y-67508D01*
X7552Y-67560D01*
X7641Y-67626D01*
X7737Y-67715D01*
X7744Y-67730D01*
X7781Y-67767D01*
X7825Y-67826D01*
X7877Y-67908D01*
X7944Y-68011D01*
X8010Y-68144D01*
X8077Y-68292D01*
X8136Y-68463D01*
Y-69676D01*
X7441D01*
Y-70320D01*
X9505D01*
Y-68181D01*
Y-69676D01*
X9002D01*
Y-67397D01*
X9505D01*
Y-66746D01*
X8321D01*
X8218Y-67537D01*
Y-67530D01*
X8210Y-67523D01*
X8203Y-67501D01*
X8196Y-67471D01*
X8166Y-67397D01*
X8122Y-67301D01*
X8062Y-67197D01*
X7988Y-67093D01*
X7899Y-66990D01*
X7796Y-66894D01*
X7781Y-66886D01*
X7737Y-66857D01*
X7670Y-66820D01*
X7581Y-66775D01*
X7470Y-66738D01*
X7344Y-66701D01*
X7197Y-66672D01*
X7034Y-66664D01*
D02*
G37*
G36*
X6442D02*
D01*
Y-70320D01*
Y-66664D01*
D01*
D02*
G37*
G36*
X-9949Y-65688D02*
X-12443D01*
X-13893Y-70320D01*
X-12976D01*
X-12658Y-69239D01*
X-11156D01*
X-10837Y-70320D01*
X-12239D01*
X-9949D01*
X-11400Y-65688D01*
X-9949D01*
D02*
G37*
G36*
X-14360D02*
X-17490D01*
Y-70320D01*
X-16387D01*
X-15063Y-66487D01*
Y-66501D01*
X-15070Y-66531D01*
Y-66583D01*
X-15078Y-66657D01*
X-15085Y-66746D01*
X-15092Y-66842D01*
X-15107Y-66960D01*
X-15114Y-67079D01*
X-15122Y-67212D01*
X-15137Y-67352D01*
X-15152Y-67641D01*
X-15159Y-67930D01*
X-15166Y-68211D01*
Y-70320D01*
X-14360D01*
Y-65688D01*
D02*
G37*
G36*
X226Y-65606D02*
X-1772D01*
X166D01*
X93Y-65614D01*
X11Y-65621D01*
X-93Y-65636D01*
X-203Y-65658D01*
X-314Y-65688D01*
X-426Y-65724D01*
X-440Y-65732D01*
X-477Y-65747D01*
X-529Y-65776D01*
X-603Y-65821D01*
X-692Y-65880D01*
X-788Y-65961D01*
X-892Y-66050D01*
X-995Y-66168D01*
X-514Y-66598D01*
X-507Y-66590D01*
X-477Y-66568D01*
X-440Y-66531D01*
X-396Y-66494D01*
X-277Y-66405D01*
X-218Y-66361D01*
X-159Y-66331D01*
X-152Y-66324D01*
X-129Y-66316D01*
X-100Y-66302D01*
X-63Y-66287D01*
X-11Y-66272D01*
X48Y-66265D01*
X115Y-66250D01*
X233D01*
X277Y-66257D01*
X337Y-66265D01*
X403Y-66287D01*
X470Y-66309D01*
X537Y-66346D01*
X596Y-66398D01*
X603Y-66405D01*
X618Y-66420D01*
X640Y-66457D01*
X662Y-66501D01*
X685Y-66561D01*
X707Y-66627D01*
X722Y-66709D01*
X729Y-66798D01*
Y-66812D01*
Y-66842D01*
X722Y-66886D01*
X707Y-66953D01*
X685Y-67019D01*
X648Y-67093D01*
X603Y-67168D01*
X544Y-67242D01*
X537Y-67249D01*
X507Y-67271D01*
X470Y-67301D01*
X411Y-67330D01*
X344Y-67360D01*
X263Y-67390D01*
X166Y-67412D01*
X63Y-67419D01*
X-1772D01*
Y-70401D01*
Y-68070D01*
X-1254D01*
Y-69780D01*
X-1247Y-69787D01*
X-1232Y-69809D01*
X-1195Y-69839D01*
X-1151Y-69876D01*
X-1099Y-69920D01*
X-1032Y-69980D01*
X-951Y-70031D01*
X-862Y-70091D01*
X-758Y-70150D01*
X-648Y-70201D01*
X-522Y-70253D01*
X-396Y-70305D01*
X-248Y-70342D01*
X-100Y-70372D01*
X63Y-70394D01*
X233Y-70401D01*
X1802D01*
X314D01*
X359Y-70394D01*
X411D01*
X529Y-70379D01*
X670Y-70357D01*
X810Y-70320D01*
X958Y-70275D01*
X1099Y-70209D01*
X1106D01*
X1114Y-70201D01*
X1158Y-70172D01*
X1217Y-70127D01*
X1299Y-70068D01*
X1388Y-69994D01*
X1476Y-69906D01*
X1558Y-69809D01*
X1632Y-69691D01*
Y-69683D01*
X1639Y-69676D01*
X1661Y-69632D01*
X1684Y-69565D01*
X1713Y-69476D01*
X1750Y-69373D01*
X1772Y-69247D01*
X1795Y-69114D01*
X1802Y-68973D01*
Y-68884D01*
Y-68921D01*
X1795Y-68884D01*
Y-68840D01*
X1787Y-68788D01*
X1765Y-68670D01*
X1735Y-68529D01*
X1691Y-68388D01*
X1624Y-68248D01*
X1536Y-68115D01*
Y-68107D01*
X1521Y-68100D01*
X1484Y-68063D01*
X1424Y-68004D01*
X1343Y-67937D01*
X1232Y-67863D01*
X1106Y-67789D01*
X958Y-67730D01*
X908Y-67714D01*
X921Y-67708D01*
X1003Y-67671D01*
X1099Y-67626D01*
X1195Y-67567D01*
X1291Y-67486D01*
X1373Y-67397D01*
X1380Y-67382D01*
X1402Y-67345D01*
X1439Y-67293D01*
X1469Y-67212D01*
X1506Y-67116D01*
X1543Y-67005D01*
X1565Y-66879D01*
X1572Y-66746D01*
Y-66738D01*
Y-66731D01*
Y-66694D01*
X1565Y-66635D01*
X1550Y-66553D01*
X1536Y-66465D01*
X1506Y-66368D01*
X1462Y-66272D01*
X1410Y-66176D01*
X1402Y-66161D01*
X1380Y-66132D01*
X1343Y-66087D01*
X1284Y-66028D01*
X1217Y-65961D01*
X1136Y-65895D01*
X1040Y-65821D01*
X936Y-65762D01*
X921Y-65754D01*
X884Y-65739D01*
X818Y-65710D01*
X729Y-65680D01*
X625Y-65658D01*
X507Y-65628D01*
X374Y-65614D01*
X226Y-65606D01*
D02*
G37*
%LPD*%
G36*
X16617Y-68019D02*
X16054D01*
X15980Y-68011D01*
X15884Y-67996D01*
X15780Y-67974D01*
X15669Y-67937D01*
X15566Y-67893D01*
X15470Y-67826D01*
X15462Y-67819D01*
X15433Y-67789D01*
X15396Y-67737D01*
X15351Y-67671D01*
X15307Y-67582D01*
X15270Y-67463D01*
X15240Y-67330D01*
X15233Y-67168D01*
Y-67160D01*
Y-67131D01*
X15240Y-67093D01*
X15248Y-67042D01*
X15262Y-66983D01*
X15277Y-66916D01*
X15307Y-66849D01*
X15344Y-66775D01*
X15396Y-66701D01*
X15455Y-66635D01*
X15529Y-66568D01*
X15610Y-66509D01*
X15714Y-66457D01*
X15840Y-66420D01*
X15973Y-66391D01*
X16136Y-66383D01*
X16617D01*
Y-68019D01*
D02*
G37*
G36*
X12902Y-69735D02*
X12488Y-67182D01*
X11644D01*
X11266Y-69735D01*
X10956Y-66746D01*
X13220D01*
X12902Y-69735D01*
D02*
G37*
G36*
X-11326Y-68522D02*
X-12488D01*
X-11910Y-66405D01*
X-11326Y-68522D01*
D02*
G37*
G36*
X-16787Y-69521D02*
Y-69513D01*
Y-69506D01*
X-16780Y-69484D01*
Y-69454D01*
X-16772Y-69373D01*
X-16765Y-69269D01*
X-16750Y-69151D01*
X-16735Y-69017D01*
X-16728Y-68877D01*
X-16713Y-68729D01*
Y-68721D01*
Y-68714D01*
Y-68692D01*
X-16705Y-68655D01*
Y-68618D01*
Y-68573D01*
X-16698Y-68463D01*
X-16691Y-68322D01*
Y-68167D01*
X-16683Y-67989D01*
Y-67796D01*
Y-65688D01*
X-15462D01*
X-16787Y-69521D01*
D02*
G37*
G36*
X240Y-68078D02*
X300Y-68085D01*
X374Y-68100D01*
X448Y-68122D01*
X522Y-68152D01*
X596Y-68196D01*
X603Y-68204D01*
X625Y-68218D01*
X655Y-68248D01*
X699Y-68285D01*
X744Y-68329D01*
X788Y-68388D01*
X833Y-68448D01*
X869Y-68522D01*
Y-68529D01*
X884Y-68551D01*
X899Y-68596D01*
X914Y-68647D01*
X929Y-68707D01*
X943Y-68781D01*
X951Y-68855D01*
X958Y-68936D01*
Y-68944D01*
Y-68951D01*
Y-68995D01*
X951Y-69055D01*
X936Y-69136D01*
X914Y-69225D01*
X877Y-69321D01*
X833Y-69417D01*
X766Y-69506D01*
X758Y-69513D01*
X729Y-69543D01*
X685Y-69573D01*
X625Y-69617D01*
X544Y-69654D01*
X448Y-69691D01*
X337Y-69721D01*
X203Y-69728D01*
X166D01*
X129Y-69721D01*
X78D01*
X18Y-69713D01*
X-48Y-69698D01*
X-181Y-69661D01*
X-189D01*
X-211Y-69647D01*
X-240Y-69632D01*
X-285Y-69609D01*
X-366Y-69558D01*
X-411Y-69521D01*
X-448Y-69484D01*
Y-68070D01*
X189D01*
X240Y-68078D01*
D02*
G37*
%LPC*%
G36*
X-43486Y8401D02*
X-43560D01*
X-43648Y8394D01*
X-43752Y8379D01*
X-43878Y8364D01*
X-44011Y8335D01*
X-44144Y8290D01*
X-44277Y8239D01*
X-44285D01*
X-44292Y8231D01*
X-44337Y8209D01*
X-44396Y8172D01*
X-44477Y8128D01*
X-44559Y8061D01*
X-44647Y7987D01*
X-44736Y7898D01*
X-44810Y7802D01*
X-44818Y7787D01*
X-44840Y7757D01*
X-44869Y7698D01*
X-44906Y7624D01*
X-44936Y7536D01*
X-44965Y7432D01*
X-44988Y7321D01*
X-44995Y7203D01*
Y7195D01*
Y7180D01*
Y7158D01*
X-44988Y7129D01*
X-44980Y7047D01*
X-44965Y6951D01*
X-44929Y6832D01*
X-44884Y6707D01*
X-44818Y6588D01*
X-44729Y6470D01*
X-44714Y6455D01*
X-44684Y6425D01*
X-44625Y6374D01*
X-44551Y6322D01*
X-44455Y6263D01*
X-44351Y6211D01*
X-44233Y6174D01*
X-44100Y6159D01*
X-44144D01*
X-44174Y6152D01*
X-44248Y6144D01*
X-44351Y6115D01*
X-44462Y6078D01*
X-44581Y6026D01*
X-44706Y5952D01*
X-44825Y5848D01*
X-44840Y5833D01*
X-44877Y5796D01*
X-44921Y5730D01*
X-44980Y5634D01*
X-45039Y5515D01*
X-45084Y5375D01*
X-45121Y5212D01*
X-45136Y5027D01*
Y3599D01*
X-43367D01*
X-43323Y3606D01*
X-43278D01*
X-43160Y3621D01*
X-43027Y3636D01*
X-42886Y3665D01*
X-42738Y3710D01*
X-42583Y3762D01*
X-42575D01*
X-42568Y3769D01*
X-42546Y3776D01*
X-42516Y3791D01*
X-42442Y3836D01*
X-42353Y3887D01*
X-42250Y3961D01*
X-42131Y4050D01*
X-42020Y4161D01*
X-41909Y4287D01*
D01*
X-42435Y4746D01*
X-42442Y4738D01*
X-42472Y4709D01*
X-42516Y4664D01*
X-42575Y4612D01*
X-42642Y4553D01*
X-42716Y4494D01*
X-42797Y4442D01*
X-42886Y4398D01*
X-42901Y4391D01*
X-42930Y4383D01*
X-42975Y4368D01*
X-43042Y4346D01*
X-43115Y4324D01*
X-43204Y4309D01*
X-43301Y4302D01*
X-43397Y4294D01*
X-43463D01*
X-43537Y4302D01*
X-43626Y4316D01*
X-43722Y4346D01*
X-43826Y4376D01*
X-43929Y4428D01*
X-44018Y4494D01*
X-44026Y4501D01*
X-44055Y4531D01*
X-44092Y4575D01*
X-44137Y4642D01*
X-44174Y4724D01*
X-44211Y4820D01*
X-44240Y4931D01*
X-44248Y5057D01*
Y5064D01*
Y5086D01*
X-44240Y5123D01*
X-44233Y5167D01*
X-44225Y5227D01*
X-44203Y5286D01*
X-44181Y5353D01*
X-44144Y5419D01*
X-44107Y5486D01*
X-44048Y5552D01*
X-43989Y5612D01*
X-43907Y5671D01*
X-43819Y5715D01*
X-43707Y5752D01*
X-43582Y5774D01*
X-43441Y5782D01*
X-42990D01*
X-43079Y6440D01*
X-43463D01*
X-43523Y6448D01*
X-43597Y6463D01*
X-43678Y6477D01*
X-43767Y6507D01*
X-43848Y6551D01*
X-43929Y6603D01*
X-43937Y6611D01*
X-43959Y6633D01*
X-43996Y6677D01*
X-44033Y6729D01*
X-44070Y6796D01*
X-44107Y6884D01*
X-44129Y6981D01*
X-44137Y7091D01*
Y7106D01*
Y7136D01*
X-44129Y7195D01*
X-44115Y7254D01*
X-44085Y7328D01*
X-44055Y7402D01*
X-44003Y7476D01*
X-43937Y7543D01*
X-43929Y7550D01*
X-43900Y7565D01*
X-43863Y7595D01*
X-43804Y7624D01*
X-43730Y7654D01*
X-43641Y7683D01*
X-43537Y7698D01*
X-43426Y7706D01*
X-43382D01*
X-43330Y7698D01*
X-43271Y7691D01*
X-43197Y7683D01*
X-43115Y7669D01*
X-43034Y7639D01*
X-42953Y7609D01*
X-42945Y7602D01*
X-42916Y7595D01*
X-42871Y7572D01*
X-42819Y7536D01*
X-42746Y7498D01*
X-42671Y7447D01*
X-42583Y7380D01*
X-42487Y7306D01*
X-42042Y7787D01*
X-42050Y7795D01*
X-42072Y7817D01*
X-42102Y7846D01*
X-42153Y7883D01*
X-42205Y7928D01*
X-42279Y7980D01*
X-42361Y8039D01*
X-42450Y8098D01*
X-42553Y8150D01*
X-42664Y8209D01*
X-42783Y8261D01*
X-42908Y8305D01*
X-43042Y8342D01*
X-43182Y8372D01*
X-43330Y8394D01*
X-43486Y8401D01*
D02*
G37*
G36*
X-63503Y8401D02*
X-63577D01*
X-63665Y8394D01*
X-63769Y8379D01*
X-63895Y8364D01*
X-64028Y8335D01*
X-64161Y8290D01*
X-64294Y8239D01*
X-64302D01*
X-64309Y8231D01*
X-64354Y8209D01*
X-64413Y8172D01*
X-64494Y8128D01*
X-64575Y8061D01*
X-64664Y7987D01*
X-64753Y7898D01*
X-64827Y7802D01*
X-64834Y7787D01*
X-64857Y7757D01*
X-64886Y7698D01*
X-64923Y7624D01*
X-64953Y7536D01*
X-64982Y7432D01*
X-65005Y7321D01*
X-65012Y7203D01*
Y7195D01*
Y7180D01*
Y7158D01*
X-65005Y7129D01*
X-64997Y7047D01*
X-64982Y6951D01*
X-64946Y6832D01*
X-64901Y6707D01*
X-64834Y6588D01*
X-64746Y6470D01*
X-64731Y6455D01*
X-64701Y6425D01*
X-64642Y6374D01*
X-64568Y6322D01*
X-64472Y6263D01*
X-64368Y6211D01*
X-64250Y6174D01*
X-64117Y6159D01*
X-64161D01*
X-64191Y6152D01*
X-64265Y6144D01*
X-64368Y6115D01*
X-64479Y6078D01*
X-64598Y6026D01*
X-64723Y5952D01*
X-64842Y5848D01*
X-64857Y5833D01*
X-64894Y5796D01*
X-64938Y5730D01*
X-64997Y5634D01*
X-65057Y5515D01*
X-65101Y5375D01*
X-65138Y5212D01*
X-65153Y5027D01*
Y3599D01*
X-61926D01*
D01*
X-63384D01*
X-63340Y3606D01*
X-63295D01*
X-63177Y3621D01*
X-63044Y3636D01*
X-62903Y3665D01*
X-62755Y3710D01*
X-62600Y3762D01*
X-62592D01*
X-62585Y3769D01*
X-62563Y3776D01*
X-62533Y3791D01*
X-62459Y3836D01*
X-62370Y3887D01*
X-62267Y3961D01*
X-62148Y4050D01*
X-62037Y4161D01*
X-61926Y4287D01*
D01*
X-62452Y4746D01*
X-62459Y4738D01*
X-62489Y4709D01*
X-62533Y4664D01*
X-62592Y4612D01*
X-62659Y4553D01*
X-62733Y4494D01*
X-62814Y4442D01*
X-62903Y4398D01*
X-62918Y4391D01*
X-62947Y4383D01*
X-62992Y4368D01*
X-63059Y4346D01*
X-63133Y4324D01*
X-63221Y4309D01*
X-63318Y4302D01*
X-63414Y4294D01*
X-63480D01*
X-63554Y4302D01*
X-63643Y4316D01*
X-63739Y4346D01*
X-63843Y4376D01*
X-63946Y4428D01*
X-64035Y4494D01*
X-64043Y4501D01*
X-64072Y4531D01*
X-64109Y4575D01*
X-64154Y4642D01*
X-64191Y4724D01*
X-64228Y4820D01*
X-64257Y4931D01*
X-64265Y5057D01*
Y5064D01*
Y5086D01*
X-64257Y5123D01*
X-64250Y5167D01*
X-64243Y5227D01*
X-64220Y5286D01*
X-64198Y5353D01*
X-64161Y5419D01*
X-64124Y5486D01*
X-64065Y5552D01*
X-64006Y5612D01*
X-63924Y5671D01*
X-63836Y5715D01*
X-63724Y5752D01*
X-63599Y5774D01*
X-63458Y5782D01*
X-63007D01*
X-63095Y6440D01*
X-63480D01*
X-63539Y6448D01*
X-63613Y6463D01*
X-63695Y6477D01*
X-63784Y6507D01*
X-63865Y6551D01*
X-63946Y6603D01*
X-63954Y6611D01*
X-63976Y6633D01*
X-64013Y6677D01*
X-64050Y6729D01*
X-64087Y6796D01*
X-64124Y6884D01*
X-64146Y6981D01*
X-64154Y7091D01*
Y7106D01*
Y7136D01*
X-64146Y7195D01*
X-64131Y7254D01*
X-64102Y7328D01*
X-64072Y7402D01*
X-64021Y7476D01*
X-63954Y7543D01*
X-63946Y7550D01*
X-63917Y7565D01*
X-63880Y7595D01*
X-63821Y7624D01*
X-63747Y7654D01*
X-63658Y7683D01*
X-63554Y7698D01*
X-63443Y7706D01*
X-63399D01*
X-63347Y7698D01*
X-63288Y7691D01*
X-63214Y7683D01*
X-63133Y7669D01*
X-63051Y7639D01*
X-62970Y7609D01*
X-62962Y7602D01*
X-62933Y7595D01*
X-62888Y7572D01*
X-62836Y7536D01*
X-62762Y7498D01*
X-62688Y7447D01*
X-62600Y7380D01*
X-62503Y7306D01*
X-62059Y7787D01*
X-62067Y7795D01*
X-62089Y7817D01*
X-62119Y7846D01*
X-62170Y7883D01*
X-62222Y7928D01*
X-62296Y7980D01*
X-62378Y8039D01*
X-62467Y8098D01*
X-62570Y8150D01*
X-62681Y8209D01*
X-62800Y8261D01*
X-62925Y8305D01*
X-63059Y8342D01*
X-63199Y8372D01*
X-63347Y8394D01*
X-63503Y8401D01*
D02*
G37*
G36*
X-55621Y8313D02*
X-56362D01*
Y4376D01*
X-57257D01*
Y3680D01*
X-54193Y3680D01*
X-54400D01*
Y4376D01*
X-55503Y4376D01*
Y7432D01*
X-54549Y6825D01*
X-54193Y7417D01*
X-55621Y8313D01*
D02*
G37*
G36*
X-59692Y8401D02*
X-59728D01*
X-59765Y8394D01*
X-59825D01*
X-59891Y8379D01*
X-59965Y8372D01*
X-60047Y8349D01*
X-60136Y8320D01*
X-60232Y8290D01*
X-60335Y8246D01*
X-60431Y8194D01*
X-60535Y8135D01*
X-60631Y8061D01*
X-60720Y7980D01*
X-60809Y7883D01*
X-60890Y7772D01*
X-60898Y7765D01*
X-60905Y7743D01*
X-60927Y7706D01*
X-60957Y7654D01*
X-60987Y7595D01*
X-61016Y7513D01*
X-61053Y7424D01*
X-61098Y7321D01*
X-61134Y7203D01*
X-61172Y7069D01*
X-61201Y6921D01*
X-61231Y6766D01*
X-61260Y6596D01*
X-61282Y6411D01*
X-61290Y6211D01*
X-61297Y6004D01*
D01*
Y5893D01*
X-61290Y5811D01*
X-61282Y5715D01*
X-61275Y5612D01*
X-61260Y5486D01*
X-61246Y5353D01*
X-61201Y5064D01*
X-61127Y4768D01*
X-61083Y4627D01*
X-61023Y4487D01*
X-60964Y4354D01*
X-60890Y4228D01*
X-60883Y4220D01*
X-60868Y4198D01*
X-60846Y4169D01*
X-60816Y4132D01*
X-60772Y4080D01*
X-60720Y4028D01*
X-60661Y3969D01*
X-60587Y3917D01*
X-60505Y3858D01*
X-60417Y3799D01*
X-60321Y3747D01*
X-60210Y3695D01*
X-60098Y3658D01*
X-59973Y3628D01*
X-59832Y3606D01*
X-59692Y3599D01*
X-61297D01*
Y5893D01*
Y3599D01*
D01*
X-58093D01*
Y4109D01*
Y3599D01*
X-59654D01*
X-59618Y3606D01*
X-59566D01*
X-59499Y3621D01*
X-59425Y3636D01*
X-59336Y3650D01*
X-59247Y3680D01*
X-59151Y3710D01*
X-59055Y3754D01*
X-58959Y3806D01*
X-58855Y3865D01*
X-58759Y3939D01*
X-58670Y4021D01*
X-58582Y4117D01*
X-58500Y4228D01*
X-58493Y4235D01*
X-58485Y4257D01*
X-58463Y4294D01*
X-58434Y4346D01*
X-58404Y4405D01*
X-58374Y4487D01*
X-58337Y4583D01*
X-58300Y4687D01*
X-58256Y4805D01*
X-58219Y4938D01*
X-58189Y5086D01*
X-58160Y5241D01*
X-58130Y5412D01*
X-58108Y5597D01*
X-58100Y5796D01*
X-58093Y6004D01*
Y4109D01*
Y6004D01*
Y6115D01*
X-58100Y6196D01*
X-58108Y6292D01*
X-58115Y6403D01*
X-58130Y6522D01*
X-58145Y6655D01*
X-58189Y6936D01*
X-58263Y7232D01*
X-58315Y7380D01*
X-58367Y7521D01*
X-58426Y7654D01*
X-58500Y7772D01*
X-58508Y7780D01*
X-58522Y7802D01*
X-58544Y7831D01*
X-58574Y7869D01*
X-58618Y7920D01*
X-58670Y7972D01*
X-58729Y8031D01*
X-58803Y8090D01*
X-58885Y8142D01*
X-58974Y8202D01*
X-59070Y8253D01*
X-59174Y8305D01*
X-59292Y8342D01*
X-59418Y8372D01*
X-59551Y8394D01*
X-59692Y8401D01*
D02*
G37*
G36*
X-38069Y8313D02*
X-39097D01*
X-39689Y5301D01*
X-40252Y8313D01*
X-41280D01*
X-41539Y3680D01*
D01*
X-37817D01*
X-38069Y8313D01*
D02*
G37*
G36*
X-47504Y8401D02*
X-49102D01*
X-47578D01*
X-47666Y8394D01*
X-47778Y8379D01*
X-47903Y8357D01*
X-48037Y8327D01*
X-48170Y8283D01*
X-48303Y8224D01*
X-48310D01*
X-48318Y8216D01*
X-48362Y8194D01*
X-48421Y8150D01*
X-48495Y8098D01*
X-48577Y8031D01*
X-48665Y7942D01*
X-48747Y7854D01*
X-48821Y7743D01*
X-48828Y7728D01*
X-48851Y7691D01*
X-48880Y7624D01*
X-48910Y7543D01*
X-48939Y7447D01*
X-48969Y7328D01*
X-48991Y7203D01*
X-48998Y7069D01*
Y7062D01*
Y7055D01*
Y7032D01*
Y6995D01*
X-48991Y6921D01*
X-48976Y6818D01*
X-48954Y6692D01*
X-48917Y6559D01*
X-48873Y6418D01*
X-48806Y6270D01*
Y6263D01*
X-48799Y6255D01*
X-48784Y6233D01*
X-48769Y6204D01*
X-48725Y6122D01*
X-48665Y6019D01*
X-48577Y5893D01*
X-48473Y5752D01*
X-48355Y5589D01*
X-48207Y5419D01*
X-48199Y5412D01*
X-48184Y5397D01*
X-48162Y5375D01*
X-48133Y5338D01*
X-48088Y5293D01*
X-48037Y5241D01*
X-47977Y5182D01*
X-47911Y5116D01*
X-47829Y5049D01*
X-47748Y4968D01*
X-47652Y4879D01*
X-47548Y4790D01*
X-47437Y4694D01*
X-47319Y4598D01*
X-47193Y4494D01*
X-47060Y4391D01*
X-49102D01*
X-49013Y3680D01*
X-45994D01*
Y4294D01*
Y3680D01*
X-46090D01*
Y4324D01*
X-46098Y4331D01*
X-46127Y4361D01*
X-46172Y4405D01*
X-46231Y4465D01*
X-46305Y4531D01*
X-46386Y4612D01*
X-46475Y4701D01*
X-46579Y4797D01*
X-46786Y5005D01*
X-46993Y5219D01*
X-47200Y5426D01*
X-47289Y5523D01*
X-47370Y5612D01*
X-47378Y5619D01*
X-47385Y5634D01*
X-47407Y5656D01*
X-47437Y5686D01*
X-47511Y5774D01*
X-47600Y5878D01*
X-47696Y6004D01*
X-47792Y6129D01*
X-47874Y6263D01*
X-47948Y6381D01*
Y6389D01*
X-47955Y6396D01*
X-47977Y6433D01*
X-48000Y6499D01*
X-48037Y6581D01*
X-48066Y6677D01*
X-48088Y6788D01*
X-48110Y6906D01*
X-48118Y7025D01*
Y7040D01*
Y7077D01*
X-48110Y7136D01*
X-48096Y7203D01*
X-48074Y7284D01*
X-48044Y7365D01*
X-48000Y7439D01*
X-47940Y7513D01*
X-47933Y7521D01*
X-47911Y7543D01*
X-47866Y7572D01*
X-47815Y7602D01*
X-47741Y7632D01*
X-47659Y7661D01*
X-47563Y7683D01*
X-47452Y7691D01*
X-47407D01*
X-47356Y7683D01*
X-47289Y7676D01*
X-47215Y7669D01*
X-47134Y7647D01*
X-47052Y7624D01*
X-46978Y7587D01*
X-46971Y7580D01*
X-46941Y7565D01*
X-46904Y7543D01*
X-46852Y7506D01*
X-46786Y7454D01*
X-46712Y7388D01*
X-46630Y7314D01*
X-46542Y7217D01*
X-45994Y7639D01*
Y4294D01*
Y7639D01*
Y7647D01*
X-46009Y7654D01*
X-46024Y7676D01*
X-46046Y7706D01*
X-46105Y7772D01*
X-46187Y7861D01*
X-46283Y7957D01*
X-46394Y8054D01*
X-46512Y8142D01*
X-46645Y8216D01*
X-46653D01*
X-46660Y8224D01*
X-46682Y8231D01*
X-46712Y8246D01*
X-46786Y8275D01*
X-46889Y8313D01*
X-47015Y8342D01*
X-47163Y8372D01*
X-47326Y8394D01*
X-47504Y8401D01*
D02*
G37*
G36*
X-33865Y8313D02*
X-37492D01*
X-37403Y7572D01*
X-36115D01*
Y3680D01*
X-33865D01*
X-35220D01*
Y7572D01*
X-33865D01*
Y8313D01*
D02*
G37*
G36*
X-50493D02*
X-53394D01*
X-53305Y7609D01*
X-51381D01*
Y6300D01*
X-53083D01*
Y5597D01*
X-51381D01*
Y3680D01*
X-50493D01*
Y8313D01*
D02*
G37*
G36*
X-51633Y3680D02*
X-53394D01*
D01*
X-51633D01*
D02*
G37*
G36*
X-29847Y8401D02*
X-33362D01*
X-31719D01*
X-31764Y8394D01*
X-31830D01*
X-31912Y8387D01*
X-32008Y8372D01*
X-32112Y8349D01*
X-32223Y8327D01*
X-32348Y8298D01*
X-32474Y8253D01*
X-32607Y8209D01*
X-32733Y8150D01*
X-32866Y8083D01*
X-33000Y8002D01*
X-33125Y7905D01*
X-33251Y7802D01*
X-32792Y7284D01*
X-32785Y7291D01*
X-32770Y7299D01*
X-32741Y7321D01*
X-32704Y7343D01*
X-32659Y7380D01*
X-32607Y7410D01*
X-32541Y7447D01*
X-32474Y7484D01*
X-32311Y7558D01*
X-32134Y7624D01*
X-31934Y7669D01*
X-31830Y7676D01*
X-31719Y7683D01*
X-31660D01*
X-31601Y7676D01*
X-31527Y7669D01*
X-31438Y7647D01*
X-31342Y7624D01*
X-31253Y7587D01*
X-31172Y7543D01*
X-31165Y7536D01*
X-31142Y7521D01*
X-31105Y7491D01*
X-31076Y7447D01*
X-31039Y7395D01*
X-31002Y7328D01*
X-30979Y7254D01*
X-30972Y7165D01*
Y7158D01*
Y7143D01*
X-30979Y7114D01*
Y7077D01*
X-31009Y6988D01*
X-31024Y6944D01*
X-31054Y6899D01*
X-31061Y6892D01*
X-31068Y6877D01*
X-31091Y6862D01*
X-31128Y6832D01*
X-31165Y6803D01*
X-31216Y6766D01*
X-31283Y6729D01*
X-31357Y6692D01*
X-31364Y6684D01*
X-31394Y6677D01*
X-31446Y6655D01*
X-31512Y6625D01*
X-31601Y6596D01*
X-31712Y6559D01*
X-31838Y6514D01*
X-31978Y6470D01*
X-31986D01*
X-32008Y6463D01*
X-32045Y6448D01*
X-32089Y6433D01*
X-32141Y6411D01*
X-32208Y6389D01*
X-32356Y6329D01*
X-32519Y6255D01*
X-32689Y6166D01*
X-32852Y6063D01*
X-33000Y5945D01*
X-33007D01*
X-33015Y5930D01*
X-33059Y5885D01*
X-33118Y5811D01*
X-33185Y5708D01*
X-33251Y5582D01*
X-33303Y5419D01*
X-33347Y5234D01*
X-33355Y5130D01*
X-33362Y5020D01*
Y3599D01*
Y4945D01*
X-33355Y4864D01*
X-33333Y4768D01*
X-33310Y4650D01*
X-33274Y4524D01*
X-33222Y4391D01*
X-33148Y4265D01*
X-33140Y4250D01*
X-33111Y4213D01*
X-33059Y4154D01*
X-32992Y4087D01*
X-32904Y4006D01*
X-32792Y3924D01*
X-32667Y3843D01*
X-32526Y3769D01*
X-32519D01*
X-32511Y3762D01*
X-32482Y3754D01*
X-32452Y3739D01*
X-32415Y3732D01*
X-32371Y3717D01*
X-32252Y3687D01*
X-32112Y3650D01*
X-31949Y3628D01*
X-31771Y3606D01*
X-31571Y3599D01*
X-29847D01*
X-31527D01*
X-31468Y3606D01*
X-31394D01*
X-31305Y3621D01*
X-31201Y3636D01*
X-31083Y3650D01*
X-30957Y3680D01*
X-30817Y3717D01*
X-30676Y3762D01*
X-30536Y3813D01*
X-30395Y3872D01*
X-30247Y3946D01*
X-30106Y4035D01*
X-29973Y4139D01*
X-29847Y4250D01*
X-30328Y4790D01*
X-30336Y4783D01*
X-30351Y4768D01*
X-30380Y4746D01*
X-30424Y4716D01*
X-30476Y4679D01*
X-30536Y4635D01*
X-30610Y4598D01*
X-30683Y4553D01*
X-30772Y4501D01*
X-30869Y4465D01*
X-31083Y4383D01*
X-31194Y4354D01*
X-31320Y4331D01*
X-31438Y4316D01*
X-31571Y4309D01*
X-31638D01*
X-31705Y4316D01*
X-31793Y4331D01*
X-31890Y4354D01*
X-31993Y4383D01*
X-32097Y4420D01*
X-32193Y4479D01*
X-32201Y4487D01*
X-32230Y4509D01*
X-32267Y4553D01*
X-32319Y4605D01*
X-32363Y4679D01*
X-32400Y4761D01*
X-32430Y4864D01*
X-32437Y4975D01*
Y4983D01*
Y5005D01*
Y5042D01*
X-32430Y5086D01*
X-32408Y5182D01*
X-32363Y5279D01*
Y5286D01*
X-32348Y5301D01*
X-32334Y5323D01*
X-32304Y5353D01*
X-32274Y5390D01*
X-32230Y5426D01*
X-32178Y5471D01*
X-32112Y5508D01*
X-32104Y5515D01*
X-32075Y5523D01*
X-32038Y5545D01*
X-31971Y5574D01*
X-31897Y5604D01*
X-31801Y5641D01*
X-31690Y5678D01*
X-31564Y5715D01*
X-31557D01*
X-31534Y5723D01*
X-31490Y5737D01*
X-31438Y5759D01*
X-31379Y5782D01*
X-31305Y5804D01*
X-31224Y5833D01*
X-31135Y5870D01*
X-30950Y5952D01*
X-30765Y6041D01*
X-30587Y6152D01*
X-30506Y6204D01*
X-30432Y6263D01*
X-30424Y6270D01*
X-30417Y6278D01*
X-30373Y6322D01*
X-30314Y6396D01*
X-30247Y6492D01*
X-30180Y6618D01*
X-30121Y6766D01*
X-30077Y6929D01*
X-30069Y7025D01*
X-30062Y7121D01*
Y7129D01*
Y7136D01*
Y7158D01*
Y7188D01*
X-30077Y7254D01*
X-30092Y7343D01*
X-30114Y7447D01*
X-30151Y7565D01*
X-30202Y7676D01*
X-30269Y7787D01*
X-30277Y7802D01*
X-30306Y7839D01*
X-30358Y7891D01*
X-30424Y7957D01*
X-30506Y8031D01*
X-30602Y8105D01*
X-30720Y8172D01*
X-30846Y8239D01*
X-30854D01*
X-30861Y8246D01*
X-30883Y8253D01*
X-30913Y8261D01*
X-30987Y8290D01*
X-31091Y8320D01*
X-31209Y8349D01*
X-31350Y8379D01*
X-31505Y8394D01*
X-31675Y8401D01*
X-29847D01*
D02*
G37*
%LPD*%
G36*
X-45128Y4886D02*
X-45106Y4783D01*
X-45084Y4672D01*
X-45047Y4546D01*
X-44995Y4420D01*
X-44921Y4294D01*
X-44914Y4279D01*
X-44884Y4242D01*
X-44832Y4183D01*
X-44766Y4109D01*
X-44684Y4028D01*
X-44581Y3939D01*
X-44462Y3858D01*
X-44322Y3784D01*
X-44314D01*
X-44307Y3776D01*
X-44285Y3769D01*
X-44255Y3754D01*
X-44218Y3739D01*
X-44174Y3725D01*
X-44070Y3695D01*
X-43937Y3658D01*
X-43789Y3628D01*
X-43619Y3606D01*
X-43441Y3599D01*
X-45136D01*
Y4960D01*
X-45128Y4886D01*
D02*
G37*
G36*
X-65145Y4886D02*
X-65123Y4783D01*
X-65101Y4672D01*
X-65064Y4546D01*
X-65012Y4420D01*
X-64938Y4294D01*
X-64931Y4279D01*
X-64901Y4242D01*
X-64849Y4183D01*
X-64783Y4109D01*
X-64701Y4028D01*
X-64598Y3939D01*
X-64479Y3858D01*
X-64339Y3784D01*
X-64331D01*
X-64324Y3776D01*
X-64302Y3769D01*
X-64272Y3754D01*
X-64235Y3739D01*
X-64191Y3725D01*
X-64087Y3695D01*
X-63954Y3658D01*
X-63806Y3628D01*
X-63636Y3606D01*
X-63458Y3599D01*
X-65153D01*
Y4960D01*
X-65145Y4886D01*
D02*
G37*
G36*
X-59632Y7706D02*
X-59566Y7691D01*
X-59492Y7661D01*
X-59403Y7617D01*
X-59314Y7543D01*
X-59270Y7498D01*
X-59225Y7447D01*
X-59181Y7388D01*
X-59144Y7314D01*
Y7306D01*
X-59136Y7299D01*
X-59129Y7269D01*
X-59114Y7239D01*
X-59100Y7195D01*
X-59085Y7143D01*
X-59062Y7077D01*
X-59048Y7003D01*
X-59033Y6921D01*
X-59011Y6825D01*
X-58996Y6714D01*
X-58981Y6596D01*
X-58966Y6463D01*
X-58959Y6322D01*
X-58951Y6166D01*
Y6004D01*
Y5996D01*
Y5974D01*
Y5937D01*
Y5893D01*
Y5833D01*
Y5767D01*
X-58959Y5619D01*
Y5449D01*
X-58974Y5279D01*
X-58981Y5123D01*
X-58988Y5049D01*
X-58996Y4983D01*
X-60180Y7513D01*
X-60172Y7521D01*
X-60150Y7543D01*
X-60113Y7580D01*
X-60062Y7617D01*
X-59995Y7647D01*
X-59913Y7683D01*
X-59810Y7706D01*
X-59692Y7713D01*
X-59677D01*
X-59632Y7706D01*
D02*
G37*
G36*
X-59247Y4435D02*
X-59255Y4428D01*
X-59277Y4413D01*
X-59307Y4383D01*
X-59359Y4354D01*
X-59418Y4324D01*
X-59492Y4294D01*
X-59588Y4279D01*
X-59692Y4272D01*
X-59706D01*
X-59751Y4279D01*
X-59817Y4294D01*
X-59899Y4324D01*
X-59987Y4368D01*
X-60076Y4442D01*
X-60121Y4487D01*
X-60165Y4538D01*
X-60202Y4605D01*
X-60239Y4672D01*
Y4679D01*
X-60246Y4694D01*
X-60254Y4716D01*
X-60269Y4746D01*
X-60283Y4790D01*
X-60298Y4849D01*
X-60321Y4916D01*
X-60335Y4990D01*
X-60350Y5071D01*
X-60372Y5175D01*
X-60387Y5279D01*
X-60402Y5404D01*
X-60417Y5537D01*
X-60424Y5678D01*
X-60431Y5833D01*
Y6004D01*
Y6011D01*
Y6033D01*
Y6063D01*
Y6107D01*
Y6159D01*
Y6211D01*
Y6352D01*
X-60424Y6499D01*
X-60417Y6647D01*
X-60409Y6796D01*
X-60402Y6921D01*
X-59247Y4435D01*
D02*
G37*
G36*
X-38698Y7506D02*
X-38705Y7469D01*
Y7432D01*
Y7395D01*
X-38712Y7350D01*
Y7299D01*
Y7232D01*
X-38720Y7165D01*
Y7084D01*
Y6995D01*
X-38727Y6899D01*
Y6796D01*
Y6684D01*
Y6559D01*
Y6551D01*
Y6544D01*
Y6522D01*
Y6492D01*
Y6425D01*
Y6337D01*
Y6233D01*
Y6129D01*
X-38720Y6026D01*
Y5930D01*
X-38624Y3680D01*
X-40710D01*
X-40607Y5937D01*
Y5945D01*
Y5959D01*
Y5982D01*
Y6011D01*
X-40600Y6092D01*
Y6204D01*
X-40592Y6329D01*
Y6470D01*
X-40585Y6618D01*
Y6766D01*
Y6773D01*
Y6788D01*
Y6818D01*
Y6855D01*
Y6892D01*
Y6944D01*
Y7055D01*
X-40592Y7180D01*
Y7306D01*
X-40600Y7424D01*
X-40607Y7521D01*
X-40059Y4472D01*
X-39290D01*
X-38698Y7521D01*
Y7506D01*
D02*
G37*
%LPC*%
G36*
X29250Y70900D02*
X28473D01*
Y69583D01*
X27171D01*
Y70900D01*
D01*
D01*
Y67556D01*
Y68873D01*
X28473D01*
Y67556D01*
X27171D01*
X30538D01*
D01*
X29250D01*
Y68873D01*
X30538D01*
Y69583D01*
X29250D01*
Y70900D01*
D02*
G37*
G36*
X34830Y71766D02*
X32336D01*
X30885Y67134D01*
X31803D01*
X32121Y68214D01*
X33623D01*
X33942Y67134D01*
X34830D01*
X33379Y71766D01*
X34830D01*
D02*
G37*
%LPD*%
G36*
X33453Y68932D02*
X32291D01*
X32868Y71048D01*
X33453Y68932D01*
D02*
G37*
%LPC*%
G36*
X7933Y-73826D02*
X7644Y-74885D01*
X8225D01*
X7933Y-73826D01*
D02*
G37*
G36*
X-4077D02*
X-4366Y-74885D01*
X-3785D01*
X-4077Y-73826D01*
D02*
G37*
G36*
X13956Y-74296D02*
X13916D01*
X13882Y-74304D01*
X13819Y-74322D01*
X13768Y-74352D01*
X13723Y-74382D01*
X13690Y-74411D01*
X13664Y-74441D01*
X13646Y-74459D01*
X13642Y-74463D01*
Y-74467D01*
Y-75262D01*
X13668Y-75303D01*
X13697Y-75336D01*
X13723Y-75366D01*
X13753Y-75392D01*
X13782Y-75414D01*
X13808Y-75432D01*
X13864Y-75458D01*
X13908Y-75477D01*
X13945Y-75484D01*
X13960Y-75488D01*
X13979D01*
X14034Y-75480D01*
X14086Y-75462D01*
X14130Y-75432D01*
X14167Y-75395D01*
X14197Y-75347D01*
X14223Y-75299D01*
X14245Y-75244D01*
X14264Y-75188D01*
X14278Y-75133D01*
X14286Y-75077D01*
X14293Y-75029D01*
X14300Y-74981D01*
Y-74944D01*
X14304Y-74914D01*
Y-74896D01*
Y-74888D01*
Y-74833D01*
X14300Y-74781D01*
X14297Y-74733D01*
X14289Y-74689D01*
X14282Y-74648D01*
X14275Y-74611D01*
X14256Y-74548D01*
X14241Y-74500D01*
X14227Y-74467D01*
X14215Y-74448D01*
X14212Y-74441D01*
X14175Y-74393D01*
X14130Y-74356D01*
X14090Y-74330D01*
X14045Y-74315D01*
X14008Y-74304D01*
X13979Y-74300D01*
X13956Y-74296D01*
D02*
G37*
G36*
X-27879Y71171D02*
X-28360D01*
X-28493Y71163D01*
X-28604Y71148D01*
X-28700Y71126D01*
X-28781Y71104D01*
X-28841Y71082D01*
X-28878Y71060D01*
X-28907Y71045D01*
X-28915Y71037D01*
X-28974Y70978D01*
X-29018Y70912D01*
X-29055Y70838D01*
X-29077Y70771D01*
X-29092Y70704D01*
X-29100Y70653D01*
Y70616D01*
Y70601D01*
X-29092Y70490D01*
X-29070Y70394D01*
X-29048Y70312D01*
X-29018Y70246D01*
X-28981Y70201D01*
X-28959Y70164D01*
X-28937Y70142D01*
X-28929Y70135D01*
X-28855Y70090D01*
X-28774Y70053D01*
X-28685Y70031D01*
X-28604Y70009D01*
X-28522Y70001D01*
X-28463Y69994D01*
X-27879D01*
Y71171D01*
D02*
G37*
G36*
Y69298D02*
X-28456D01*
X-28596Y69291D01*
X-28715Y69276D01*
X-28818Y69247D01*
X-28907Y69224D01*
X-28974Y69195D01*
X-29026Y69165D01*
X-29055Y69150D01*
X-29063Y69143D01*
X-29137Y69076D01*
X-29188Y68995D01*
X-29225Y68899D01*
X-29248Y68810D01*
X-29270Y68729D01*
X-29277Y68662D01*
Y68610D01*
Y68603D01*
Y68595D01*
X-29270Y68484D01*
X-29240Y68381D01*
X-29196Y68292D01*
X-29144Y68218D01*
X-29077Y68159D01*
X-29011Y68107D01*
X-28929Y68063D01*
X-28855Y68026D01*
X-28774Y67996D01*
X-28693Y67981D01*
X-28626Y67966D01*
X-28559Y67952D01*
X-28508D01*
X-28463Y67944D01*
X-27879D01*
Y69298D01*
D02*
G37*
G36*
X-43506Y70950D02*
X-44283D01*
Y69633D01*
X-45585D01*
Y70950D01*
Y67606D01*
Y68923D01*
X-44283D01*
Y67606D01*
X-45585D01*
X-42218D01*
X-43506D01*
Y68923D01*
X-42218D01*
Y69633D01*
X-43506D01*
Y70950D01*
D02*
G37*
G36*
X-38400Y71816D02*
X-39776D01*
X-39828Y71809D01*
X-39887D01*
X-39961Y71801D01*
X-40043Y71794D01*
X-40132Y71779D01*
X-40324Y71750D01*
X-40524Y71698D01*
X-40731Y71631D01*
X-40923Y71535D01*
X-40931D01*
X-40946Y71520D01*
X-40968Y71505D01*
X-40997Y71483D01*
X-41079Y71409D01*
X-41123Y71365D01*
X-41168Y71313D01*
X-41212Y71254D01*
X-41256Y71187D01*
X-41301Y71113D01*
X-41338Y71024D01*
X-41367Y70936D01*
X-41390Y70832D01*
X-41404Y70728D01*
X-41412Y70610D01*
Y70603D01*
Y70595D01*
Y70573D01*
Y70543D01*
X-41397Y70462D01*
X-41382Y70366D01*
X-41352Y70262D01*
X-41308Y70144D01*
X-41241Y70033D01*
X-41160Y69922D01*
X-41145Y69907D01*
X-41116Y69877D01*
X-41064Y69840D01*
X-40990Y69789D01*
X-40909Y69737D01*
X-40805Y69692D01*
X-40694Y69655D01*
X-40576Y69641D01*
X-40613D01*
X-40642Y69633D01*
X-40723Y69618D01*
X-40820Y69596D01*
X-40938Y69559D01*
X-41056Y69507D01*
X-41182Y69433D01*
X-41301Y69345D01*
X-41315Y69330D01*
X-41352Y69293D01*
X-41397Y69234D01*
X-41456Y69145D01*
X-41515Y69034D01*
X-41560Y68893D01*
X-41597Y68730D01*
X-41611Y68545D01*
Y71816D01*
Y67184D01*
D01*
Y68479D01*
X-41604Y68427D01*
X-41597Y68368D01*
X-41582Y68294D01*
X-41545Y68138D01*
X-41515Y68057D01*
X-41486Y67968D01*
X-41441Y67879D01*
X-41390Y67791D01*
X-41330Y67709D01*
X-41256Y67628D01*
X-41182Y67561D01*
X-41086Y67495D01*
X-41079D01*
X-41064Y67480D01*
X-41034Y67465D01*
X-40990Y67443D01*
X-40946Y67421D01*
X-40879Y67398D01*
X-40812Y67369D01*
X-40731Y67339D01*
X-40642Y67310D01*
X-40538Y67280D01*
X-40435Y67258D01*
X-40317Y67236D01*
X-40198Y67213D01*
X-40065Y67199D01*
X-39784Y67184D01*
X-38400D01*
Y71816D01*
D02*
G37*
%LPD*%
G36*
X-39288Y69944D02*
X-39873D01*
X-39932Y69951D01*
X-40013Y69959D01*
X-40095Y69981D01*
X-40183Y70003D01*
X-40265Y70040D01*
X-40339Y70085D01*
X-40346Y70092D01*
X-40368Y70114D01*
X-40391Y70151D01*
X-40428Y70196D01*
X-40457Y70262D01*
X-40479Y70344D01*
X-40501Y70440D01*
X-40509Y70551D01*
Y70566D01*
Y70603D01*
X-40501Y70654D01*
X-40487Y70721D01*
X-40464Y70788D01*
X-40428Y70862D01*
X-40383Y70928D01*
X-40324Y70987D01*
X-40317Y70995D01*
X-40287Y71010D01*
X-40250Y71032D01*
X-40191Y71054D01*
X-40109Y71076D01*
X-40013Y71098D01*
X-39902Y71113D01*
X-39769Y71121D01*
X-39288D01*
Y69944D01*
D02*
G37*
G36*
Y67894D02*
X-39873D01*
X-39917Y67902D01*
X-39969D01*
X-40035Y67916D01*
X-40102Y67931D01*
X-40183Y67946D01*
X-40265Y67976D01*
X-40339Y68013D01*
X-40420Y68057D01*
X-40487Y68109D01*
X-40553Y68168D01*
X-40605Y68242D01*
X-40650Y68331D01*
X-40679Y68434D01*
X-40687Y68545D01*
Y68553D01*
Y68560D01*
Y68612D01*
X-40679Y68679D01*
X-40657Y68760D01*
X-40635Y68849D01*
X-40598Y68945D01*
X-40546Y69026D01*
X-40472Y69093D01*
X-40464Y69100D01*
X-40435Y69115D01*
X-40383Y69145D01*
X-40317Y69174D01*
X-40228Y69197D01*
X-40124Y69226D01*
X-40006Y69241D01*
X-39865Y69248D01*
X-39288D01*
Y67894D01*
D02*
G37*
%LPC*%
G36*
X-6061Y19312D02*
X-7696D01*
X-6801D01*
Y15376D01*
X-7696D01*
Y14680D01*
X-4840D01*
Y15376D01*
X-5942D01*
Y18432D01*
X-4988Y17825D01*
X-4632Y18417D01*
X-6061Y19312D01*
D02*
G37*
G36*
X1709Y19401D02*
X1554D01*
X1517Y19394D01*
X1465D01*
X1413Y19387D01*
X1280Y19364D01*
X1132Y19327D01*
X962Y19268D01*
X792Y19187D01*
X703Y19142D01*
X614Y19083D01*
X940Y18528D01*
X947D01*
X955Y18535D01*
X999Y18558D01*
X1066Y18587D01*
X1154Y18624D01*
X1258Y18661D01*
X1369Y18691D01*
X1487Y18713D01*
X1606Y18721D01*
X1643D01*
X1672Y18713D01*
X1754Y18698D01*
X1850Y18669D01*
X1961Y18624D01*
X2072Y18550D01*
X2131Y18506D01*
X2190Y18447D01*
X2242Y18387D01*
X2294Y18314D01*
Y18306D01*
X2301Y18291D01*
X2316Y18269D01*
X2331Y18239D01*
X2353Y18203D01*
X2375Y18151D01*
X2398Y18091D01*
X2427Y18032D01*
X2449Y17958D01*
X2479Y17877D01*
X2523Y17699D01*
X2553Y17485D01*
X2575Y17255D01*
X2568Y17263D01*
X2560Y17278D01*
X2546Y17300D01*
X2516Y17337D01*
X2486Y17374D01*
X2442Y17418D01*
X2390Y17462D01*
X2338Y17514D01*
X2272Y17559D01*
X2205Y17603D01*
X2124Y17648D01*
X2035Y17684D01*
X1939Y17721D01*
X1835Y17744D01*
X1724Y17759D01*
X1606Y17766D01*
X1539D01*
X1473Y17759D01*
X1376Y17744D01*
X1273Y17721D01*
X1162Y17692D01*
X1043Y17655D01*
X925Y17596D01*
X910Y17588D01*
X873Y17566D01*
X821Y17522D01*
X747Y17470D01*
X673Y17396D01*
X592Y17307D01*
X518Y17203D01*
X444Y17078D01*
Y17070D01*
X437Y17063D01*
X414Y17018D01*
X385Y16944D01*
X355Y16848D01*
X326Y16730D01*
X296Y16589D01*
X274Y16434D01*
X266Y16264D01*
Y14599D01*
Y16182D01*
X274Y16138D01*
Y16086D01*
X289Y15975D01*
X318Y15834D01*
X355Y15687D01*
X407Y15539D01*
X474Y15391D01*
Y15383D01*
X481Y15376D01*
X511Y15324D01*
X555Y15257D01*
X614Y15176D01*
X696Y15080D01*
X792Y14976D01*
X903Y14887D01*
X1029Y14798D01*
X1036D01*
X1043Y14791D01*
X1066Y14784D01*
X1088Y14769D01*
X1162Y14732D01*
X1258Y14702D01*
X1376Y14665D01*
X1510Y14628D01*
X1665Y14606D01*
X1828Y14599D01*
X1865D01*
D01*
X3456D01*
X1865D01*
X1909Y14606D01*
X1968D01*
X2035Y14621D01*
X2116Y14628D01*
X2205Y14650D01*
X2301Y14673D01*
X2398Y14702D01*
X2501Y14747D01*
X2605Y14791D01*
X2708Y14850D01*
X2805Y14917D01*
X2901Y14998D01*
X2982Y15094D01*
X3064Y15198D01*
X3071Y15205D01*
X3078Y15228D01*
X3101Y15265D01*
X3123Y15309D01*
X3152Y15368D01*
X3189Y15442D01*
X3226Y15531D01*
X3256Y15635D01*
X3293Y15746D01*
X3330Y15864D01*
X3367Y16005D01*
X3397Y16145D01*
X3419Y16308D01*
X3441Y16471D01*
X3448Y16648D01*
X3456Y16841D01*
Y16967D01*
X3448Y17033D01*
X3441Y17115D01*
Y17196D01*
X3426Y17292D01*
X3404Y17500D01*
X3367Y17729D01*
X3315Y17958D01*
X3241Y18180D01*
Y18188D01*
X3234Y18203D01*
X3219Y18239D01*
X3204Y18277D01*
X3182Y18321D01*
X3152Y18380D01*
X3078Y18506D01*
X2990Y18654D01*
X2879Y18802D01*
X2753Y18943D01*
X2605Y19076D01*
X2597Y19083D01*
X2583Y19091D01*
X2560Y19105D01*
X2531Y19128D01*
X2486Y19150D01*
X2442Y19179D01*
X2383Y19209D01*
X2324Y19239D01*
X2176Y19298D01*
X2005Y19350D01*
X1813Y19387D01*
X1709Y19401D01*
D02*
G37*
G36*
X-10301D02*
X-10456D01*
X-10493Y19394D01*
X-10545D01*
X-10597Y19387D01*
X-10730Y19364D01*
X-10878Y19327D01*
X-11048Y19268D01*
X-11218Y19187D01*
X-11307Y19142D01*
X-11396Y19083D01*
X-11070Y18528D01*
X-11063D01*
X-11056Y18535D01*
X-11011Y18558D01*
X-10945Y18587D01*
X-10856Y18624D01*
X-10752Y18661D01*
X-10641Y18691D01*
X-10523Y18713D01*
X-10404Y18721D01*
X-10367D01*
X-10338Y18713D01*
X-10256Y18698D01*
X-10160Y18669D01*
X-10049Y18624D01*
X-9938Y18550D01*
X-9879Y18506D01*
X-9820Y18447D01*
X-9768Y18387D01*
X-9716Y18314D01*
Y18306D01*
X-9709Y18291D01*
X-9694Y18269D01*
X-9679Y18239D01*
X-9657Y18203D01*
X-9635Y18151D01*
X-9613Y18091D01*
X-9583Y18032D01*
X-9561Y17958D01*
X-9531Y17877D01*
X-9487Y17699D01*
X-9457Y17485D01*
X-9435Y17255D01*
X-9442Y17263D01*
X-9450Y17278D01*
X-9465Y17300D01*
X-9494Y17337D01*
X-9524Y17374D01*
X-9568Y17418D01*
X-9620Y17462D01*
X-9672Y17514D01*
X-9738Y17559D01*
X-9805Y17603D01*
X-9886Y17648D01*
X-9975Y17684D01*
X-10071Y17721D01*
X-10175Y17744D01*
X-10286Y17759D01*
X-10404Y17766D01*
X-10471D01*
X-10538Y17759D01*
X-10634Y17744D01*
X-10737Y17721D01*
X-10848Y17692D01*
X-10967Y17655D01*
X-11085Y17596D01*
X-11100Y17588D01*
X-11137Y17566D01*
X-11189Y17522D01*
X-11263Y17470D01*
X-11337Y17396D01*
X-11418Y17307D01*
X-11492Y17203D01*
X-11566Y17078D01*
Y17070D01*
X-11574Y17063D01*
X-11596Y17018D01*
X-11625Y16944D01*
X-11655Y16848D01*
X-11685Y16730D01*
X-11714Y16589D01*
X-11736Y16434D01*
X-11744Y16264D01*
Y16271D01*
Y14599D01*
Y16182D01*
X-11736Y16138D01*
Y16086D01*
X-11722Y15975D01*
X-11692Y15834D01*
X-11655Y15687D01*
X-11603Y15539D01*
X-11537Y15391D01*
Y15383D01*
X-11529Y15376D01*
X-11500Y15324D01*
X-11455Y15257D01*
X-11396Y15176D01*
X-11315Y15080D01*
X-11218Y14976D01*
X-11107Y14887D01*
X-10982Y14798D01*
X-10974D01*
X-10967Y14791D01*
X-10945Y14784D01*
X-10922Y14769D01*
X-10848Y14732D01*
X-10752Y14702D01*
X-10634Y14665D01*
X-10501Y14628D01*
X-10345Y14606D01*
X-10182Y14599D01*
X-8554D01*
D01*
X-10145D01*
X-10101Y14606D01*
X-10042D01*
X-9975Y14621D01*
X-9894Y14628D01*
X-9805Y14650D01*
X-9709Y14673D01*
X-9613Y14702D01*
X-9509Y14747D01*
X-9405Y14791D01*
X-9302Y14850D01*
X-9206Y14917D01*
X-9109Y14998D01*
X-9028Y15094D01*
X-8947Y15198D01*
X-8939Y15205D01*
X-8932Y15228D01*
X-8910Y15265D01*
X-8887Y15309D01*
X-8858Y15368D01*
X-8821Y15442D01*
X-8784Y15531D01*
X-8754Y15635D01*
X-8717Y15746D01*
X-8680Y15864D01*
X-8643Y16005D01*
X-8614Y16145D01*
X-8591Y16308D01*
X-8569Y16471D01*
X-8562Y16648D01*
X-8554Y16841D01*
Y16967D01*
X-8562Y17033D01*
X-8569Y17115D01*
Y17196D01*
X-8584Y17292D01*
X-8606Y17500D01*
X-8643Y17729D01*
X-8695Y17958D01*
X-8769Y18180D01*
Y18188D01*
X-8776Y18203D01*
X-8791Y18239D01*
X-8806Y18277D01*
X-8828Y18321D01*
X-8858Y18380D01*
X-8932Y18506D01*
X-9021Y18654D01*
X-9132Y18802D01*
X-9257Y18943D01*
X-9405Y19076D01*
X-9413Y19083D01*
X-9428Y19091D01*
X-9450Y19105D01*
X-9479Y19128D01*
X-9524Y19150D01*
X-9568Y19179D01*
X-9627Y19209D01*
X-9687Y19239D01*
X-9835Y19298D01*
X-10005Y19350D01*
X-10197Y19387D01*
X-10301Y19401D01*
D02*
G37*
G36*
X11492Y19312D02*
X10464D01*
X9872Y16301D01*
X9309Y19312D01*
X8281D01*
X8022Y14680D01*
D01*
X11744D01*
D01*
X11492Y19312D01*
D02*
G37*
G36*
X-474Y19401D02*
X-2190D01*
X-2264Y19394D01*
X-2368Y19387D01*
X-2479Y19364D01*
X-2605Y19342D01*
X-2731Y19305D01*
X-2856Y19261D01*
X-2864D01*
X-2871Y19253D01*
X-2908Y19231D01*
X-2975Y19202D01*
X-3049Y19157D01*
X-3130Y19098D01*
X-3219Y19024D01*
X-3308Y18935D01*
X-3389Y18839D01*
X-3397Y18824D01*
X-3419Y18787D01*
X-3456Y18735D01*
X-3493Y18654D01*
X-3530Y18558D01*
X-3567Y18447D01*
X-3589Y18321D01*
X-3596Y18180D01*
Y18166D01*
Y18121D01*
X-3589Y18062D01*
X-3574Y17980D01*
X-3552Y17884D01*
X-3515Y17788D01*
X-3471Y17684D01*
X-3404Y17588D01*
X-3397Y17581D01*
X-3367Y17544D01*
X-3323Y17500D01*
X-3263Y17440D01*
X-3189Y17374D01*
X-3093Y17307D01*
X-2982Y17241D01*
X-2856Y17174D01*
X-2864D01*
X-2879Y17166D01*
X-2901Y17159D01*
X-2930Y17144D01*
X-3004Y17107D01*
X-3101Y17055D01*
X-3212Y16989D01*
X-3323Y16907D01*
X-3434Y16804D01*
X-3530Y16693D01*
X-3537Y16678D01*
X-3567Y16634D01*
X-3611Y16567D01*
X-3656Y16486D01*
X-3700Y16375D01*
X-3744Y16249D01*
X-3774Y16108D01*
X-3781Y15960D01*
Y15968D01*
Y14599D01*
Y15894D01*
X-3774Y15820D01*
X-3759Y15731D01*
X-3730Y15620D01*
X-3693Y15502D01*
X-3641Y15376D01*
X-3574Y15257D01*
X-3567Y15243D01*
X-3537Y15205D01*
X-3493Y15146D01*
X-3426Y15080D01*
X-3345Y14998D01*
X-3249Y14917D01*
X-3130Y14843D01*
X-2997Y14769D01*
X-2990D01*
X-2982Y14762D01*
X-2960Y14754D01*
X-2930Y14739D01*
X-2849Y14717D01*
X-2745Y14687D01*
X-2620Y14650D01*
X-2464Y14628D01*
X-2301Y14606D01*
X-2116Y14599D01*
X-2028D01*
X-1983Y14606D01*
X-1931D01*
X-1813Y14621D01*
X-1672Y14643D01*
X-1524Y14673D01*
X-1376Y14710D01*
X-1228Y14769D01*
X-1221D01*
X-1214Y14776D01*
X-1169Y14798D01*
X-1103Y14843D01*
X-1021Y14895D01*
X-932Y14961D01*
X-836Y15050D01*
X-747Y15139D01*
X-666Y15250D01*
X-659Y15265D01*
X-636Y15302D01*
X-607Y15368D01*
X-570Y15450D01*
X-533Y15553D01*
X-503Y15672D01*
X-481Y15798D01*
X-474Y15938D01*
Y15975D01*
X-481Y16012D01*
X-488Y16071D01*
X-503Y16138D01*
X-518Y16212D01*
X-548Y16293D01*
X-585Y16389D01*
X-629Y16478D01*
X-688Y16575D01*
X-755Y16671D01*
X-844Y16767D01*
X-940Y16863D01*
X-1058Y16952D01*
X-1191Y17026D01*
X-1347Y17100D01*
X-1339D01*
X-1332Y17107D01*
X-1288Y17130D01*
X-1228Y17159D01*
X-1154Y17203D01*
X-1066Y17255D01*
X-984Y17322D01*
X-903Y17403D01*
X-829Y17492D01*
X-821Y17507D01*
X-799Y17537D01*
X-777Y17596D01*
X-747Y17670D01*
X-710Y17759D01*
X-688Y17877D01*
X-666Y18003D01*
X-659Y18143D01*
Y18151D01*
Y18158D01*
Y18180D01*
Y18210D01*
X-673Y18284D01*
X-688Y18380D01*
X-710Y18484D01*
X-747Y18602D01*
X-799Y18713D01*
X-866Y18824D01*
X-873Y18839D01*
X-903Y18868D01*
X-947Y18920D01*
X-1014Y18987D01*
X-1088Y19053D01*
X-1184Y19128D01*
X-1295Y19194D01*
X-1413Y19253D01*
X-1421D01*
X-1428Y19261D01*
X-1473Y19275D01*
X-1539Y19298D01*
X-1628Y19327D01*
X-1739Y19357D01*
X-1857Y19379D01*
X-1991Y19394D01*
X-2124Y19401D01*
X-474D01*
D02*
G37*
G36*
X7689Y19312D02*
X4063D01*
X4151Y18573D01*
X5439D01*
Y14680D01*
X7689D01*
X6334D01*
Y18573D01*
X7689D01*
Y19312D01*
D02*
G37*
%LPD*%
G36*
X1850Y17093D02*
X1909Y17085D01*
X1976Y17070D01*
X2050Y17041D01*
X2131Y17011D01*
X2213Y16967D01*
X2220Y16959D01*
X2250Y16944D01*
X2287Y16915D01*
X2338Y16878D01*
X2390Y16826D01*
X2449Y16767D01*
X2509Y16700D01*
X2568Y16626D01*
Y16619D01*
Y16597D01*
Y16560D01*
X2560Y16508D01*
Y16449D01*
X2553Y16382D01*
X2538Y16234D01*
X2516Y16064D01*
X2486Y15886D01*
X2442Y15731D01*
X2412Y15657D01*
X2383Y15590D01*
X2375Y15575D01*
X2346Y15539D01*
X2309Y15487D01*
X2242Y15435D01*
X2168Y15376D01*
X2072Y15324D01*
X1954Y15287D01*
X1887Y15280D01*
X1820Y15272D01*
X1806D01*
X1769Y15280D01*
X1709Y15287D01*
X1635Y15302D01*
X1554Y15331D01*
X1465Y15376D01*
X1384Y15442D01*
X1317Y15524D01*
X1310Y15539D01*
X1288Y15568D01*
X1258Y15627D01*
X1228Y15709D01*
X1199Y15812D01*
X1169Y15931D01*
X1147Y16071D01*
X1140Y16234D01*
Y16241D01*
Y16271D01*
X1147Y16316D01*
Y16367D01*
X1162Y16434D01*
X1169Y16508D01*
X1214Y16671D01*
X1251Y16745D01*
X1288Y16826D01*
X1339Y16900D01*
X1399Y16967D01*
X1473Y17018D01*
X1554Y17063D01*
X1650Y17093D01*
X1761Y17100D01*
X1798D01*
X1850Y17093D01*
D02*
G37*
G36*
X-10160D02*
X-10101Y17085D01*
X-10034Y17070D01*
X-9960Y17041D01*
X-9879Y17011D01*
X-9798Y16967D01*
X-9790Y16959D01*
X-9761Y16944D01*
X-9724Y16915D01*
X-9672Y16878D01*
X-9620Y16826D01*
X-9561Y16767D01*
X-9502Y16700D01*
X-9442Y16626D01*
Y16619D01*
Y16597D01*
Y16560D01*
X-9450Y16508D01*
Y16449D01*
X-9457Y16382D01*
X-9472Y16234D01*
X-9494Y16064D01*
X-9524Y15886D01*
X-9568Y15731D01*
X-9598Y15657D01*
X-9627Y15590D01*
X-9635Y15575D01*
X-9664Y15539D01*
X-9701Y15487D01*
X-9768Y15435D01*
X-9842Y15376D01*
X-9938Y15324D01*
X-10057Y15287D01*
X-10123Y15280D01*
X-10190Y15272D01*
X-10205D01*
X-10242Y15280D01*
X-10301Y15287D01*
X-10375Y15302D01*
X-10456Y15331D01*
X-10545Y15376D01*
X-10626Y15442D01*
X-10693Y15524D01*
X-10700Y15539D01*
X-10723Y15568D01*
X-10752Y15627D01*
X-10782Y15709D01*
X-10811Y15812D01*
X-10841Y15931D01*
X-10863Y16071D01*
X-10871Y16234D01*
Y16241D01*
Y16271D01*
X-10863Y16316D01*
Y16367D01*
X-10848Y16434D01*
X-10841Y16508D01*
X-10797Y16671D01*
X-10760Y16745D01*
X-10723Y16826D01*
X-10671Y16900D01*
X-10612Y16967D01*
X-10538Y17018D01*
X-10456Y17063D01*
X-10360Y17093D01*
X-10249Y17100D01*
X-10212D01*
X-10160Y17093D01*
D02*
G37*
G36*
X10863Y18506D02*
X10856Y18469D01*
Y18432D01*
Y18395D01*
X10848Y18350D01*
Y18299D01*
Y18232D01*
X10841Y18166D01*
Y18084D01*
Y17995D01*
X10834Y17899D01*
Y17796D01*
Y17684D01*
Y17559D01*
Y17551D01*
Y17544D01*
Y17522D01*
Y17492D01*
Y17425D01*
Y17337D01*
Y17233D01*
Y17130D01*
X10841Y17026D01*
Y16930D01*
X10937Y14680D01*
X8850D01*
X8954Y16937D01*
Y16944D01*
Y16959D01*
Y16982D01*
Y17011D01*
X8961Y17093D01*
Y17203D01*
X8969Y17329D01*
Y17470D01*
X8976Y17618D01*
Y17766D01*
Y17773D01*
Y17788D01*
Y17818D01*
Y17855D01*
Y17892D01*
Y17943D01*
Y18055D01*
X8969Y18180D01*
Y18306D01*
X8961Y18425D01*
X8954Y18521D01*
X9502Y15472D01*
X10271D01*
X10863Y18521D01*
Y18506D01*
D02*
G37*
G36*
X-2020Y18735D02*
X-1954Y18721D01*
X-1880Y18706D01*
X-1798Y18676D01*
X-1724Y18632D01*
X-1658Y18580D01*
X-1650Y18573D01*
X-1635Y18550D01*
X-1606Y18513D01*
X-1576Y18469D01*
X-1547Y18402D01*
X-1517Y18328D01*
X-1502Y18239D01*
X-1495Y18136D01*
Y18128D01*
Y18106D01*
X-1502Y18069D01*
X-1510Y18018D01*
X-1532Y17914D01*
X-1554Y17862D01*
X-1584Y17810D01*
X-1591Y17803D01*
X-1598Y17788D01*
X-1621Y17766D01*
X-1650Y17736D01*
X-1687Y17707D01*
X-1724Y17670D01*
X-1835Y17603D01*
X-1843D01*
X-1865Y17588D01*
X-1902Y17573D01*
X-1954Y17551D01*
X-2020Y17522D01*
X-2094Y17492D01*
X-2183Y17462D01*
X-2279Y17425D01*
X-2294Y17433D01*
X-2324Y17455D01*
X-2368Y17485D01*
X-2420Y17522D01*
X-2479Y17566D01*
X-2538Y17618D01*
X-2597Y17677D01*
X-2642Y17736D01*
X-2649Y17744D01*
X-2664Y17766D01*
X-2679Y17803D01*
X-2701Y17855D01*
X-2723Y17914D01*
X-2745Y17980D01*
X-2753Y18055D01*
X-2760Y18143D01*
Y18158D01*
Y18188D01*
X-2753Y18239D01*
X-2738Y18299D01*
X-2723Y18373D01*
X-2694Y18447D01*
X-2649Y18513D01*
X-2597Y18580D01*
X-2590Y18587D01*
X-2568Y18602D01*
X-2531Y18632D01*
X-2479Y18661D01*
X-2412Y18691D01*
X-2331Y18721D01*
X-2235Y18735D01*
X-2124Y18743D01*
X-2072D01*
X-2020Y18735D01*
D02*
G37*
G36*
X-1865Y16819D02*
X-1835Y16804D01*
X-1806Y16782D01*
X-1717Y16715D01*
X-1621Y16619D01*
X-1524Y16500D01*
X-1436Y16353D01*
X-1406Y16264D01*
X-1376Y16175D01*
X-1362Y16071D01*
X-1354Y15968D01*
Y15953D01*
Y15916D01*
X-1362Y15849D01*
X-1376Y15775D01*
X-1399Y15694D01*
X-1436Y15612D01*
X-1480Y15524D01*
X-1547Y15450D01*
X-1554Y15442D01*
X-1584Y15420D01*
X-1628Y15391D01*
X-1695Y15361D01*
X-1776Y15331D01*
X-1872Y15302D01*
X-1991Y15280D01*
X-2124Y15272D01*
X-2183D01*
X-2250Y15280D01*
X-2331Y15294D01*
X-2427Y15316D01*
X-2523Y15353D01*
X-2612Y15398D01*
X-2694Y15457D01*
X-2701Y15464D01*
X-2723Y15494D01*
X-2760Y15531D01*
X-2797Y15590D01*
X-2827Y15664D01*
X-2864Y15746D01*
X-2886Y15842D01*
X-2893Y15953D01*
Y15960D01*
Y15990D01*
X-2886Y16034D01*
X-2879Y16093D01*
X-2864Y16153D01*
X-2849Y16212D01*
X-2819Y16278D01*
X-2782Y16338D01*
X-2775Y16345D01*
X-2760Y16367D01*
X-2738Y16389D01*
X-2701Y16427D01*
X-2657Y16471D01*
X-2605Y16508D01*
X-2538Y16552D01*
X-2464Y16589D01*
X-2457Y16597D01*
X-2427Y16612D01*
X-2383Y16626D01*
X-2316Y16656D01*
X-2235Y16693D01*
X-2139Y16737D01*
X-2020Y16782D01*
X-1887Y16834D01*
X-1880D01*
X-1865Y16819D01*
D02*
G37*
D12*
X-67200Y-1600D02*
X-66850D01*
X-67200Y-3400D02*
X-66850D01*
X-67200D02*
Y-1600D01*
X-66850Y-3400D02*
Y-1600D01*
X-68150Y-3400D02*
Y-1600D01*
X-67800Y-3400D02*
Y-1600D01*
X-68150D02*
X-67800D01*
X-68150Y-3400D02*
X-67800D01*
X-950Y39350D02*
Y40650D01*
Y39350D02*
X-600D01*
Y40650D01*
X-950D02*
X-600D01*
X600Y39350D02*
X950Y39350D01*
X600Y39350D02*
Y40650D01*
X950Y40650D01*
Y39350D02*
Y40650D01*
X-950Y46350D02*
Y47650D01*
Y46350D02*
X-600D01*
Y47650D01*
X-950D02*
X-600D01*
X600Y46350D02*
X950Y46350D01*
X600Y46350D02*
Y47650D01*
X950Y47650D01*
Y46350D02*
Y47650D01*
X-15650Y-28950D02*
X-14350D01*
X-14350Y-28600D02*
X-14350Y-28950D01*
X-15650Y-28600D02*
X-14350D01*
X-15650Y-28950D02*
X-15650Y-28600D01*
X-14350Y-27400D02*
Y-27050D01*
X-15650Y-27400D02*
X-14350D01*
X-15650D02*
Y-27050D01*
X-14350D01*
X-26400Y-36200D02*
Y-35850D01*
X-24600Y-36200D02*
Y-35850D01*
X-26400Y-36200D02*
X-24600D01*
X-26400Y-35850D02*
X-24600D01*
X-26400Y-37150D02*
X-24600D01*
X-26400Y-36800D02*
X-24600D01*
X-26400Y-37150D02*
Y-36800D01*
X-24600Y-37150D02*
Y-36800D01*
X-67200Y-12100D02*
X-66850D01*
X-67200Y-13900D02*
X-66850D01*
X-67200D02*
Y-12100D01*
X-66850Y-13900D02*
Y-12100D01*
X-68150Y-13900D02*
Y-12100D01*
X-67800Y-13900D02*
Y-12100D01*
X-68150D02*
X-67800D01*
X-68150Y-13900D02*
X-67800D01*
X-62900Y-36200D02*
Y-35850D01*
X-61100Y-36200D02*
Y-35850D01*
X-62900Y-36200D02*
X-61100D01*
X-62900Y-35850D02*
X-61100D01*
X-62900Y-37150D02*
X-61100D01*
X-62900Y-36800D02*
X-61100D01*
X-62900Y-37150D02*
Y-36800D01*
X-61100Y-37150D02*
Y-36800D01*
X-11650Y27950D02*
X-10350D01*
X-11650D02*
X-11650Y27600D01*
X-10350D01*
X-10350Y27950D01*
X-11650Y26050D02*
Y26400D01*
X-10350D01*
Y26050D02*
Y26400D01*
X-11650Y26050D02*
X-10350D01*
X-25650Y27950D02*
X-24350D01*
X-25650D02*
X-25650Y27600D01*
X-24350D01*
X-24350Y27950D01*
X-25650Y26050D02*
Y26400D01*
X-24350D01*
Y26050D02*
Y26400D01*
X-25650Y26050D02*
X-24350D01*
X17350Y27950D02*
X18650D01*
X17350D02*
X17350Y27600D01*
X18650D01*
X18650Y27950D01*
X17350Y26050D02*
Y26400D01*
X18650D01*
Y26050D02*
Y26400D01*
X17350Y26050D02*
X18650D01*
X3350Y27950D02*
X4650D01*
X3350D02*
X3350Y27600D01*
X4650D01*
X4650Y27950D01*
X3350Y26050D02*
Y26400D01*
X4650D01*
Y26050D02*
Y26400D01*
X3350Y26050D02*
X4650D01*
X-4650Y26100D02*
X-4300D01*
X-4650Y27900D02*
X-4300D01*
Y26100D02*
Y27900D01*
X-4650Y26100D02*
Y27900D01*
X-3350Y26100D02*
Y27900D01*
X-3700Y26100D02*
Y27900D01*
Y26100D02*
X-3350D01*
X-3700Y27900D02*
X-3350D01*
X-18650Y26100D02*
X-18300D01*
X-18650Y27900D02*
X-18300D01*
Y26100D02*
Y27900D01*
X-18650Y26100D02*
Y27900D01*
X-17350Y26100D02*
Y27900D01*
X-17700Y26100D02*
Y27900D01*
Y26100D02*
X-17350D01*
X-17700Y27900D02*
X-17350D01*
X24350Y26100D02*
X24700D01*
X24350Y27900D02*
X24700D01*
Y26100D02*
Y27900D01*
X24350Y26100D02*
Y27900D01*
X25650Y26100D02*
Y27900D01*
X25300Y26100D02*
Y27900D01*
Y26100D02*
X25650D01*
X25300Y27900D02*
X25650D01*
X11300D02*
X11650D01*
X11300Y26100D02*
X11650D01*
X11300D02*
Y27900D01*
X11650Y26100D02*
Y27900D01*
X10350Y26100D02*
Y27900D01*
X10700Y26100D02*
Y27900D01*
X10350D02*
X10700D01*
X10350Y26100D02*
X10700D01*
X-15650Y-23550D02*
X-14350D01*
X-15650D02*
X-15650Y-23900D01*
X-14350D01*
X-14350Y-23550D01*
X-15650Y-25450D02*
Y-25100D01*
X-14350D01*
Y-25450D02*
Y-25100D01*
X-15650Y-25450D02*
X-14350D01*
X-68150Y-32450D02*
X-66850D01*
X-66850Y-32100D02*
X-66850Y-32450D01*
X-68150Y-32100D02*
X-66850D01*
X-68150Y-32450D02*
X-68150Y-32100D01*
X-66850Y-30900D02*
Y-30550D01*
X-68150Y-30900D02*
X-66850D01*
X-68150D02*
Y-30550D01*
X-66850D01*
X4600Y-19700D02*
Y-19350D01*
X6400Y-19700D02*
Y-19350D01*
X4600Y-19700D02*
X6400D01*
X4600Y-19350D02*
X6400D01*
X4600Y-20650D02*
X6400D01*
X4600Y-20300D02*
X6400D01*
X4600Y-20650D02*
Y-20300D01*
X6400Y-20650D02*
Y-20300D01*
X8100Y-19700D02*
Y-19350D01*
X9900Y-19700D02*
Y-19350D01*
X8100Y-19700D02*
X9900D01*
X8100Y-19350D02*
X9900D01*
X8100Y-20650D02*
X9900D01*
X8100Y-20300D02*
X9900D01*
X8100Y-20650D02*
Y-20300D01*
X9900Y-20650D02*
Y-20300D01*
X-15650Y-21900D02*
X-15300D01*
X-15650Y-20100D02*
X-15300D01*
Y-21900D02*
Y-20100D01*
X-15650Y-21900D02*
Y-20100D01*
X-14350Y-21900D02*
Y-20100D01*
X-14700Y-21900D02*
Y-20100D01*
Y-21900D02*
X-14350D01*
X-14700Y-20100D02*
X-14350D01*
X-68150Y-39450D02*
X-66850D01*
X-66850Y-39100D02*
X-66850Y-39450D01*
X-68150Y-39100D02*
X-66850D01*
X-68150Y-39450D02*
X-68150Y-39100D01*
X-66850Y-37900D02*
Y-37550D01*
X-68150Y-37900D02*
X-66850D01*
X-68150D02*
Y-37550D01*
X-66850D01*
X22300Y-37100D02*
X22650D01*
X22300Y-38900D02*
X22650D01*
X22300D02*
Y-37100D01*
X22650Y-38900D02*
Y-37100D01*
X21350Y-38900D02*
Y-37100D01*
X21700Y-38900D02*
Y-37100D01*
X21350D02*
X21700D01*
X21350Y-38900D02*
X21700D01*
X21350Y-55550D02*
X22650D01*
X21350D02*
X21350Y-55900D01*
X22650D01*
X22650Y-55550D01*
X21350Y-57450D02*
Y-57100D01*
X22650D01*
Y-57450D02*
Y-57100D01*
X21350Y-57450D02*
X22650D01*
X-67200Y-34100D02*
X-66850D01*
X-67200Y-35900D02*
X-66850D01*
X-67200D02*
Y-34100D01*
X-66850Y-35900D02*
Y-34100D01*
X-68150Y-35900D02*
Y-34100D01*
X-67800Y-35900D02*
Y-34100D01*
X-68150D02*
X-67800D01*
X-68150Y-35900D02*
X-67800D01*
X-650Y-18400D02*
X-300D01*
X-650Y-16600D02*
X-300D01*
Y-18400D02*
Y-16600D01*
X-650Y-18400D02*
Y-16600D01*
X650Y-18400D02*
Y-16600D01*
X300Y-18400D02*
Y-16600D01*
Y-18400D02*
X650D01*
X300Y-16600D02*
X650D01*
X-650Y-21900D02*
X-300D01*
X-650Y-20100D02*
X-300D01*
Y-21900D02*
Y-20100D01*
X-650Y-21900D02*
Y-20100D01*
X650Y-21900D02*
Y-20100D01*
X300Y-21900D02*
Y-20100D01*
Y-21900D02*
X650D01*
X300Y-20100D02*
X650D01*
X-8150Y-21900D02*
X-7800D01*
X-8150Y-20100D02*
X-7800D01*
Y-21900D02*
Y-20100D01*
X-8150Y-21900D02*
Y-20100D01*
X-6850Y-21900D02*
Y-20100D01*
X-7200Y-21900D02*
Y-20100D01*
Y-21900D02*
X-6850D01*
X-7200Y-20100D02*
X-6850D01*
X6400Y-28650D02*
Y-28300D01*
X4600Y-28650D02*
Y-28300D01*
X6400D01*
X4600Y-28650D02*
X6400D01*
X4600Y-27350D02*
X6400D01*
X4600Y-27700D02*
X6400D01*
Y-27350D01*
X4600Y-27700D02*
Y-27350D01*
X9900Y-28650D02*
Y-28300D01*
X8100Y-28650D02*
Y-28300D01*
X9900D01*
X8100Y-28650D02*
X9900D01*
X8100Y-27350D02*
X9900D01*
X8100Y-27700D02*
X9900D01*
Y-27350D01*
X8100Y-27700D02*
Y-27350D01*
X24900Y-24650D02*
Y-24300D01*
X23100Y-24650D02*
Y-24300D01*
X24900D01*
X23100Y-24650D02*
X24900D01*
X23100Y-23350D02*
X24900D01*
X23100Y-23700D02*
X24900D01*
Y-23350D01*
X23100Y-23700D02*
Y-23350D01*
X24900Y-33150D02*
Y-32800D01*
X23100Y-33150D02*
Y-32800D01*
X24900D01*
X23100Y-33150D02*
X24900D01*
X23100Y-31850D02*
X24900D01*
X23100Y-32200D02*
X24900D01*
Y-31850D01*
X23100Y-32200D02*
Y-31850D01*
X21350Y-19400D02*
X21700D01*
X21350Y-17600D02*
X21700D01*
Y-19400D02*
Y-17600D01*
X21350Y-19400D02*
Y-17600D01*
X22650Y-19400D02*
Y-17600D01*
X22300Y-19400D02*
Y-17600D01*
Y-19400D02*
X22650D01*
X22300Y-17600D02*
X22650D01*
X13850Y-19450D02*
X15150D01*
X15150Y-19100D02*
X15150Y-19450D01*
X13850Y-19100D02*
X15150D01*
X13850Y-19450D02*
X13850Y-19100D01*
X15150Y-17900D02*
Y-17550D01*
X13850Y-17900D02*
X15150D01*
X13850D02*
Y-17550D01*
X15150D01*
X8050Y-36650D02*
Y-35350D01*
Y-36650D02*
X8400Y-36650D01*
Y-35350D01*
X8050Y-35350D02*
X8400Y-35350D01*
X9600Y-36650D02*
X9950D01*
X9600D02*
Y-35350D01*
X9950D01*
Y-36650D02*
Y-35350D01*
X6400Y-36650D02*
Y-36300D01*
X4600Y-36650D02*
Y-36300D01*
X6400D01*
X4600Y-36650D02*
X6400D01*
X4600Y-35350D02*
X6400D01*
X4600Y-35700D02*
X6400D01*
Y-35350D01*
X4600Y-35700D02*
Y-35350D01*
X13850Y-38950D02*
X15150D01*
X15150Y-38600D02*
X15150Y-38950D01*
X13850Y-38600D02*
X15150D01*
X13850Y-38950D02*
X13850Y-38600D01*
X15150Y-37400D02*
Y-37050D01*
X13850Y-37400D02*
X15150D01*
X13850D02*
Y-37050D01*
X15150D01*
D13*
X-29346Y40941D02*
Y45059D01*
X-22654Y40941D02*
Y45059D01*
X-71087Y-15795D02*
X-70791Y-15500D01*
X-64394D02*
X-64000Y-15894D01*
X-64500Y-28500D02*
X-64000Y-28000D01*
X-71000D02*
X-70500Y-28500D01*
X-64000Y-28000D02*
Y-27803D01*
X-70791Y-15500D02*
X-64394D01*
X-70500Y-28500D02*
X-64500D01*
X-64000Y-16091D02*
Y-15894D01*
X29346Y40941D02*
Y45059D01*
X22654Y40941D02*
Y45059D01*
X-9602Y-27457D02*
X-6256D01*
X-9602Y-31787D02*
Y-27457D01*
X-744D02*
X2602D01*
Y-31787D02*
Y-27457D01*
X-12224Y-59842D02*
Y-40157D01*
X-2776Y-59842D02*
Y-40157D01*
X-12224Y-59842D02*
X-2776D01*
X-12224Y-40157D02*
X-2776D01*
X4724Y-9843D02*
Y9843D01*
X-4724Y-9843D02*
Y9843D01*
X4724D01*
X-4724Y-9843D02*
X4724D01*
D14*
X-55000Y-31500D02*
Y-8500D01*
X-32000Y-8500D02*
X-32000Y-31500D01*
X-55000D02*
X-32000D01*
X-55000Y-8500D02*
X-32000Y-8500D01*
D84*
X-465Y32567D02*
G03*
X-465Y32567I-492J0D01*
G01*
X24276Y-32724D02*
G03*
X24276Y-32724I-492J0D01*
G01*
X-17441Y-61043D02*
G03*
X-17441Y-61043I-492J0D01*
G01*
X23535Y32567D02*
G03*
X23535Y32567I-492J0D01*
G01*
X10925Y11043D02*
G03*
X10925Y11043I-492J0D01*
G01*
M02*
