G04*
G04 #@! TF.GenerationSoftware,Altium Limited,Altium Designer,22.0.2 (36)*
G04*
G04 Layer_Color=16711935*
%FSLAX25Y25*%
%MOIN*%
G70*
G04*
G04 #@! TF.SameCoordinates,B24A499B-10B0-4348-9313-877DE5855C24*
G04*
G04*
G04 #@! TF.FilePolarity,Negative*
G04*
G01*
G75*
G04:AMPARAMS|DCode=36|XSize=26mil|YSize=26mil|CornerRadius=8mil|HoleSize=0mil|Usage=FLASHONLY|Rotation=0.000|XOffset=0mil|YOffset=0mil|HoleType=Round|Shape=RoundedRectangle|*
%AMROUNDEDRECTD36*
21,1,0.02600,0.01000,0,0,0.0*
21,1,0.01000,0.02600,0,0,0.0*
1,1,0.01600,0.00500,-0.00500*
1,1,0.01600,-0.00500,-0.00500*
1,1,0.01600,-0.00500,0.00500*
1,1,0.01600,0.00500,0.00500*
%
%ADD36ROUNDEDRECTD36*%
%ADD49C,0.20600*%
G04:AMPARAMS|DCode=61|XSize=37.64mil|YSize=63.38mil|CornerRadius=9.41mil|HoleSize=0mil|Usage=FLASHONLY|Rotation=270.000|XOffset=0mil|YOffset=0mil|HoleType=Round|Shape=RoundedRectangle|*
%AMROUNDEDRECTD61*
21,1,0.03764,0.04456,0,0,270.0*
21,1,0.01882,0.06338,0,0,270.0*
1,1,0.01882,-0.02228,-0.00941*
1,1,0.01882,-0.02228,0.00941*
1,1,0.01882,0.02228,0.00941*
1,1,0.01882,0.02228,-0.00941*
%
%ADD61ROUNDEDRECTD61*%
%ADD73O,0.02568X0.05718*%
G04:AMPARAMS|DCode=74|XSize=26mil|YSize=26mil|CornerRadius=8mil|HoleSize=0mil|Usage=FLASHONLY|Rotation=270.000|XOffset=0mil|YOffset=0mil|HoleType=Round|Shape=RoundedRectangle|*
%AMROUNDEDRECTD74*
21,1,0.02600,0.01000,0,0,270.0*
21,1,0.01000,0.02600,0,0,270.0*
1,1,0.01600,-0.00500,-0.00500*
1,1,0.01600,-0.00500,0.00500*
1,1,0.01600,0.00500,0.00500*
1,1,0.01600,0.00500,-0.00500*
%
%ADD74ROUNDEDRECTD74*%
G04:AMPARAMS|DCode=75|XSize=96.55mil|YSize=96.55mil|CornerRadius=25.64mil|HoleSize=0mil|Usage=FLASHONLY|Rotation=0.000|XOffset=0mil|YOffset=0mil|HoleType=Round|Shape=RoundedRectangle|*
%AMROUNDEDRECTD75*
21,1,0.09655,0.04528,0,0,0.0*
21,1,0.04528,0.09655,0,0,0.0*
1,1,0.05128,0.02264,-0.02264*
1,1,0.05128,-0.02264,-0.02264*
1,1,0.05128,-0.02264,0.02264*
1,1,0.05128,0.02264,0.02264*
%
%ADD75ROUNDEDRECTD75*%
G04:AMPARAMS|DCode=76|XSize=206mil|YSize=86mil|CornerRadius=23mil|HoleSize=0mil|Usage=FLASHONLY|Rotation=270.000|XOffset=0mil|YOffset=0mil|HoleType=Round|Shape=RoundedRectangle|*
%AMROUNDEDRECTD76*
21,1,0.20600,0.04000,0,0,270.0*
21,1,0.16000,0.08600,0,0,270.0*
1,1,0.04600,-0.02000,-0.08000*
1,1,0.04600,-0.02000,0.08000*
1,1,0.04600,0.02000,0.08000*
1,1,0.04600,0.02000,-0.08000*
%
%ADD76ROUNDEDRECTD76*%
G04:AMPARAMS|DCode=77|XSize=27.65mil|YSize=63.09mil|CornerRadius=8.41mil|HoleSize=0mil|Usage=FLASHONLY|Rotation=270.000|XOffset=0mil|YOffset=0mil|HoleType=Round|Shape=RoundedRectangle|*
%AMROUNDEDRECTD77*
21,1,0.02765,0.04626,0,0,270.0*
21,1,0.01083,0.06309,0,0,270.0*
1,1,0.01683,-0.02313,-0.00541*
1,1,0.01683,-0.02313,0.00541*
1,1,0.01683,0.02313,0.00541*
1,1,0.01683,0.02313,-0.00541*
%
%ADD77ROUNDEDRECTD77*%
G04:AMPARAMS|DCode=78|XSize=27.65mil|YSize=63.09mil|CornerRadius=8.41mil|HoleSize=0mil|Usage=FLASHONLY|Rotation=270.000|XOffset=0mil|YOffset=0mil|HoleType=Round|Shape=RoundedRectangle|*
%AMROUNDEDRECTD78*
21,1,0.02765,0.04626,0,0,270.0*
21,1,0.01083,0.06309,0,0,270.0*
1,1,0.01683,-0.02313,-0.00541*
1,1,0.01683,-0.02313,0.00541*
1,1,0.01683,0.02313,0.00541*
1,1,0.01683,0.02313,-0.00541*
%
%ADD78ROUNDEDRECTD78*%
G04:AMPARAMS|DCode=79|XSize=29.62mil|YSize=41mil|CornerRadius=8.91mil|HoleSize=0mil|Usage=FLASHONLY|Rotation=0.000|XOffset=0mil|YOffset=0mil|HoleType=Round|Shape=RoundedRectangle|*
%AMROUNDEDRECTD79*
21,1,0.02962,0.02319,0,0,0.0*
21,1,0.01181,0.04100,0,0,0.0*
1,1,0.01781,0.00591,-0.01159*
1,1,0.01781,-0.00591,-0.01159*
1,1,0.01781,-0.00591,0.01159*
1,1,0.01781,0.00591,0.01159*
%
%ADD79ROUNDEDRECTD79*%
G04:AMPARAMS|DCode=80|XSize=33.56mil|YSize=57.18mil|CornerRadius=9.89mil|HoleSize=0mil|Usage=FLASHONLY|Rotation=0.000|XOffset=0mil|YOffset=0mil|HoleType=Round|Shape=RoundedRectangle|*
%AMROUNDEDRECTD80*
21,1,0.03356,0.03740,0,0,0.0*
21,1,0.01378,0.05718,0,0,0.0*
1,1,0.01978,0.00689,-0.01870*
1,1,0.01978,-0.00689,-0.01870*
1,1,0.01978,-0.00689,0.01870*
1,1,0.01978,0.00689,0.01870*
%
%ADD80ROUNDEDRECTD80*%
%ADD81O,0.05718X0.02568*%
%ADD82O,0.01800X0.06000*%
%ADD83O,0.06000X0.01800*%
G36*
X60300Y36696D02*
X57858Y36178D01*
Y34911D01*
X57849Y34790D01*
Y34596D01*
X57840Y34513D01*
Y34374D01*
X57830Y34319D01*
Y34235D01*
X57821Y34189D01*
Y34170D01*
X57793Y33976D01*
X57756Y33810D01*
X57719Y33662D01*
X57682Y33542D01*
X57655Y33449D01*
X57627Y33375D01*
X57617Y33338D01*
X57608Y33320D01*
X57543Y33199D01*
X57479Y33097D01*
X57414Y32996D01*
X57340Y32912D01*
X57284Y32838D01*
X57238Y32783D01*
X57201Y32746D01*
X57192Y32737D01*
X57081Y32635D01*
X56961Y32542D01*
X56840Y32469D01*
X56720Y32404D01*
X56618Y32348D01*
X56535Y32311D01*
X56480Y32283D01*
X56471Y32274D01*
X56461D01*
X56286Y32210D01*
X56119Y32163D01*
X55953Y32126D01*
X55814Y32108D01*
X55684Y32089D01*
X55592Y32080D01*
X55555D01*
X55527D01*
X55518D01*
X55509D01*
X55323Y32089D01*
X55148Y32117D01*
X55000Y32154D01*
X54861Y32200D01*
X54759Y32247D01*
X54676Y32283D01*
X54630Y32311D01*
X54611Y32320D01*
X54482Y32413D01*
X54361Y32524D01*
X54269Y32635D01*
X54195Y32737D01*
X54140Y32829D01*
X54093Y32903D01*
X54075Y32950D01*
X54066Y32959D01*
Y32968D01*
X54010Y33125D01*
X53973Y33310D01*
X53936Y33486D01*
X53917Y33662D01*
X53908Y33819D01*
Y33884D01*
X53899Y33948D01*
Y36659D01*
X60300Y38000D01*
Y36696D01*
D02*
G37*
G36*
Y27029D02*
X59227Y26798D01*
Y30526D01*
X57488Y30147D01*
Y26807D01*
X56415Y26586D01*
Y29906D01*
X54972Y29592D01*
Y26160D01*
X53899Y25938D01*
Y30683D01*
X60300Y32024D01*
Y27029D01*
D02*
G37*
G36*
Y24819D02*
X55999Y23912D01*
X60300Y22173D01*
Y20962D01*
X53899Y19620D01*
Y20832D01*
X58182Y21738D01*
X53899Y23478D01*
Y24689D01*
X60300Y26030D01*
Y24819D01*
D02*
G37*
G36*
X58006Y19176D02*
X58246Y19149D01*
X58469Y19102D01*
X58681Y19047D01*
X58866Y18982D01*
X59042Y18917D01*
X59199Y18834D01*
X59347Y18751D01*
X59468Y18677D01*
X59579Y18594D01*
X59671Y18529D01*
X59745Y18455D01*
X59810Y18408D01*
X59847Y18362D01*
X59874Y18335D01*
X59884Y18325D01*
X59976Y18196D01*
X60059Y18066D01*
X60133Y17918D01*
X60189Y17770D01*
X60245Y17622D01*
X60291Y17465D01*
X60356Y17178D01*
X60374Y17040D01*
X60392Y16910D01*
X60402Y16799D01*
X60411Y16697D01*
X60420Y16614D01*
Y16503D01*
X60411Y16216D01*
X60383Y15948D01*
X60346Y15689D01*
X60309Y15467D01*
X60291Y15365D01*
X60272Y15273D01*
X60254Y15199D01*
X60235Y15134D01*
X60217Y15078D01*
X60207Y15042D01*
X60198Y15014D01*
Y15004D01*
X60106Y14736D01*
X60013Y14496D01*
X59921Y14283D01*
X59838Y14098D01*
X59791Y14024D01*
X59754Y13959D01*
X59727Y13894D01*
X59699Y13848D01*
X59671Y13811D01*
X59662Y13774D01*
X59643Y13765D01*
Y13756D01*
X56877Y13182D01*
Y16040D01*
X57951Y16262D01*
Y14625D01*
X58912Y14829D01*
X58968Y14958D01*
X59023Y15088D01*
X59079Y15217D01*
X59116Y15337D01*
X59153Y15439D01*
X59181Y15522D01*
X59190Y15578D01*
X59199Y15587D01*
Y15597D01*
X59236Y15763D01*
X59264Y15920D01*
X59292Y16068D01*
X59301Y16198D01*
X59310Y16309D01*
X59320Y16392D01*
Y16466D01*
X59301Y16716D01*
X59264Y16938D01*
X59199Y17123D01*
X59125Y17271D01*
X59061Y17391D01*
X58996Y17483D01*
X58959Y17530D01*
X58940Y17548D01*
X58866Y17613D01*
X58774Y17669D01*
X58589Y17761D01*
X58385Y17817D01*
X58191Y17863D01*
X58015Y17890D01*
X57941Y17900D01*
X57867D01*
X57812Y17909D01*
X57775D01*
X57747D01*
X57738D01*
X57433Y17900D01*
X57155Y17863D01*
X56896Y17817D01*
X56776Y17789D01*
X56674Y17761D01*
X56572Y17733D01*
X56480Y17706D01*
X56406Y17678D01*
X56341Y17659D01*
X56286Y17641D01*
X56248Y17622D01*
X56230Y17613D01*
X56221D01*
X55971Y17493D01*
X55758Y17354D01*
X55582Y17215D01*
X55435Y17086D01*
X55323Y16965D01*
X55250Y16864D01*
X55222Y16827D01*
X55203Y16799D01*
X55185Y16790D01*
Y16781D01*
X55074Y16577D01*
X54991Y16374D01*
X54926Y16179D01*
X54889Y15994D01*
X54861Y15846D01*
X54852Y15781D01*
Y15717D01*
X54843Y15680D01*
Y15615D01*
X54852Y15421D01*
X54889Y15245D01*
X54926Y15088D01*
X54981Y14958D01*
X55028Y14847D01*
X55074Y14773D01*
X55111Y14727D01*
X55120Y14708D01*
X55231Y14579D01*
X55361Y14477D01*
X55499Y14385D01*
X55629Y14311D01*
X55749Y14255D01*
X55841Y14209D01*
X55879Y14200D01*
X55906Y14190D01*
X55925Y14181D01*
X55934D01*
X55795Y12951D01*
X55620Y12997D01*
X55453Y13053D01*
X55296Y13117D01*
X55148Y13182D01*
X55009Y13256D01*
X54889Y13330D01*
X54778Y13404D01*
X54676Y13478D01*
X54593Y13552D01*
X54510Y13626D01*
X54445Y13682D01*
X54389Y13737D01*
X54352Y13783D01*
X54325Y13821D01*
X54306Y13839D01*
X54297Y13848D01*
X54204Y13978D01*
X54121Y14117D01*
X54056Y14255D01*
X54001Y14403D01*
X53908Y14699D01*
X53843Y14986D01*
X53825Y15115D01*
X53807Y15236D01*
X53797Y15347D01*
X53788Y15439D01*
X53779Y15513D01*
Y15624D01*
X53788Y15828D01*
X53807Y16022D01*
X53834Y16216D01*
X53871Y16392D01*
X53908Y16568D01*
X53964Y16725D01*
X54010Y16873D01*
X54066Y17003D01*
X54121Y17132D01*
X54167Y17234D01*
X54223Y17335D01*
X54260Y17410D01*
X54297Y17474D01*
X54325Y17521D01*
X54343Y17548D01*
X54352Y17558D01*
X54463Y17706D01*
X54584Y17844D01*
X54843Y18094D01*
X54981Y18214D01*
X55111Y18316D01*
X55240Y18408D01*
X55370Y18492D01*
X55490Y18566D01*
X55601Y18631D01*
X55694Y18686D01*
X55786Y18732D01*
X55851Y18769D01*
X55906Y18797D01*
X55943Y18806D01*
X55953Y18815D01*
X56276Y18936D01*
X56600Y19028D01*
X56905Y19093D01*
X57044Y19121D01*
X57174Y19139D01*
X57303Y19158D01*
X57414Y19167D01*
X57507Y19176D01*
X57599D01*
X57664Y19185D01*
X57710D01*
X57747D01*
X57756D01*
X58006Y19176D01*
D02*
G37*
G36*
X60300Y7826D02*
X59227Y7604D01*
Y9381D01*
X59236Y9612D01*
Y10417D01*
X59246Y10527D01*
Y10759D01*
X59255Y10860D01*
Y10953D01*
X54907Y7235D01*
X53899Y7040D01*
Y11656D01*
X54972Y11878D01*
Y8890D01*
X59292Y12581D01*
X60300Y12794D01*
Y7826D01*
D02*
G37*
G36*
Y5866D02*
X57442Y5264D01*
Y2776D01*
X60300Y3368D01*
Y2064D01*
X53899Y713D01*
Y2027D01*
X56369Y2545D01*
Y5033D01*
X53899Y4515D01*
Y5829D01*
X60300Y7170D01*
Y5866D01*
D02*
G37*
G36*
Y-526D02*
X53899Y-1877D01*
Y-563D01*
X60300Y778D01*
Y-526D01*
D02*
G37*
G36*
Y-3079D02*
X57442Y-3681D01*
Y-6169D01*
X60300Y-5577D01*
Y-6881D01*
X53899Y-8231D01*
Y-6918D01*
X56369Y-6400D01*
Y-3912D01*
X53899Y-4430D01*
Y-3116D01*
X60300Y-1775D01*
Y-3079D01*
D02*
G37*
G36*
X58617Y-8676D02*
X58764Y-8694D01*
X58912Y-8722D01*
X59042Y-8759D01*
X59171Y-8805D01*
X59282Y-8861D01*
X59394Y-8916D01*
X59486Y-8971D01*
X59579Y-9027D01*
X59653Y-9082D01*
X59717Y-9138D01*
X59773Y-9184D01*
X59819Y-9221D01*
X59847Y-9249D01*
X59865Y-9268D01*
X59874Y-9277D01*
X59967Y-9397D01*
X60050Y-9536D01*
X60124Y-9674D01*
X60189Y-9813D01*
X60245Y-9961D01*
X60291Y-10119D01*
X60356Y-10405D01*
X60374Y-10535D01*
X60392Y-10664D01*
X60402Y-10775D01*
X60411Y-10868D01*
X60420Y-10951D01*
Y-11062D01*
X60402Y-11404D01*
X60383Y-11571D01*
X60365Y-11719D01*
X60337Y-11857D01*
X60309Y-11987D01*
X60281Y-12107D01*
X60245Y-12218D01*
X60207Y-12320D01*
X60180Y-12403D01*
X60152Y-12477D01*
X60124Y-12542D01*
X60097Y-12588D01*
X60087Y-12625D01*
X60069Y-12644D01*
Y-12653D01*
X59930Y-12875D01*
X59773Y-13069D01*
X59625Y-13236D01*
X59477Y-13365D01*
X59347Y-13476D01*
X59246Y-13550D01*
X59209Y-13569D01*
X59181Y-13587D01*
X59162Y-13606D01*
X59153D01*
X59042Y-13661D01*
X58922Y-13717D01*
X58663Y-13828D01*
X58385Y-13920D01*
X58126Y-13994D01*
X58006Y-14031D01*
X57895Y-14059D01*
X57793Y-14087D01*
X57701Y-14115D01*
X57627Y-14133D01*
X57571Y-14142D01*
X57534Y-14152D01*
X57525D01*
X53899Y-14919D01*
Y-13606D01*
X57405Y-12866D01*
X57562Y-12829D01*
X57701Y-12801D01*
X57830Y-12764D01*
X57951Y-12727D01*
X58061Y-12699D01*
X58163Y-12672D01*
X58246Y-12634D01*
X58330Y-12616D01*
X58394Y-12588D01*
X58459Y-12561D01*
X58505Y-12542D01*
X58543Y-12524D01*
X58598Y-12505D01*
X58617Y-12496D01*
X58737Y-12422D01*
X58848Y-12338D01*
X58940Y-12246D01*
X59014Y-12163D01*
X59070Y-12089D01*
X59107Y-12024D01*
X59135Y-11987D01*
X59144Y-11969D01*
X59199Y-11839D01*
X59246Y-11691D01*
X59273Y-11552D01*
X59301Y-11423D01*
X59310Y-11303D01*
X59320Y-11201D01*
Y-11118D01*
X59310Y-10914D01*
X59282Y-10738D01*
X59246Y-10590D01*
X59209Y-10461D01*
X59171Y-10368D01*
X59135Y-10294D01*
X59107Y-10257D01*
X59097Y-10239D01*
X59005Y-10137D01*
X58912Y-10072D01*
X58811Y-10017D01*
X58718Y-9980D01*
X58635Y-9961D01*
X58570Y-9952D01*
X58533Y-9943D01*
X58515D01*
X58404Y-9961D01*
X58311Y-9971D01*
X58256Y-9980D01*
X58246D01*
X58237D01*
X57386Y-10174D01*
X53899Y-10932D01*
Y-9628D01*
X57275Y-8870D01*
X57395Y-8842D01*
X57497Y-8823D01*
X57590Y-8805D01*
X57673Y-8787D01*
X57747Y-8768D01*
X57812Y-8759D01*
X57923Y-8740D01*
X57987Y-8722D01*
X58043D01*
X58061Y-8713D01*
X58071D01*
X58219Y-8694D01*
X58284Y-8685D01*
X58348Y-8676D01*
X58394D01*
X58432Y-8666D01*
X58450D01*
X58459D01*
X58617Y-8676D01*
D02*
G37*
G36*
X60300Y-15927D02*
X53899Y-17278D01*
Y-15965D01*
X60300Y-14623D01*
Y-15927D01*
D02*
G37*
G36*
Y-18443D02*
X59088Y-18684D01*
Y-17445D01*
X60300Y-17204D01*
Y-18443D01*
D02*
G37*
G36*
Y-20710D02*
X59338Y-21588D01*
X59199Y-21709D01*
X59070Y-21829D01*
X58959Y-21931D01*
X58848Y-22014D01*
X58755Y-22097D01*
X58672Y-22171D01*
X58598Y-22227D01*
X58533Y-22282D01*
X58432Y-22366D01*
X58358Y-22421D01*
X58320Y-22449D01*
X58311Y-22458D01*
X58376Y-22486D01*
X58450Y-22513D01*
X58607Y-22588D01*
X58783Y-22671D01*
X58959Y-22754D01*
X59116Y-22837D01*
X59181Y-22874D01*
X59246Y-22902D01*
X59292Y-22930D01*
X59329Y-22948D01*
X59356Y-22967D01*
X59366D01*
X60300Y-23457D01*
Y-24946D01*
X57266Y-23365D01*
X53913Y-26285D01*
X57802Y-28045D01*
X60300Y-27527D01*
Y-28831D01*
X57932Y-29331D01*
X53899Y-32272D01*
Y-30737D01*
X55194Y-29840D01*
X56045Y-29229D01*
X56267Y-29081D01*
X56369Y-29016D01*
X56461Y-28961D01*
X56535Y-28924D01*
X56591Y-28887D01*
X56628Y-28868D01*
X56637Y-28859D01*
X56517Y-28813D01*
X56369Y-28757D01*
X56212Y-28692D01*
X56063Y-28628D01*
X55925Y-28572D01*
X55860Y-28545D01*
X55805Y-28526D01*
X55768Y-28508D01*
X55730Y-28489D01*
X55712Y-28480D01*
X55703D01*
X53899Y-27684D01*
Y-26297D01*
Y-24622D01*
X55009Y-23623D01*
X55166Y-23485D01*
X55342Y-23337D01*
X55518Y-23189D01*
X55675Y-23041D01*
X55823Y-22920D01*
X55888Y-22865D01*
X55943Y-22828D01*
X55980Y-22791D01*
X56017Y-22763D01*
X56036Y-22745D01*
X56045Y-22736D01*
X55999Y-22717D01*
X55962Y-22698D01*
X55943Y-22689D01*
X55934Y-22680D01*
X55795Y-22606D01*
X55666Y-22550D01*
X55555Y-22495D01*
X55462Y-22449D01*
X55379Y-22402D01*
X55314Y-22375D01*
X55250Y-22338D01*
X55203Y-22319D01*
X55166Y-22301D01*
X55138Y-22282D01*
X55092Y-22264D01*
X55074Y-22254D01*
X53899Y-21625D01*
Y-20247D01*
X57072Y-21838D01*
X60300Y-19008D01*
Y-20710D01*
D02*
G37*
G36*
Y-36407D02*
X59227Y-36629D01*
Y-34853D01*
X59236Y-34622D01*
Y-33817D01*
X59246Y-33706D01*
Y-33475D01*
X59255Y-33373D01*
Y-33281D01*
X54907Y-36999D01*
X53899Y-37193D01*
Y-32577D01*
X54972Y-32355D01*
Y-35343D01*
X59292Y-31653D01*
X60300Y-31440D01*
Y-36407D01*
D02*
G37*
%LPC*%
G36*
X56785Y35956D02*
X54953Y35567D01*
Y34402D01*
X54963Y34309D01*
Y34226D01*
X54972Y34078D01*
X54991Y33976D01*
X55000Y33893D01*
X55018Y33838D01*
X55028Y33810D01*
Y33801D01*
X55092Y33680D01*
X55157Y33588D01*
X55212Y33532D01*
X55231Y33514D01*
X55240D01*
X55296Y33477D01*
X55361Y33449D01*
X55481Y33412D01*
X55536D01*
X55582Y33403D01*
X55610D01*
X55620D01*
X55749Y33412D01*
X55860Y33430D01*
X55971Y33468D01*
X56063Y33505D01*
X56138Y33542D01*
X56202Y33579D01*
X56239Y33597D01*
X56248Y33606D01*
X56341Y33689D01*
X56424Y33782D01*
X56498Y33874D01*
X56554Y33958D01*
X56600Y34041D01*
X56628Y34106D01*
X56646Y34143D01*
X56656Y34161D01*
X56674Y34235D01*
X56702Y34319D01*
X56711Y34420D01*
X56730Y34522D01*
X56757Y34753D01*
X56766Y34984D01*
X56776Y35197D01*
X56785Y35299D01*
Y35956D01*
D02*
G37*
%LPD*%
D36*
X0Y42000D02*
D03*
Y38000D02*
D03*
Y49000D02*
D03*
Y45000D02*
D03*
X-25500Y-38500D02*
D03*
Y-34500D02*
D03*
X-62000Y-38500D02*
D03*
Y-34500D02*
D03*
X5500Y-22000D02*
D03*
Y-18000D02*
D03*
X9000Y-22000D02*
D03*
Y-18000D02*
D03*
X5500Y-26000D02*
D03*
Y-30000D02*
D03*
X9000Y-26000D02*
D03*
Y-30000D02*
D03*
X24000Y-22000D02*
D03*
Y-26000D02*
D03*
Y-30500D02*
D03*
Y-34500D02*
D03*
X9000Y-34000D02*
D03*
Y-38000D02*
D03*
X5500Y-34000D02*
D03*
Y-38000D02*
D03*
D49*
X-61024Y-61024D02*
D03*
X61024D02*
D03*
Y61024D02*
D03*
X-61024D02*
D03*
D61*
X-26000Y37878D02*
D03*
Y48122D02*
D03*
X26000D02*
D03*
Y37878D02*
D03*
D73*
X4500Y53433D02*
D03*
X-4500Y32567D02*
D03*
X-9500D02*
D03*
X-14500D02*
D03*
X-19500D02*
D03*
X-4500Y53433D02*
D03*
X-9500D02*
D03*
X-14500D02*
D03*
X-19500D02*
D03*
X9500D02*
D03*
X14500D02*
D03*
X19500D02*
D03*
X4500Y32567D02*
D03*
X9500D02*
D03*
X14500D02*
D03*
X19500D02*
D03*
D74*
X-69500Y-2500D02*
D03*
X-65500D02*
D03*
X-17000Y-28000D02*
D03*
X-13000D02*
D03*
X-69500Y-13000D02*
D03*
X-65500D02*
D03*
X-9000Y27000D02*
D03*
X-13000D02*
D03*
X-23000D02*
D03*
X-27000D02*
D03*
X20000D02*
D03*
X16000D02*
D03*
X6000D02*
D03*
X2000D02*
D03*
X-2000D02*
D03*
X-6000D02*
D03*
X-16000D02*
D03*
X-20000D02*
D03*
X27000D02*
D03*
X23000D02*
D03*
X9000D02*
D03*
X13000D02*
D03*
X-13000Y-24500D02*
D03*
X-17000D02*
D03*
X-69500Y-31500D02*
D03*
X-65500D02*
D03*
X-13000Y-21000D02*
D03*
X-17000D02*
D03*
X-69500Y-38500D02*
D03*
X-65500D02*
D03*
X20000Y-38000D02*
D03*
X24000D02*
D03*
Y-56500D02*
D03*
X20000D02*
D03*
X-69500Y-35000D02*
D03*
X-65500D02*
D03*
X2000Y-17500D02*
D03*
X-2000D02*
D03*
X2000Y-21000D02*
D03*
X-2000D02*
D03*
X-5500D02*
D03*
X-9500D02*
D03*
X24000Y-18500D02*
D03*
X20000D02*
D03*
X12500D02*
D03*
X16500D02*
D03*
X12500Y-38000D02*
D03*
X16500D02*
D03*
D75*
X-12000Y43000D02*
D03*
X12000D02*
D03*
D76*
X-18000Y70000D02*
D03*
X-6000D02*
D03*
X18000D02*
D03*
X6000D02*
D03*
D77*
X-67500Y-18260D02*
D03*
D78*
X-67500Y-22000D02*
D03*
Y-25740D02*
D03*
D79*
X-7240Y-36906D02*
D03*
X-3500D02*
D03*
X240D02*
D03*
Y-25506D02*
D03*
X-7240D02*
D03*
D80*
X20240Y-23276D02*
D03*
X16500D02*
D03*
X12760D02*
D03*
Y-32724D02*
D03*
X16500D02*
D03*
X20240D02*
D03*
D81*
X-17933Y-57500D02*
D03*
Y-52500D02*
D03*
Y-47500D02*
D03*
Y-42500D02*
D03*
X2933Y-57500D02*
D03*
Y-52500D02*
D03*
Y-47500D02*
D03*
Y-42500D02*
D03*
X10433Y7500D02*
D03*
Y2500D02*
D03*
Y-2500D02*
D03*
Y-7500D02*
D03*
X-10433Y7500D02*
D03*
Y2500D02*
D03*
Y-2500D02*
D03*
Y-7500D02*
D03*
D82*
X-36610Y-3500D02*
D03*
X-34642D02*
D03*
X-32673D02*
D03*
X-38579D02*
D03*
X-40547D02*
D03*
X-48421D02*
D03*
X-46453D02*
D03*
X-42516D02*
D03*
X-44484D02*
D03*
X-50390D02*
D03*
X-52358D02*
D03*
X-54327D02*
D03*
X-32673Y-36500D02*
D03*
X-34642D02*
D03*
X-36610D02*
D03*
X-42516D02*
D03*
X-44484D02*
D03*
X-40547D02*
D03*
X-38579D02*
D03*
X-46453D02*
D03*
X-48421D02*
D03*
X-54327D02*
D03*
X-52358D02*
D03*
X-50390D02*
D03*
D83*
X-27000Y-20984D02*
D03*
Y-9173D02*
D03*
Y-11142D02*
D03*
Y-13110D02*
D03*
Y-19016D02*
D03*
Y-17047D02*
D03*
Y-15079D02*
D03*
Y-22953D02*
D03*
Y-24921D02*
D03*
X-27000Y-30827D02*
D03*
X-27000Y-28858D02*
D03*
Y-26890D02*
D03*
X-60000Y-26890D02*
D03*
Y-28858D02*
D03*
Y-30827D02*
D03*
Y-24921D02*
D03*
Y-22953D02*
D03*
Y-15079D02*
D03*
Y-17047D02*
D03*
Y-20984D02*
D03*
Y-19016D02*
D03*
Y-13110D02*
D03*
Y-11142D02*
D03*
Y-9173D02*
D03*
M02*
