G04*
G04 #@! TF.GenerationSoftware,Altium Limited,Altium Designer,22.0.2 (36)*
G04*
G04 Layer_Physical_Order=1*
G04 Layer_Color=255*
%FSLAX25Y25*%
%MOIN*%
G70*
G04*
G04 #@! TF.SameCoordinates,B24A499B-10B0-4348-9313-877DE5855C24*
G04*
G04*
G04 #@! TF.FilePolarity,Positive*
G04*
G01*
G75*
%ADD10C,0.01000*%
%ADD11C,0.00400*%
%ADD14C,0.00600*%
G04:AMPARAMS|DCode=16|XSize=20mil|YSize=20mil|CornerRadius=5mil|HoleSize=0mil|Usage=FLASHONLY|Rotation=0.000|XOffset=0mil|YOffset=0mil|HoleType=Round|Shape=RoundedRectangle|*
%AMROUNDEDRECTD16*
21,1,0.02000,0.01000,0,0,0.0*
21,1,0.01000,0.02000,0,0,0.0*
1,1,0.01000,0.00500,-0.00500*
1,1,0.01000,-0.00500,-0.00500*
1,1,0.01000,-0.00500,0.00500*
1,1,0.01000,0.00500,0.00500*
%
%ADD16ROUNDEDRECTD16*%
G04:AMPARAMS|DCode=17|XSize=23.62mil|YSize=39.37mil|CornerRadius=5.91mil|HoleSize=0mil|Usage=FLASHONLY|Rotation=180.000|XOffset=0mil|YOffset=0mil|HoleType=Round|Shape=RoundedRectangle|*
%AMROUNDEDRECTD17*
21,1,0.02362,0.02756,0,0,180.0*
21,1,0.01181,0.03937,0,0,180.0*
1,1,0.01181,-0.00591,0.01378*
1,1,0.01181,0.00591,0.01378*
1,1,0.01181,0.00591,-0.01378*
1,1,0.01181,-0.00591,-0.01378*
%
%ADD17ROUNDEDRECTD17*%
G04:AMPARAMS|DCode=18|XSize=39.37mil|YSize=59.06mil|CornerRadius=9.84mil|HoleSize=0mil|Usage=FLASHONLY|Rotation=270.000|XOffset=0mil|YOffset=0mil|HoleType=Round|Shape=RoundedRectangle|*
%AMROUNDEDRECTD18*
21,1,0.03937,0.03937,0,0,270.0*
21,1,0.01968,0.05906,0,0,270.0*
1,1,0.01968,-0.01968,-0.00984*
1,1,0.01968,-0.01968,0.00984*
1,1,0.01968,0.01968,0.00984*
1,1,0.01968,0.01968,-0.00984*
%
%ADD18ROUNDEDRECTD18*%
G04:AMPARAMS|DCode=19|XSize=15.75mil|YSize=59.06mil|CornerRadius=3.94mil|HoleSize=0mil|Usage=FLASHONLY|Rotation=90.000|XOffset=0mil|YOffset=0mil|HoleType=Round|Shape=RoundedRectangle|*
%AMROUNDEDRECTD19*
21,1,0.01575,0.05118,0,0,90.0*
21,1,0.00787,0.05906,0,0,90.0*
1,1,0.00787,0.02559,0.00394*
1,1,0.00787,0.02559,-0.00394*
1,1,0.00787,-0.02559,-0.00394*
1,1,0.00787,-0.02559,0.00394*
%
%ADD19ROUNDEDRECTD19*%
G04:AMPARAMS|DCode=20|XSize=40mil|YSize=60mil|CornerRadius=10mil|HoleSize=0mil|Usage=FLASHONLY|Rotation=180.000|XOffset=0mil|YOffset=0mil|HoleType=Round|Shape=RoundedRectangle|*
%AMROUNDEDRECTD20*
21,1,0.04000,0.04000,0,0,180.0*
21,1,0.02000,0.06000,0,0,180.0*
1,1,0.02000,-0.01000,0.02000*
1,1,0.02000,0.01000,0.02000*
1,1,0.02000,0.01000,-0.02000*
1,1,0.02000,-0.01000,-0.02000*
%
%ADD20ROUNDEDRECTD20*%
G04:AMPARAMS|DCode=21|XSize=16mil|YSize=16mil|CornerRadius=8mil|HoleSize=0mil|Usage=FLASHONLY|Rotation=270.000|XOffset=0mil|YOffset=0mil|HoleType=Round|Shape=RoundedRectangle|*
%AMROUNDEDRECTD21*
21,1,0.01600,0.00000,0,0,270.0*
21,1,0.00000,0.01600,0,0,270.0*
1,1,0.01600,0.00000,0.00000*
1,1,0.01600,0.00000,0.00000*
1,1,0.01600,0.00000,0.00000*
1,1,0.01600,0.00000,0.00000*
%
%ADD21ROUNDEDRECTD21*%
G04:AMPARAMS|DCode=22|XSize=39.37mil|YSize=59.06mil|CornerRadius=9.84mil|HoleSize=0mil|Usage=FLASHONLY|Rotation=0.000|XOffset=0mil|YOffset=0mil|HoleType=Round|Shape=RoundedRectangle|*
%AMROUNDEDRECTD22*
21,1,0.03937,0.03937,0,0,0.0*
21,1,0.01968,0.05906,0,0,0.0*
1,1,0.01968,0.00984,-0.01968*
1,1,0.01968,-0.00984,-0.01968*
1,1,0.01968,-0.00984,0.01968*
1,1,0.01968,0.00984,0.01968*
%
%ADD22ROUNDEDRECTD22*%
G04:AMPARAMS|DCode=23|XSize=15.75mil|YSize=59.06mil|CornerRadius=3.94mil|HoleSize=0mil|Usage=FLASHONLY|Rotation=180.000|XOffset=0mil|YOffset=0mil|HoleType=Round|Shape=RoundedRectangle|*
%AMROUNDEDRECTD23*
21,1,0.01575,0.05118,0,0,180.0*
21,1,0.00787,0.05906,0,0,180.0*
1,1,0.00787,-0.00394,0.02559*
1,1,0.00787,0.00394,0.02559*
1,1,0.00787,0.00394,-0.02559*
1,1,0.00787,-0.00394,-0.02559*
%
%ADD23ROUNDEDRECTD23*%
%ADD24R,0.01968X0.01968*%
G04:AMPARAMS|DCode=25|XSize=40mil|YSize=74mil|CornerRadius=10mil|HoleSize=0mil|Usage=FLASHONLY|Rotation=90.000|XOffset=0mil|YOffset=0mil|HoleType=Round|Shape=RoundedRectangle|*
%AMROUNDEDRECTD25*
21,1,0.04000,0.05400,0,0,90.0*
21,1,0.02000,0.07400,0,0,90.0*
1,1,0.02000,0.02700,0.01000*
1,1,0.02000,0.02700,-0.01000*
1,1,0.02000,-0.02700,-0.01000*
1,1,0.02000,-0.02700,0.01000*
%
%ADD25ROUNDEDRECTD25*%
G04:AMPARAMS|DCode=26|XSize=59.06mil|YSize=39.37mil|CornerRadius=9.84mil|HoleSize=0mil|Usage=FLASHONLY|Rotation=180.000|XOffset=0mil|YOffset=0mil|HoleType=Round|Shape=RoundedRectangle|*
%AMROUNDEDRECTD26*
21,1,0.05906,0.01968,0,0,180.0*
21,1,0.03937,0.03937,0,0,180.0*
1,1,0.01968,-0.01968,0.00984*
1,1,0.01968,0.01968,0.00984*
1,1,0.01968,0.01968,-0.00984*
1,1,0.01968,-0.01968,-0.00984*
%
%ADD26ROUNDEDRECTD26*%
G04:AMPARAMS|DCode=27|XSize=55mil|YSize=65mil|CornerRadius=13.75mil|HoleSize=0mil|Usage=FLASHONLY|Rotation=90.000|XOffset=0mil|YOffset=0mil|HoleType=Round|Shape=RoundedRectangle|*
%AMROUNDEDRECTD27*
21,1,0.05500,0.03750,0,0,90.0*
21,1,0.02750,0.06500,0,0,90.0*
1,1,0.02750,0.01875,0.01375*
1,1,0.02750,0.01875,-0.01375*
1,1,0.02750,-0.01875,-0.01375*
1,1,0.02750,-0.01875,0.01375*
%
%ADD27ROUNDEDRECTD27*%
G04:AMPARAMS|DCode=28|XSize=85.04mil|YSize=88.98mil|CornerRadius=21.26mil|HoleSize=0mil|Usage=FLASHONLY|Rotation=0.000|XOffset=0mil|YOffset=0mil|HoleType=Round|Shape=RoundedRectangle|*
%AMROUNDEDRECTD28*
21,1,0.08504,0.04646,0,0,0.0*
21,1,0.04252,0.08898,0,0,0.0*
1,1,0.04252,0.02126,-0.02323*
1,1,0.04252,-0.02126,-0.02323*
1,1,0.04252,-0.02126,0.02323*
1,1,0.04252,0.02126,0.02323*
%
%ADD28ROUNDEDRECTD28*%
G04:AMPARAMS|DCode=29|XSize=19.68mil|YSize=23.62mil|CornerRadius=4.92mil|HoleSize=0mil|Usage=FLASHONLY|Rotation=90.000|XOffset=0mil|YOffset=0mil|HoleType=Round|Shape=RoundedRectangle|*
%AMROUNDEDRECTD29*
21,1,0.01968,0.01378,0,0,90.0*
21,1,0.00984,0.02362,0,0,90.0*
1,1,0.00984,0.00689,0.00492*
1,1,0.00984,0.00689,-0.00492*
1,1,0.00984,-0.00689,-0.00492*
1,1,0.00984,-0.00689,0.00492*
%
%ADD29ROUNDEDRECTD29*%
G04:AMPARAMS|DCode=30|XSize=25mil|YSize=50mil|CornerRadius=6.25mil|HoleSize=0mil|Usage=FLASHONLY|Rotation=0.000|XOffset=0mil|YOffset=0mil|HoleType=Round|Shape=RoundedRectangle|*
%AMROUNDEDRECTD30*
21,1,0.02500,0.03750,0,0,0.0*
21,1,0.01250,0.05000,0,0,0.0*
1,1,0.01250,0.00625,-0.01875*
1,1,0.01250,-0.00625,-0.01875*
1,1,0.01250,-0.00625,0.01875*
1,1,0.01250,0.00625,0.01875*
%
%ADD30ROUNDEDRECTD30*%
%ADD50C,0.02000*%
%ADD51C,0.08000*%
%ADD52C,0.04000*%
%ADD53C,0.03000*%
%ADD54C,0.20000*%
%ADD55C,0.01800*%
%ADD56C,0.02362*%
G36*
X-61046Y80185D02*
X4011D01*
X4134Y80000D01*
Y79309D01*
X4073Y79000D01*
Y75000D01*
X4134Y74691D01*
Y59933D01*
X4135Y59931D01*
X3882Y59521D01*
X3523Y59523D01*
X3171Y59941D01*
Y65059D01*
X3110Y65369D01*
X2934Y65631D01*
X2672Y65807D01*
X2362Y65868D01*
X1575D01*
X1265Y65807D01*
X1003Y65631D01*
X827Y65369D01*
X766Y65059D01*
Y59941D01*
X827Y59631D01*
X1003Y59369D01*
X1265Y59193D01*
X1495Y59148D01*
X1556Y59119D01*
X1570Y59119D01*
X1745Y58914D01*
X1681Y58672D01*
X1448Y58414D01*
X524D01*
X-805Y59742D01*
X-766Y59941D01*
Y65059D01*
X-827Y65369D01*
X-1003Y65631D01*
X-1265Y65807D01*
X-1575Y65868D01*
X-2362D01*
X-2672Y65807D01*
X-2934Y65631D01*
X-3110Y65369D01*
X-3171Y65059D01*
Y59941D01*
X-3110Y59631D01*
X-2934Y59369D01*
X-2672Y59193D01*
X-2442Y59148D01*
X-2381Y59119D01*
X-2279Y59115D01*
X-2254Y59112D01*
X-2231Y59108D01*
X-2215Y59104D01*
X-2209Y59102D01*
X-2207Y59100D01*
X-2203Y59099D01*
X-2195Y59093D01*
X-2190Y59092D01*
X-2187Y59091D01*
X-2187D01*
X-2179Y59077D01*
X-2151Y59070D01*
X-277Y57195D01*
X-45Y57041D01*
X-32Y57038D01*
X-81Y56538D01*
X-18840D01*
X-19185Y56681D01*
X-19815D01*
X-20160Y56538D01*
X-21840D01*
X-22185Y56681D01*
X-22815D01*
X-23235Y56507D01*
X-24149Y56387D01*
X-25219Y55943D01*
X-26138Y55238D01*
X-30138Y51238D01*
X-30843Y50319D01*
X-31287Y49249D01*
X-31438Y48100D01*
Y-5400D01*
X-31287Y-6549D01*
X-30843Y-7619D01*
X-30138Y-8538D01*
X-19792Y-18884D01*
Y-22591D01*
X-19860Y-22692D01*
X-20056Y-23677D01*
Y-28323D01*
X-19860Y-29308D01*
X-19792Y-29409D01*
Y-34815D01*
X-19875D01*
X-20568Y-34953D01*
X-21155Y-35345D01*
X-21547Y-35932D01*
X-21685Y-36625D01*
Y-38908D01*
X-27381Y-44605D01*
X-29469D01*
X-30009Y-44712D01*
X-30084Y-44762D01*
X-31417D01*
X-31492Y-44712D01*
X-32032Y-44605D01*
X-35969D01*
X-36149Y-44640D01*
X-36500Y-44201D01*
X-36400Y-43959D01*
Y-43441D01*
X-36598Y-42964D01*
X-36964Y-42598D01*
X-37441Y-42400D01*
X-37959D01*
X-38109Y-42462D01*
X-38491Y-42080D01*
X-38400Y-41859D01*
Y-41341D01*
X-38598Y-40864D01*
X-38964Y-40498D01*
X-39441Y-40300D01*
X-39959D01*
X-40436Y-40498D01*
X-40802Y-40864D01*
X-41000Y-41341D01*
Y-41527D01*
X-41033Y-41604D01*
X-41034Y-41711D01*
X-41039Y-41799D01*
X-41048Y-41877D01*
X-41060Y-41945D01*
X-41074Y-42003D01*
X-41090Y-42051D01*
X-41105Y-42087D01*
X-41169Y-42151D01*
X-46931D01*
X-55541Y-33541D01*
X-56000Y-33351D01*
X-59183D01*
X-59193Y-33297D01*
X-59369Y-33034D01*
X-59631Y-32859D01*
X-59941Y-32797D01*
X-65059D01*
X-65369Y-32859D01*
X-65631Y-33034D01*
X-65807Y-33297D01*
X-65868Y-33606D01*
Y-34394D01*
X-65807Y-34703D01*
X-65631Y-34966D01*
X-65369Y-35141D01*
X-65059Y-35203D01*
X-60028D01*
X-59882Y-35412D01*
X-59804Y-35686D01*
X-60849Y-36731D01*
X-60883Y-36733D01*
X-60919Y-36733D01*
X-60921Y-36734D01*
X-65059D01*
X-65369Y-36796D01*
X-65631Y-36971D01*
X-65807Y-37234D01*
X-65868Y-37543D01*
Y-38331D01*
X-65807Y-38640D01*
X-65631Y-38903D01*
X-65369Y-39078D01*
X-65059Y-39140D01*
X-59941D01*
X-59631Y-39078D01*
X-59369Y-38903D01*
X-59193Y-38640D01*
X-59132Y-38331D01*
Y-37543D01*
X-59193Y-37234D01*
X-59322Y-37041D01*
X-58713Y-36431D01*
X-58289Y-36714D01*
X-58300Y-36741D01*
Y-37259D01*
X-58102Y-37736D01*
X-57736Y-38102D01*
X-57259Y-38300D01*
X-56741D01*
X-56264Y-38102D01*
X-55898Y-37736D01*
X-55700Y-37259D01*
Y-37057D01*
X-55200Y-36850D01*
X-47891Y-44159D01*
X-47431Y-44349D01*
X-39038D01*
X-39002Y-44364D01*
X-38957Y-44387D01*
X-38906Y-44418D01*
X-38854Y-44454D01*
X-38718Y-44569D01*
X-38645Y-44640D01*
X-38568Y-44671D01*
X-38436Y-44802D01*
X-37959Y-45000D01*
X-37556D01*
X-37332Y-45284D01*
X-37263Y-45462D01*
X-37273Y-45476D01*
X-37380Y-46016D01*
Y-47985D01*
X-37273Y-48525D01*
X-37002Y-48929D01*
X-37038Y-49200D01*
X-36991Y-49555D01*
X-37272Y-49975D01*
X-37380Y-50515D01*
Y-52484D01*
X-37272Y-53024D01*
X-36966Y-53482D01*
X-36508Y-53788D01*
X-35968Y-53895D01*
X-32031D01*
X-31491Y-53788D01*
X-31267Y-53638D01*
X-30233D01*
X-30008Y-53788D01*
X-29468Y-53895D01*
X-25531D01*
X-24991Y-53788D01*
X-24533Y-53482D01*
X-24531Y-53478D01*
X-23481Y-53043D01*
X-22640Y-52398D01*
X-22390Y-52520D01*
X-22223Y-52698D01*
X-22287Y-52851D01*
X-22438Y-54000D01*
Y-68000D01*
X-22433Y-68038D01*
Y-72236D01*
X-22306Y-72542D01*
X-21202Y-73647D01*
X-20896Y-73773D01*
X-16978D01*
Y-77000D01*
X-16927Y-77258D01*
Y-78969D01*
X-16820Y-79509D01*
X-16767Y-79587D01*
X-17034Y-80087D01*
X-60835D01*
X-61186Y-80157D01*
X-61210Y-80173D01*
X-62751Y-80052D01*
X-64413Y-79653D01*
X-65992Y-78999D01*
X-67204Y-78256D01*
X-67605Y-77962D01*
X-67605Y-77962D01*
X-67605Y-77962D01*
X-70086Y-76006D01*
X-73162Y-73162D01*
X-76006Y-70086D01*
X-77962Y-67605D01*
X-77962Y-67605D01*
X-77962Y-67605D01*
X-78256Y-67204D01*
X-78999Y-65992D01*
X-79653Y-64413D01*
X-80052Y-62751D01*
X-80153Y-61465D01*
X-80043Y-61300D01*
X-79973Y-60949D01*
Y-54834D01*
X-79963Y-54814D01*
X-79473Y-54557D01*
X-79399Y-54608D01*
X-79337Y-54704D01*
X-79334Y-54713D01*
X-79333Y-54794D01*
X-79318Y-54830D01*
Y-55000D01*
X-79248Y-55351D01*
X-79049Y-55649D01*
X-78751Y-55848D01*
X-78400Y-55918D01*
X-78049Y-55848D01*
X-77751Y-55649D01*
X-77552Y-55351D01*
X-77482Y-55000D01*
Y-54830D01*
X-77467Y-54794D01*
X-77466Y-54701D01*
X-77463Y-54627D01*
X-77450Y-54494D01*
X-77443Y-54454D01*
X-77436Y-54423D01*
X-77430Y-54407D01*
X-77422Y-54393D01*
X-77421Y-54386D01*
X-77420Y-54381D01*
X-77419Y-54372D01*
X-77417Y-54356D01*
X-77298Y-54236D01*
X-77100Y-53759D01*
Y-53241D01*
X-77298Y-52764D01*
X-77417Y-52644D01*
X-77419Y-52628D01*
X-77420Y-52619D01*
X-77421Y-52614D01*
X-77422Y-52607D01*
X-77430Y-52593D01*
X-77436Y-52577D01*
X-77443Y-52546D01*
X-77449Y-52510D01*
X-77466Y-52292D01*
X-77467Y-52206D01*
X-77482Y-52170D01*
Y-52000D01*
X-77552Y-51649D01*
X-77751Y-51351D01*
X-78049Y-51152D01*
X-78400Y-51082D01*
X-78751Y-51152D01*
X-79049Y-51351D01*
X-79248Y-51649D01*
X-79318Y-52000D01*
Y-52170D01*
X-79333Y-52206D01*
X-79334Y-52287D01*
X-79344Y-52314D01*
X-79416Y-52422D01*
X-79420Y-52426D01*
X-79473Y-52460D01*
X-79957Y-52196D01*
X-79973Y-52166D01*
Y61144D01*
X-80043Y61495D01*
X-80139Y61639D01*
X-80052Y62751D01*
X-79653Y64413D01*
X-78999Y65992D01*
X-78256Y67205D01*
X-77962Y67605D01*
X-77961Y67605D01*
X-77962Y67605D01*
X-76006Y70086D01*
X-73162Y73162D01*
X-70086Y76006D01*
X-67605Y77962D01*
X-67605Y77962D01*
X-67605Y77962D01*
X-67204Y78256D01*
X-65992Y78999D01*
X-64413Y79653D01*
X-62751Y80052D01*
X-61051Y80186D01*
X-61046Y80185D01*
D02*
G37*
G36*
X25000Y71500D02*
Y61500D01*
X23000Y59500D01*
X5000D01*
X4567Y59933D01*
Y80000D01*
X16500Y80000D01*
X25000Y71500D01*
D02*
G37*
G36*
X2637Y59663D02*
X2640Y59659D01*
X2645Y59651D01*
X2653Y59642D01*
X2692Y59598D01*
X2757Y59533D01*
X2016Y59425D01*
X1989Y59449D01*
X1958Y59470D01*
X1923Y59489D01*
X1885Y59506D01*
X1842Y59520D01*
X1796Y59531D01*
X1747Y59540D01*
X1693Y59547D01*
X1575Y59552D01*
X2637Y59666D01*
X2637Y59663D01*
D02*
G37*
G36*
X-1300D02*
X-1297Y59659D01*
X-1292Y59651D01*
X-1285Y59642D01*
X-1245Y59598D01*
X-1181Y59533D01*
X-1921Y59425D01*
X-1948Y59449D01*
X-1979Y59470D01*
X-2014Y59489D01*
X-2052Y59506D01*
X-2095Y59520D01*
X-2141Y59531D01*
X-2190Y59540D01*
X-2244Y59547D01*
X-2362Y59552D01*
X-1300Y59666D01*
X-1300Y59663D01*
D02*
G37*
G36*
X27395Y55134D02*
X27461Y55080D01*
X27529Y55034D01*
X27598Y54994D01*
X27669Y54961D01*
X27742Y54935D01*
X27816Y54916D01*
X27893Y54903D01*
X27970Y54897D01*
X28050Y54899D01*
X27201Y54050D01*
X27202Y54130D01*
X27197Y54207D01*
X27184Y54284D01*
X27165Y54358D01*
X27139Y54431D01*
X27106Y54502D01*
X27066Y54571D01*
X27020Y54639D01*
X26966Y54705D01*
X26906Y54770D01*
X27330Y55194D01*
X27395Y55134D01*
D02*
G37*
G36*
X31392Y54837D02*
X31456Y54787D01*
X31524Y54742D01*
X31595Y54704D01*
X31670Y54671D01*
X31747Y54645D01*
X31828Y54624D01*
X31913Y54610D01*
X32000Y54602D01*
X32091Y54600D01*
X31200Y53709D01*
X31198Y53800D01*
X31190Y53887D01*
X31176Y53971D01*
X31155Y54053D01*
X31129Y54130D01*
X31096Y54205D01*
X31058Y54276D01*
X31013Y54344D01*
X30963Y54408D01*
X30906Y54470D01*
X31330Y54894D01*
X31392Y54837D01*
D02*
G37*
G36*
X-9647Y-21707D02*
X-9887Y-21978D01*
X-10112Y-22296D01*
X-10323Y-22662D01*
X-10519Y-23076D01*
X-10701Y-23538D01*
X-10869Y-24047D01*
X-11160Y-25208D01*
X-11284Y-25861D01*
X-11394Y-26561D01*
X-15915Y-22039D01*
X-15215Y-21930D01*
X-13401Y-21514D01*
X-12892Y-21347D01*
X-12431Y-21165D01*
X-12017Y-20968D01*
X-11651Y-20758D01*
X-11332Y-20533D01*
X-11061Y-20293D01*
X-9647Y-21707D01*
D02*
G37*
G36*
X-59563Y-33640D02*
X-59560Y-33674D01*
X-59553Y-33703D01*
X-59544Y-33729D01*
X-59531Y-33751D01*
X-59517Y-33768D01*
X-59500Y-33782D01*
X-59480Y-33792D01*
X-59457Y-33798D01*
X-59432Y-33800D01*
Y-34200D01*
X-59457Y-34202D01*
X-59480Y-34208D01*
X-59500Y-34218D01*
X-59517Y-34232D01*
X-59531Y-34249D01*
X-59544Y-34271D01*
X-59553Y-34297D01*
X-59560Y-34326D01*
X-59563Y-34360D01*
X-59565Y-34398D01*
Y-33602D01*
X-59563Y-33640D01*
D02*
G37*
G36*
X-60005Y-37091D02*
X-60017Y-37111D01*
X-60020Y-37129D01*
X-60015Y-37144D01*
X-60002Y-37157D01*
X-59980Y-37169D01*
X-59951Y-37178D01*
X-59914Y-37184D01*
X-59869Y-37189D01*
X-59816Y-37191D01*
X-60920Y-37166D01*
X-60869Y-37166D01*
X-60776Y-37160D01*
X-60734Y-37154D01*
X-60695Y-37145D01*
X-60660Y-37134D01*
X-60628Y-37121D01*
X-60600Y-37106D01*
X-60574Y-37089D01*
X-60552Y-37069D01*
X-59986D01*
X-60005Y-37091D01*
D02*
G37*
G36*
X-39709Y-42500D02*
X-39826Y-42501D01*
X-40038Y-42519D01*
X-40134Y-42536D01*
X-40223Y-42558D01*
X-40305Y-42585D01*
X-40379Y-42617D01*
X-40447Y-42654D01*
X-40507Y-42696D01*
X-40561Y-42744D01*
X-40844Y-42461D01*
X-40796Y-42407D01*
X-40754Y-42347D01*
X-40717Y-42279D01*
X-40685Y-42205D01*
X-40658Y-42123D01*
X-40636Y-42034D01*
X-40619Y-41938D01*
X-40608Y-41836D01*
X-40601Y-41726D01*
X-40600Y-41609D01*
X-39709Y-42500D01*
D02*
G37*
G36*
X-38343Y-44330D02*
X-38426Y-44248D01*
X-38590Y-44111D01*
X-38669Y-44055D01*
X-38747Y-44008D01*
X-38824Y-43969D01*
X-38899Y-43939D01*
X-38974Y-43917D01*
X-39046Y-43904D01*
X-39118Y-43900D01*
Y-43500D01*
X-39046Y-43496D01*
X-38974Y-43483D01*
X-38899Y-43461D01*
X-38824Y-43431D01*
X-38747Y-43393D01*
X-38669Y-43345D01*
X-38590Y-43289D01*
X-38509Y-43225D01*
X-38426Y-43152D01*
X-38343Y-43070D01*
Y-44330D01*
D02*
G37*
G36*
X-77899Y-52311D02*
X-77879Y-52564D01*
X-77868Y-52632D01*
X-77853Y-52693D01*
X-77836Y-52746D01*
X-77817Y-52791D01*
X-77795Y-52828D01*
X-77770Y-52857D01*
X-79030D01*
X-79005Y-52828D01*
X-78983Y-52791D01*
X-78964Y-52746D01*
X-78947Y-52693D01*
X-78932Y-52632D01*
X-78921Y-52564D01*
X-78905Y-52403D01*
X-78901Y-52311D01*
X-78900Y-52212D01*
X-77900D01*
X-77899Y-52311D01*
D02*
G37*
G36*
X-77795Y-54172D02*
X-77817Y-54209D01*
X-77836Y-54254D01*
X-77853Y-54307D01*
X-77868Y-54368D01*
X-77879Y-54436D01*
X-77895Y-54597D01*
X-77899Y-54689D01*
X-77900Y-54788D01*
X-78900D01*
X-78901Y-54689D01*
X-78921Y-54436D01*
X-78932Y-54368D01*
X-78947Y-54307D01*
X-78964Y-54254D01*
X-78983Y-54209D01*
X-79005Y-54172D01*
X-79030Y-54143D01*
X-77770D01*
X-77795Y-54172D01*
D02*
G37*
G36*
X-4500Y-59500D02*
Y-65000D01*
Y-75500D01*
X-6000Y-77000D01*
X-15000Y-77000D01*
Y-73340D01*
X-20896D01*
X-22000Y-72236D01*
Y-69500D01*
Y-64000D01*
X-15000D01*
Y-58500D01*
X-5500D01*
X-4500Y-59500D01*
D02*
G37*
G36*
X61046Y80185D02*
Y80185D01*
X61531Y80148D01*
X62751Y80052D01*
X64413Y79653D01*
X65992Y78999D01*
X67205Y78256D01*
X67605Y77962D01*
X67605Y77962D01*
X67605Y77962D01*
X70086Y76006D01*
X73162Y73162D01*
X76006Y70086D01*
X77962Y67605D01*
X77962Y67605D01*
X77962Y67605D01*
X78256Y67204D01*
X78999Y65992D01*
X79653Y64413D01*
X80052Y62751D01*
X80148Y61531D01*
X80185Y61046D01*
X80255Y60695D01*
X80317Y60601D01*
X80396Y60483D01*
Y-60483D01*
X80255Y-60695D01*
X80185Y-61046D01*
X80148Y-61531D01*
X80052Y-62751D01*
X79653Y-64413D01*
X78999Y-65992D01*
X78256Y-67205D01*
X77962Y-67605D01*
X77962Y-67605D01*
X77962Y-67605D01*
X76006Y-70086D01*
X73162Y-73162D01*
X70086Y-76006D01*
X67605Y-77962D01*
X67605Y-77962D01*
X67605Y-77962D01*
X67204Y-78256D01*
X65992Y-78999D01*
X64413Y-79653D01*
X62751Y-80052D01*
X61554Y-80146D01*
X61258Y-80087D01*
X-3941D01*
X-4209Y-79587D01*
X-4181Y-79546D01*
X-4073Y-79000D01*
Y-75513D01*
X-4067Y-75500D01*
Y-65000D01*
Y-59500D01*
X-4194Y-59194D01*
X-5194Y-58194D01*
X-5500Y-58067D01*
X-13562D01*
Y-54000D01*
X-13713Y-52851D01*
X-14157Y-51781D01*
X-14862Y-50862D01*
X-15781Y-50157D01*
X-16851Y-49713D01*
X-18000Y-49562D01*
X-19149Y-49713D01*
X-19287Y-49771D01*
X-19571Y-49347D01*
X-12216Y-41993D01*
X-11511Y-41073D01*
X-11068Y-40003D01*
X-10916Y-38854D01*
Y-33065D01*
X-10764Y-33002D01*
X-10398Y-32636D01*
X-10200Y-32159D01*
Y-31641D01*
X-10398Y-31164D01*
X-10764Y-30798D01*
X-10916Y-30735D01*
Y-29409D01*
X-10849Y-29308D01*
X-10653Y-28323D01*
Y-24966D01*
X-10452Y-24167D01*
X-10294Y-23685D01*
X-10122Y-23248D01*
X-9939Y-22863D01*
X-9747Y-22530D01*
X-9675Y-22427D01*
X-8234D01*
X-8105Y-22402D01*
X-7545D01*
X-7197Y-22332D01*
X-6902Y-22135D01*
X-6705Y-21840D01*
X-6635Y-21492D01*
Y-20508D01*
X-6705Y-20160D01*
X-6902Y-19865D01*
X-7197Y-19668D01*
X-7545Y-19598D01*
X-8105D01*
X-8234Y-19573D01*
X-10354D01*
X-10354Y-19573D01*
X-10416Y-19585D01*
X-10916Y-19175D01*
Y-17046D01*
X-11068Y-15897D01*
X-11511Y-14827D01*
X-12216Y-13907D01*
X-22562Y-3562D01*
Y46262D01*
X-21162Y47662D01*
X4500D01*
X5649Y47813D01*
X6719Y48257D01*
X7638Y48962D01*
X8343Y49881D01*
X8787Y50951D01*
X8938Y52100D01*
X8787Y53249D01*
X8399Y54184D01*
X8795Y54495D01*
X9027Y54341D01*
X9300Y54286D01*
X26339D01*
X26549Y54174D01*
X26768Y54050D01*
X26800Y53974D01*
Y53741D01*
X26998Y53264D01*
X27364Y52898D01*
X27841Y52700D01*
X28359D01*
X28836Y52898D01*
X29202Y53264D01*
X29400Y53741D01*
Y54259D01*
X29265Y54583D01*
X29426Y55035D01*
X29505Y55141D01*
X29626Y55165D01*
X30572Y54218D01*
X30588Y54176D01*
X30633Y54128D01*
X30661Y54091D01*
X30686Y54054D01*
X30707Y54015D01*
X30725Y53974D01*
X30740Y53930D01*
X30751Y53883D01*
X30760Y53831D01*
X30765Y53774D01*
X30767Y53699D01*
X30800Y53625D01*
Y53441D01*
X30998Y52964D01*
X31364Y52598D01*
X31841Y52400D01*
X32359D01*
X32836Y52598D01*
X33202Y52964D01*
X33400Y53441D01*
Y53959D01*
X33202Y54436D01*
X32836Y54802D01*
X32359Y55000D01*
X32175D01*
X32101Y55033D01*
X32026Y55035D01*
X31969Y55040D01*
X31917Y55049D01*
X31870Y55060D01*
X31826Y55075D01*
X31785Y55093D01*
X31746Y55114D01*
X31709Y55139D01*
X31672Y55167D01*
X31624Y55212D01*
X31582Y55228D01*
X30146Y56663D01*
X29915Y56818D01*
X29641Y56872D01*
X10037D01*
X8304Y58605D01*
X8496Y59067D01*
X23000D01*
X23306Y59194D01*
X23474Y59362D01*
X30162D01*
X38562Y50962D01*
Y-66340D01*
X38419Y-66685D01*
Y-67314D01*
X38562Y-67660D01*
Y-69340D01*
X38419Y-69686D01*
Y-70315D01*
X38562Y-70660D01*
Y-72340D01*
X38419Y-72685D01*
Y-73314D01*
X38660Y-73896D01*
X38683Y-73919D01*
X38713Y-74149D01*
X39157Y-75219D01*
X39862Y-76138D01*
X40781Y-76843D01*
X41851Y-77287D01*
X43000Y-77438D01*
X44149Y-77287D01*
X45219Y-76843D01*
X46138Y-76138D01*
X46843Y-75219D01*
X47287Y-74149D01*
X47317Y-73919D01*
X47340Y-73896D01*
X47581Y-73314D01*
Y-72685D01*
X47438Y-72340D01*
Y-70660D01*
X47581Y-70315D01*
Y-69686D01*
X47438Y-69340D01*
Y-67660D01*
X47581Y-67314D01*
Y-66685D01*
X47438Y-66340D01*
Y52800D01*
X47438Y52800D01*
X47287Y53949D01*
X46843Y55019D01*
X46138Y55938D01*
X35138Y66938D01*
X34219Y67643D01*
X33149Y68087D01*
X32000Y68238D01*
X25433D01*
Y71500D01*
X25306Y71806D01*
X17390Y79723D01*
X17581Y80185D01*
X60553D01*
X61046Y80185D01*
D02*
G37*
%LPC*%
G36*
X-59641Y41600D02*
X-60159D01*
X-60214Y41577D01*
X-65059D01*
X-65369Y41515D01*
X-65631Y41340D01*
X-65807Y41077D01*
X-65868Y40768D01*
Y39980D01*
X-65807Y39671D01*
X-65631Y39408D01*
X-65369Y39233D01*
X-65059Y39171D01*
X-60572D01*
X-60159Y39000D01*
X-59641D01*
X-59164Y39198D01*
X-58798Y39564D01*
X-58600Y40041D01*
Y40559D01*
X-58798Y41036D01*
X-59164Y41402D01*
X-59641Y41600D01*
D02*
G37*
G36*
X-59741Y37700D02*
X-60259D01*
X-60404Y37640D01*
X-65059D01*
X-65369Y37578D01*
X-65631Y37403D01*
X-65807Y37140D01*
X-65868Y36831D01*
Y36043D01*
X-65807Y35734D01*
X-65631Y35471D01*
X-65369Y35296D01*
X-65059Y35234D01*
X-60582D01*
X-60259Y35100D01*
X-59741D01*
X-59264Y35298D01*
X-58898Y35664D01*
X-58700Y36141D01*
Y36659D01*
X-58898Y37136D01*
X-59264Y37502D01*
X-59741Y37700D01*
D02*
G37*
G36*
X-59641Y33800D02*
X-60159D01*
X-60393Y33703D01*
X-65059D01*
X-65369Y33641D01*
X-65631Y33466D01*
X-65807Y33203D01*
X-65868Y32894D01*
Y32106D01*
X-65807Y31797D01*
X-65631Y31534D01*
X-65369Y31359D01*
X-65059Y31297D01*
X-60393D01*
X-60159Y31200D01*
X-59641D01*
X-59164Y31398D01*
X-58798Y31764D01*
X-58600Y32241D01*
Y32759D01*
X-58798Y33236D01*
X-59164Y33602D01*
X-59641Y33800D01*
D02*
G37*
G36*
X-59941Y29766D02*
X-65059D01*
X-65369Y29704D01*
X-65631Y29529D01*
X-65807Y29266D01*
X-65868Y28957D01*
Y28169D01*
X-65807Y27860D01*
X-65631Y27597D01*
X-65369Y27422D01*
X-65059Y27360D01*
X-59941D01*
X-59631Y27422D01*
X-59369Y27597D01*
X-59348Y27628D01*
X-59315Y27630D01*
X-59270Y27630D01*
X-59233Y27645D01*
X-58643D01*
X-58189Y27191D01*
X-58175Y27155D01*
X-58109Y27088D01*
X-58060Y27034D01*
X-57975Y26931D01*
X-57951Y26898D01*
X-57935Y26871D01*
X-57927Y26856D01*
X-57923Y26840D01*
X-57918Y26834D01*
X-57917Y26830D01*
X-57910Y26823D01*
X-57900Y26810D01*
Y26641D01*
X-57702Y26164D01*
X-57336Y25798D01*
X-56859Y25600D01*
X-56341D01*
X-55864Y25798D01*
X-55498Y26164D01*
X-55300Y26641D01*
Y27159D01*
X-55498Y27636D01*
X-55864Y28002D01*
X-56341Y28200D01*
X-56510D01*
X-56523Y28210D01*
X-56530Y28217D01*
X-56534Y28218D01*
X-56540Y28223D01*
X-56556Y28227D01*
X-56571Y28235D01*
X-56598Y28251D01*
X-56627Y28272D01*
X-56794Y28415D01*
X-56855Y28475D01*
X-56891Y28489D01*
X-57614Y29212D01*
X-57912Y29411D01*
X-58263Y29481D01*
X-59231D01*
X-59266Y29496D01*
X-59347Y29497D01*
X-59369Y29529D01*
X-59631Y29704D01*
X-59941Y29766D01*
D02*
G37*
G36*
Y21892D02*
X-65059D01*
X-65369Y21830D01*
X-65631Y21655D01*
X-65807Y21392D01*
X-65868Y21083D01*
Y20295D01*
X-65807Y19986D01*
X-65631Y19723D01*
X-65369Y19548D01*
X-65059Y19486D01*
X-63516D01*
X-63514Y19485D01*
X-63436Y19483D01*
X-63418Y19481D01*
Y12980D01*
X-75349Y1049D01*
X-75548Y751D01*
X-75618Y400D01*
Y-5300D01*
X-75548Y-5651D01*
X-75349Y-5949D01*
X-70418Y-10880D01*
Y-17100D01*
X-70348Y-17451D01*
X-70149Y-17749D01*
X-68049Y-19849D01*
X-67751Y-20048D01*
X-67400Y-20118D01*
X-62380D01*
X-60849Y-21649D01*
X-60551Y-21848D01*
X-60200Y-21918D01*
X-52413D01*
X-52364Y-21975D01*
X-52338Y-22009D01*
X-52321Y-22035D01*
X-52317Y-22041D01*
X-52316Y-22042D01*
X-52315Y-22044D01*
X-52314Y-22046D01*
X-52305Y-22065D01*
X-52300Y-22070D01*
Y-22259D01*
X-52102Y-22736D01*
X-51736Y-23102D01*
X-51259Y-23300D01*
X-50741D01*
X-50264Y-23102D01*
X-49898Y-22736D01*
X-49700Y-22259D01*
Y-21741D01*
X-49898Y-21264D01*
X-50264Y-20898D01*
X-50741Y-20700D01*
X-50699Y-20218D01*
X-23830D01*
X-23794Y-20233D01*
X-23701Y-20234D01*
X-23627Y-20237D01*
X-23494Y-20250D01*
X-23454Y-20257D01*
X-23423Y-20264D01*
X-23407Y-20269D01*
X-23393Y-20278D01*
X-23386Y-20279D01*
X-23381Y-20280D01*
X-23372Y-20281D01*
X-23356Y-20283D01*
X-23236Y-20402D01*
X-22759Y-20600D01*
X-22241D01*
X-21764Y-20402D01*
X-21398Y-20036D01*
X-21200Y-19559D01*
Y-19041D01*
X-21398Y-18564D01*
X-21764Y-18198D01*
X-22241Y-18000D01*
X-22759D01*
X-23236Y-18198D01*
X-23356Y-18317D01*
X-23372Y-18319D01*
X-23381Y-18319D01*
X-23386Y-18321D01*
X-23393Y-18323D01*
X-23407Y-18330D01*
X-23423Y-18336D01*
X-23454Y-18343D01*
X-23490Y-18349D01*
X-23708Y-18366D01*
X-23794Y-18367D01*
X-23830Y-18382D01*
X-45566D01*
X-45651Y-17882D01*
X-45451Y-17749D01*
X-42051Y-14349D01*
X-41852Y-14051D01*
X-41782Y-13700D01*
Y-11930D01*
X-41767Y-11894D01*
X-41766Y-11801D01*
X-41763Y-11727D01*
X-41750Y-11594D01*
X-41743Y-11554D01*
X-41736Y-11523D01*
X-41730Y-11507D01*
X-41722Y-11493D01*
X-41721Y-11486D01*
X-41719Y-11481D01*
X-41719Y-11472D01*
X-41717Y-11456D01*
X-41598Y-11336D01*
X-41400Y-10859D01*
Y-10341D01*
X-41598Y-9864D01*
X-41964Y-9498D01*
X-42441Y-9300D01*
X-42959D01*
X-43436Y-9498D01*
X-43802Y-9864D01*
X-44000Y-10341D01*
Y-10859D01*
X-43802Y-11336D01*
X-43683Y-11456D01*
X-43681Y-11472D01*
X-43681Y-11481D01*
X-43679Y-11486D01*
X-43678Y-11493D01*
X-43670Y-11507D01*
X-43664Y-11523D01*
X-43657Y-11554D01*
X-43651Y-11590D01*
X-43634Y-11808D01*
X-43633Y-11894D01*
X-43618Y-11930D01*
Y-13320D01*
X-46480Y-16182D01*
X-50758D01*
X-50857Y-15682D01*
X-50664Y-15602D01*
X-50298Y-15236D01*
X-50100Y-14759D01*
Y-14573D01*
X-50067Y-14496D01*
X-50066Y-14389D01*
X-50061Y-14301D01*
X-50052Y-14223D01*
X-50040Y-14155D01*
X-50026Y-14097D01*
X-50010Y-14049D01*
X-49995Y-14013D01*
X-49241Y-13259D01*
X-49051Y-12800D01*
Y-9100D01*
X-49241Y-8641D01*
X-56798Y-1084D01*
X-56574Y-600D01*
X-56241D01*
X-55764Y-402D01*
X-55398Y-36D01*
X-55200Y441D01*
Y959D01*
X-55398Y1436D01*
X-55764Y1802D01*
X-56241Y2000D01*
X-56759D01*
X-57236Y1802D01*
X-57523Y1516D01*
X-57850Y1480D01*
X-58107Y1525D01*
X-59095Y2513D01*
X-59110Y2549D01*
X-59126Y2597D01*
X-59140Y2655D01*
X-59151Y2717D01*
X-59166Y2895D01*
X-59167Y2996D01*
X-59200Y3073D01*
Y3161D01*
X-59193Y3171D01*
X-59132Y3480D01*
Y4268D01*
X-59193Y4577D01*
X-59369Y4840D01*
X-59631Y5015D01*
X-59941Y5077D01*
X-65059D01*
X-65369Y5015D01*
X-65631Y4840D01*
X-65807Y4577D01*
X-65868Y4268D01*
Y3480D01*
X-65807Y3171D01*
X-65631Y2908D01*
X-65369Y2733D01*
X-65059Y2671D01*
X-61771D01*
X-61602Y2264D01*
X-61236Y1898D01*
X-60759Y1700D01*
X-60573D01*
X-60496Y1667D01*
X-60473Y1640D01*
X-60637Y1214D01*
X-60660Y1191D01*
X-60737Y1144D01*
X-60750Y1140D01*
X-65059D01*
X-65369Y1078D01*
X-65631Y903D01*
X-65807Y640D01*
X-65868Y331D01*
Y-457D01*
X-65807Y-766D01*
X-65719Y-898D01*
X-65702Y-924D01*
X-65987Y-1347D01*
X-66013Y-1336D01*
X-66341Y-1200D01*
X-66859D01*
X-67336Y-1398D01*
X-67702Y-1764D01*
X-67900Y-2241D01*
Y-2759D01*
X-67702Y-3236D01*
X-67336Y-3602D01*
X-66859Y-3800D01*
X-66341D01*
X-65864Y-3602D01*
X-65498Y-3236D01*
X-65300Y-2759D01*
Y-2241D01*
X-65498Y-1764D01*
X-65610Y-1651D01*
X-65614Y-1647D01*
X-65377Y-1230D01*
X-65345Y-1209D01*
X-65297Y-1219D01*
X-65059Y-1266D01*
X-59941D01*
X-59867Y-1251D01*
X-52549Y-8569D01*
Y-9762D01*
X-52564Y-9798D01*
X-52587Y-9843D01*
X-52618Y-9894D01*
X-52654Y-9946D01*
X-52769Y-10082D01*
X-52840Y-10155D01*
X-52871Y-10232D01*
X-53002Y-10364D01*
X-53200Y-10841D01*
X-53700Y-11002D01*
X-54651Y-10051D01*
X-54949Y-9852D01*
X-55300Y-9782D01*
X-58000D01*
X-58351Y-9852D01*
X-58649Y-10051D01*
X-59451Y-10853D01*
X-59631Y-10733D01*
X-59941Y-10671D01*
X-65059D01*
X-65369Y-10733D01*
X-65631Y-10908D01*
X-65807Y-11171D01*
X-65868Y-11480D01*
Y-12268D01*
X-65807Y-12577D01*
X-65631Y-12840D01*
X-65369Y-13015D01*
X-65059Y-13077D01*
X-59941D01*
X-59631Y-13015D01*
X-59369Y-12840D01*
X-59348Y-12809D01*
X-59315Y-12807D01*
X-59270Y-12807D01*
X-59233Y-12792D01*
X-59174D01*
X-58823Y-12722D01*
X-58525Y-12523D01*
X-57794Y-11792D01*
X-57576Y-11830D01*
X-57402Y-12364D01*
X-57600Y-12841D01*
Y-13359D01*
X-57402Y-13836D01*
X-57283Y-13956D01*
X-57281Y-13972D01*
X-57280Y-13981D01*
X-57279Y-13986D01*
X-57278Y-13993D01*
X-57270Y-14007D01*
X-57264Y-14023D01*
X-57257Y-14054D01*
X-57251Y-14089D01*
X-57234Y-14308D01*
X-57233Y-14394D01*
X-57218Y-14430D01*
Y-14800D01*
X-57148Y-15151D01*
X-56949Y-15449D01*
X-55009Y-17389D01*
X-55292Y-17812D01*
X-55526Y-17716D01*
X-56043D01*
X-56521Y-17914D01*
X-56886Y-18279D01*
X-57084Y-18757D01*
Y-19274D01*
X-56957Y-19582D01*
X-57209Y-20082D01*
X-59820D01*
X-61351Y-18551D01*
X-61649Y-18352D01*
X-62000Y-18282D01*
X-67020D01*
X-68582Y-16720D01*
Y-10500D01*
X-68652Y-10149D01*
X-68851Y-9851D01*
X-69386Y-9317D01*
X-69194Y-8855D01*
X-65769D01*
X-65734Y-8870D01*
X-65653Y-8871D01*
X-65631Y-8903D01*
X-65369Y-9078D01*
X-65059Y-9140D01*
X-59941D01*
X-59631Y-9078D01*
X-59369Y-8903D01*
X-59193Y-8640D01*
X-59132Y-8331D01*
Y-7543D01*
X-59193Y-7234D01*
X-59369Y-6971D01*
X-59631Y-6796D01*
X-59941Y-6734D01*
X-65059D01*
X-65369Y-6796D01*
X-65631Y-6971D01*
X-65652Y-7002D01*
X-65685Y-7004D01*
X-65730Y-7004D01*
X-65767Y-7019D01*
X-69583D01*
X-72382Y-4220D01*
Y-1080D01*
X-56520Y14782D01*
X-55345D01*
X-55312Y14767D01*
X-55293Y14767D01*
X-55291Y14763D01*
X-55266Y14703D01*
X-55245Y14695D01*
X-55149Y14551D01*
X-54851Y14352D01*
X-54500Y14282D01*
X-53500D01*
X-53149Y14352D01*
X-52851Y14551D01*
X-52755Y14695D01*
X-52734Y14703D01*
X-52709Y14763D01*
X-52707Y14767D01*
X-52688Y14767D01*
X-52655Y14782D01*
X-49614D01*
X-49600Y14712D01*
X-49598Y14677D01*
X-49590Y14660D01*
X-49564Y14530D01*
X-49345Y14202D01*
X-49017Y13984D01*
X-48631Y13907D01*
X-47450D01*
X-47063Y13984D01*
X-46736Y14202D01*
X-46516Y14530D01*
X-46491Y14660D01*
X-46482Y14677D01*
X-46480Y14712D01*
X-46466Y14782D01*
X-42134D01*
X-42120Y14712D01*
X-42118Y14677D01*
X-42109Y14660D01*
X-42083Y14530D01*
X-41865Y14202D01*
X-41537Y13984D01*
X-41150Y13907D01*
X-39969D01*
X-39583Y13984D01*
X-39255Y14202D01*
X-39036Y14530D01*
X-38959Y14917D01*
Y17672D01*
X-39036Y18059D01*
X-39255Y18387D01*
X-39583Y18606D01*
X-39969Y18682D01*
X-41150D01*
X-41537Y18606D01*
X-41865Y18387D01*
X-42083Y18059D01*
X-42160Y17672D01*
Y16707D01*
X-42161Y16705D01*
X-42162Y16628D01*
X-42163Y16618D01*
X-46437D01*
X-46438Y16628D01*
X-46439Y16705D01*
X-46440Y16707D01*
Y17672D01*
X-46516Y18059D01*
X-46736Y18387D01*
X-47063Y18606D01*
X-47450Y18682D01*
X-48631D01*
X-49017Y18606D01*
X-49345Y18387D01*
X-49564Y18059D01*
X-49641Y17672D01*
Y16707D01*
X-49641Y16705D01*
X-49643Y16628D01*
X-49643Y16618D01*
X-52655D01*
X-52688Y16633D01*
X-52707Y16633D01*
X-52709Y16637D01*
X-52734Y16697D01*
X-52755Y16705D01*
X-52851Y16849D01*
X-53149Y17048D01*
X-53500Y17118D01*
X-54500D01*
X-54851Y17048D01*
X-55149Y16849D01*
X-55245Y16705D01*
X-55266Y16697D01*
X-55291Y16637D01*
X-55293Y16633D01*
X-55312Y16633D01*
X-55345Y16618D01*
X-56900D01*
X-57251Y16548D01*
X-57549Y16349D01*
X-61082Y12815D01*
X-61582Y13023D01*
Y19481D01*
X-61564Y19483D01*
X-61486Y19485D01*
X-61484Y19486D01*
X-59941D01*
X-59631Y19548D01*
X-59369Y19723D01*
X-59348Y19754D01*
X-59315Y19756D01*
X-59270Y19756D01*
X-59233Y19771D01*
X-55418D01*
Y19200D01*
X-55348Y18849D01*
X-55149Y18551D01*
X-54851Y18352D01*
X-54500Y18282D01*
X-53500D01*
X-53149Y18352D01*
X-52851Y18551D01*
X-52652Y18849D01*
X-52582Y19200D01*
Y20200D01*
X-52652Y20551D01*
X-52851Y20849D01*
X-53149Y21048D01*
X-53500Y21118D01*
X-54120D01*
X-54340Y21338D01*
X-54638Y21537D01*
X-54989Y21607D01*
X-59231D01*
X-59266Y21622D01*
X-59347Y21623D01*
X-59369Y21655D01*
X-59631Y21830D01*
X-59941Y21892D01*
D02*
G37*
G36*
X-50141Y6100D02*
X-50659D01*
X-51136Y5902D01*
X-51502Y5536D01*
X-51700Y5059D01*
Y4541D01*
X-51502Y4064D01*
X-51136Y3698D01*
X-50659Y3500D01*
X-50141D01*
X-49664Y3698D01*
X-49298Y4064D01*
X-49100Y4541D01*
Y5059D01*
X-49298Y5536D01*
X-49664Y5902D01*
X-50141Y6100D01*
D02*
G37*
G36*
X-54041D02*
X-54559D01*
X-55036Y5902D01*
X-55402Y5536D01*
X-55600Y5059D01*
Y4541D01*
X-55402Y4064D01*
X-55036Y3698D01*
X-54559Y3500D01*
X-54041D01*
X-53564Y3698D01*
X-53198Y4064D01*
X-53000Y4541D01*
Y5059D01*
X-53198Y5536D01*
X-53564Y5902D01*
X-54041Y6100D01*
D02*
G37*
G36*
X-52100Y1958D02*
X-52617D01*
X-53095Y1760D01*
X-53460Y1395D01*
X-53658Y917D01*
Y400D01*
X-53460Y-78D01*
X-53095Y-444D01*
X-52617Y-642D01*
X-52100D01*
X-51622Y-444D01*
X-51256Y-78D01*
X-51058Y400D01*
Y917D01*
X-51256Y1395D01*
X-51622Y1760D01*
X-52100Y1958D01*
D02*
G37*
G36*
X-35041Y-7100D02*
X-35559D01*
X-36036Y-7298D01*
X-36402Y-7664D01*
X-36600Y-8141D01*
Y-8659D01*
X-36402Y-9136D01*
X-36036Y-9502D01*
X-35559Y-9700D01*
X-35041D01*
X-34564Y-9502D01*
X-34198Y-9136D01*
X-34000Y-8659D01*
Y-8141D01*
X-34198Y-7664D01*
X-34564Y-7298D01*
X-35041Y-7100D01*
D02*
G37*
G36*
X-31541Y-11000D02*
X-32059D01*
X-32536Y-11198D01*
X-32902Y-11564D01*
X-33100Y-12041D01*
Y-12559D01*
X-32902Y-13036D01*
X-32536Y-13402D01*
X-32059Y-13600D01*
X-31541D01*
X-31064Y-13402D01*
X-30698Y-13036D01*
X-30500Y-12559D01*
Y-12041D01*
X-30698Y-11564D01*
X-31064Y-11198D01*
X-31541Y-11000D01*
D02*
G37*
G36*
X-51241Y-30300D02*
X-51759D01*
X-52236Y-30498D01*
X-52602Y-30864D01*
X-52800Y-31341D01*
Y-31859D01*
X-52602Y-32336D01*
X-52236Y-32702D01*
X-51759Y-32900D01*
X-51241D01*
X-50764Y-32702D01*
X-50398Y-32336D01*
X-50200Y-31859D01*
Y-31341D01*
X-50398Y-30864D01*
X-50764Y-30498D01*
X-51241Y-30300D01*
D02*
G37*
G36*
X-38341Y-30500D02*
X-38859D01*
X-39336Y-30698D01*
X-39702Y-31064D01*
X-39900Y-31541D01*
Y-31872D01*
X-40234Y-32199D01*
X-40361Y-32253D01*
X-40806D01*
X-41284Y-32451D01*
X-41649Y-32816D01*
X-41847Y-33294D01*
Y-33811D01*
X-41649Y-34289D01*
X-41284Y-34655D01*
X-40806Y-34853D01*
X-40289D01*
X-39811Y-34655D01*
X-39445Y-34289D01*
X-39247Y-33811D01*
Y-33480D01*
X-38913Y-33153D01*
X-38787Y-33100D01*
X-38362D01*
X-38339Y-33102D01*
X-37900Y-33458D01*
Y-33659D01*
X-37702Y-34136D01*
X-37336Y-34502D01*
X-36859Y-34700D01*
X-36341D01*
X-35864Y-34502D01*
X-35498Y-34136D01*
X-35300Y-33659D01*
Y-33141D01*
X-35498Y-32664D01*
X-35864Y-32298D01*
X-36341Y-32100D01*
X-36838D01*
X-36861Y-32098D01*
X-37300Y-31742D01*
Y-31541D01*
X-37498Y-31064D01*
X-37864Y-30698D01*
X-38341Y-30500D01*
D02*
G37*
G36*
X-58241Y-39700D02*
X-58759D01*
X-59236Y-39898D01*
X-59602Y-40264D01*
X-59800Y-40741D01*
Y-41259D01*
X-59602Y-41736D01*
X-59236Y-42102D01*
X-58759Y-42300D01*
X-58241D01*
X-57764Y-42102D01*
X-57398Y-41736D01*
X-57200Y-41259D01*
Y-40741D01*
X-57398Y-40264D01*
X-57764Y-39898D01*
X-58241Y-39700D01*
D02*
G37*
G36*
X-34362Y-39900D02*
X-34879D01*
X-35357Y-40098D01*
X-35723Y-40464D01*
X-35921Y-40941D01*
Y-41459D01*
X-35723Y-41936D01*
X-35357Y-42302D01*
X-34879Y-42500D01*
X-34362D01*
X-33884Y-42302D01*
X-33518Y-41936D01*
X-33321Y-41459D01*
Y-40941D01*
X-33518Y-40464D01*
X-33884Y-40098D01*
X-34362Y-39900D01*
D02*
G37*
G36*
X-61841Y-41300D02*
X-62359D01*
X-62836Y-41498D01*
X-63202Y-41864D01*
X-63400Y-42341D01*
Y-42859D01*
X-63202Y-43336D01*
X-62836Y-43702D01*
X-62359Y-43900D01*
X-61841D01*
X-61364Y-43702D01*
X-60998Y-43336D01*
X-60800Y-42859D01*
Y-42341D01*
X-60998Y-41864D01*
X-61364Y-41498D01*
X-61841Y-41300D01*
D02*
G37*
G36*
X-71108Y-44434D02*
X-71625D01*
X-72103Y-44631D01*
X-72469Y-44997D01*
X-72666Y-45475D01*
Y-45992D01*
X-72469Y-46470D01*
X-72103Y-46836D01*
X-71625Y-47034D01*
X-71108D01*
X-70630Y-46836D01*
X-70264Y-46470D01*
X-70066Y-45992D01*
Y-45475D01*
X-70264Y-44997D01*
X-70630Y-44631D01*
X-71108Y-44434D01*
D02*
G37*
G36*
X-73241Y-50700D02*
X-73759D01*
X-74236Y-50898D01*
X-74602Y-51264D01*
X-74667Y-51420D01*
X-74959Y-51541D01*
X-75149Y-52000D01*
X-74959Y-52459D01*
X-74667Y-52580D01*
X-74602Y-52736D01*
X-74236Y-53102D01*
X-73908Y-53238D01*
Y-53762D01*
X-74236Y-53898D01*
X-74419Y-54080D01*
X-74492Y-54110D01*
X-74496Y-54121D01*
X-74506Y-54126D01*
X-74563Y-54189D01*
X-74609Y-54233D01*
X-74652Y-54270D01*
X-74694Y-54299D01*
X-74732Y-54322D01*
X-74767Y-54339D01*
X-74799Y-54351D01*
X-74900D01*
X-75359Y-54541D01*
X-75549Y-55000D01*
X-75359Y-55459D01*
X-74900Y-55649D01*
X-74799D01*
X-74767Y-55661D01*
X-74732Y-55678D01*
X-74694Y-55701D01*
X-74652Y-55730D01*
X-74609Y-55767D01*
X-74563Y-55811D01*
X-74506Y-55874D01*
X-74496Y-55879D01*
X-74492Y-55889D01*
X-74419Y-55919D01*
X-74236Y-56102D01*
X-73759Y-56300D01*
X-73241D01*
X-72764Y-56102D01*
X-72398Y-55736D01*
X-72200Y-55259D01*
Y-54741D01*
X-72398Y-54264D01*
X-72764Y-53898D01*
X-73092Y-53762D01*
Y-53238D01*
X-72764Y-53102D01*
X-72398Y-52736D01*
X-72200Y-52259D01*
Y-51741D01*
X-72398Y-51264D01*
X-72764Y-50898D01*
X-73241Y-50700D01*
D02*
G37*
%LPD*%
G36*
X-59577Y29098D02*
X-59566Y29090D01*
X-59550Y29084D01*
X-59528Y29078D01*
X-59500Y29074D01*
X-59466Y29070D01*
X-59381Y29065D01*
X-59273Y29063D01*
Y28063D01*
X-59330Y28063D01*
X-59500Y28052D01*
X-59528Y28048D01*
X-59550Y28042D01*
X-59566Y28036D01*
X-59577Y28029D01*
X-59581Y28020D01*
Y29106D01*
X-59577Y29098D01*
D02*
G37*
G36*
X-57086Y28095D02*
X-56894Y27930D01*
X-56837Y27890D01*
X-56784Y27857D01*
X-56735Y27832D01*
X-56689Y27814D01*
X-56647Y27803D01*
X-56609Y27800D01*
X-57500Y26909D01*
X-57503Y26947D01*
X-57514Y26989D01*
X-57532Y27035D01*
X-57557Y27084D01*
X-57590Y27137D01*
X-57630Y27194D01*
X-57733Y27318D01*
X-57795Y27386D01*
X-57864Y27457D01*
X-57157Y28164D01*
X-57086Y28095D01*
D02*
G37*
G36*
X-59577Y21224D02*
X-59566Y21216D01*
X-59550Y21210D01*
X-59528Y21204D01*
X-59500Y21200D01*
X-59466Y21196D01*
X-59381Y21191D01*
X-59273Y21189D01*
Y20189D01*
X-59330Y20188D01*
X-59500Y20178D01*
X-59528Y20174D01*
X-59550Y20168D01*
X-59566Y20162D01*
X-59577Y20154D01*
X-59581Y20146D01*
Y21232D01*
X-59577Y21224D01*
D02*
G37*
G36*
X-61595Y19915D02*
X-61680Y19906D01*
X-61755Y19890D01*
X-61820Y19868D01*
X-61875Y19840D01*
X-61920Y19806D01*
X-61955Y19765D01*
X-61980Y19718D01*
X-61995Y19665D01*
X-62000Y19606D01*
X-63000D01*
X-63005Y19665D01*
X-63020Y19718D01*
X-63045Y19765D01*
X-63080Y19806D01*
X-63125Y19840D01*
X-63180Y19868D01*
X-63245Y19890D01*
X-63320Y19906D01*
X-63405Y19915D01*
X-63500Y19918D01*
X-61500D01*
X-61595Y19915D01*
D02*
G37*
G36*
X-53030Y16354D02*
X-53015Y16322D01*
X-52994Y16293D01*
X-52968Y16269D01*
X-52937Y16248D01*
X-52900Y16230D01*
X-52859Y16217D01*
X-52812Y16208D01*
X-52760Y16202D01*
X-52702Y16200D01*
Y15200D01*
X-52760Y15198D01*
X-52812Y15192D01*
X-52859Y15183D01*
X-52900Y15169D01*
X-52937Y15152D01*
X-52968Y15132D01*
X-52994Y15107D01*
X-53015Y15078D01*
X-53030Y15046D01*
X-53040Y15010D01*
Y16390D01*
X-53030Y16354D01*
D02*
G37*
G36*
X-54960Y15010D02*
X-54970Y15046D01*
X-54985Y15078D01*
X-55006Y15107D01*
X-55032Y15132D01*
X-55063Y15152D01*
X-55099Y15169D01*
X-55141Y15183D01*
X-55188Y15192D01*
X-55240Y15198D01*
X-55298Y15200D01*
Y16200D01*
X-55240Y16202D01*
X-55188Y16208D01*
X-55141Y16217D01*
X-55099Y16230D01*
X-55063Y16248D01*
X-55032Y16269D01*
X-55006Y16293D01*
X-54985Y16322D01*
X-54970Y16354D01*
X-54960Y16390D01*
Y15010D01*
D02*
G37*
G36*
X-41685Y14702D02*
X-41691Y14797D01*
X-41703Y14882D01*
X-41722Y14956D01*
X-41747Y15021D01*
X-41780Y15076D01*
X-41818Y15120D01*
X-41864Y15155D01*
X-41916Y15180D01*
X-41975Y15195D01*
X-42040Y15200D01*
Y16200D01*
X-41979Y16205D01*
X-41925Y16220D01*
X-41877Y16245D01*
X-41835Y16280D01*
X-41801Y16325D01*
X-41773Y16380D01*
X-41752Y16445D01*
X-41737Y16520D01*
X-41730Y16605D01*
X-41728Y16700D01*
X-41685Y14702D01*
D02*
G37*
G36*
X-46870Y16605D02*
X-46863Y16520D01*
X-46848Y16445D01*
X-46827Y16380D01*
X-46799Y16325D01*
X-46765Y16280D01*
X-46723Y16245D01*
X-46676Y16220D01*
X-46621Y16205D01*
X-46560Y16200D01*
Y15200D01*
X-46625Y15195D01*
X-46684Y15180D01*
X-46736Y15155D01*
X-46782Y15120D01*
X-46821Y15076D01*
X-46853Y15021D01*
X-46878Y14956D01*
X-46897Y14882D01*
X-46909Y14797D01*
X-46915Y14702D01*
X-46872Y16700D01*
X-46870Y16605D01*
D02*
G37*
G36*
X-49166Y14702D02*
X-49171Y14797D01*
X-49183Y14882D01*
X-49202Y14956D01*
X-49228Y15021D01*
X-49260Y15076D01*
X-49299Y15120D01*
X-49344Y15155D01*
X-49396Y15180D01*
X-49455Y15195D01*
X-49521Y15200D01*
Y16200D01*
X-49459Y16205D01*
X-49405Y16220D01*
X-49357Y16245D01*
X-49316Y16280D01*
X-49281Y16325D01*
X-49253Y16380D01*
X-49232Y16445D01*
X-49218Y16520D01*
X-49210Y16605D01*
X-49209Y16700D01*
X-49166Y14702D01*
D02*
G37*
G36*
X-59599Y2874D02*
X-59581Y2661D01*
X-59564Y2566D01*
X-59542Y2477D01*
X-59515Y2395D01*
X-59483Y2321D01*
X-59446Y2253D01*
X-59404Y2193D01*
X-59356Y2139D01*
X-59639Y1856D01*
X-59693Y1904D01*
X-59753Y1946D01*
X-59821Y1983D01*
X-59895Y2015D01*
X-59977Y2042D01*
X-60066Y2064D01*
X-60162Y2081D01*
X-60264Y2092D01*
X-60374Y2099D01*
X-60491Y2100D01*
X-59600Y2991D01*
X-59599Y2874D01*
D02*
G37*
G36*
X-59574Y-123D02*
X-59580Y-163D01*
X-59582Y-202D01*
X-59579Y-240D01*
X-59572Y-278D01*
X-59560Y-314D01*
X-59543Y-350D01*
X-59522Y-384D01*
X-59497Y-418D01*
X-59467Y-450D01*
X-59632Y-851D01*
X-59649Y-835D01*
X-59666Y-822D01*
X-59682Y-812D01*
X-59698Y-805D01*
X-59714Y-800D01*
X-59730Y-798D01*
X-59746Y-798D01*
X-59762Y-802D01*
X-59777Y-807D01*
X-59792Y-816D01*
X-59564Y-82D01*
X-59574Y-123D01*
D02*
G37*
G36*
X-65419Y-8480D02*
X-65423Y-8472D01*
X-65434Y-8464D01*
X-65450Y-8458D01*
X-65472Y-8452D01*
X-65500Y-8448D01*
X-65534Y-8444D01*
X-65619Y-8439D01*
X-65727Y-8437D01*
Y-7437D01*
X-65670Y-7437D01*
X-65500Y-7426D01*
X-65472Y-7422D01*
X-65450Y-7416D01*
X-65434Y-7410D01*
X-65423Y-7402D01*
X-65419Y-7394D01*
Y-8480D01*
D02*
G37*
G36*
X-51696Y-9754D02*
X-51683Y-9827D01*
X-51661Y-9901D01*
X-51631Y-9976D01*
X-51592Y-10053D01*
X-51545Y-10131D01*
X-51489Y-10210D01*
X-51425Y-10291D01*
X-51352Y-10374D01*
X-51270Y-10457D01*
X-52530D01*
X-52448Y-10374D01*
X-52311Y-10210D01*
X-52255Y-10131D01*
X-52207Y-10053D01*
X-52169Y-9976D01*
X-52139Y-9901D01*
X-52117Y-9827D01*
X-52104Y-9754D01*
X-52100Y-9683D01*
X-51700D01*
X-51696Y-9754D01*
D02*
G37*
G36*
X-42095Y-11272D02*
X-42117Y-11309D01*
X-42136Y-11354D01*
X-42153Y-11407D01*
X-42167Y-11468D01*
X-42179Y-11536D01*
X-42195Y-11697D01*
X-42199Y-11789D01*
X-42200Y-11888D01*
X-43200D01*
X-43201Y-11789D01*
X-43221Y-11536D01*
X-43233Y-11468D01*
X-43247Y-11407D01*
X-43264Y-11354D01*
X-43283Y-11309D01*
X-43305Y-11272D01*
X-43330Y-11243D01*
X-42070D01*
X-42095Y-11272D01*
D02*
G37*
G36*
X-59577Y-11339D02*
X-59566Y-11347D01*
X-59550Y-11353D01*
X-59528Y-11359D01*
X-59500Y-11363D01*
X-59466Y-11367D01*
X-59381Y-11372D01*
X-59273Y-11374D01*
Y-12374D01*
X-59330Y-12375D01*
X-59500Y-12385D01*
X-59528Y-12389D01*
X-59550Y-12395D01*
X-59566Y-12401D01*
X-59577Y-12409D01*
X-59581Y-12417D01*
Y-11331D01*
X-59577Y-11339D01*
D02*
G37*
G36*
X-55695Y-13772D02*
X-55717Y-13809D01*
X-55736Y-13854D01*
X-55753Y-13907D01*
X-55768Y-13968D01*
X-55779Y-14036D01*
X-55795Y-14197D01*
X-55799Y-14289D01*
X-55800Y-14388D01*
X-56800D01*
X-56801Y-14289D01*
X-56821Y-14036D01*
X-56832Y-13968D01*
X-56847Y-13907D01*
X-56864Y-13854D01*
X-56883Y-13809D01*
X-56905Y-13772D01*
X-56930Y-13743D01*
X-55670D01*
X-55695Y-13772D01*
D02*
G37*
G36*
X-50256Y-13639D02*
X-50304Y-13693D01*
X-50346Y-13753D01*
X-50383Y-13821D01*
X-50415Y-13895D01*
X-50442Y-13977D01*
X-50464Y-14066D01*
X-50481Y-14161D01*
X-50492Y-14264D01*
X-50499Y-14374D01*
X-50500Y-14491D01*
X-51391Y-13600D01*
X-51274Y-13599D01*
X-51061Y-13581D01*
X-50966Y-13564D01*
X-50877Y-13542D01*
X-50795Y-13515D01*
X-50721Y-13483D01*
X-50653Y-13446D01*
X-50593Y-13404D01*
X-50539Y-13356D01*
X-50256Y-13639D01*
D02*
G37*
G36*
X-23143Y-19930D02*
X-23172Y-19905D01*
X-23209Y-19883D01*
X-23254Y-19864D01*
X-23307Y-19847D01*
X-23368Y-19832D01*
X-23436Y-19821D01*
X-23597Y-19805D01*
X-23689Y-19801D01*
X-23788Y-19800D01*
Y-18800D01*
X-23689Y-18799D01*
X-23436Y-18779D01*
X-23368Y-18767D01*
X-23307Y-18753D01*
X-23254Y-18736D01*
X-23209Y-18717D01*
X-23172Y-18695D01*
X-23143Y-18670D01*
Y-19930D01*
D02*
G37*
G36*
X-51485Y-20806D02*
X-51244Y-21014D01*
X-51196Y-21046D01*
X-51152Y-21072D01*
X-51113Y-21089D01*
X-51079Y-21099D01*
X-51050Y-21101D01*
X-51899Y-21950D01*
X-51901Y-21921D01*
X-51911Y-21887D01*
X-51928Y-21848D01*
X-51954Y-21804D01*
X-51986Y-21756D01*
X-52027Y-21703D01*
X-52130Y-21582D01*
X-52264Y-21443D01*
X-51557Y-20735D01*
X-51485Y-20806D01*
D02*
G37*
G36*
X-74185Y-55583D02*
X-74251Y-55510D01*
X-74318Y-55445D01*
X-74387Y-55388D01*
X-74456Y-55338D01*
X-74527Y-55296D01*
X-74599Y-55261D01*
X-74673Y-55234D01*
X-74747Y-55215D01*
X-74823Y-55204D01*
X-74900Y-55200D01*
Y-54800D01*
X-74823Y-54796D01*
X-74747Y-54785D01*
X-74673Y-54765D01*
X-74599Y-54739D01*
X-74527Y-54704D01*
X-74456Y-54662D01*
X-74387Y-54612D01*
X-74318Y-54555D01*
X-74251Y-54489D01*
X-74185Y-54417D01*
Y-55583D01*
D02*
G37*
%LPC*%
G36*
X259Y44800D02*
X-259D01*
X-736Y44602D01*
X-1102Y44236D01*
X-1300Y43759D01*
Y43241D01*
X-1102Y42764D01*
X-736Y42398D01*
X-259Y42200D01*
X259D01*
X736Y42398D01*
X1102Y42764D01*
X1300Y43241D01*
Y43759D01*
X1102Y44236D01*
X736Y44602D01*
X259Y44800D01*
D02*
G37*
G36*
X-4200Y47037D02*
X-4941Y46890D01*
X-5570Y46470D01*
X-5990Y45841D01*
X-6137Y45100D01*
Y42100D01*
Y38102D01*
X-6802Y37437D01*
X-17464D01*
X-17563Y37536D01*
Y41000D01*
Y44000D01*
X-17710Y44741D01*
X-18130Y45370D01*
X-18759Y45790D01*
X-19500Y45937D01*
X-20241Y45790D01*
X-20870Y45370D01*
X-21290Y44741D01*
X-21437Y44000D01*
Y41000D01*
Y36733D01*
X-21290Y35992D01*
X-20870Y35364D01*
X-19636Y34130D01*
X-19008Y33710D01*
X-18267Y33563D01*
X-6000D01*
X-5259Y33710D01*
X-4630Y34130D01*
X-2830Y35930D01*
X-2410Y36559D01*
X-2263Y37300D01*
Y42100D01*
Y45100D01*
X-2410Y45841D01*
X-2830Y46470D01*
X-3459Y46890D01*
X-4200Y47037D01*
D02*
G37*
G36*
X259Y38300D02*
X-259D01*
X-736Y38102D01*
X-1102Y37736D01*
X-1300Y37259D01*
Y36741D01*
X-1102Y36264D01*
X-736Y35898D01*
X-259Y35700D01*
X259D01*
X736Y35898D01*
X1102Y36264D01*
X1300Y36741D01*
Y37259D01*
X1102Y37736D01*
X736Y38102D01*
X259Y38300D01*
D02*
G37*
G36*
X4300Y47037D02*
X3559Y46890D01*
X2930Y46470D01*
X2510Y45841D01*
X2363Y45100D01*
Y42100D01*
Y37700D01*
X2510Y36959D01*
X2930Y36330D01*
X5630Y33630D01*
X6259Y33210D01*
X7000Y33063D01*
X16867D01*
X17608Y33210D01*
X18236Y33630D01*
X20670Y36064D01*
X21090Y36692D01*
X21237Y37433D01*
Y41700D01*
Y44700D01*
X21090Y45441D01*
X20670Y46070D01*
X20041Y46490D01*
X19300Y46637D01*
X18559Y46490D01*
X17930Y46070D01*
X17510Y45441D01*
X17363Y44700D01*
Y41700D01*
Y38236D01*
X16064Y36937D01*
X7802D01*
X6237Y38502D01*
Y42100D01*
Y45100D01*
X6090Y45841D01*
X5670Y46470D01*
X5041Y46890D01*
X4300Y47037D01*
D02*
G37*
G36*
X14759Y32300D02*
X14241D01*
X13764Y32102D01*
X13398Y31736D01*
X13200Y31259D01*
Y30741D01*
X13398Y30264D01*
X13764Y29898D01*
X14241Y29700D01*
X14759D01*
X15236Y29898D01*
X15602Y30264D01*
X15800Y30741D01*
Y31259D01*
X15602Y31736D01*
X15236Y32102D01*
X14759Y32300D01*
D02*
G37*
G36*
X9759D02*
X9241D01*
X8764Y32102D01*
X8398Y31736D01*
X8200Y31259D01*
Y30741D01*
X8398Y30264D01*
X8764Y29898D01*
X9241Y29700D01*
X9759D01*
X10236Y29898D01*
X10602Y30264D01*
X10800Y30741D01*
Y31259D01*
X10602Y31736D01*
X10236Y32102D01*
X9759Y32300D01*
D02*
G37*
G36*
X-9241D02*
X-9759D01*
X-10236Y32102D01*
X-10602Y31736D01*
X-10800Y31259D01*
Y30741D01*
X-10602Y30264D01*
X-10236Y29898D01*
X-9759Y29700D01*
X-9241D01*
X-8764Y29898D01*
X-8398Y30264D01*
X-8200Y30741D01*
Y31259D01*
X-8398Y31736D01*
X-8764Y32102D01*
X-9241Y32300D01*
D02*
G37*
G36*
X-14241D02*
X-14759D01*
X-15236Y32102D01*
X-15602Y31736D01*
X-15800Y31259D01*
Y30741D01*
X-15602Y30264D01*
X-15236Y29898D01*
X-14759Y29700D01*
X-14241D01*
X-13764Y29898D01*
X-13398Y30264D01*
X-13200Y30741D01*
Y31259D01*
X-13398Y31736D01*
X-13764Y32102D01*
X-14241Y32300D01*
D02*
G37*
G36*
X11059Y8800D02*
X10541D01*
X10064Y8602D01*
X9698Y8236D01*
X9500Y7759D01*
Y7241D01*
X9698Y6764D01*
X10064Y6398D01*
X10541Y6200D01*
X11059D01*
X11536Y6398D01*
X11902Y6764D01*
X12100Y7241D01*
Y7759D01*
X11902Y8236D01*
X11536Y8602D01*
X11059Y8800D01*
D02*
G37*
G36*
X9000Y10000D02*
X-9000D01*
Y3341D01*
X-9488Y3239D01*
X-9500Y3238D01*
X-9864Y3602D01*
X-10341Y3800D01*
X-10859D01*
X-11336Y3602D01*
X-11702Y3236D01*
X-11900Y2759D01*
Y2241D01*
X-11702Y1764D01*
X-11336Y1398D01*
X-10859Y1200D01*
X-10341D01*
X-9864Y1398D01*
X-9500Y1761D01*
X-9488Y1761D01*
X-9000Y1659D01*
Y-10000D01*
X9000D01*
Y10000D01*
D02*
G37*
G36*
X75700Y9627D02*
X70300D01*
X69754Y9519D01*
X69291Y9209D01*
X68981Y8746D01*
X68873Y8200D01*
Y6200D01*
X68981Y5654D01*
X69291Y5191D01*
X69754Y4881D01*
X70300Y4773D01*
X71694D01*
X71770Y4705D01*
X71898Y4236D01*
X71700Y3759D01*
Y3241D01*
X71898Y2764D01*
X72264Y2398D01*
X72741Y2200D01*
X73259D01*
X73736Y2398D01*
X74102Y2764D01*
X74300Y3241D01*
Y3759D01*
X74102Y4236D01*
X74230Y4705D01*
X74306Y4773D01*
X75700D01*
X76246Y4881D01*
X76709Y5191D01*
X77019Y5654D01*
X77127Y6200D01*
Y8200D01*
X77019Y8746D01*
X76709Y9209D01*
X76246Y9519D01*
X75700Y9627D01*
D02*
G37*
G36*
X16059Y1600D02*
X15541D01*
X15064Y1402D01*
X14698Y1036D01*
X14500Y559D01*
Y41D01*
X14698Y-436D01*
X15064Y-802D01*
X15541Y-1000D01*
X16059D01*
X16536Y-802D01*
X16902Y-436D01*
X17100Y41D01*
Y559D01*
X16902Y1036D01*
X16536Y1402D01*
X16059Y1600D01*
D02*
G37*
G36*
X50259Y-2700D02*
X49741D01*
X49264Y-2898D01*
X48898Y-3264D01*
X48700Y-3741D01*
Y-4259D01*
X48898Y-4736D01*
X49264Y-5102D01*
X49741Y-5300D01*
X50259D01*
X50736Y-5102D01*
X51102Y-4736D01*
X51300Y-4259D01*
Y-3741D01*
X51102Y-3264D01*
X50736Y-2898D01*
X50259Y-2700D01*
D02*
G37*
G36*
X29559Y-2800D02*
X29041D01*
X28564Y-2998D01*
X28198Y-3364D01*
X28000Y-3841D01*
Y-4359D01*
X28198Y-4836D01*
X28564Y-5202D01*
X29041Y-5400D01*
X29559D01*
X30036Y-5202D01*
X30402Y-4836D01*
X30600Y-4359D01*
Y-3841D01*
X30402Y-3364D01*
X30036Y-2998D01*
X29559Y-2800D01*
D02*
G37*
G36*
X-18041Y-2900D02*
X-18559D01*
X-19036Y-3098D01*
X-19402Y-3464D01*
X-19600Y-3941D01*
Y-4459D01*
X-19402Y-4936D01*
X-19036Y-5302D01*
X-18559Y-5500D01*
X-18041D01*
X-17564Y-5302D01*
X-17198Y-4936D01*
X-17000Y-4459D01*
Y-3941D01*
X-17198Y-3464D01*
X-17564Y-3098D01*
X-18041Y-2900D01*
D02*
G37*
G36*
X50259Y-5900D02*
X49741D01*
X49264Y-6098D01*
X48898Y-6464D01*
X48700Y-6941D01*
Y-7459D01*
X48898Y-7936D01*
X49264Y-8302D01*
X49741Y-8500D01*
X50259D01*
X50736Y-8302D01*
X51102Y-7936D01*
X51300Y-7459D01*
Y-6941D01*
X51102Y-6464D01*
X50736Y-6098D01*
X50259Y-5900D01*
D02*
G37*
G36*
X29559D02*
X29041D01*
X28564Y-6098D01*
X28198Y-6464D01*
X28000Y-6941D01*
Y-7459D01*
X28198Y-7936D01*
X28564Y-8302D01*
X29041Y-8500D01*
X29559D01*
X30036Y-8302D01*
X30402Y-7936D01*
X30600Y-7459D01*
Y-6941D01*
X30402Y-6464D01*
X30036Y-6098D01*
X29559Y-5900D01*
D02*
G37*
G36*
X-11141Y-6200D02*
X-11659D01*
X-12136Y-6398D01*
X-12502Y-6764D01*
X-12700Y-7241D01*
Y-7759D01*
X-12502Y-8236D01*
X-12136Y-8602D01*
X-11659Y-8800D01*
X-11141D01*
X-10664Y-8602D01*
X-10298Y-8236D01*
X-10100Y-7759D01*
Y-7241D01*
X-10298Y-6764D01*
X-10664Y-6398D01*
X-11141Y-6200D01*
D02*
G37*
G36*
X73259Y-3400D02*
X72741D01*
X72264Y-3598D01*
X71898Y-3964D01*
X71700Y-4441D01*
Y-4773D01*
X70300D01*
X69754Y-4881D01*
X69291Y-5191D01*
X68981Y-5654D01*
X68873Y-6200D01*
Y-8200D01*
X68981Y-8746D01*
X69291Y-9209D01*
X69754Y-9519D01*
X70300Y-9627D01*
X75700D01*
X76246Y-9519D01*
X76709Y-9209D01*
X77019Y-8746D01*
X77127Y-8200D01*
Y-6200D01*
X77019Y-5654D01*
X76709Y-5191D01*
X76246Y-4881D01*
X75700Y-4773D01*
X74300D01*
Y-4441D01*
X74102Y-3964D01*
X73736Y-3598D01*
X73259Y-3400D01*
D02*
G37*
G36*
X28500Y-13073D02*
X27954Y-13182D01*
X27491Y-13491D01*
X27181Y-13954D01*
X27073Y-14501D01*
Y-19050D01*
X26956Y-19225D01*
X26876Y-19625D01*
Y-23375D01*
X26956Y-23775D01*
X27182Y-24114D01*
X27521Y-24340D01*
X27922Y-24420D01*
X29171D01*
X29571Y-24340D01*
X29910Y-24114D01*
X30137Y-23775D01*
X30217Y-23375D01*
Y-19625D01*
X30137Y-19225D01*
X29927Y-18911D01*
Y-14501D01*
X29819Y-13954D01*
X29509Y-13491D01*
X29046Y-13182D01*
X28500Y-13073D01*
D02*
G37*
G36*
X18800Y-14873D02*
X18800Y-14873D01*
X4200D01*
X3654Y-14981D01*
X3191Y-15291D01*
X3191Y-15291D01*
X1225Y-17257D01*
X915Y-17720D01*
X806Y-18266D01*
X807Y-18266D01*
Y-19521D01*
X801Y-19534D01*
X798Y-19834D01*
X789Y-20019D01*
X788Y-20035D01*
X704Y-20160D01*
X635Y-20508D01*
Y-21492D01*
X704Y-21840D01*
X902Y-22135D01*
X1197Y-22332D01*
X1545Y-22402D01*
X2105D01*
X2234Y-22427D01*
X2363Y-22402D01*
X2923D01*
X3271Y-22332D01*
X3566Y-22135D01*
X3763Y-21840D01*
X3833Y-21492D01*
Y-20508D01*
X3763Y-20160D01*
X3690Y-20051D01*
X3667Y-19640D01*
X3667Y-19537D01*
X3661Y-19524D01*
Y-18857D01*
X4791Y-17727D01*
X18209D01*
X18891Y-18409D01*
X19354Y-18719D01*
X19900Y-18827D01*
X20406Y-18727D01*
X20465Y-18729D01*
X20938Y-18991D01*
X20947Y-19072D01*
X20929Y-19121D01*
X20948Y-19077D01*
Y-19077D01*
X20923Y-19134D01*
X20923Y-19135D01*
X20896Y-19176D01*
X20863Y-19225D01*
X20859Y-19244D01*
X20831Y-19283D01*
X20807Y-19379D01*
X20786Y-19441D01*
X20764Y-19485D01*
X20745Y-19513D01*
X20730Y-19531D01*
X20716Y-19542D01*
X20702Y-19550D01*
X20681Y-19557D01*
X20649Y-19564D01*
X20577Y-19568D01*
X20568Y-19573D01*
X16734D01*
X16605Y-19598D01*
X16045D01*
X15697Y-19668D01*
X15402Y-19865D01*
X15204Y-20160D01*
X15135Y-20508D01*
Y-21492D01*
X15204Y-21840D01*
X15402Y-22135D01*
X15697Y-22332D01*
X16045Y-22402D01*
X16605D01*
X16734Y-22427D01*
X18438D01*
X18481Y-22646D01*
X18791Y-23109D01*
X19254Y-23419D01*
X19800Y-23527D01*
X20572D01*
X20582Y-23532D01*
X20663Y-23536D01*
X20708Y-23544D01*
X20738Y-23553D01*
X20756Y-23561D01*
X20768Y-23569D01*
X20777Y-23577D01*
X20787Y-23590D01*
X20799Y-23613D01*
X20813Y-23648D01*
X20831Y-23721D01*
X20860Y-23759D01*
X20863Y-23775D01*
X20923Y-23865D01*
X20948Y-23923D01*
X20967Y-23931D01*
X21090Y-24114D01*
X21429Y-24340D01*
X21828Y-24420D01*
X23078D01*
X23479Y-24340D01*
X23818Y-24114D01*
X24044Y-23775D01*
X24124Y-23375D01*
Y-19625D01*
X24044Y-19225D01*
X23818Y-18886D01*
X23479Y-18659D01*
X23078Y-18580D01*
X21828D01*
X21510Y-18643D01*
X21429Y-18659D01*
X21380Y-18662D01*
X21336Y-18657D01*
X21062Y-18185D01*
X21066Y-18175D01*
X21219Y-17946D01*
X21327Y-17400D01*
X21219Y-16854D01*
X20909Y-16391D01*
X19809Y-15291D01*
X19346Y-14981D01*
X18800Y-14873D01*
D02*
G37*
G36*
X240Y-32113D02*
X-306Y-32221D01*
X-769Y-32531D01*
X-1079Y-32994D01*
X-1187Y-33540D01*
Y-38640D01*
X-1079Y-39186D01*
X-769Y-39650D01*
X-306Y-39959D01*
X240Y-40068D01*
X786Y-39959D01*
X996Y-39819D01*
X1036Y-39802D01*
X1067Y-39771D01*
X1249Y-39650D01*
X1371Y-39467D01*
X1402Y-39436D01*
X1419Y-39396D01*
X1559Y-39186D01*
X1668Y-38640D01*
Y-33540D01*
X1559Y-32994D01*
X1249Y-32531D01*
X786Y-32221D01*
X240Y-32113D01*
D02*
G37*
G36*
X-10541Y-42800D02*
X-11059D01*
X-11536Y-42998D01*
X-11902Y-43364D01*
X-12100Y-43841D01*
Y-44038D01*
X-12208Y-44392D01*
X-12562Y-44500D01*
X-12759D01*
X-13236Y-44698D01*
X-13602Y-45064D01*
X-13800Y-45541D01*
Y-46059D01*
X-13602Y-46536D01*
X-13236Y-46902D01*
X-12759Y-47100D01*
X-12241D01*
X-11764Y-46902D01*
X-11398Y-46536D01*
X-11200Y-46059D01*
Y-45862D01*
X-11092Y-45508D01*
X-10738Y-45400D01*
X-10541D01*
X-10064Y-45202D01*
X-9698Y-44836D01*
X-9500Y-44359D01*
Y-43841D01*
X-9698Y-43364D01*
X-10064Y-42998D01*
X-10541Y-42800D01*
D02*
G37*
G36*
X71000Y-27099D02*
X61200D01*
Y-49000D01*
X71000D01*
Y-27099D01*
D02*
G37*
G36*
X8759Y-49800D02*
X8241D01*
X7764Y-49998D01*
X7398Y-50364D01*
X7200Y-50841D01*
Y-51359D01*
X7398Y-51836D01*
X7517Y-51955D01*
X7519Y-51972D01*
X7519Y-51981D01*
X7521Y-51986D01*
X7523Y-51993D01*
X7530Y-52007D01*
X7536Y-52023D01*
X7543Y-52054D01*
X7549Y-52090D01*
X7566Y-52308D01*
X7567Y-52394D01*
X7582Y-52430D01*
Y-53500D01*
X7652Y-53851D01*
X7851Y-54149D01*
X9751Y-56049D01*
X10049Y-56248D01*
X10400Y-56318D01*
X15935D01*
X15951Y-56327D01*
X15980Y-56321D01*
X16007Y-56333D01*
X16051Y-56334D01*
X16076Y-56336D01*
X16094Y-56339D01*
X16103Y-56342D01*
X16104Y-56342D01*
X16111Y-56347D01*
X16115Y-56348D01*
X16126Y-56374D01*
X16214Y-56411D01*
X16320Y-56517D01*
X16761Y-56700D01*
X17239D01*
X17680Y-56517D01*
X17786Y-56411D01*
X17874Y-56374D01*
X17885Y-56348D01*
X17889Y-56347D01*
X17896Y-56342D01*
X17897Y-56342D01*
X17906Y-56339D01*
X17923Y-56336D01*
X17949Y-56334D01*
X17993Y-56333D01*
X18020Y-56321D01*
X18049Y-56327D01*
X18065Y-56318D01*
X22637D01*
X22783Y-56567D01*
X22875Y-56818D01*
X22700Y-57241D01*
Y-57759D01*
X22898Y-58236D01*
X23264Y-58602D01*
X23741Y-58800D01*
X24259D01*
X24736Y-58602D01*
X25102Y-58236D01*
X25107Y-58224D01*
X25128Y-58209D01*
X25179Y-58132D01*
X25221Y-58077D01*
X25261Y-58032D01*
X25297Y-57998D01*
X25328Y-57973D01*
X25355Y-57956D01*
X25370Y-57949D01*
X27616D01*
Y-58684D01*
X30384D01*
Y-55916D01*
X27616D01*
Y-56651D01*
X25448D01*
X25308Y-56189D01*
X25313Y-56142D01*
X25314Y-56139D01*
X25449Y-56049D01*
X27009Y-54489D01*
X27045Y-54475D01*
X27112Y-54409D01*
X27166Y-54360D01*
X27269Y-54275D01*
X27302Y-54251D01*
X27329Y-54235D01*
X27344Y-54227D01*
X27360Y-54223D01*
X27366Y-54218D01*
X27370Y-54217D01*
X27377Y-54210D01*
X27390Y-54200D01*
X27559D01*
X28036Y-54002D01*
X28177Y-53861D01*
X28188Y-53858D01*
X28200Y-53855D01*
X28221Y-53851D01*
X28502Y-53834D01*
X28592Y-53833D01*
X28628Y-53818D01*
X28700D01*
X29051Y-53748D01*
X29272Y-53600D01*
X29759D01*
X30236Y-53402D01*
X30602Y-53036D01*
X30800Y-52559D01*
Y-52041D01*
X30602Y-51564D01*
X30236Y-51198D01*
X29759Y-51000D01*
X29241D01*
X28764Y-51198D01*
X28454Y-51508D01*
X28362Y-51572D01*
X27800Y-51700D01*
X27559Y-51600D01*
X27041D01*
X26564Y-51798D01*
X26198Y-52164D01*
X26000Y-52641D01*
Y-52810D01*
X25990Y-52823D01*
X25983Y-52830D01*
X25982Y-52834D01*
X25977Y-52840D01*
X25973Y-52856D01*
X25965Y-52871D01*
X25949Y-52898D01*
X25928Y-52927D01*
X25785Y-53094D01*
X25725Y-53155D01*
X25711Y-53191D01*
X24420Y-54482D01*
X17855D01*
X17818Y-54467D01*
X17766Y-54467D01*
X17759Y-54470D01*
X17751Y-54468D01*
X17653Y-54472D01*
X17239Y-54300D01*
X16761D01*
X16342Y-54474D01*
X16260Y-54468D01*
X16247Y-54473D01*
X16234Y-54467D01*
X16182Y-54467D01*
X16145Y-54482D01*
X10780D01*
X9418Y-53120D01*
Y-52430D01*
X9433Y-52394D01*
X9434Y-52301D01*
X9437Y-52227D01*
X9450Y-52094D01*
X9457Y-52054D01*
X9464Y-52023D01*
X9470Y-52007D01*
X9477Y-51993D01*
X9479Y-51986D01*
X9481Y-51981D01*
X9481Y-51972D01*
X9483Y-51955D01*
X9602Y-51836D01*
X9800Y-51359D01*
Y-50841D01*
X9602Y-50364D01*
X9236Y-49998D01*
X8759Y-49800D01*
D02*
G37*
G36*
X2759Y-46200D02*
X2241D01*
X1764Y-46398D01*
X1398Y-46764D01*
X1200Y-47241D01*
Y-47425D01*
X1167Y-47499D01*
X1166Y-47574D01*
X1160Y-47631D01*
X1151Y-47683D01*
X1139Y-47730D01*
X1125Y-47774D01*
X1107Y-47815D01*
X1086Y-47854D01*
X1061Y-47891D01*
X1033Y-47927D01*
X988Y-47976D01*
X972Y-48018D01*
X-505Y-49495D01*
X-659Y-49727D01*
X-714Y-50000D01*
Y-57219D01*
X-733Y-57260D01*
X-736Y-57362D01*
X-745Y-57444D01*
X-760Y-57522D01*
X-781Y-57595D01*
X-806Y-57666D01*
X-838Y-57734D01*
X-876Y-57801D01*
X-920Y-57866D01*
X-972Y-57930D01*
X-1041Y-58005D01*
X-1057Y-58048D01*
X-2067Y-59058D01*
X-2084Y-59061D01*
X-2099Y-59082D01*
X-2103Y-59083D01*
X-2107Y-59085D01*
X-2113Y-59086D01*
X-2124Y-59093D01*
X-2129Y-59095D01*
X-2146Y-59100D01*
X-2172Y-59105D01*
X-2203Y-59110D01*
X-2308Y-59118D01*
X-2370Y-59119D01*
X-2430Y-59145D01*
X-2672Y-59193D01*
X-2934Y-59369D01*
X-3110Y-59631D01*
X-3171Y-59941D01*
Y-64931D01*
X-3300Y-65241D01*
Y-65759D01*
X-3102Y-66236D01*
X-2736Y-66602D01*
X-2259Y-66800D01*
X-1741D01*
X-1264Y-66602D01*
X-898Y-66236D01*
X-700Y-65759D01*
Y-65241D01*
X-769Y-65075D01*
X-766Y-65059D01*
Y-59941D01*
X-793Y-59802D01*
X-48Y-59057D01*
X-5Y-59041D01*
X70Y-58972D01*
X134Y-58920D01*
X199Y-58876D01*
X266Y-58838D01*
X334Y-58806D01*
X405Y-58780D01*
X478Y-58760D01*
X556Y-58745D01*
X638Y-58736D01*
X740Y-58733D01*
X929Y-58816D01*
X1046Y-59339D01*
X1003Y-59369D01*
X827Y-59631D01*
X766Y-59941D01*
Y-62007D01*
X668Y-62241D01*
Y-62759D01*
X766Y-62993D01*
Y-65059D01*
X827Y-65369D01*
X1003Y-65631D01*
X1265Y-65807D01*
X1575Y-65868D01*
X2362D01*
X2672Y-65807D01*
X2934Y-65631D01*
X3110Y-65369D01*
X3171Y-65059D01*
Y-62993D01*
X3269Y-62759D01*
Y-62241D01*
X3171Y-62007D01*
Y-59941D01*
X3110Y-59631D01*
X2934Y-59369D01*
X2702Y-59214D01*
X2697Y-59177D01*
X2961Y-58714D01*
X20204D01*
X22695Y-61205D01*
X22927Y-61359D01*
X23200Y-61414D01*
X27616D01*
Y-62084D01*
X30384D01*
Y-59316D01*
X27616D01*
Y-59986D01*
X23496D01*
X21005Y-57495D01*
X20773Y-57341D01*
X20500Y-57286D01*
X1081D01*
X882Y-57118D01*
X714Y-56919D01*
Y-50296D01*
X1982Y-49028D01*
X2024Y-49012D01*
X2073Y-48967D01*
X2109Y-48939D01*
X2146Y-48914D01*
X2185Y-48893D01*
X2226Y-48875D01*
X2270Y-48860D01*
X2317Y-48849D01*
X2369Y-48840D01*
X2426Y-48835D01*
X2501Y-48833D01*
X2575Y-48800D01*
X2759D01*
X3236Y-48602D01*
X3602Y-48236D01*
X3800Y-47759D01*
Y-47241D01*
X3602Y-46764D01*
X3236Y-46398D01*
X2759Y-46200D01*
D02*
G37*
%LPD*%
G36*
X73362Y5203D02*
X73328Y5199D01*
X73298Y5193D01*
X73272Y5184D01*
X73250Y5172D01*
X73232Y5157D01*
X73218Y5140D01*
X73208Y5120D01*
X73202Y5098D01*
X73200Y5073D01*
X72800D01*
X72798Y5098D01*
X72792Y5120D01*
X72782Y5140D01*
X72768Y5157D01*
X72750Y5172D01*
X72728Y5184D01*
X72702Y5193D01*
X72672Y5199D01*
X72638Y5203D01*
X72600Y5205D01*
X73400D01*
X73362Y5203D01*
D02*
G37*
G36*
X73204Y4846D02*
X73217Y4773D01*
X73239Y4699D01*
X73269Y4624D01*
X73308Y4547D01*
X73355Y4469D01*
X73411Y4389D01*
X73475Y4309D01*
X73548Y4226D01*
X73630Y4143D01*
X72370D01*
X72452Y4226D01*
X72589Y4389D01*
X72645Y4469D01*
X72693Y4547D01*
X72731Y4624D01*
X72761Y4699D01*
X72783Y4773D01*
X72796Y4846D01*
X72800Y4918D01*
X73200D01*
X73204Y4846D01*
D02*
G37*
G36*
X73202Y-5098D02*
X73208Y-5120D01*
X73218Y-5140D01*
X73232Y-5157D01*
X73250Y-5172D01*
X73272Y-5184D01*
X73298Y-5193D01*
X73328Y-5199D01*
X73362Y-5203D01*
X73400Y-5205D01*
X72600D01*
X72638Y-5203D01*
X72672Y-5199D01*
X72702Y-5193D01*
X72728Y-5184D01*
X72750Y-5172D01*
X72768Y-5157D01*
X72782Y-5140D01*
X72792Y-5120D01*
X72798Y-5098D01*
X72800Y-5073D01*
X73200D01*
X73202Y-5098D01*
D02*
G37*
G36*
X73548Y-5426D02*
X73411Y-5590D01*
X73355Y-5669D01*
X73308Y-5747D01*
X73269Y-5824D01*
X73239Y-5899D01*
X73217Y-5973D01*
X73204Y-6046D01*
X73200Y-6117D01*
X72800D01*
X72796Y-6046D01*
X72783Y-5973D01*
X72761Y-5899D01*
X72731Y-5824D01*
X72693Y-5747D01*
X72645Y-5669D01*
X72589Y-5590D01*
X72525Y-5509D01*
X72452Y-5426D01*
X72370Y-5343D01*
X73630D01*
X73548Y-5426D01*
D02*
G37*
G36*
X3234Y-19652D02*
X3262Y-20151D01*
X3269Y-20162D01*
X1199D01*
X1205Y-20151D01*
X1211Y-20129D01*
X1217Y-20096D01*
X1221Y-20051D01*
X1231Y-19846D01*
X1234Y-19538D01*
X3234D01*
X3234Y-19652D01*
D02*
G37*
G36*
X21230Y-21530D02*
X21251Y-23614D01*
X21226Y-23516D01*
X21192Y-23429D01*
X21150Y-23352D01*
X21098Y-23285D01*
X21038Y-23228D01*
X20969Y-23182D01*
X20891Y-23146D01*
X20804Y-23121D01*
X20708Y-23105D01*
X20604Y-23100D01*
Y-22000D01*
Y-21100D01*
Y-20000D01*
X20705Y-19994D01*
X20798Y-19975D01*
X20883Y-19945D01*
X20959Y-19902D01*
X21028Y-19847D01*
X21089Y-19779D01*
X21141Y-19699D01*
X21186Y-19607D01*
X21223Y-19502D01*
X21251Y-19386D01*
X21230Y-21530D01*
D02*
G37*
G36*
X69313Y-28517D02*
X69323Y-28536D01*
X69341Y-28563D01*
X69359Y-28600D01*
X69378Y-28656D01*
X69406Y-28721D01*
X69433Y-28785D01*
X69452Y-28869D01*
X69507Y-29054D01*
X69554Y-29276D01*
X69591Y-29516D01*
X69600Y-29784D01*
Y-29858D01*
X69591Y-29914D01*
Y-29979D01*
X69572Y-30053D01*
X69545Y-30219D01*
X69489Y-30413D01*
X69415Y-30608D01*
X69304Y-30783D01*
X69230Y-30876D01*
X69156Y-30950D01*
X69147D01*
X69138Y-30968D01*
X69110Y-30987D01*
X69073Y-31005D01*
X69026Y-31033D01*
X68971Y-31070D01*
X68906Y-31107D01*
X68832Y-31135D01*
X68749Y-31172D01*
X68656Y-31209D01*
X68444Y-31274D01*
X68194Y-31311D01*
X67907Y-31329D01*
X64189D01*
Y-32633D01*
X63292D01*
Y-30016D01*
X68074D01*
X68083D01*
X68092D01*
X68148Y-30006D01*
X68231Y-29988D01*
X68314Y-29942D01*
X68407Y-29877D01*
X68453Y-29831D01*
X68490Y-29775D01*
X68518Y-29710D01*
X68546Y-29636D01*
X68555Y-29553D01*
X68564Y-29451D01*
Y-29396D01*
X68555Y-29340D01*
X68546Y-29257D01*
X68536Y-29165D01*
X68508Y-29054D01*
X68481Y-28943D01*
X68435Y-28822D01*
X69313Y-28508D01*
Y-28517D01*
D02*
G37*
G36*
X66890Y-33457D02*
Y-34289D01*
X66085D01*
Y-34308D01*
X66094Y-34354D01*
X66122Y-34419D01*
X66150Y-34502D01*
X66205Y-34604D01*
X66270Y-34715D01*
X66363Y-34826D01*
X66474Y-34937D01*
X66492Y-34946D01*
X66529Y-34983D01*
X66603Y-35038D01*
X66705Y-35103D01*
X66825Y-35168D01*
X66973Y-35242D01*
X67130Y-35316D01*
X67315Y-35381D01*
X68582D01*
Y-34502D01*
X69461D01*
Y-37277D01*
X68582D01*
Y-36694D01*
X65918D01*
Y-37277D01*
X65049D01*
Y-35686D01*
X66039Y-35455D01*
X66030D01*
X66011Y-35445D01*
X65983Y-35427D01*
X65946Y-35408D01*
X65845Y-35362D01*
X65715Y-35288D01*
X65576Y-35205D01*
X65438Y-35103D01*
X65308Y-34983D01*
X65188Y-34853D01*
X65179Y-34835D01*
X65141Y-34789D01*
X65095Y-34705D01*
X65049Y-34604D01*
X64994Y-34465D01*
X64956Y-34317D01*
X64920Y-34141D01*
X64910Y-33947D01*
Y-33882D01*
X64920Y-33799D01*
X64929Y-33706D01*
X64947Y-33595D01*
X64966Y-33466D01*
X65003Y-33346D01*
X65049Y-33216D01*
X66890Y-33457D01*
D02*
G37*
G36*
X69212Y-38341D02*
X69230Y-38359D01*
X69248Y-38396D01*
X69276Y-38442D01*
X69304Y-38498D01*
X69332Y-38572D01*
X69369Y-38655D01*
X69406Y-38748D01*
X69443Y-38849D01*
X69480Y-38960D01*
X69535Y-39210D01*
X69582Y-39488D01*
X69600Y-39784D01*
Y-39867D01*
X69591Y-39922D01*
Y-39996D01*
X69582Y-40080D01*
X69545Y-40265D01*
X69498Y-40468D01*
X69424Y-40681D01*
X69313Y-40884D01*
X69248Y-40977D01*
X69174Y-41060D01*
X69165D01*
X69156Y-41079D01*
X69128Y-41097D01*
X69091Y-41125D01*
X69054Y-41162D01*
X68999Y-41199D01*
X68934Y-41236D01*
X68860Y-41273D01*
X68684Y-41347D01*
X68481Y-41421D01*
X68240Y-41467D01*
X68102Y-41476D01*
X67963Y-41486D01*
X65956D01*
Y-42411D01*
X65049D01*
Y-41486D01*
X64087D01*
X63930Y-40172D01*
X65049D01*
Y-38748D01*
X65956Y-38886D01*
Y-40172D01*
X67963D01*
X67981D01*
X68018D01*
X68074Y-40163D01*
X68138Y-40154D01*
X68222Y-40135D01*
X68296Y-40107D01*
X68370Y-40070D01*
X68425Y-40024D01*
X68435Y-40015D01*
X68444Y-39996D01*
X68471Y-39959D01*
X68490Y-39904D01*
X68518Y-39839D01*
X68546Y-39756D01*
X68555Y-39663D01*
X68564Y-39543D01*
Y-39469D01*
X68555Y-39395D01*
X68536Y-39293D01*
X68518Y-39173D01*
X68481Y-39044D01*
X68435Y-38905D01*
X68370Y-38766D01*
X69212Y-38331D01*
Y-38341D01*
D02*
G37*
G36*
X68832Y-42993D02*
X68860Y-43021D01*
X68897Y-43058D01*
X68943Y-43123D01*
X68999Y-43197D01*
X69073Y-43289D01*
X69138Y-43391D01*
X69212Y-43511D01*
X69286Y-43650D01*
X69350Y-43798D01*
X69415Y-43955D01*
X69480Y-44131D01*
X69526Y-44307D01*
X69563Y-44501D01*
X69591Y-44714D01*
X69600Y-44927D01*
Y-45001D01*
X69591Y-45056D01*
Y-45130D01*
X69582Y-45213D01*
X69572Y-45297D01*
X69554Y-45398D01*
X69517Y-45620D01*
X69452Y-45852D01*
X69369Y-46092D01*
X69258Y-46323D01*
Y-46333D01*
X69239Y-46351D01*
X69221Y-46379D01*
X69193Y-46425D01*
X69110Y-46527D01*
X68999Y-46666D01*
X68851Y-46814D01*
X68675Y-46971D01*
X68462Y-47128D01*
X68222Y-47267D01*
X68212D01*
X68194Y-47285D01*
X68148Y-47295D01*
X68102Y-47322D01*
X68037Y-47350D01*
X67953Y-47378D01*
X67861Y-47406D01*
X67759Y-47433D01*
X67639Y-47470D01*
X67519Y-47498D01*
X67380Y-47526D01*
X67232Y-47554D01*
X66918Y-47591D01*
X66566Y-47609D01*
X66557D01*
X66520D01*
X66474D01*
X66409Y-47600D01*
X66325D01*
X66233Y-47591D01*
X66131Y-47581D01*
X66011Y-47563D01*
X65761Y-47526D01*
X65493Y-47461D01*
X65215Y-47378D01*
X64947Y-47258D01*
X64938D01*
X64920Y-47239D01*
X64882Y-47221D01*
X64836Y-47193D01*
X64781Y-47156D01*
X64716Y-47110D01*
X64559Y-47008D01*
X64392Y-46869D01*
X64217Y-46703D01*
X64059Y-46508D01*
X63911Y-46296D01*
Y-46286D01*
X63893Y-46268D01*
X63874Y-46231D01*
X63856Y-46185D01*
X63828Y-46129D01*
X63800Y-46055D01*
X63763Y-45981D01*
X63726Y-45889D01*
X63661Y-45685D01*
X63606Y-45445D01*
X63569Y-45186D01*
X63551Y-44908D01*
Y-44751D01*
X63560Y-44695D01*
X63569Y-44557D01*
X63587Y-44390D01*
X63615Y-44224D01*
X63652Y-44048D01*
X63708Y-43881D01*
Y-43872D01*
X63717Y-43863D01*
X63736Y-43807D01*
X63772Y-43724D01*
X63828Y-43613D01*
X63893Y-43493D01*
X63976Y-43354D01*
X64069Y-43206D01*
X64179Y-43058D01*
X64984Y-43724D01*
X64975Y-43733D01*
X64966Y-43752D01*
X64947Y-43780D01*
X64920Y-43817D01*
X64882Y-43863D01*
X64846Y-43928D01*
X64771Y-44066D01*
X64697Y-44242D01*
X64623Y-44436D01*
X64577Y-44649D01*
X64559Y-44760D01*
Y-44936D01*
X64568Y-44982D01*
X64587Y-45084D01*
X64623Y-45223D01*
X64679Y-45371D01*
X64771Y-45528D01*
X64827Y-45611D01*
X64892Y-45685D01*
X64966Y-45759D01*
X65058Y-45833D01*
X65067D01*
X65086Y-45852D01*
X65114Y-45870D01*
X65151Y-45889D01*
X65206Y-45916D01*
X65271Y-45944D01*
X65345Y-45981D01*
X65438Y-46009D01*
X65530Y-46046D01*
X65641Y-46083D01*
X65771Y-46111D01*
X65909Y-46138D01*
X66048Y-46157D01*
X66215Y-46175D01*
X66381Y-46194D01*
X66566D01*
X66575D01*
X66612D01*
X66659D01*
X66733Y-46185D01*
X66816D01*
X66908Y-46175D01*
X67019Y-46166D01*
X67130Y-46148D01*
X67371Y-46101D01*
X67620Y-46046D01*
X67861Y-45953D01*
X67963Y-45898D01*
X68064Y-45833D01*
X68074D01*
X68083Y-45815D01*
X68138Y-45768D01*
X68212Y-45685D01*
X68305Y-45574D01*
X68397Y-45435D01*
X68471Y-45269D01*
X68527Y-45075D01*
X68536Y-44964D01*
X68546Y-44853D01*
Y-44788D01*
X68536Y-44714D01*
X68527Y-44631D01*
X68518Y-44529D01*
X68490Y-44418D01*
X68462Y-44307D01*
X68416Y-44196D01*
X68407Y-44187D01*
X68388Y-44150D01*
X68361Y-44094D01*
X68323Y-44020D01*
X68268Y-43928D01*
X68203Y-43826D01*
X68120Y-43715D01*
X68037Y-43604D01*
X68823Y-42984D01*
X68832Y-42993D01*
D02*
G37*
G36*
X9105Y-51772D02*
X9083Y-51809D01*
X9064Y-51854D01*
X9047Y-51907D01*
X9032Y-51968D01*
X9021Y-52036D01*
X9005Y-52197D01*
X9001Y-52289D01*
X9000Y-52388D01*
X8000D01*
X7999Y-52289D01*
X7979Y-52036D01*
X7967Y-51968D01*
X7953Y-51907D01*
X7936Y-51854D01*
X7917Y-51809D01*
X7895Y-51772D01*
X7870Y-51743D01*
X9130D01*
X9105Y-51772D01*
D02*
G37*
G36*
X28004Y-52333D02*
X28032Y-52347D01*
X28069Y-52359D01*
X28116Y-52370D01*
X28172Y-52379D01*
X28311Y-52393D01*
X28486Y-52399D01*
X28588Y-52400D01*
Y-53400D01*
X28486Y-53401D01*
X28172Y-53421D01*
X28116Y-53430D01*
X28069Y-53441D01*
X28032Y-53453D01*
X28004Y-53468D01*
X27985Y-53483D01*
Y-52317D01*
X28004Y-52333D01*
D02*
G37*
G36*
X27291Y-53800D02*
X27253Y-53803D01*
X27211Y-53814D01*
X27165Y-53832D01*
X27116Y-53857D01*
X27063Y-53890D01*
X27006Y-53930D01*
X26882Y-54033D01*
X26814Y-54095D01*
X26743Y-54164D01*
X26035Y-53457D01*
X26105Y-53386D01*
X26270Y-53194D01*
X26310Y-53137D01*
X26343Y-53084D01*
X26368Y-53035D01*
X26386Y-52989D01*
X26397Y-52947D01*
X26400Y-52909D01*
X27291Y-53800D01*
D02*
G37*
G36*
X17980Y-55900D02*
X17922Y-55902D01*
X17868Y-55907D01*
X17817Y-55915D01*
X17771Y-55927D01*
X17727Y-55942D01*
X17688Y-55961D01*
X17652Y-55982D01*
X17621Y-56008D01*
X17593Y-56036D01*
X17568Y-56068D01*
Y-54932D01*
X17567Y-54926D01*
X17571Y-54920D01*
X17582Y-54916D01*
X17598Y-54912D01*
X17620Y-54908D01*
X17649Y-54905D01*
X17769Y-54900D01*
X17820Y-54900D01*
X17980Y-55900D01*
D02*
G37*
G36*
X16231Y-54900D02*
X16402Y-54912D01*
X16418Y-54916D01*
X16429Y-54920D01*
X16433Y-54926D01*
X16432Y-54932D01*
Y-56068D01*
X16408Y-56036D01*
X16379Y-56008D01*
X16348Y-55982D01*
X16312Y-55961D01*
X16273Y-55942D01*
X16229Y-55927D01*
X16183Y-55915D01*
X16132Y-55907D01*
X16078Y-55902D01*
X16020Y-55900D01*
X16180Y-54900D01*
X16231Y-54900D01*
D02*
G37*
G36*
X28028Y-57700D02*
X28027Y-57662D01*
X28023Y-57628D01*
X28017Y-57598D01*
X28009Y-57572D01*
X27998Y-57550D01*
X27985Y-57532D01*
X27969Y-57518D01*
X27951Y-57508D01*
X27931Y-57502D01*
X27908Y-57500D01*
Y-57100D01*
X27931Y-57098D01*
X27951Y-57092D01*
X27969Y-57082D01*
X27985Y-57068D01*
X27998Y-57050D01*
X28009Y-57028D01*
X28017Y-57002D01*
X28023Y-56972D01*
X28027Y-56938D01*
X28028Y-56900D01*
Y-57700D01*
D02*
G37*
G36*
X24595Y-56811D02*
X24891Y-56972D01*
X24979Y-57011D01*
X25141Y-57068D01*
X25214Y-57086D01*
X25283Y-57096D01*
X25346Y-57100D01*
X25440Y-57500D01*
X25364Y-57505D01*
X25290Y-57519D01*
X25218Y-57542D01*
X25148Y-57575D01*
X25080Y-57618D01*
X25014Y-57670D01*
X24949Y-57731D01*
X24886Y-57802D01*
X24826Y-57882D01*
X24767Y-57971D01*
X24487Y-56743D01*
X24595Y-56811D01*
D02*
G37*
G36*
X2491Y-48400D02*
X2400Y-48402D01*
X2313Y-48410D01*
X2228Y-48425D01*
X2148Y-48445D01*
X2070Y-48471D01*
X1995Y-48504D01*
X1924Y-48542D01*
X1856Y-48587D01*
X1792Y-48637D01*
X1730Y-48694D01*
X1306Y-48270D01*
X1363Y-48208D01*
X1413Y-48144D01*
X1458Y-48076D01*
X1496Y-48005D01*
X1529Y-47930D01*
X1555Y-47853D01*
X1575Y-47771D01*
X1590Y-47687D01*
X1598Y-47600D01*
X1600Y-47509D01*
X2491Y-48400D01*
D02*
G37*
G36*
X306Y-57214D02*
X324Y-57316D01*
X354Y-57406D01*
X396Y-57484D01*
X450Y-57550D01*
X516Y-57604D01*
X594Y-57646D01*
X684Y-57676D01*
X786Y-57694D01*
X900Y-57700D01*
X724Y-58300D01*
X606Y-58304D01*
X491Y-58317D01*
X380Y-58338D01*
X272Y-58368D01*
X168Y-58406D01*
X68Y-58453D01*
X-30Y-58508D01*
X-123Y-58571D01*
X-213Y-58644D01*
X-300Y-58724D01*
X-724Y-58300D01*
X-644Y-58213D01*
X-571Y-58123D01*
X-508Y-58030D01*
X-453Y-57933D01*
X-406Y-57832D01*
X-368Y-57728D01*
X-338Y-57620D01*
X-317Y-57509D01*
X-304Y-57394D01*
X-300Y-57276D01*
X300Y-57100D01*
X306Y-57214D01*
D02*
G37*
G36*
X-1149Y-59573D02*
X-1173Y-59598D01*
X-1192Y-59623D01*
X-1209Y-59646D01*
X-1221Y-59669D01*
X-1229Y-59692D01*
X-1234Y-59713D01*
X-1235Y-59734D01*
X-1232Y-59754D01*
X-1226Y-59773D01*
X-1215Y-59792D01*
X-2362Y-59552D01*
X-2288Y-59550D01*
X-2154Y-59540D01*
X-2095Y-59531D01*
X-2041Y-59520D01*
X-1992Y-59506D01*
X-1948Y-59489D01*
X-1910Y-59470D01*
X-1877Y-59449D01*
X-1849Y-59425D01*
X-1149Y-59573D01*
D02*
G37*
G36*
X28028Y-61300D02*
X28026Y-61243D01*
X28021Y-61192D01*
X28012Y-61147D01*
X27999Y-61108D01*
X27983Y-61075D01*
X27963Y-61048D01*
X27940Y-61027D01*
X27913Y-61012D01*
X27882Y-61003D01*
X27848Y-61000D01*
Y-60400D01*
X27882Y-60397D01*
X27913Y-60388D01*
X27940Y-60373D01*
X27963Y-60352D01*
X27983Y-60325D01*
X27999Y-60292D01*
X28012Y-60253D01*
X28021Y-60208D01*
X28026Y-60157D01*
X28028Y-60100D01*
Y-61300D01*
D02*
G37*
D10*
X-69500Y-17100D02*
Y-10500D01*
X-74700Y-5300D02*
X-69500Y-10500D01*
X-74700Y-5300D02*
Y400D01*
X-58263Y28563D02*
X-56600Y26900D01*
X-62500Y28563D02*
X-58263D01*
X-52000Y-21000D02*
X-51000Y-22000D01*
X-60200Y-21000D02*
X-52000D01*
X-62000Y-19200D02*
X-60200Y-21000D01*
X-67400Y-19200D02*
X-62000D01*
X-69500Y-17100D02*
X-67400Y-19200D01*
X-73300Y-700D02*
X-56900Y15700D01*
X-54000D02*
X-41154D01*
X-73300Y-4600D02*
Y-700D01*
Y-4600D02*
X-69963Y-7937D01*
X-62500D01*
X-74700Y400D02*
X-62500Y12600D01*
X-56900Y15700D02*
X-54000D01*
X-62500Y12600D02*
Y20689D01*
X-42700Y-13700D02*
Y-10600D01*
X-46100Y-17100D02*
X-42700Y-13700D01*
X-51900Y-17100D02*
X-46100D01*
X-53900Y-15100D02*
X-51900Y-17100D01*
X-53900Y-15100D02*
Y-12100D01*
X-55300Y-10700D02*
X-53900Y-12100D01*
X-58000Y-10700D02*
X-55300D01*
X-59174Y-11874D02*
X-58000Y-10700D01*
X-62500Y-11874D02*
X-59174D01*
X-56300Y-14800D02*
Y-13100D01*
X-51800Y-19300D02*
X-22500D01*
X-56300Y-14800D02*
X-51800Y-19300D01*
X-54989Y20689D02*
X-54000Y19700D01*
X-62500Y20689D02*
X-54989D01*
X28700Y-52900D02*
X29500Y-52100D01*
X10400Y-55400D02*
X24800D01*
X8500Y-53500D02*
Y-51100D01*
X-78400Y-53500D02*
Y-52000D01*
Y-55000D02*
Y-53500D01*
X27300Y-52900D02*
X28700D01*
X24800Y-55400D02*
X27300Y-52900D01*
X8500Y-53500D02*
X10400Y-55400D01*
D11*
X-62500Y-63D02*
X-60137D01*
X-51900Y-8300D01*
Y-11100D02*
Y-8300D01*
X-51400Y-14500D02*
X-49700Y-12800D01*
Y-9100D01*
X-58500Y-300D02*
X-49700Y-9100D01*
X-58500Y-300D02*
Y1000D01*
X-60500Y3000D02*
X-58500Y1000D01*
X-74900Y-55000D02*
X-73500D01*
X-74500Y-52000D02*
X-73500D01*
X-56000Y-34000D02*
X-47200Y-42800D01*
X-40900D02*
X-39700Y-41600D01*
X-47200Y-42800D02*
X-40900D01*
X-58100Y-34900D02*
X-56231D01*
X-47431Y-43700D01*
X-63000Y-34000D02*
X-56000D01*
X-47431Y-43700D02*
X-37700D01*
X-61137Y-37937D02*
X-58100Y-34900D01*
X73000Y-7200D02*
Y-4700D01*
Y3500D02*
Y7200D01*
X-63000Y-37937D02*
X-61137D01*
X24000Y-57500D02*
X24200Y-57300D01*
X29000D01*
D14*
X6600Y57700D02*
X9300Y55000D01*
X27100D01*
X28100Y54000D01*
X228Y57700D02*
X6600D01*
X3165Y58700D02*
X7200D01*
X9741Y56159D02*
X29641D01*
X7200Y58700D02*
X9741Y56159D01*
X1969Y59897D02*
X3165Y58700D01*
X-1969Y59897D02*
Y62500D01*
Y59897D02*
X228Y57700D01*
X1969Y59897D02*
Y62500D01*
X29641Y56159D02*
X32100Y53700D01*
X23200Y-60700D02*
X29000D01*
X20500Y-58000D02*
X23200Y-60700D01*
X0Y-58000D02*
X20500D01*
X0Y-50000D02*
X2500Y-47500D01*
X0Y-58000D02*
Y-50000D01*
X-1969Y-59969D02*
X0Y-58000D01*
X-1969Y-62500D02*
Y-59969D01*
D16*
X-54000Y19700D02*
D03*
Y15700D02*
D03*
D17*
X-48040Y16295D02*
D03*
X-40560D02*
D03*
X-44300Y26105D02*
D03*
D18*
X-77000Y45063D02*
D03*
Y16000D02*
D03*
Y-25500D02*
D03*
Y-42500D02*
D03*
Y8500D02*
D03*
Y-16500D02*
D03*
D19*
X-62500Y24626D02*
D03*
Y32500D02*
D03*
Y28563D02*
D03*
Y36437D02*
D03*
Y40374D02*
D03*
Y20689D02*
D03*
Y-30063D02*
D03*
Y-34000D02*
D03*
Y-37937D02*
D03*
Y-11874D02*
D03*
Y-4000D02*
D03*
Y-7937D02*
D03*
Y-63D02*
D03*
Y3874D02*
D03*
D20*
X6500Y-77000D02*
D03*
X-6500D02*
D03*
X6500Y77000D02*
D03*
X-6500D02*
D03*
D21*
X28500Y-14501D02*
D03*
X17000Y-55500D02*
D03*
D22*
X-14532Y-77000D02*
D03*
X14532D02*
D03*
Y77000D02*
D03*
X-14532D02*
D03*
D23*
X5906Y-62500D02*
D03*
X-1969D02*
D03*
X1969D02*
D03*
X-5906D02*
D03*
X-9843D02*
D03*
X9843D02*
D03*
X-5906Y62500D02*
D03*
X1969D02*
D03*
X-1969D02*
D03*
X5906D02*
D03*
X9843D02*
D03*
X-9843D02*
D03*
D24*
X29000Y-57300D02*
D03*
Y-60700D02*
D03*
D25*
X73000Y-7200D02*
D03*
Y-22800D02*
D03*
Y7200D02*
D03*
Y22800D02*
D03*
D26*
X-27500Y-61500D02*
D03*
X-27500Y-51500D02*
D03*
X-34000Y-61500D02*
D03*
X-34000Y-51500D02*
D03*
X-34000Y-37000D02*
D03*
X-34000Y-47000D02*
D03*
X-27500Y-37000D02*
D03*
X-27500Y-47000D02*
D03*
D27*
X-18000Y-38000D02*
D03*
Y-54000D02*
D03*
D28*
X-34646Y-26000D02*
D03*
X-15354D02*
D03*
D29*
X2234Y-21000D02*
D03*
X-8234D02*
D03*
X16734D02*
D03*
X6266D02*
D03*
D30*
X28547Y-21500D02*
D03*
X22454D02*
D03*
D50*
X240Y-38640D02*
Y-33540D01*
X28500Y-16400D02*
Y-14501D01*
Y-21200D02*
Y-18700D01*
Y-16400D01*
X16734Y-21000D02*
X21953D01*
X21854Y-22100D02*
X22454Y-21500D01*
X19800Y-22100D02*
X21854D01*
X21953Y-21000D02*
X22454Y-21500D01*
X18000Y-16300D02*
X18800D01*
X15800D02*
X18000D01*
X4200D02*
X15800D01*
X18800D02*
X19900Y-17400D01*
X2234Y-18266D02*
X4200Y-16300D01*
X2234Y-21000D02*
Y-18266D01*
X-15354Y-26000D02*
X-10354Y-21000D01*
X-8234D01*
D51*
X-18000Y-68000D02*
Y-54000D01*
Y-68000D02*
X-17000Y-69000D01*
X-22500Y52100D02*
X-19500D01*
X-23000D02*
X-22500D01*
X-19500D02*
X1500D01*
X-27000Y48100D02*
X-23000Y52100D01*
X1500D02*
X4500D01*
X-27000Y-5400D02*
Y48100D01*
X-15354Y-38854D02*
Y-26000D01*
X-25700Y-49200D02*
X-15354Y-38854D01*
X-32600Y-49200D02*
X-25700D01*
X32000Y63800D02*
X43000Y52800D01*
X22200Y63800D02*
X32000D01*
X43000Y-67000D02*
Y52800D01*
X-15354Y-26000D02*
Y-17046D01*
X-27000Y-5400D02*
X-15354Y-17046D01*
X43000Y-70000D02*
Y-67000D01*
Y-73000D02*
Y-70000D01*
D52*
X-17000Y-69000D02*
X-14532Y-71469D01*
Y-77000D02*
Y-71469D01*
D53*
X-4200Y42100D02*
Y45100D01*
Y39100D02*
Y42100D01*
Y37300D02*
Y39100D01*
X-19500Y41000D02*
Y44000D01*
Y38000D02*
Y41000D01*
Y36733D02*
Y38000D01*
X-6000Y35500D02*
X-4200Y37300D01*
X-18267Y35500D02*
X-6000D01*
X-19500Y36733D02*
X-18267Y35500D01*
X16867Y35000D02*
X19300Y37433D01*
Y38700D01*
X7000Y35000D02*
X16867D01*
X4300Y37700D02*
X7000Y35000D01*
X19300Y41700D02*
Y44700D01*
Y38700D02*
Y41700D01*
X4300Y42100D02*
Y45100D01*
Y39100D02*
Y42100D01*
Y37700D02*
Y39100D01*
D54*
X-61024Y-61024D02*
D03*
X61024D02*
D03*
Y61024D02*
D03*
X-61024D02*
D03*
D55*
X8500Y-24100D02*
D03*
X5500D02*
D03*
X-44300Y26900D02*
D03*
X-44100Y31200D02*
D03*
X-53700Y30300D02*
D03*
X-53800Y23500D02*
D03*
X-57000D02*
D03*
X-56300Y12500D02*
D03*
X-59000Y17500D02*
D03*
X-56600Y26900D02*
D03*
X-59900Y40300D02*
D03*
X-60000Y36400D02*
D03*
X-59900Y32500D02*
D03*
X-42700Y-10600D02*
D03*
X73000Y-4700D02*
D03*
Y3500D02*
D03*
X50000Y-7200D02*
D03*
Y-4000D02*
D03*
X28100Y54000D02*
D03*
X-2000Y-65500D02*
D03*
X2500Y-47500D02*
D03*
X1969Y-62500D02*
D03*
X-28000Y-63000D02*
D03*
X-73500Y-55000D02*
D03*
Y-52000D02*
D03*
X-71366Y-45734D02*
D03*
X-70800Y-3100D02*
D03*
X-66600Y-2500D02*
D03*
X0Y43500D02*
D03*
X15800Y300D02*
D03*
X0Y37000D02*
D03*
X-51000Y-22000D02*
D03*
X-67500Y100D02*
D03*
X-62100Y-42600D02*
D03*
X-78400Y-53500D02*
D03*
X-77000Y13000D02*
D03*
Y24000D02*
D03*
Y30000D02*
D03*
Y36000D02*
D03*
Y-21000D02*
D03*
Y-37500D02*
D03*
Y-34000D02*
D03*
Y-30500D02*
D03*
X-57500Y5000D02*
D03*
X-60500Y3000D02*
D03*
X-41000Y2500D02*
D03*
X-45000Y5000D02*
D03*
X-41000D02*
D03*
X-33500Y5500D02*
D03*
Y2000D02*
D03*
X-34500Y-59000D02*
D03*
X-37500D02*
D03*
X27000Y-49500D02*
D03*
X32500Y-37500D02*
D03*
Y-34500D02*
D03*
Y-31500D02*
D03*
Y-28500D02*
D03*
Y-25500D02*
D03*
Y-22500D02*
D03*
Y-19500D02*
D03*
Y-16500D02*
D03*
X15500Y-13000D02*
D03*
X18000D02*
D03*
X20500D02*
D03*
X23000D02*
D03*
X25500D02*
D03*
Y-15500D02*
D03*
X23000D02*
D03*
X-13500Y5500D02*
D03*
Y9500D02*
D03*
X-11000D02*
D03*
Y5500D02*
D03*
X-56500Y-42500D02*
D03*
X-58500Y-41000D02*
D03*
X-57000Y-37000D02*
D03*
X-3500Y-38000D02*
D03*
Y-35000D02*
D03*
X-5000Y-23000D02*
D03*
Y-20000D02*
D03*
X8500Y-21000D02*
D03*
X5500D02*
D03*
X17000Y-35000D02*
D03*
Y-32500D02*
D03*
X-2000Y-41500D02*
D03*
X-5000D02*
D03*
X-28500Y-43000D02*
D03*
X-27000Y-40500D02*
D03*
Y-38000D02*
D03*
X-23500D02*
D03*
X-66500Y-15500D02*
D03*
X-66000Y-22000D02*
D03*
X-55500Y-28000D02*
D03*
Y-25500D02*
D03*
Y-23000D02*
D03*
X-38000Y-17000D02*
D03*
X-40500D02*
D03*
X-35000Y-16500D02*
D03*
X-54300Y-41000D02*
D03*
X-52100Y-42400D02*
D03*
X10800Y7500D02*
D03*
X-11400Y-7500D02*
D03*
X-18300Y-4200D02*
D03*
X-31800Y-12300D02*
D03*
X-10600Y2500D02*
D03*
X-51400Y-14500D02*
D03*
X32100Y53700D02*
D03*
X29300Y-4100D02*
D03*
Y-7200D02*
D03*
X-35300Y-8400D02*
D03*
X19800Y-22100D02*
D03*
X22454Y-21500D02*
D03*
X8500Y-51100D02*
D03*
X-12500Y-45800D02*
D03*
X-10800Y-44100D02*
D03*
X-11500Y-31900D02*
D03*
X-51500Y-31600D02*
D03*
X-51900Y-11100D02*
D03*
X28500Y-21200D02*
D03*
Y-18700D02*
D03*
Y-16400D02*
D03*
X300Y-38700D02*
D03*
Y-36200D02*
D03*
X240Y-33540D02*
D03*
X18000Y-16300D02*
D03*
X15800D02*
D03*
X19900Y-17400D02*
D03*
X-39700Y-41600D02*
D03*
X-37700Y-43700D02*
D03*
X24000Y-57500D02*
D03*
X27300Y-52900D02*
D03*
X-56300Y-13100D02*
D03*
X-22500Y-19300D02*
D03*
X-40547Y-33553D02*
D03*
X-36600Y-33400D02*
D03*
X-34620Y-41200D02*
D03*
X-38600Y-31800D02*
D03*
X-50400Y4800D02*
D03*
X-54300D02*
D03*
X-52358Y658D02*
D03*
X-56500Y700D02*
D03*
X14500Y31000D02*
D03*
X9500D02*
D03*
X-9500D02*
D03*
X-14500D02*
D03*
X-55784Y-19016D02*
D03*
X29500Y-52300D02*
D03*
D56*
X4500Y52100D02*
D03*
Y55100D02*
D03*
X32000Y16000D02*
D03*
X29000D02*
D03*
X26000D02*
D03*
X23000D02*
D03*
X20000D02*
D03*
X17000D02*
D03*
X14000D02*
D03*
X11000D02*
D03*
X8000D02*
D03*
X5000D02*
D03*
X2000D02*
D03*
X-1000D02*
D03*
X-4000D02*
D03*
X-7000D02*
D03*
X-10000D02*
D03*
X-13000D02*
D03*
X-16000D02*
D03*
X-19000D02*
D03*
X73000Y-15000D02*
D03*
X76000D02*
D03*
X70000D02*
D03*
Y-12000D02*
D03*
X73000D02*
D03*
X76000D02*
D03*
X73000Y-18000D02*
D03*
X76000D02*
D03*
X70000D02*
D03*
X73000Y15000D02*
D03*
Y12000D02*
D03*
Y18000D02*
D03*
X76000D02*
D03*
Y15000D02*
D03*
Y12000D02*
D03*
X70000Y15000D02*
D03*
Y12000D02*
D03*
Y18000D02*
D03*
X-30500Y63000D02*
D03*
Y60000D02*
D03*
Y66000D02*
D03*
X-27500D02*
D03*
Y63000D02*
D03*
Y60000D02*
D03*
X-33500Y63000D02*
D03*
Y60000D02*
D03*
Y66000D02*
D03*
X-39500Y63000D02*
D03*
Y60000D02*
D03*
Y66000D02*
D03*
X-36500D02*
D03*
Y63000D02*
D03*
Y60000D02*
D03*
X-42500Y63000D02*
D03*
Y60000D02*
D03*
Y66000D02*
D03*
X-39592Y-21500D02*
D03*
X-36546D02*
D03*
X-33500D02*
D03*
Y-24500D02*
D03*
X-36546D02*
D03*
X-39592Y-24566D02*
D03*
Y-27500D02*
D03*
X-36546D02*
D03*
X-33500D02*
D03*
X-19500Y41000D02*
D03*
Y38000D02*
D03*
Y44000D02*
D03*
X33100Y44400D02*
D03*
Y41400D02*
D03*
Y38400D02*
D03*
Y35400D02*
D03*
Y32400D02*
D03*
Y29400D02*
D03*
X-34200Y52000D02*
D03*
Y49000D02*
D03*
Y46000D02*
D03*
Y43000D02*
D03*
Y40000D02*
D03*
Y37000D02*
D03*
X19300Y44700D02*
D03*
Y41700D02*
D03*
Y38700D02*
D03*
X4300Y45100D02*
D03*
Y42100D02*
D03*
Y39100D02*
D03*
X-4200Y45100D02*
D03*
Y42100D02*
D03*
Y39100D02*
D03*
X12000Y43000D02*
D03*
X9000D02*
D03*
X15000D02*
D03*
Y40000D02*
D03*
X12000D02*
D03*
X9000D02*
D03*
X12000Y46000D02*
D03*
X9000D02*
D03*
X15000D02*
D03*
X-9000D02*
D03*
X-15000D02*
D03*
X-12000D02*
D03*
X-15000Y40000D02*
D03*
X-12000D02*
D03*
X-9000D02*
D03*
Y43000D02*
D03*
X-15000D02*
D03*
X-12000D02*
D03*
X1500Y52100D02*
D03*
Y55100D02*
D03*
X-22500Y52100D02*
D03*
X-19500D02*
D03*
X-22500Y55100D02*
D03*
X-19500D02*
D03*
X43000Y-67000D02*
D03*
X40000D02*
D03*
X46000D02*
D03*
X43000Y-70000D02*
D03*
X40000D02*
D03*
X46000D02*
D03*
X43000Y-73000D02*
D03*
X40000D02*
D03*
X46000D02*
D03*
X34000Y-78500D02*
D03*
X31000D02*
D03*
X37000D02*
D03*
X25000D02*
D03*
X22000D02*
D03*
X28000D02*
D03*
X19000Y-75500D02*
D03*
Y-78500D02*
D03*
X-14000Y-72000D02*
D03*
X-20000D02*
D03*
X-17000D02*
D03*
X-14000Y-69000D02*
D03*
X-20000D02*
D03*
X-17000D02*
D03*
X-14000Y-66000D02*
D03*
X-20000D02*
D03*
X-17000D02*
D03*
M02*
