G04*
G04 #@! TF.GenerationSoftware,Altium Limited,Altium Designer,22.0.2 (36)*
G04*
G04 Layer_Physical_Order=2*
G04 Layer_Color=14461039*
%FSLAX25Y25*%
%MOIN*%
G70*
G04*
G04 #@! TF.SameCoordinates,B24A499B-10B0-4348-9313-877DE5855C24*
G04*
G04*
G04 #@! TF.FilePolarity,Positive*
G04*
G01*
G75*
%ADD10C,0.01000*%
%ADD11C,0.00400*%
%ADD14C,0.00600*%
%ADD50C,0.02000*%
%ADD54C,0.20000*%
%ADD55C,0.01800*%
%ADD56C,0.02362*%
%ADD57C,0.07000*%
%ADD58C,0.00700*%
G36*
X-61046Y80185D02*
X60550D01*
X60553Y80185D01*
X61046Y80185D01*
X61531Y80148D01*
X62751Y80052D01*
X64413Y79653D01*
X65992Y78999D01*
X67205Y78256D01*
X67605Y77962D01*
X67605Y77962D01*
X67605Y77962D01*
X70086Y76006D01*
X73162Y73162D01*
X76006Y70086D01*
X77962Y67605D01*
X77962Y67605D01*
X77962Y67605D01*
X78256Y67204D01*
X78999Y65992D01*
X79653Y64413D01*
X80052Y62751D01*
X80148Y61531D01*
X80185Y61046D01*
X80255Y60695D01*
X80317Y60601D01*
X80396Y60483D01*
Y-60483D01*
X80255Y-60695D01*
X80185Y-61046D01*
X80148Y-61531D01*
X80052Y-62751D01*
X79653Y-64413D01*
X78999Y-65992D01*
X78256Y-67205D01*
X77962Y-67605D01*
X77962Y-67605D01*
X77962Y-67605D01*
X76006Y-70086D01*
X73162Y-73162D01*
X70086Y-76006D01*
X67605Y-77962D01*
X67605Y-77962D01*
X67605Y-77962D01*
X67204Y-78256D01*
X65992Y-78999D01*
X64413Y-79653D01*
X62751Y-80052D01*
X61554Y-80146D01*
X61258Y-80087D01*
X-60835D01*
X-61186Y-80157D01*
X-61210Y-80173D01*
X-62751Y-80052D01*
X-64413Y-79653D01*
X-65992Y-78999D01*
X-67204Y-78256D01*
X-67605Y-77962D01*
X-67605Y-77962D01*
X-67605Y-77962D01*
X-70086Y-76006D01*
X-73162Y-73162D01*
X-76006Y-70086D01*
X-77962Y-67605D01*
X-77962Y-67605D01*
X-77962Y-67605D01*
X-78256Y-67204D01*
X-78999Y-65992D01*
X-79653Y-64413D01*
X-80052Y-62751D01*
X-80153Y-61465D01*
X-80043Y-61300D01*
X-79973Y-60949D01*
Y-54406D01*
X-79615Y-54277D01*
X-79473Y-54265D01*
X-79136Y-54602D01*
X-78659Y-54800D01*
X-78473D01*
X-78396Y-54833D01*
X-78289Y-54834D01*
X-78201Y-54839D01*
X-78123Y-54848D01*
X-78055Y-54860D01*
X-77997Y-54874D01*
X-77949Y-54890D01*
X-77913Y-54905D01*
X-75849Y-56969D01*
Y-65800D01*
X-75659Y-66259D01*
X-68159Y-73759D01*
X-67700Y-73949D01*
X-54900D01*
X-54441Y-73759D01*
X-49241Y-68559D01*
X-49051Y-68100D01*
Y-23300D01*
X-49241Y-22841D01*
X-49595Y-22487D01*
X-49610Y-22451D01*
X-49626Y-22403D01*
X-49640Y-22345D01*
X-49651Y-22283D01*
X-49666Y-22105D01*
X-49667Y-22004D01*
X-49700Y-21927D01*
Y-21741D01*
X-49898Y-21264D01*
X-50264Y-20898D01*
X-50741Y-20700D01*
X-51259D01*
X-51736Y-20898D01*
X-52102Y-21264D01*
X-52300Y-21741D01*
Y-22259D01*
X-52102Y-22736D01*
X-51736Y-23102D01*
X-51259Y-23300D01*
X-51073D01*
X-50996Y-23333D01*
X-50889Y-23334D01*
X-50801Y-23339D01*
X-50723Y-23348D01*
X-50655Y-23360D01*
X-50597Y-23374D01*
X-50549Y-23390D01*
X-50513Y-23405D01*
X-50349Y-23569D01*
Y-30205D01*
X-50529Y-30332D01*
X-50849Y-30462D01*
X-51241Y-30300D01*
X-51759D01*
X-52236Y-30498D01*
X-52602Y-30864D01*
X-52800Y-31341D01*
Y-31527D01*
X-52833Y-31604D01*
X-52834Y-31711D01*
X-52839Y-31799D01*
X-52848Y-31877D01*
X-52860Y-31945D01*
X-52874Y-32003D01*
X-52890Y-32051D01*
X-52905Y-32087D01*
X-53959Y-33141D01*
X-54149Y-33600D01*
Y-36831D01*
X-57490Y-40172D01*
X-57764Y-39898D01*
X-58241Y-39700D01*
X-58759D01*
X-59236Y-39898D01*
X-59602Y-40264D01*
X-59800Y-40741D01*
Y-41259D01*
X-59602Y-41736D01*
X-59236Y-42102D01*
X-58759Y-42300D01*
X-58241D01*
X-57764Y-42102D01*
X-57398Y-41736D01*
X-57354Y-41630D01*
X-56941Y-41459D01*
X-53041Y-37559D01*
X-52851Y-37100D01*
Y-33869D01*
X-51987Y-33005D01*
X-51951Y-32990D01*
X-51903Y-32974D01*
X-51845Y-32960D01*
X-51783Y-32949D01*
X-51605Y-32934D01*
X-51504Y-32933D01*
X-51427Y-32900D01*
X-51241D01*
X-50849Y-32738D01*
X-50529Y-32868D01*
X-50349Y-32995D01*
Y-67831D01*
X-55169Y-72651D01*
X-67431D01*
X-74551Y-65531D01*
Y-56700D01*
X-74695Y-56350D01*
X-74272Y-56067D01*
X-74236Y-56102D01*
X-73759Y-56300D01*
X-73241D01*
X-72764Y-56102D01*
X-72398Y-55736D01*
X-72200Y-55259D01*
Y-54741D01*
X-72398Y-54264D01*
X-72764Y-53898D01*
X-73092Y-53762D01*
Y-53238D01*
X-72764Y-53102D01*
X-72398Y-52736D01*
X-72200Y-52259D01*
Y-52073D01*
X-72167Y-51996D01*
X-72166Y-51889D01*
X-72161Y-51801D01*
X-72152Y-51723D01*
X-72140Y-51655D01*
X-72126Y-51597D01*
X-72110Y-51549D01*
X-72095Y-51513D01*
X-63831Y-43249D01*
X-63438D01*
X-63402Y-43264D01*
X-63357Y-43287D01*
X-63306Y-43317D01*
X-63254Y-43354D01*
X-63118Y-43469D01*
X-63045Y-43540D01*
X-62968Y-43571D01*
X-62836Y-43702D01*
X-62359Y-43900D01*
X-61841D01*
X-61364Y-43702D01*
X-60998Y-43336D01*
X-60800Y-42859D01*
Y-42341D01*
X-60998Y-41864D01*
X-61364Y-41498D01*
X-61841Y-41300D01*
X-62359D01*
X-62836Y-41498D01*
X-62968Y-41629D01*
X-63045Y-41660D01*
X-63122Y-41735D01*
X-63188Y-41794D01*
X-63249Y-41843D01*
X-63306Y-41883D01*
X-63357Y-41913D01*
X-63402Y-41936D01*
X-63438Y-41951D01*
X-64100D01*
X-64559Y-42141D01*
X-72906Y-50488D01*
X-73186Y-50512D01*
X-73231Y-50468D01*
X-73324Y-49943D01*
X-70907Y-47526D01*
X-70717Y-47066D01*
Y-46957D01*
X-70714Y-46948D01*
X-70705Y-46929D01*
X-70695Y-46911D01*
X-70682Y-46894D01*
X-70666Y-46876D01*
X-70645Y-46857D01*
X-70603Y-46826D01*
X-70586Y-46797D01*
X-70555Y-46785D01*
X-70539Y-46744D01*
X-70264Y-46470D01*
X-70066Y-45992D01*
Y-45475D01*
X-70264Y-44997D01*
X-70630Y-44631D01*
X-71108Y-44434D01*
X-71625D01*
X-72103Y-44631D01*
X-72469Y-44997D01*
X-72666Y-45475D01*
Y-45992D01*
X-72469Y-46470D01*
X-72194Y-46744D01*
X-72177Y-46785D01*
X-72406Y-47180D01*
X-72435Y-47216D01*
X-75959Y-50741D01*
X-76149Y-51200D01*
Y-53000D01*
X-75959Y-53459D01*
X-74906Y-54513D01*
X-74890Y-54549D01*
X-74874Y-54597D01*
X-74860Y-54655D01*
X-74849Y-54717D01*
X-74834Y-54895D01*
X-74833Y-54996D01*
X-74800Y-55073D01*
Y-55259D01*
X-74647Y-55627D01*
X-75071Y-55910D01*
X-76995Y-53987D01*
X-77010Y-53951D01*
X-77026Y-53903D01*
X-77040Y-53845D01*
X-77051Y-53783D01*
X-77066Y-53605D01*
X-77067Y-53504D01*
X-77100Y-53427D01*
Y-53241D01*
X-77298Y-52764D01*
X-77664Y-52398D01*
X-78141Y-52200D01*
X-78659D01*
X-79136Y-52398D01*
X-79473Y-52735D01*
X-79615Y-52723D01*
X-79973Y-52594D01*
Y61144D01*
X-80043Y61495D01*
X-80139Y61639D01*
X-80052Y62751D01*
X-79653Y64413D01*
X-78999Y65992D01*
X-78256Y67205D01*
X-77962Y67605D01*
X-77961Y67605D01*
X-77962Y67605D01*
X-76006Y70086D01*
X-73162Y73162D01*
X-70086Y76006D01*
X-67605Y77962D01*
X-67605Y77962D01*
X-67605Y77962D01*
X-67204Y78256D01*
X-65992Y78999D01*
X-64413Y79653D01*
X-62751Y80052D01*
X-61051Y80186D01*
X-61046Y80185D01*
D02*
G37*
G36*
X-50099Y-22126D02*
X-50081Y-22339D01*
X-50064Y-22434D01*
X-50042Y-22523D01*
X-50015Y-22605D01*
X-49983Y-22679D01*
X-49946Y-22747D01*
X-49904Y-22807D01*
X-49856Y-22861D01*
X-50139Y-23144D01*
X-50193Y-23096D01*
X-50253Y-23054D01*
X-50321Y-23017D01*
X-50395Y-22985D01*
X-50477Y-22958D01*
X-50566Y-22936D01*
X-50661Y-22919D01*
X-50764Y-22908D01*
X-50874Y-22901D01*
X-50991Y-22900D01*
X-50100Y-22009D01*
X-50099Y-22126D01*
D02*
G37*
G36*
X-51509Y-32500D02*
X-51626Y-32501D01*
X-51838Y-32519D01*
X-51934Y-32536D01*
X-52023Y-32558D01*
X-52105Y-32585D01*
X-52179Y-32617D01*
X-52247Y-32654D01*
X-52307Y-32696D01*
X-52361Y-32744D01*
X-52644Y-32461D01*
X-52596Y-32407D01*
X-52554Y-32347D01*
X-52517Y-32279D01*
X-52485Y-32205D01*
X-52458Y-32123D01*
X-52436Y-32034D01*
X-52419Y-31938D01*
X-52408Y-31836D01*
X-52401Y-31726D01*
X-52400Y-31609D01*
X-51509Y-32500D01*
D02*
G37*
G36*
X-57627Y-40773D02*
X-57619Y-40779D01*
X-57606Y-40784D01*
X-57590Y-40788D01*
X-57569Y-40792D01*
X-57543Y-40795D01*
X-57480Y-40799D01*
X-57400Y-40800D01*
Y-41200D01*
X-57442Y-41200D01*
X-57569Y-41208D01*
X-57590Y-41212D01*
X-57606Y-41216D01*
X-57619Y-41221D01*
X-57627Y-41227D01*
X-57631Y-41233D01*
Y-40767D01*
X-57627Y-40773D01*
D02*
G37*
G36*
X-62743Y-43230D02*
X-62826Y-43148D01*
X-62989Y-43011D01*
X-63069Y-42955D01*
X-63147Y-42908D01*
X-63224Y-42869D01*
X-63299Y-42839D01*
X-63374Y-42817D01*
X-63446Y-42804D01*
X-63517Y-42800D01*
Y-42400D01*
X-63446Y-42396D01*
X-63374Y-42383D01*
X-63299Y-42361D01*
X-63224Y-42331D01*
X-63147Y-42292D01*
X-63069Y-42245D01*
X-62989Y-42189D01*
X-62909Y-42125D01*
X-62826Y-42052D01*
X-62743Y-41970D01*
Y-43230D01*
D02*
G37*
G36*
X-70919Y-46522D02*
X-70971Y-46568D01*
X-71017Y-46618D01*
X-71057Y-46672D01*
X-71090Y-46729D01*
X-71118Y-46789D01*
X-71139Y-46853D01*
X-71154Y-46921D01*
X-71163Y-46992D01*
X-71166Y-47066D01*
X-71566D01*
X-71569Y-46992D01*
X-71579Y-46921D01*
X-71594Y-46853D01*
X-71615Y-46789D01*
X-71643Y-46729D01*
X-71676Y-46672D01*
X-71716Y-46618D01*
X-71762Y-46568D01*
X-71813Y-46522D01*
X-71871Y-46479D01*
X-70862D01*
X-70919Y-46522D01*
D02*
G37*
G36*
X-72356Y-51139D02*
X-72404Y-51193D01*
X-72446Y-51253D01*
X-72483Y-51321D01*
X-72515Y-51395D01*
X-72542Y-51477D01*
X-72564Y-51566D01*
X-72581Y-51661D01*
X-72592Y-51764D01*
X-72599Y-51874D01*
X-72600Y-51991D01*
X-73491Y-51100D01*
X-73374Y-51099D01*
X-73162Y-51081D01*
X-73066Y-51064D01*
X-72977Y-51042D01*
X-72895Y-51015D01*
X-72821Y-50983D01*
X-72753Y-50946D01*
X-72693Y-50904D01*
X-72639Y-50856D01*
X-72356Y-51139D01*
D02*
G37*
G36*
X-77499Y-53626D02*
X-77481Y-53838D01*
X-77464Y-53934D01*
X-77442Y-54023D01*
X-77415Y-54105D01*
X-77383Y-54179D01*
X-77346Y-54247D01*
X-77304Y-54307D01*
X-77256Y-54361D01*
X-77539Y-54644D01*
X-77593Y-54596D01*
X-77653Y-54554D01*
X-77721Y-54517D01*
X-77795Y-54485D01*
X-77877Y-54458D01*
X-77966Y-54436D01*
X-78061Y-54419D01*
X-78164Y-54408D01*
X-78274Y-54401D01*
X-78391Y-54400D01*
X-77500Y-53509D01*
X-77499Y-53626D01*
D02*
G37*
G36*
X-74307Y-53904D02*
X-74247Y-53946D01*
X-74179Y-53983D01*
X-74105Y-54015D01*
X-74023Y-54042D01*
X-73934Y-54064D01*
X-73839Y-54081D01*
X-73736Y-54092D01*
X-73626Y-54099D01*
X-73509Y-54100D01*
X-74400Y-54991D01*
X-74401Y-54874D01*
X-74419Y-54662D01*
X-74436Y-54566D01*
X-74458Y-54477D01*
X-74485Y-54395D01*
X-74517Y-54321D01*
X-74554Y-54253D01*
X-74596Y-54193D01*
X-74644Y-54139D01*
X-74361Y-53856D01*
X-74307Y-53904D01*
D02*
G37*
%LPC*%
G36*
X4814Y56681D02*
X4185D01*
X3604Y56440D01*
X3317Y56153D01*
X3000Y56048D01*
X2683Y56153D01*
X2396Y56440D01*
X1815Y56681D01*
X1185D01*
X604Y56440D01*
X160Y55996D01*
X-81Y55414D01*
Y54786D01*
X160Y54204D01*
X447Y53917D01*
X552Y53600D01*
X447Y53283D01*
X160Y52996D01*
X-81Y52415D01*
Y51785D01*
X160Y51204D01*
X604Y50760D01*
X1185Y50519D01*
X1815D01*
X2396Y50760D01*
X2683Y51047D01*
X3000Y51152D01*
X3317Y51047D01*
X3604Y50760D01*
X4185Y50519D01*
X4814D01*
X5396Y50760D01*
X5840Y51204D01*
X6081Y51785D01*
Y52415D01*
X5840Y52996D01*
X5553Y53283D01*
X5448Y53600D01*
X5553Y53917D01*
X5840Y54204D01*
X6081Y54786D01*
Y55414D01*
X5840Y55996D01*
X5396Y56440D01*
X4814Y56681D01*
D02*
G37*
G36*
X-19185D02*
X-19815D01*
X-20396Y56440D01*
X-20683Y56153D01*
X-21000Y56048D01*
X-21317Y56153D01*
X-21604Y56440D01*
X-22185Y56681D01*
X-22815D01*
X-23396Y56440D01*
X-23840Y55996D01*
X-24081Y55414D01*
Y54786D01*
X-23840Y54204D01*
X-23553Y53917D01*
X-23448Y53600D01*
X-23553Y53283D01*
X-23840Y52996D01*
X-24081Y52415D01*
Y51785D01*
X-23840Y51204D01*
X-23396Y50760D01*
X-22815Y50519D01*
X-22185D01*
X-21604Y50760D01*
X-21317Y51047D01*
X-21000Y51152D01*
X-20683Y51047D01*
X-20396Y50760D01*
X-19815Y50519D01*
X-19185D01*
X-18604Y50760D01*
X-18160Y51204D01*
X-17919Y51785D01*
Y52415D01*
X-18160Y52996D01*
X-18447Y53283D01*
X-18552Y53600D01*
X-18447Y53917D01*
X-18160Y54204D01*
X-17919Y54786D01*
Y55414D01*
X-18160Y55996D01*
X-18604Y56440D01*
X-19185Y56681D01*
D02*
G37*
G36*
X-59641Y41600D02*
X-60159D01*
X-60636Y41402D01*
X-61002Y41036D01*
X-61200Y40559D01*
Y40041D01*
X-61002Y39564D01*
X-60636Y39198D01*
X-60159Y39000D01*
X-59641D01*
X-59164Y39198D01*
X-58798Y39564D01*
X-58600Y40041D01*
Y40559D01*
X-58798Y41036D01*
X-59164Y41402D01*
X-59641Y41600D01*
D02*
G37*
G36*
X19614Y46281D02*
X18985D01*
X18404Y46040D01*
X17960Y45596D01*
X17719Y45015D01*
Y44385D01*
X17960Y43804D01*
X18247Y43517D01*
X18352Y43200D01*
X18247Y42883D01*
X17960Y42596D01*
X17719Y42015D01*
Y41385D01*
X17960Y40804D01*
X18247Y40517D01*
X18352Y40200D01*
X18247Y39883D01*
X17960Y39596D01*
X17719Y39015D01*
Y38385D01*
X17960Y37804D01*
X18404Y37360D01*
X18985Y37119D01*
X19614D01*
X20196Y37360D01*
X20640Y37804D01*
X20881Y38385D01*
Y39015D01*
X20640Y39596D01*
X20353Y39883D01*
X20248Y40200D01*
X20353Y40517D01*
X20640Y40804D01*
X20881Y41385D01*
Y42015D01*
X20640Y42596D01*
X20353Y42883D01*
X20248Y43200D01*
X20353Y43517D01*
X20640Y43804D01*
X20881Y44385D01*
Y45015D01*
X20640Y45596D01*
X20196Y46040D01*
X19614Y46281D01*
D02*
G37*
G36*
X-19185Y45581D02*
X-19815D01*
X-20396Y45340D01*
X-20840Y44896D01*
X-21081Y44315D01*
Y43685D01*
X-20840Y43104D01*
X-20553Y42817D01*
X-20448Y42500D01*
X-20553Y42183D01*
X-20840Y41896D01*
X-21081Y41315D01*
Y40685D01*
X-20840Y40104D01*
X-20553Y39817D01*
X-20448Y39500D01*
X-20553Y39183D01*
X-20840Y38896D01*
X-21081Y38315D01*
Y37685D01*
X-20840Y37104D01*
X-20396Y36660D01*
X-19815Y36419D01*
X-19185D01*
X-18604Y36660D01*
X-18160Y37104D01*
X-17919Y37685D01*
Y38315D01*
X-18160Y38896D01*
X-18447Y39183D01*
X-18552Y39500D01*
X-18447Y39817D01*
X-18160Y40104D01*
X-17919Y40685D01*
Y41315D01*
X-18160Y41896D01*
X-18447Y42183D01*
X-18552Y42500D01*
X-18447Y42817D01*
X-18160Y43104D01*
X-17919Y43685D01*
Y44315D01*
X-18160Y44896D01*
X-18604Y45340D01*
X-19185Y45581D01*
D02*
G37*
G36*
X28359Y55300D02*
X27841D01*
X27364Y55102D01*
X26998Y54736D01*
X26800Y54259D01*
Y53741D01*
X26998Y53264D01*
X27364Y52898D01*
X27841Y52700D01*
X28243D01*
X28305Y52683D01*
X28373Y52692D01*
X28418Y52694D01*
X28458Y52692D01*
X28494Y52686D01*
X28527Y52678D01*
X28558Y52666D01*
X28589Y52651D01*
X28621Y52631D01*
X28655Y52605D01*
X28703Y52561D01*
X28730Y52551D01*
X28745Y52527D01*
X28770Y52521D01*
X36386Y44904D01*
Y23939D01*
X35886Y23732D01*
X30749Y28869D01*
Y31900D01*
X30559Y32359D01*
X27359Y35559D01*
X26900Y35749D01*
X18769D01*
X17059Y37459D01*
X16600Y37649D01*
X5793D01*
X5585Y38149D01*
X5640Y38204D01*
X5881Y38785D01*
Y39415D01*
X5640Y39996D01*
X5353Y40283D01*
X5248Y40600D01*
X5353Y40917D01*
X5640Y41204D01*
X5881Y41785D01*
Y42415D01*
X5640Y42996D01*
X5353Y43283D01*
X5248Y43600D01*
X5353Y43917D01*
X5640Y44204D01*
X5881Y44785D01*
Y45415D01*
X5640Y45996D01*
X5196Y46440D01*
X4614Y46681D01*
X3985D01*
X3404Y46440D01*
X2960Y45996D01*
X2719Y45415D01*
Y44785D01*
X2960Y44204D01*
X3247Y43917D01*
X3352Y43600D01*
X3247Y43283D01*
X2960Y42996D01*
X2719Y42415D01*
Y41785D01*
X2960Y41204D01*
X3247Y40917D01*
X3352Y40600D01*
X3247Y40283D01*
X2960Y39996D01*
X2719Y39415D01*
Y38785D01*
X2960Y38204D01*
X3015Y38149D01*
X2807Y37649D01*
X1338D01*
X1302Y37664D01*
X1257Y37687D01*
X1206Y37718D01*
X1154Y37754D01*
X1018Y37869D01*
X945Y37940D01*
X868Y37971D01*
X736Y38102D01*
X259Y38300D01*
X117D01*
X-91Y38800D01*
X505Y39395D01*
X659Y39627D01*
X714Y39900D01*
Y42053D01*
X733Y42094D01*
X735Y42160D01*
X741Y42206D01*
X750Y42250D01*
X763Y42292D01*
X779Y42334D01*
X799Y42375D01*
X824Y42417D01*
X855Y42460D01*
X891Y42504D01*
X943Y42558D01*
X972Y42634D01*
X1102Y42764D01*
X1300Y43241D01*
Y43759D01*
X1102Y44236D01*
X736Y44602D01*
X259Y44800D01*
X-259D01*
X-736Y44602D01*
X-1102Y44236D01*
X-1300Y43759D01*
Y43241D01*
X-1102Y42764D01*
X-972Y42634D01*
X-943Y42558D01*
X-891Y42504D01*
X-855Y42460D01*
X-824Y42417D01*
X-799Y42375D01*
X-779Y42334D01*
X-763Y42292D01*
X-750Y42250D01*
X-741Y42206D01*
X-735Y42160D01*
X-733Y42094D01*
X-714Y42053D01*
Y40196D01*
X-2119Y38790D01*
X-2619Y38998D01*
Y39415D01*
X-2860Y39996D01*
X-3147Y40283D01*
X-3252Y40600D01*
X-3147Y40917D01*
X-2860Y41204D01*
X-2619Y41785D01*
Y42415D01*
X-2860Y42996D01*
X-3147Y43283D01*
X-3252Y43600D01*
X-3147Y43917D01*
X-2860Y44204D01*
X-2619Y44785D01*
Y45415D01*
X-2860Y45996D01*
X-3304Y46440D01*
X-3886Y46681D01*
X-4515D01*
X-5096Y46440D01*
X-5540Y45996D01*
X-5781Y45415D01*
Y44785D01*
X-5540Y44204D01*
X-5253Y43917D01*
X-5148Y43600D01*
X-5253Y43283D01*
X-5540Y42996D01*
X-5781Y42415D01*
Y41785D01*
X-5540Y41204D01*
X-5253Y40917D01*
X-5148Y40600D01*
X-5253Y40283D01*
X-5540Y39996D01*
X-5781Y39415D01*
Y38785D01*
X-5540Y38204D01*
X-5096Y37760D01*
X-4515Y37519D01*
X-4098D01*
X-3890Y37019D01*
X-6796Y34114D01*
X-14700D01*
X-14973Y34059D01*
X-15205Y33905D01*
X-21596Y27514D01*
X-35700D01*
X-35973Y27459D01*
X-36205Y27305D01*
X-54096Y9414D01*
X-61600D01*
X-61873Y9359D01*
X-62105Y9205D01*
X-65205Y6105D01*
X-65359Y5873D01*
X-65414Y5600D01*
Y-304D01*
X-66082Y-972D01*
X-66124Y-988D01*
X-66172Y-1033D01*
X-66209Y-1061D01*
X-66246Y-1086D01*
X-66285Y-1107D01*
X-66326Y-1125D01*
X-66370Y-1139D01*
X-66417Y-1151D01*
X-66469Y-1160D01*
X-66526Y-1166D01*
X-66601Y-1167D01*
X-66675Y-1200D01*
X-66859D01*
X-67336Y-1398D01*
X-67406Y-1467D01*
X-67941Y-1550D01*
X-68047Y-1455D01*
X-70282Y780D01*
Y5420D01*
X-61551Y14151D01*
X-61352Y14449D01*
X-61282Y14800D01*
Y22820D01*
X-58120Y25982D01*
X-57930D01*
X-57894Y25967D01*
X-57801Y25966D01*
X-57727Y25963D01*
X-57594Y25950D01*
X-57554Y25943D01*
X-57523Y25936D01*
X-57507Y25931D01*
X-57493Y25922D01*
X-57486Y25921D01*
X-57481Y25919D01*
X-57472Y25919D01*
X-57455Y25917D01*
X-57336Y25798D01*
X-56859Y25600D01*
X-56341D01*
X-55864Y25798D01*
X-55498Y26164D01*
X-55300Y26641D01*
Y27159D01*
X-55498Y27636D01*
X-55864Y28002D01*
X-56341Y28200D01*
X-56859D01*
X-57336Y28002D01*
X-57455Y27883D01*
X-57472Y27881D01*
X-57481Y27880D01*
X-57486Y27879D01*
X-57493Y27878D01*
X-57507Y27869D01*
X-57523Y27864D01*
X-57554Y27857D01*
X-57590Y27851D01*
X-57808Y27834D01*
X-57894Y27833D01*
X-57930Y27818D01*
X-58500D01*
X-58597Y27798D01*
X-58843Y28259D01*
X-56751Y30351D01*
X-56552Y30649D01*
X-56482Y31000D01*
Y33800D01*
X-56552Y34151D01*
X-56751Y34449D01*
X-58411Y36109D01*
X-58425Y36145D01*
X-58491Y36212D01*
X-58540Y36266D01*
X-58625Y36369D01*
X-58649Y36402D01*
X-58665Y36429D01*
X-58673Y36444D01*
X-58677Y36460D01*
X-58682Y36466D01*
X-58683Y36470D01*
X-58690Y36477D01*
X-58700Y36490D01*
Y36659D01*
X-58898Y37136D01*
X-59264Y37502D01*
X-59741Y37700D01*
X-60259D01*
X-60736Y37502D01*
X-61102Y37136D01*
X-61300Y36659D01*
Y36141D01*
X-61102Y35664D01*
X-60736Y35298D01*
X-60259Y35100D01*
X-60090D01*
X-60077Y35090D01*
X-60070Y35083D01*
X-60066Y35082D01*
X-60060Y35077D01*
X-60044Y35073D01*
X-60029Y35065D01*
X-60002Y35049D01*
X-59973Y35028D01*
X-59806Y34885D01*
X-59745Y34825D01*
X-59709Y34811D01*
X-58884Y33986D01*
X-59164Y33602D01*
X-59641Y33800D01*
X-60159D01*
X-60636Y33602D01*
X-61002Y33236D01*
X-61200Y32759D01*
Y32590D01*
X-61210Y32577D01*
X-61217Y32570D01*
X-61218Y32566D01*
X-61223Y32560D01*
X-61227Y32544D01*
X-61235Y32529D01*
X-61251Y32502D01*
X-61272Y32473D01*
X-61415Y32306D01*
X-61475Y32245D01*
X-61489Y32209D01*
X-65649Y28049D01*
X-65848Y27751D01*
X-65918Y27400D01*
Y16340D01*
X-75349Y6909D01*
X-75548Y6611D01*
X-75618Y6260D01*
Y-5700D01*
X-75548Y-6051D01*
X-75349Y-6349D01*
X-69449Y-12249D01*
X-69151Y-12448D01*
X-68800Y-12518D01*
X-66360D01*
X-61429Y-17449D01*
X-61131Y-17648D01*
X-60780Y-17718D01*
X-57032D01*
X-56825Y-18218D01*
X-56886Y-18279D01*
X-57084Y-18757D01*
Y-19274D01*
X-56886Y-19752D01*
X-56521Y-20118D01*
X-56043Y-20316D01*
X-55857D01*
X-55780Y-20349D01*
X-55674Y-20350D01*
X-55585Y-20355D01*
X-55507Y-20364D01*
X-55439Y-20376D01*
X-55381Y-20390D01*
X-55333Y-20406D01*
X-55297Y-20421D01*
X-54149Y-21569D01*
Y-28731D01*
X-55859Y-30441D01*
X-56049Y-30900D01*
Y-35131D01*
X-56513Y-35594D01*
X-56549Y-35610D01*
X-56597Y-35626D01*
X-56655Y-35640D01*
X-56717Y-35651D01*
X-56895Y-35666D01*
X-56996Y-35667D01*
X-57073Y-35700D01*
X-57259D01*
X-57736Y-35898D01*
X-58102Y-36264D01*
X-58300Y-36741D01*
Y-37259D01*
X-58102Y-37736D01*
X-57736Y-38102D01*
X-57259Y-38300D01*
X-56741D01*
X-56264Y-38102D01*
X-55898Y-37736D01*
X-55700Y-37259D01*
Y-37073D01*
X-55667Y-36996D01*
X-55666Y-36889D01*
X-55661Y-36801D01*
X-55652Y-36723D01*
X-55640Y-36655D01*
X-55626Y-36597D01*
X-55610Y-36549D01*
X-55594Y-36513D01*
X-54941Y-35859D01*
X-54751Y-35400D01*
Y-31169D01*
X-53041Y-29459D01*
X-52851Y-29000D01*
Y-21300D01*
X-53041Y-20841D01*
X-54184Y-19698D01*
X-54173Y-19532D01*
X-53974Y-19399D01*
X-53657Y-19310D01*
X-53451Y-19448D01*
X-53100Y-19518D01*
X-49580D01*
X-45918Y-23180D01*
Y-29100D01*
X-45848Y-29451D01*
X-45649Y-29749D01*
X-42136Y-33261D01*
X-42122Y-33297D01*
X-42057Y-33364D01*
X-42007Y-33419D01*
X-41922Y-33522D01*
X-41899Y-33555D01*
X-41882Y-33582D01*
X-41874Y-33597D01*
X-41870Y-33612D01*
X-41866Y-33619D01*
X-41864Y-33623D01*
X-41857Y-33630D01*
X-41847Y-33643D01*
Y-33811D01*
X-41649Y-34289D01*
X-41284Y-34655D01*
X-40806Y-34853D01*
X-40637D01*
X-40624Y-34863D01*
X-40617Y-34869D01*
X-40613Y-34871D01*
X-40607Y-34876D01*
X-40592Y-34879D01*
X-40576Y-34887D01*
X-40549Y-34904D01*
X-40520Y-34925D01*
X-40354Y-35067D01*
X-40292Y-35127D01*
X-40256Y-35142D01*
X-38649Y-36749D01*
X-38351Y-36948D01*
X-38000Y-37018D01*
X-35500D01*
X-35403Y-36998D01*
X-35157Y-37459D01*
X-35269Y-37572D01*
X-35468Y-37869D01*
X-35538Y-38221D01*
Y-39870D01*
X-35554Y-39906D01*
X-35555Y-39999D01*
X-35558Y-40073D01*
X-35571Y-40206D01*
X-35577Y-40246D01*
X-35585Y-40277D01*
X-35590Y-40293D01*
X-35598Y-40307D01*
X-35599Y-40314D01*
X-35601Y-40319D01*
X-35601Y-40328D01*
X-35603Y-40345D01*
X-35723Y-40464D01*
X-35921Y-40941D01*
Y-41459D01*
X-35723Y-41936D01*
X-35357Y-42302D01*
X-34879Y-42500D01*
X-34362D01*
X-33884Y-42302D01*
X-33518Y-41936D01*
X-33321Y-41459D01*
Y-40941D01*
X-33518Y-40464D01*
X-33637Y-40345D01*
X-33640Y-40328D01*
X-33640Y-40319D01*
X-33642Y-40314D01*
X-33643Y-40307D01*
X-33651Y-40293D01*
X-33656Y-40277D01*
X-33664Y-40246D01*
X-33670Y-40210D01*
X-33687Y-39992D01*
X-33688Y-39906D01*
X-33703Y-39870D01*
Y-38601D01*
X-30620Y-35518D01*
X-21660D01*
X-21309Y-35448D01*
X-21012Y-35249D01*
X-13451Y-27689D01*
X-13252Y-27391D01*
X-13182Y-27040D01*
Y-16480D01*
X-10420Y-13718D01*
X10200D01*
X10551Y-13648D01*
X10849Y-13449D01*
X13349Y-10949D01*
X13548Y-10651D01*
X13618Y-10300D01*
Y5600D01*
X13548Y5951D01*
X13349Y6249D01*
X12389Y7209D01*
X12375Y7245D01*
X12309Y7312D01*
X12260Y7366D01*
X12175Y7469D01*
X12151Y7502D01*
X12135Y7529D01*
X12127Y7544D01*
X12123Y7560D01*
X12118Y7566D01*
X12117Y7570D01*
X12110Y7577D01*
X12100Y7590D01*
Y7759D01*
X11902Y8236D01*
X11536Y8602D01*
X11059Y8800D01*
X10541D01*
X10064Y8602D01*
X9698Y8236D01*
X9500Y7759D01*
Y7241D01*
X9698Y6764D01*
X10064Y6398D01*
X10541Y6200D01*
X10710D01*
X10723Y6190D01*
X10730Y6183D01*
X10734Y6182D01*
X10740Y6177D01*
X10756Y6173D01*
X10771Y6165D01*
X10798Y6149D01*
X10827Y6128D01*
X10994Y5985D01*
X11055Y5925D01*
X11091Y5911D01*
X11782Y5220D01*
Y-9920D01*
X9820Y-11882D01*
X-10800D01*
X-11151Y-11952D01*
X-11449Y-12151D01*
X-11720Y-12423D01*
X-12182Y-12231D01*
Y-9580D01*
X-11691Y-9089D01*
X-11655Y-9075D01*
X-11588Y-9009D01*
X-11534Y-8960D01*
X-11431Y-8875D01*
X-11398Y-8851D01*
X-11371Y-8835D01*
X-11356Y-8827D01*
X-11340Y-8823D01*
X-11334Y-8818D01*
X-11330Y-8817D01*
X-11323Y-8810D01*
X-11310Y-8800D01*
X-11141D01*
X-10664Y-8602D01*
X-10298Y-8236D01*
X-10100Y-7759D01*
Y-7241D01*
X-10298Y-6764D01*
X-10664Y-6398D01*
X-11141Y-6200D01*
X-11659D01*
X-12136Y-6398D01*
X-12502Y-6764D01*
X-12700Y-7241D01*
Y-7410D01*
X-12710Y-7423D01*
X-12717Y-7430D01*
X-12718Y-7434D01*
X-12723Y-7440D01*
X-12727Y-7456D01*
X-12735Y-7471D01*
X-12751Y-7498D01*
X-12772Y-7527D01*
X-12915Y-7694D01*
X-12975Y-7755D01*
X-13095Y-7763D01*
X-13582Y-7336D01*
Y-2656D01*
X-13567Y-2623D01*
X-13561Y-2442D01*
X-13543Y-2283D01*
X-13514Y-2132D01*
X-13474Y-1986D01*
X-13423Y-1846D01*
X-13360Y-1711D01*
X-13286Y-1579D01*
X-13199Y-1452D01*
X-13099Y-1328D01*
X-12976Y-1195D01*
X-12963Y-1161D01*
X-10891Y911D01*
X-10855Y925D01*
X-10788Y991D01*
X-10734Y1040D01*
X-10631Y1125D01*
X-10598Y1149D01*
X-10571Y1166D01*
X-10556Y1173D01*
X-10540Y1177D01*
X-10534Y1182D01*
X-10530Y1183D01*
X-10523Y1190D01*
X-10510Y1200D01*
X-10341D01*
X-9864Y1398D01*
X-9500Y1761D01*
X-9488Y1761D01*
X-9000Y1659D01*
Y-10000D01*
X9000D01*
Y10000D01*
X-9000D01*
Y3341D01*
X-9488Y3239D01*
X-9500Y3238D01*
X-9864Y3602D01*
X-10341Y3800D01*
X-10859D01*
X-11336Y3602D01*
X-11702Y3236D01*
X-11900Y2759D01*
Y2590D01*
X-11910Y2577D01*
X-11917Y2570D01*
X-11918Y2566D01*
X-11923Y2560D01*
X-11927Y2544D01*
X-11935Y2529D01*
X-11951Y2502D01*
X-11972Y2473D01*
X-12115Y2306D01*
X-12175Y2245D01*
X-12189Y2209D01*
X-14261Y137D01*
X-14295Y124D01*
X-14427Y1D01*
X-14552Y-99D01*
X-14680Y-186D01*
X-14811Y-260D01*
X-14946Y-323D01*
X-15086Y-374D01*
X-15232Y-414D01*
X-15383Y-443D01*
X-15542Y-461D01*
X-15723Y-467D01*
X-15756Y-482D01*
X-24557D01*
X-24764Y18D01*
X-13731Y11051D01*
X10131D01*
X27894Y-6713D01*
X27910Y-6749D01*
X27926Y-6797D01*
X27940Y-6855D01*
X27951Y-6917D01*
X27966Y-7095D01*
X27967Y-7196D01*
X28000Y-7273D01*
Y-7459D01*
X28198Y-7936D01*
X28312Y-8051D01*
X28105Y-8551D01*
X25569D01*
X17206Y-187D01*
X17190Y-151D01*
X17174Y-103D01*
X17160Y-45D01*
X17149Y17D01*
X17134Y195D01*
X17133Y296D01*
X17100Y373D01*
Y559D01*
X16902Y1036D01*
X16536Y1402D01*
X16059Y1600D01*
X15541D01*
X15064Y1402D01*
X14698Y1036D01*
X14500Y559D01*
Y41D01*
X14698Y-436D01*
X15064Y-802D01*
X15541Y-1000D01*
X15727D01*
X15804Y-1033D01*
X15911Y-1034D01*
X15999Y-1039D01*
X16077Y-1048D01*
X16145Y-1060D01*
X16203Y-1074D01*
X16251Y-1090D01*
X16287Y-1106D01*
X24841Y-9659D01*
X25300Y-9849D01*
X34600D01*
X35059Y-9659D01*
X35886Y-8832D01*
X36386Y-9039D01*
Y-55490D01*
X29090Y-62786D01*
X7296D01*
X6605Y-62095D01*
X6373Y-61941D01*
X6100Y-61886D01*
X3466D01*
X3437Y-61870D01*
X3420Y-61875D01*
X3404Y-61867D01*
X3339Y-61865D01*
X3295Y-61859D01*
X3257Y-61850D01*
X3221Y-61839D01*
X3187Y-61824D01*
X3154Y-61805D01*
X3121Y-61782D01*
X3088Y-61754D01*
X3053Y-61719D01*
X3008Y-61666D01*
X2935Y-61628D01*
X2705Y-61398D01*
X2227Y-61200D01*
X1710D01*
X1232Y-61398D01*
X866Y-61764D01*
X668Y-62241D01*
Y-62759D01*
X866Y-63236D01*
X916Y-63286D01*
X709Y-63786D01*
X-1000D01*
X-1273Y-63841D01*
X-1458Y-63964D01*
X-1526Y-63990D01*
X-1579Y-64039D01*
X-1620Y-64072D01*
X-1659Y-64099D01*
X-1697Y-64121D01*
X-1733Y-64138D01*
X-1770Y-64151D01*
X-1806Y-64160D01*
X-1843Y-64166D01*
X-1883Y-64169D01*
X-1944Y-64169D01*
X-1947Y-64170D01*
X-1950Y-64168D01*
X-2026Y-64200D01*
X-2259D01*
X-2736Y-64398D01*
X-3102Y-64764D01*
X-3300Y-65241D01*
Y-65759D01*
X-3102Y-66236D01*
X-2736Y-66602D01*
X-2259Y-66800D01*
X-1741D01*
X-1264Y-66602D01*
X-898Y-66236D01*
X-700Y-65759D01*
Y-65526D01*
X-668Y-65450D01*
X-450Y-65326D01*
X-239Y-65214D01*
X3101D01*
X3182Y-65700D01*
X2233Y-66093D01*
X1419Y-66719D01*
X-1929Y-70066D01*
X-12189D01*
X-12523Y-69566D01*
X-12419Y-69314D01*
Y-68686D01*
X-12660Y-68104D01*
X-13066Y-67698D01*
Y-67302D01*
X-12660Y-66896D01*
X-12419Y-66315D01*
Y-65685D01*
X-12660Y-65104D01*
X-13104Y-64660D01*
X-13381Y-64545D01*
X-13593Y-64033D01*
X-14219Y-63218D01*
X-15033Y-62593D01*
X-15982Y-62200D01*
X-17000Y-62066D01*
X-18018Y-62200D01*
X-18967Y-62593D01*
X-19782Y-63218D01*
X-20407Y-64033D01*
X-20619Y-64545D01*
X-20896Y-64660D01*
X-21340Y-65104D01*
X-21581Y-65685D01*
Y-66315D01*
X-21340Y-66896D01*
X-20934Y-67302D01*
Y-67698D01*
X-21340Y-68104D01*
X-21581Y-68686D01*
Y-69314D01*
X-21340Y-69896D01*
X-20934Y-70302D01*
Y-70698D01*
X-21340Y-71104D01*
X-21581Y-71685D01*
Y-72315D01*
X-21340Y-72896D01*
X-20934Y-73302D01*
Y-74000D01*
X-20800Y-75018D01*
X-20407Y-75967D01*
X-19782Y-76781D01*
X-18967Y-77407D01*
X-18018Y-77800D01*
X-17000Y-77934D01*
X-300D01*
X718Y-77800D01*
X1667Y-77407D01*
X2482Y-76781D01*
X5829Y-73434D01*
X38468D01*
X38660Y-73896D01*
X39104Y-74340D01*
X39381Y-74455D01*
X39593Y-74967D01*
X40218Y-75782D01*
X41033Y-76407D01*
X41982Y-76800D01*
X43000Y-76934D01*
X44018Y-76800D01*
X44967Y-76407D01*
X45781Y-75782D01*
X46407Y-74967D01*
X46619Y-74455D01*
X46896Y-74340D01*
X47340Y-73896D01*
X47581Y-73314D01*
Y-72819D01*
X48281Y-72281D01*
X48907Y-71467D01*
X49300Y-70518D01*
X49434Y-69500D01*
X49300Y-68482D01*
X48907Y-67533D01*
X48281Y-66719D01*
X47467Y-66093D01*
X47232Y-65996D01*
X46896Y-65660D01*
X46619Y-65545D01*
X46407Y-65033D01*
X45781Y-64218D01*
X44967Y-63593D01*
X44018Y-63200D01*
X43000Y-63066D01*
X41982Y-63200D01*
X41033Y-63593D01*
X40218Y-64218D01*
X39593Y-65033D01*
X39381Y-65545D01*
X39329Y-65566D01*
X30364D01*
X30212Y-65066D01*
X30305Y-65005D01*
X38605Y-56705D01*
X38759Y-56473D01*
X38814Y-56200D01*
Y47700D01*
X38759Y47973D01*
X38605Y48205D01*
X33628Y53182D01*
X33612Y53224D01*
X33567Y53272D01*
X33539Y53309D01*
X33514Y53346D01*
X33493Y53385D01*
X33475Y53426D01*
X33461Y53470D01*
X33448Y53517D01*
X33440Y53569D01*
X33435Y53626D01*
X33433Y53701D01*
X33400Y53775D01*
Y53959D01*
X33202Y54436D01*
X32836Y54802D01*
X32359Y55000D01*
X31841D01*
X31364Y54802D01*
X30998Y54436D01*
X30800Y53959D01*
Y53441D01*
X30959Y53057D01*
X30535Y52774D01*
X29681Y53628D01*
X29665Y53671D01*
X29620Y53720D01*
X29588Y53759D01*
X29558Y53802D01*
X29531Y53847D01*
X29506Y53895D01*
X29484Y53947D01*
X29463Y54002D01*
X29446Y54063D01*
X29431Y54127D01*
X29417Y54207D01*
X29400Y54234D01*
Y54259D01*
X29202Y54736D01*
X28836Y55102D01*
X28359Y55300D01*
D02*
G37*
G36*
X73259Y4800D02*
X72741D01*
X72264Y4602D01*
X71898Y4236D01*
X71700Y3759D01*
Y3241D01*
X71898Y2764D01*
X72029Y2632D01*
X72060Y2555D01*
X72135Y2478D01*
X72193Y2412D01*
X72243Y2351D01*
X72282Y2294D01*
X72313Y2243D01*
X72336Y2198D01*
X72351Y2162D01*
Y-431D01*
X69431Y-3351D01*
X51338D01*
X51302Y-3336D01*
X51257Y-3313D01*
X51206Y-3283D01*
X51154Y-3246D01*
X51018Y-3131D01*
X50945Y-3060D01*
X50868Y-3029D01*
X50736Y-2898D01*
X50259Y-2700D01*
X49741D01*
X49264Y-2898D01*
X48898Y-3264D01*
X48700Y-3741D01*
Y-4259D01*
X48898Y-4736D01*
X49264Y-5102D01*
X49741Y-5300D01*
X50259D01*
X50736Y-5102D01*
X50868Y-4971D01*
X50945Y-4940D01*
X51022Y-4865D01*
X51088Y-4806D01*
X51149Y-4757D01*
X51206Y-4718D01*
X51257Y-4687D01*
X51302Y-4664D01*
X51338Y-4649D01*
X69700D01*
X70159Y-4459D01*
X73459Y-1159D01*
X73649Y-700D01*
Y2162D01*
X73664Y2198D01*
X73687Y2243D01*
X73717Y2294D01*
X73754Y2346D01*
X73869Y2482D01*
X73940Y2555D01*
X73971Y2632D01*
X74102Y2764D01*
X74300Y3241D01*
Y3759D01*
X74102Y4236D01*
X73736Y4602D01*
X73259Y4800D01*
D02*
G37*
G36*
Y-3400D02*
X72741D01*
X72264Y-3598D01*
X71898Y-3964D01*
X71700Y-4441D01*
Y-4627D01*
X71667Y-4704D01*
X71666Y-4811D01*
X71661Y-4899D01*
X71652Y-4977D01*
X71640Y-5045D01*
X71626Y-5103D01*
X71610Y-5151D01*
X71595Y-5187D01*
X70231Y-6551D01*
X51338D01*
X51302Y-6536D01*
X51257Y-6513D01*
X51206Y-6482D01*
X51154Y-6446D01*
X51018Y-6331D01*
X50945Y-6260D01*
X50868Y-6229D01*
X50736Y-6098D01*
X50259Y-5900D01*
X49741D01*
X49264Y-6098D01*
X48898Y-6464D01*
X48700Y-6941D01*
Y-7459D01*
X48898Y-7936D01*
X49264Y-8302D01*
X49741Y-8500D01*
X50259D01*
X50736Y-8302D01*
X50868Y-8171D01*
X50945Y-8140D01*
X51022Y-8065D01*
X51088Y-8006D01*
X51149Y-7957D01*
X51206Y-7918D01*
X51257Y-7887D01*
X51302Y-7864D01*
X51338Y-7849D01*
X70500D01*
X70959Y-7659D01*
X72513Y-6106D01*
X72549Y-6090D01*
X72597Y-6074D01*
X72655Y-6060D01*
X72717Y-6049D01*
X72895Y-6034D01*
X72996Y-6033D01*
X73073Y-6000D01*
X73259D01*
X73736Y-5802D01*
X74102Y-5436D01*
X74300Y-4959D01*
Y-4441D01*
X74102Y-3964D01*
X73736Y-3598D01*
X73259Y-3400D01*
D02*
G37*
G36*
X18259Y-15000D02*
X17741D01*
X17264Y-15198D01*
X16900Y-15562D01*
X16536Y-15198D01*
X16059Y-15000D01*
X15541D01*
X15064Y-15198D01*
X14698Y-15564D01*
X14500Y-16041D01*
Y-16559D01*
X14698Y-17036D01*
X15064Y-17402D01*
X15541Y-17600D01*
X16059D01*
X16536Y-17402D01*
X16900Y-17039D01*
X17264Y-17402D01*
X17741Y-17600D01*
X18259D01*
X18415Y-17535D01*
X18600Y-17659D01*
X18798Y-18136D01*
X19164Y-18502D01*
X19641Y-18700D01*
X20159D01*
X20636Y-18502D01*
X21002Y-18136D01*
X21200Y-17659D01*
Y-17141D01*
X21002Y-16664D01*
X20636Y-16298D01*
X20159Y-16100D01*
X19641D01*
X19485Y-16165D01*
X19300Y-16041D01*
X19102Y-15564D01*
X18736Y-15198D01*
X18259Y-15000D01*
D02*
G37*
G36*
X22712Y-20200D02*
X22195D01*
X21717Y-20398D01*
X21351Y-20764D01*
X21251Y-21006D01*
X20694Y-21153D01*
X20691Y-21152D01*
X20536Y-20998D01*
X20059Y-20800D01*
X19541D01*
X19064Y-20998D01*
X18698Y-21364D01*
X18500Y-21841D01*
Y-22359D01*
X18698Y-22836D01*
X19064Y-23202D01*
X19541Y-23400D01*
X20059D01*
X20536Y-23202D01*
X20902Y-22836D01*
X21002Y-22594D01*
X21560Y-22447D01*
X21563Y-22448D01*
X21717Y-22602D01*
X22195Y-22800D01*
X22712D01*
X23190Y-22602D01*
X23556Y-22236D01*
X23753Y-21759D01*
Y-21241D01*
X23556Y-20764D01*
X23190Y-20398D01*
X22712Y-20200D01*
D02*
G37*
G36*
X28500Y-14973D02*
X27954Y-15081D01*
X27491Y-15391D01*
X27181Y-15854D01*
X27073Y-16400D01*
Y-21200D01*
Y-24309D01*
X25509Y-25873D01*
X4200D01*
X4200Y-25873D01*
X3654Y-25981D01*
X3191Y-26291D01*
X-769Y-30250D01*
X-1079Y-30714D01*
X-1187Y-31260D01*
X-1187Y-31260D01*
Y-33540D01*
Y-38640D01*
X-1079Y-39186D01*
X-769Y-39650D01*
X-306Y-39959D01*
X240Y-40068D01*
X786Y-39959D01*
X996Y-39819D01*
X1036Y-39802D01*
X1067Y-39771D01*
X1249Y-39650D01*
X1371Y-39467D01*
X1402Y-39436D01*
X1419Y-39396D01*
X1559Y-39186D01*
X1668Y-38640D01*
Y-33540D01*
Y-31851D01*
X4791Y-28727D01*
X26100D01*
X26100Y-28727D01*
X26646Y-28619D01*
X27109Y-28309D01*
X29509Y-25909D01*
X29509Y-25909D01*
X29819Y-25446D01*
X29927Y-24900D01*
Y-21200D01*
Y-16400D01*
X29819Y-15854D01*
X29509Y-15391D01*
X29046Y-15081D01*
X28500Y-14973D01*
D02*
G37*
G36*
X-11241Y-30600D02*
X-11759D01*
X-12236Y-30798D01*
X-12602Y-31164D01*
X-12800Y-31641D01*
Y-32159D01*
X-12602Y-32636D01*
X-12236Y-33002D01*
X-11759Y-33200D01*
X-11241D01*
X-10764Y-33002D01*
X-10398Y-32636D01*
X-10200Y-32159D01*
Y-31641D01*
X-10398Y-31164D01*
X-10764Y-30798D01*
X-11241Y-30600D01*
D02*
G37*
G36*
X-39441Y-40300D02*
X-39959D01*
X-40436Y-40498D01*
X-40802Y-40864D01*
X-41000Y-41341D01*
Y-41859D01*
X-40802Y-42336D01*
X-40436Y-42702D01*
X-39959Y-42900D01*
X-39441D01*
X-39291Y-42838D01*
X-38908Y-43220D01*
X-39000Y-43441D01*
Y-43959D01*
X-38802Y-44436D01*
X-38436Y-44802D01*
X-37959Y-45000D01*
X-37441D01*
X-36964Y-44802D01*
X-36598Y-44436D01*
X-36400Y-43959D01*
Y-43441D01*
X-36598Y-42964D01*
X-36964Y-42598D01*
X-37441Y-42400D01*
X-37959D01*
X-38109Y-42462D01*
X-38491Y-42080D01*
X-38400Y-41859D01*
Y-41341D01*
X-38598Y-40864D01*
X-38964Y-40498D01*
X-39441Y-40300D01*
D02*
G37*
G36*
X2759Y-46200D02*
X2241D01*
X1764Y-46398D01*
X1398Y-46764D01*
X1200Y-47241D01*
Y-47759D01*
X1398Y-48236D01*
X1764Y-48602D01*
X2241Y-48800D01*
X2759D01*
X3236Y-48602D01*
X3602Y-48236D01*
X3800Y-47759D01*
Y-47241D01*
X3602Y-46764D01*
X3236Y-46398D01*
X2759Y-46200D01*
D02*
G37*
G36*
X29759Y-51000D02*
X29241D01*
X28764Y-51198D01*
X28398Y-51564D01*
X27863Y-51726D01*
X27559Y-51600D01*
X27041D01*
X26564Y-51798D01*
X26198Y-52164D01*
X26000Y-52641D01*
Y-53159D01*
X26198Y-53636D01*
X26564Y-54002D01*
X27041Y-54200D01*
X27559D01*
X28036Y-54002D01*
X28402Y-53636D01*
X28937Y-53474D01*
X29241Y-53600D01*
X29759D01*
X30236Y-53402D01*
X30602Y-53036D01*
X30800Y-52559D01*
Y-52041D01*
X30602Y-51564D01*
X30236Y-51198D01*
X29759Y-51000D01*
D02*
G37*
G36*
X-10541Y-42800D02*
X-11059D01*
X-11536Y-42998D01*
X-11902Y-43364D01*
X-12100Y-43841D01*
Y-44010D01*
X-12110Y-44023D01*
X-12117Y-44030D01*
X-12118Y-44034D01*
X-12123Y-44040D01*
X-12127Y-44056D01*
X-12135Y-44071D01*
X-12151Y-44098D01*
X-12172Y-44127D01*
X-12313Y-44292D01*
X-12366Y-44340D01*
X-12469Y-44425D01*
X-12502Y-44449D01*
X-12529Y-44465D01*
X-12544Y-44473D01*
X-12560Y-44477D01*
X-12566Y-44482D01*
X-12570Y-44483D01*
X-12577Y-44490D01*
X-12590Y-44500D01*
X-12759D01*
X-13236Y-44698D01*
X-13602Y-45064D01*
X-13800Y-45541D01*
Y-46059D01*
X-13602Y-46536D01*
X-13236Y-46902D01*
X-12759Y-47100D01*
X-12241D01*
X-11764Y-46902D01*
X-11398Y-46536D01*
X-11200Y-46059D01*
Y-45890D01*
X-11190Y-45877D01*
X-11183Y-45870D01*
X-11182Y-45866D01*
X-11177Y-45860D01*
X-11173Y-45844D01*
X-11165Y-45829D01*
X-11149Y-45802D01*
X-11134Y-45781D01*
X-11042Y-45704D01*
X-10545Y-45675D01*
X-10509Y-45689D01*
X-8849Y-47349D01*
X-8551Y-47548D01*
X-8200Y-47618D01*
X-3180D01*
X951Y-51749D01*
X1249Y-51948D01*
X1600Y-52018D01*
X7170D01*
X7206Y-52033D01*
X7299Y-52034D01*
X7373Y-52037D01*
X7506Y-52050D01*
X7546Y-52057D01*
X7577Y-52064D01*
X7593Y-52069D01*
X7607Y-52078D01*
X7614Y-52079D01*
X7619Y-52081D01*
X7628Y-52081D01*
X7644Y-52083D01*
X7764Y-52202D01*
X8241Y-52400D01*
X8759D01*
X9236Y-52202D01*
X9602Y-51836D01*
X9800Y-51359D01*
Y-50841D01*
X9602Y-50364D01*
X9236Y-49998D01*
X8759Y-49800D01*
X8241D01*
X7764Y-49998D01*
X7644Y-50117D01*
X7628Y-50119D01*
X7619Y-50120D01*
X7614Y-50121D01*
X7607Y-50122D01*
X7593Y-50130D01*
X7577Y-50136D01*
X7546Y-50143D01*
X7510Y-50149D01*
X7292Y-50166D01*
X7206Y-50167D01*
X7170Y-50182D01*
X1980D01*
X-2151Y-46051D01*
X-2449Y-45852D01*
X-2800Y-45782D01*
X-7820D01*
X-9211Y-44391D01*
X-9225Y-44355D01*
X-9290Y-44288D01*
X-9340Y-44234D01*
X-9425Y-44131D01*
X-9449Y-44098D01*
X-9465Y-44071D01*
X-9473Y-44056D01*
X-9477Y-44040D01*
X-9482Y-44034D01*
X-9483Y-44030D01*
X-9490Y-44023D01*
X-9500Y-44010D01*
Y-43841D01*
X-9698Y-43364D01*
X-10064Y-42998D01*
X-10541Y-42800D01*
D02*
G37*
G36*
X24259Y-56200D02*
X23741D01*
X23264Y-56398D01*
X22898Y-56764D01*
X22700Y-57241D01*
Y-57759D01*
X22898Y-58236D01*
X23264Y-58602D01*
X23741Y-58800D01*
X24259D01*
X24736Y-58602D01*
X25102Y-58236D01*
X25300Y-57759D01*
Y-57241D01*
X25102Y-56764D01*
X24736Y-56398D01*
X24259Y-56200D01*
D02*
G37*
%LPD*%
G36*
X29006Y54041D02*
X29027Y53952D01*
X29052Y53868D01*
X29081Y53787D01*
X29115Y53709D01*
X29153Y53635D01*
X29195Y53565D01*
X29242Y53498D01*
X29293Y53435D01*
X29349Y53376D01*
X28996Y52880D01*
X28933Y52937D01*
X28868Y52987D01*
X28800Y53030D01*
X28729Y53064D01*
X28656Y53092D01*
X28580Y53111D01*
X28502Y53123D01*
X28420Y53127D01*
X28337Y53124D01*
X28250Y53113D01*
X28990Y54132D01*
X29006Y54041D01*
D02*
G37*
G36*
X33002Y53600D02*
X33010Y53513D01*
X33024Y53429D01*
X33045Y53347D01*
X33071Y53270D01*
X33104Y53195D01*
X33142Y53124D01*
X33187Y53056D01*
X33237Y52992D01*
X33294Y52930D01*
X32870Y52506D01*
X32808Y52563D01*
X32744Y52613D01*
X32676Y52658D01*
X32605Y52696D01*
X32530Y52729D01*
X32452Y52755D01*
X32372Y52776D01*
X32287Y52790D01*
X32200Y52798D01*
X32109Y52800D01*
X33000Y53691D01*
X33002Y53600D01*
D02*
G37*
G36*
X567Y42792D02*
X511Y42724D01*
X462Y42654D01*
X419Y42583D01*
X383Y42509D01*
X353Y42434D01*
X330Y42356D01*
X313Y42276D01*
X303Y42195D01*
X300Y42112D01*
X-300D01*
X-303Y42195D01*
X-313Y42276D01*
X-330Y42356D01*
X-353Y42434D01*
X-383Y42509D01*
X-419Y42583D01*
X-462Y42654D01*
X-511Y42724D01*
X-567Y42792D01*
X-630Y42857D01*
X630D01*
X567Y42792D01*
D02*
G37*
G36*
X726Y37548D02*
X890Y37411D01*
X969Y37355D01*
X1047Y37308D01*
X1124Y37269D01*
X1199Y37239D01*
X1273Y37217D01*
X1346Y37204D01*
X1417Y37200D01*
Y36800D01*
X1346Y36796D01*
X1273Y36783D01*
X1199Y36761D01*
X1124Y36731D01*
X1047Y36693D01*
X969Y36645D01*
X890Y36589D01*
X809Y36525D01*
X726Y36452D01*
X643Y36370D01*
Y37630D01*
X726Y37548D01*
D02*
G37*
G36*
X-59097Y36353D02*
X-59086Y36311D01*
X-59068Y36265D01*
X-59043Y36216D01*
X-59010Y36163D01*
X-58970Y36106D01*
X-58867Y35982D01*
X-58805Y35914D01*
X-58736Y35843D01*
X-59443Y35135D01*
X-59514Y35205D01*
X-59706Y35370D01*
X-59763Y35410D01*
X-59816Y35443D01*
X-59865Y35468D01*
X-59911Y35486D01*
X-59953Y35497D01*
X-59991Y35500D01*
X-59100Y36391D01*
X-59097Y36353D01*
D02*
G37*
G36*
X-59909Y31600D02*
X-59947Y31597D01*
X-59989Y31586D01*
X-60035Y31568D01*
X-60084Y31543D01*
X-60137Y31510D01*
X-60194Y31470D01*
X-60318Y31367D01*
X-60386Y31305D01*
X-60457Y31236D01*
X-61164Y31943D01*
X-61095Y32014D01*
X-60930Y32206D01*
X-60890Y32263D01*
X-60857Y32316D01*
X-60832Y32365D01*
X-60814Y32411D01*
X-60803Y32453D01*
X-60800Y32491D01*
X-59909Y31600D01*
D02*
G37*
G36*
X14491Y30100D02*
X14413Y30098D01*
X14337Y30089D01*
X14262Y30073D01*
X14189Y30051D01*
X14117Y30023D01*
X14047Y29988D01*
X13978Y29947D01*
X13910Y29899D01*
X13844Y29845D01*
X13779Y29784D01*
X13284Y30279D01*
X13345Y30344D01*
X13399Y30410D01*
X13447Y30478D01*
X13488Y30547D01*
X13523Y30617D01*
X13551Y30689D01*
X13573Y30762D01*
X13589Y30837D01*
X13598Y30913D01*
X13600Y30991D01*
X14491Y30100D01*
D02*
G37*
G36*
X9491D02*
X9413Y30098D01*
X9337Y30089D01*
X9262Y30073D01*
X9189Y30051D01*
X9117Y30023D01*
X9047Y29988D01*
X8978Y29947D01*
X8910Y29899D01*
X8844Y29845D01*
X8779Y29784D01*
X8284Y30279D01*
X8345Y30344D01*
X8399Y30410D01*
X8447Y30478D01*
X8488Y30547D01*
X8523Y30617D01*
X8551Y30689D01*
X8573Y30762D01*
X8589Y30837D01*
X8598Y30913D01*
X8600Y30991D01*
X9491Y30100D01*
D02*
G37*
G36*
X-9509D02*
X-9587Y30098D01*
X-9663Y30089D01*
X-9738Y30073D01*
X-9811Y30051D01*
X-9883Y30023D01*
X-9953Y29988D01*
X-10022Y29947D01*
X-10090Y29899D01*
X-10156Y29845D01*
X-10221Y29784D01*
X-10716Y30279D01*
X-10655Y30344D01*
X-10601Y30410D01*
X-10553Y30478D01*
X-10512Y30547D01*
X-10477Y30617D01*
X-10449Y30689D01*
X-10427Y30762D01*
X-10411Y30837D01*
X-10402Y30913D01*
X-10400Y30991D01*
X-9509Y30100D01*
D02*
G37*
G36*
X-14509D02*
X-14587Y30098D01*
X-14663Y30089D01*
X-14738Y30073D01*
X-14811Y30051D01*
X-14883Y30023D01*
X-14953Y29988D01*
X-15022Y29947D01*
X-15090Y29899D01*
X-15156Y29845D01*
X-15221Y29784D01*
X-15716Y30279D01*
X-15655Y30344D01*
X-15601Y30410D01*
X-15553Y30478D01*
X-15512Y30547D01*
X-15477Y30617D01*
X-15449Y30689D01*
X-15427Y30762D01*
X-15411Y30837D01*
X-15402Y30913D01*
X-15400Y30991D01*
X-14509Y30100D01*
D02*
G37*
G36*
X-57243Y26270D02*
X-57272Y26295D01*
X-57309Y26317D01*
X-57354Y26336D01*
X-57407Y26353D01*
X-57468Y26368D01*
X-57536Y26379D01*
X-57697Y26395D01*
X-57789Y26399D01*
X-57888Y26400D01*
Y27400D01*
X-57789Y27401D01*
X-57536Y27421D01*
X-57468Y27433D01*
X-57407Y27447D01*
X-57354Y27464D01*
X-57309Y27483D01*
X-57272Y27505D01*
X-57243Y27530D01*
Y26270D01*
D02*
G37*
G36*
X11703Y7453D02*
X11714Y7411D01*
X11732Y7365D01*
X11757Y7316D01*
X11790Y7263D01*
X11830Y7206D01*
X11933Y7082D01*
X11995Y7014D01*
X12065Y6943D01*
X11357Y6236D01*
X11286Y6305D01*
X11094Y6470D01*
X11037Y6510D01*
X10984Y6543D01*
X10935Y6568D01*
X10889Y6586D01*
X10847Y6597D01*
X10809Y6600D01*
X11700Y7491D01*
X11703Y7453D01*
D02*
G37*
G36*
X-53974Y6091D02*
X-53965Y6006D01*
X-53951Y5925D01*
X-53931Y5847D01*
X-53905Y5774D01*
X-53873Y5704D01*
X-53836Y5637D01*
X-53793Y5575D01*
X-53744Y5516D01*
X-53689Y5461D01*
X-54949Y5424D01*
X-54897Y5482D01*
X-54851Y5544D01*
X-54810Y5609D01*
X-54775Y5677D01*
X-54745Y5749D01*
X-54720Y5824D01*
X-54701Y5902D01*
X-54688Y5984D01*
X-54680Y6069D01*
X-54677Y6157D01*
X-53977Y6180D01*
X-53974Y6091D01*
D02*
G37*
G36*
X-49877Y6072D02*
X-49875Y5985D01*
X-49857Y5817D01*
X-49842Y5737D01*
X-49822Y5659D01*
X-49798Y5584D01*
X-49770Y5512D01*
X-49737Y5442D01*
X-49700Y5374D01*
X-49658Y5310D01*
X-50894Y5552D01*
X-50834Y5596D01*
X-50780Y5646D01*
X-50732Y5700D01*
X-50691Y5759D01*
X-50656Y5824D01*
X-50628Y5894D01*
X-50605Y5968D01*
X-50590Y6048D01*
X-50580Y6133D01*
X-50577Y6222D01*
X-49877Y6072D01*
D02*
G37*
G36*
X-10609Y1600D02*
X-10647Y1597D01*
X-10689Y1586D01*
X-10735Y1568D01*
X-10784Y1543D01*
X-10837Y1510D01*
X-10894Y1470D01*
X-11018Y1367D01*
X-11086Y1305D01*
X-11157Y1235D01*
X-11864Y1943D01*
X-11795Y2014D01*
X-11630Y2206D01*
X-11590Y2263D01*
X-11557Y2316D01*
X-11532Y2365D01*
X-11514Y2411D01*
X-11503Y2453D01*
X-11500Y2491D01*
X-10609Y1600D01*
D02*
G37*
G36*
X-55284Y1421D02*
X-55345Y1356D01*
X-55399Y1290D01*
X-55447Y1222D01*
X-55488Y1153D01*
X-55523Y1083D01*
X-55551Y1011D01*
X-55573Y938D01*
X-55589Y863D01*
X-55598Y787D01*
X-55600Y709D01*
X-56491Y1600D01*
X-56413Y1602D01*
X-56337Y1611D01*
X-56262Y1627D01*
X-56189Y1649D01*
X-56117Y1677D01*
X-56047Y1712D01*
X-55978Y1753D01*
X-55910Y1801D01*
X-55844Y1855D01*
X-55779Y1916D01*
X-55284Y1421D01*
D02*
G37*
G36*
X-51143Y1379D02*
X-51203Y1314D01*
X-51257Y1248D01*
X-51305Y1181D01*
X-51346Y1112D01*
X-51381Y1041D01*
X-51410Y969D01*
X-51432Y896D01*
X-51447Y821D01*
X-51456Y745D01*
X-51458Y667D01*
X-52349Y1558D01*
X-52271Y1561D01*
X-52195Y1570D01*
X-52121Y1585D01*
X-52047Y1607D01*
X-51975Y1635D01*
X-51905Y1670D01*
X-51836Y1711D01*
X-51768Y1759D01*
X-51702Y1813D01*
X-51638Y1874D01*
X-51143Y1379D01*
D02*
G37*
G36*
X16701Y174D02*
X16719Y-39D01*
X16736Y-134D01*
X16758Y-223D01*
X16785Y-305D01*
X16817Y-379D01*
X16854Y-447D01*
X16896Y-507D01*
X16944Y-561D01*
X16661Y-844D01*
X16607Y-796D01*
X16547Y-754D01*
X16479Y-717D01*
X16405Y-685D01*
X16323Y-658D01*
X16234Y-636D01*
X16139Y-619D01*
X16036Y-608D01*
X15926Y-601D01*
X15809Y-600D01*
X16700Y291D01*
X16701Y174D01*
D02*
G37*
G36*
X-65406Y-1730D02*
X-65463Y-1792D01*
X-65513Y-1856D01*
X-65558Y-1924D01*
X-65596Y-1995D01*
X-65629Y-2070D01*
X-65655Y-2148D01*
X-65675Y-2228D01*
X-65690Y-2313D01*
X-65698Y-2400D01*
X-65700Y-2491D01*
X-66591Y-1600D01*
X-66500Y-1598D01*
X-66413Y-1590D01*
X-66329Y-1575D01*
X-66247Y-1555D01*
X-66170Y-1529D01*
X-66095Y-1496D01*
X-66024Y-1458D01*
X-65956Y-1413D01*
X-65892Y-1363D01*
X-65830Y-1306D01*
X-65406Y-1730D01*
D02*
G37*
G36*
X-13293Y-900D02*
X-13427Y-1044D01*
X-13547Y-1195D01*
X-13654Y-1351D01*
X-13745Y-1513D01*
X-13823Y-1680D01*
X-13887Y-1854D01*
X-13936Y-2034D01*
X-13972Y-2219D01*
X-13993Y-2410D01*
X-14000Y-2607D01*
X-15000Y-2900D01*
X-15010Y-2710D01*
X-15040Y-2540D01*
X-15090Y-2390D01*
X-15160Y-2260D01*
X-15250Y-2150D01*
X-15360Y-2060D01*
X-15490Y-1990D01*
X-15640Y-1940D01*
X-15810Y-1910D01*
X-16000Y-1900D01*
X-15707Y-900D01*
X-15510Y-893D01*
X-15319Y-872D01*
X-15134Y-836D01*
X-14954Y-787D01*
X-14780Y-723D01*
X-14613Y-645D01*
X-14451Y-554D01*
X-14295Y-447D01*
X-14144Y-327D01*
X-14000Y-193D01*
X-13293Y-900D01*
D02*
G37*
G36*
X28493Y-3004D02*
X28553Y-3046D01*
X28621Y-3083D01*
X28695Y-3115D01*
X28777Y-3142D01*
X28866Y-3164D01*
X28962Y-3181D01*
X29064Y-3192D01*
X29174Y-3199D01*
X29291Y-3200D01*
X28400Y-4091D01*
X28399Y-3974D01*
X28381Y-3761D01*
X28364Y-3666D01*
X28342Y-3577D01*
X28315Y-3495D01*
X28283Y-3421D01*
X28246Y-3353D01*
X28204Y-3293D01*
X28156Y-3239D01*
X28439Y-2956D01*
X28493Y-3004D01*
D02*
G37*
G36*
X-17695Y-4872D02*
X-17717Y-4909D01*
X-17736Y-4954D01*
X-17753Y-5007D01*
X-17767Y-5068D01*
X-17779Y-5136D01*
X-17795Y-5297D01*
X-17799Y-5389D01*
X-17800Y-5488D01*
X-18800D01*
X-18801Y-5389D01*
X-18821Y-5136D01*
X-18833Y-5068D01*
X-18847Y-5007D01*
X-18864Y-4954D01*
X-18883Y-4909D01*
X-18905Y-4872D01*
X-18930Y-4843D01*
X-17670D01*
X-17695Y-4872D01*
D02*
G37*
G36*
X28493Y-6104D02*
X28553Y-6146D01*
X28621Y-6183D01*
X28695Y-6215D01*
X28777Y-6242D01*
X28866Y-6264D01*
X28962Y-6281D01*
X29064Y-6292D01*
X29174Y-6299D01*
X29291Y-6300D01*
X28400Y-7191D01*
X28399Y-7074D01*
X28381Y-6861D01*
X28364Y-6766D01*
X28342Y-6677D01*
X28315Y-6595D01*
X28283Y-6521D01*
X28246Y-6453D01*
X28204Y-6393D01*
X28156Y-6339D01*
X28439Y-6056D01*
X28493Y-6104D01*
D02*
G37*
G36*
X-34156Y-7539D02*
X-34204Y-7593D01*
X-34246Y-7653D01*
X-34283Y-7721D01*
X-34315Y-7795D01*
X-34342Y-7877D01*
X-34364Y-7966D01*
X-34381Y-8061D01*
X-34392Y-8164D01*
X-34399Y-8274D01*
X-34400Y-8391D01*
X-35291Y-7500D01*
X-35174Y-7499D01*
X-34962Y-7481D01*
X-34866Y-7464D01*
X-34777Y-7442D01*
X-34695Y-7415D01*
X-34621Y-7383D01*
X-34553Y-7346D01*
X-34493Y-7304D01*
X-34439Y-7256D01*
X-34156Y-7539D01*
D02*
G37*
G36*
X-1300Y36884D02*
Y36741D01*
X-1102Y36264D01*
X-736Y35898D01*
X-259Y35700D01*
X259D01*
X736Y35898D01*
X868Y36029D01*
X945Y36060D01*
X1022Y36135D01*
X1088Y36193D01*
X1149Y36243D01*
X1206Y36283D01*
X1257Y36313D01*
X1302Y36336D01*
X1338Y36351D01*
X16331D01*
X18041Y34641D01*
X18500Y34451D01*
X26631D01*
X29451Y31631D01*
Y28600D01*
X29641Y28141D01*
X35151Y22631D01*
Y-7731D01*
X34331Y-8551D01*
X30495D01*
X30288Y-8051D01*
X30402Y-7936D01*
X30600Y-7459D01*
Y-6941D01*
X30402Y-6464D01*
X30036Y-6098D01*
X29559Y-5900D01*
X29440Y-5569D01*
X29559Y-5400D01*
X30036Y-5202D01*
X30402Y-4836D01*
X30600Y-4359D01*
Y-3841D01*
X30402Y-3364D01*
X30036Y-2998D01*
X29559Y-2800D01*
X29373D01*
X29296Y-2767D01*
X29189Y-2766D01*
X29101Y-2761D01*
X29023Y-2752D01*
X28955Y-2740D01*
X28897Y-2726D01*
X28849Y-2710D01*
X28813Y-2695D01*
X13159Y12959D01*
X12700Y13149D01*
X-14400D01*
X-14859Y12959D01*
X-34813Y-6995D01*
X-34849Y-7010D01*
X-34897Y-7026D01*
X-34955Y-7040D01*
X-35017Y-7051D01*
X-35195Y-7066D01*
X-35296Y-7067D01*
X-35373Y-7100D01*
X-35559D01*
X-36036Y-7298D01*
X-36402Y-7664D01*
X-36600Y-8141D01*
Y-8659D01*
X-36522Y-8846D01*
X-36946Y-9129D01*
X-40924Y-5151D01*
X-41222Y-4952D01*
X-41573Y-4882D01*
X-66220D01*
X-66802Y-4300D01*
X-66595Y-3800D01*
X-66341D01*
X-65864Y-3602D01*
X-65498Y-3236D01*
X-65300Y-2759D01*
Y-2575D01*
X-65267Y-2501D01*
X-65265Y-2426D01*
X-65260Y-2369D01*
X-65251Y-2317D01*
X-65240Y-2270D01*
X-65225Y-2226D01*
X-65207Y-2185D01*
X-65186Y-2146D01*
X-65161Y-2109D01*
X-65133Y-2073D01*
X-65088Y-2024D01*
X-65072Y-1982D01*
X-64195Y-1105D01*
X-64041Y-873D01*
X-63986Y-600D01*
Y5304D01*
X-61304Y7986D01*
X-54748D01*
X-54557Y7524D01*
X-54868Y7214D01*
X-55033Y6966D01*
X-55091Y6673D01*
Y6211D01*
X-55110Y6171D01*
X-55112Y6096D01*
X-55117Y6040D01*
X-55126Y5989D01*
X-55137Y5942D01*
X-55151Y5900D01*
X-55167Y5860D01*
X-55186Y5824D01*
X-55208Y5789D01*
X-55233Y5756D01*
X-55273Y5711D01*
X-55297Y5642D01*
X-55402Y5536D01*
X-55600Y5059D01*
Y4541D01*
X-55402Y4064D01*
X-55079Y3740D01*
X-55061Y3436D01*
X-55086Y3177D01*
X-55141Y3141D01*
X-55141Y3141D01*
X-56035Y2247D01*
X-56076Y2231D01*
X-56130Y2180D01*
X-56173Y2145D01*
X-56214Y2116D01*
X-56254Y2092D01*
X-56293Y2073D01*
X-56330Y2058D01*
X-56368Y2047D01*
X-56406Y2039D01*
X-56445Y2035D01*
X-56505Y2033D01*
X-56577Y2000D01*
X-56759D01*
X-57236Y1802D01*
X-57602Y1436D01*
X-57800Y959D01*
Y441D01*
X-57602Y-36D01*
X-57236Y-402D01*
X-56759Y-600D01*
X-56241D01*
X-55764Y-402D01*
X-55398Y-36D01*
X-55200Y441D01*
Y623D01*
X-55167Y695D01*
X-55165Y754D01*
X-55161Y794D01*
X-55153Y832D01*
X-55142Y870D01*
X-55127Y907D01*
X-55108Y946D01*
X-55084Y986D01*
X-55055Y1027D01*
X-55020Y1070D01*
X-54969Y1124D01*
X-54953Y1165D01*
X-54283Y1835D01*
X-53727D01*
X-53584Y1600D01*
X-53485Y1335D01*
X-53658Y917D01*
Y400D01*
X-53460Y-78D01*
X-53095Y-444D01*
X-52617Y-642D01*
X-52100D01*
X-51622Y-444D01*
X-51256Y-78D01*
X-51058Y400D01*
Y581D01*
X-51025Y654D01*
X-51024Y713D01*
X-51019Y752D01*
X-51011Y790D01*
X-51000Y828D01*
X-50985Y866D01*
X-50966Y904D01*
X-50942Y944D01*
X-50913Y986D01*
X-50878Y1028D01*
X-50827Y1082D01*
X-50811Y1124D01*
X-50400Y1535D01*
X-49500D01*
X-49207Y1594D01*
X-48959Y1759D01*
X-47659Y3059D01*
X-47493Y3307D01*
X-47435Y3600D01*
X-47435Y3600D01*
Y7816D01*
X-33566Y21685D01*
X5950D01*
X6243Y21744D01*
X6491Y21909D01*
X14035Y29453D01*
X14076Y29469D01*
X14130Y29520D01*
X14173Y29555D01*
X14214Y29584D01*
X14254Y29608D01*
X14293Y29627D01*
X14330Y29642D01*
X14368Y29653D01*
X14406Y29661D01*
X14445Y29665D01*
X14505Y29667D01*
X14577Y29700D01*
X14759D01*
X15236Y29898D01*
X15602Y30264D01*
X15800Y30741D01*
Y31259D01*
X15602Y31736D01*
X15236Y32102D01*
X14759Y32300D01*
X14241D01*
X13764Y32102D01*
X13398Y31736D01*
X13200Y31259D01*
Y31077D01*
X13167Y31005D01*
X13165Y30945D01*
X13161Y30906D01*
X13153Y30868D01*
X13142Y30830D01*
X13127Y30793D01*
X13108Y30754D01*
X13084Y30714D01*
X13055Y30673D01*
X13020Y30630D01*
X12969Y30576D01*
X12953Y30535D01*
X5633Y23215D01*
X3449D01*
X3258Y23677D01*
X9035Y29453D01*
X9076Y29469D01*
X9130Y29520D01*
X9173Y29555D01*
X9214Y29584D01*
X9254Y29608D01*
X9293Y29627D01*
X9330Y29642D01*
X9368Y29653D01*
X9406Y29661D01*
X9445Y29665D01*
X9505Y29667D01*
X9577Y29700D01*
X9759D01*
X10236Y29898D01*
X10602Y30264D01*
X10800Y30741D01*
Y31259D01*
X10602Y31736D01*
X10236Y32102D01*
X9759Y32300D01*
X9241D01*
X8764Y32102D01*
X8398Y31736D01*
X8200Y31259D01*
Y31077D01*
X8167Y31005D01*
X8165Y30945D01*
X8161Y30906D01*
X8153Y30868D01*
X8142Y30830D01*
X8127Y30793D01*
X8108Y30754D01*
X8084Y30714D01*
X8055Y30673D01*
X8020Y30630D01*
X7969Y30576D01*
X7953Y30535D01*
X1733Y24315D01*
X-14451D01*
X-14642Y24777D01*
X-9965Y29453D01*
X-9924Y29469D01*
X-9870Y29520D01*
X-9827Y29555D01*
X-9786Y29584D01*
X-9746Y29608D01*
X-9707Y29627D01*
X-9670Y29642D01*
X-9632Y29653D01*
X-9594Y29661D01*
X-9555Y29665D01*
X-9495Y29667D01*
X-9423Y29700D01*
X-9241D01*
X-8764Y29898D01*
X-8398Y30264D01*
X-8200Y30741D01*
Y31259D01*
X-8398Y31736D01*
X-8764Y32102D01*
X-8967Y32186D01*
X-8867Y32686D01*
X-6500D01*
X-6227Y32741D01*
X-5995Y32895D01*
X-1800Y37091D01*
X-1300Y36884D01*
D02*
G37*
G36*
X-11409Y-8400D02*
X-11447Y-8403D01*
X-11489Y-8414D01*
X-11535Y-8432D01*
X-11584Y-8457D01*
X-11637Y-8490D01*
X-11694Y-8530D01*
X-11818Y-8633D01*
X-11886Y-8695D01*
X-11957Y-8765D01*
X-12664Y-8057D01*
X-12595Y-7986D01*
X-12430Y-7794D01*
X-12390Y-7737D01*
X-12357Y-7684D01*
X-12332Y-7635D01*
X-12314Y-7589D01*
X-12303Y-7547D01*
X-12300Y-7509D01*
X-11409Y-8400D01*
D02*
G37*
G36*
X-31596Y-10954D02*
X-31583Y-11027D01*
X-31561Y-11101D01*
X-31531Y-11176D01*
X-31492Y-11253D01*
X-31445Y-11331D01*
X-31389Y-11411D01*
X-31325Y-11491D01*
X-31252Y-11574D01*
X-31170Y-11657D01*
X-32430D01*
X-32348Y-11574D01*
X-32211Y-11411D01*
X-32155Y-11331D01*
X-32107Y-11253D01*
X-32069Y-11176D01*
X-32039Y-11101D01*
X-32017Y-11027D01*
X-32004Y-10954D01*
X-32000Y-10882D01*
X-31600D01*
X-31596Y-10954D01*
D02*
G37*
G36*
X-71849Y-249D02*
X-69518Y-2580D01*
Y-3800D01*
X-69448Y-4151D01*
X-69249Y-4449D01*
X-67249Y-6449D01*
X-66951Y-6648D01*
X-66600Y-6718D01*
X-41953D01*
X-33322Y-15349D01*
X-33024Y-15548D01*
X-32673Y-15618D01*
X-30900D01*
X-30549Y-15548D01*
X-30251Y-15349D01*
X-27551Y-12649D01*
X-27352Y-12351D01*
X-27282Y-12000D01*
Y-5180D01*
X-24420Y-2318D01*
X-16054D01*
X-16023Y-2332D01*
X-15859Y-2341D01*
X-15747Y-2361D01*
X-15662Y-2389D01*
X-15602Y-2421D01*
X-15558Y-2458D01*
X-15521Y-2502D01*
X-15489Y-2562D01*
X-15461Y-2647D01*
X-15441Y-2759D01*
X-15432Y-2923D01*
X-15418Y-2954D01*
Y-12060D01*
X-16920Y-13563D01*
X-17382Y-13371D01*
Y-5530D01*
X-17367Y-5494D01*
X-17366Y-5401D01*
X-17363Y-5327D01*
X-17350Y-5194D01*
X-17343Y-5154D01*
X-17336Y-5123D01*
X-17331Y-5107D01*
X-17323Y-5093D01*
X-17321Y-5086D01*
X-17320Y-5081D01*
X-17319Y-5072D01*
X-17317Y-5055D01*
X-17198Y-4936D01*
X-17000Y-4459D01*
Y-3941D01*
X-17198Y-3464D01*
X-17564Y-3098D01*
X-18041Y-2900D01*
X-18559D01*
X-19036Y-3098D01*
X-19402Y-3464D01*
X-19600Y-3941D01*
Y-4459D01*
X-19402Y-4936D01*
X-19283Y-5055D01*
X-19281Y-5072D01*
X-19281Y-5081D01*
X-19279Y-5086D01*
X-19277Y-5093D01*
X-19270Y-5107D01*
X-19264Y-5123D01*
X-19257Y-5154D01*
X-19251Y-5190D01*
X-19234Y-5408D01*
X-19233Y-5494D01*
X-19218Y-5530D01*
Y-24920D01*
X-23780Y-29482D01*
X-37200D01*
X-37551Y-29552D01*
X-37849Y-29751D01*
X-38309Y-30211D01*
X-38345Y-30225D01*
X-38412Y-30290D01*
X-38466Y-30340D01*
X-38569Y-30425D01*
X-38602Y-30449D01*
X-38629Y-30465D01*
X-38644Y-30473D01*
X-38660Y-30477D01*
X-38666Y-30482D01*
X-38670Y-30483D01*
X-38677Y-30490D01*
X-38690Y-30500D01*
X-38859D01*
X-39336Y-30698D01*
X-39370Y-30732D01*
X-42682Y-27420D01*
Y-22100D01*
X-42752Y-21749D01*
X-42951Y-21451D01*
X-47851Y-16551D01*
X-48149Y-16352D01*
X-48500Y-16282D01*
X-51099D01*
X-51141Y-15800D01*
X-50664Y-15602D01*
X-50298Y-15236D01*
X-50100Y-14759D01*
Y-14241D01*
X-50298Y-13764D01*
X-50664Y-13398D01*
X-51141Y-13200D01*
X-51659D01*
X-52136Y-13398D01*
X-52502Y-13764D01*
X-52700Y-14241D01*
Y-14759D01*
X-52674Y-14821D01*
X-53098Y-15104D01*
X-53451Y-14751D01*
X-53749Y-14552D01*
X-54100Y-14482D01*
X-55137D01*
X-55344Y-13982D01*
X-55198Y-13836D01*
X-55000Y-13359D01*
Y-12841D01*
X-55198Y-12364D01*
X-55564Y-11998D01*
X-56041Y-11800D01*
X-56559D01*
X-57036Y-11998D01*
X-57402Y-12364D01*
X-57600Y-12841D01*
Y-13359D01*
X-57402Y-13836D01*
X-57256Y-13982D01*
X-57463Y-14482D01*
X-59820D01*
X-64951Y-9351D01*
X-65249Y-9152D01*
X-65600Y-9082D01*
X-68040D01*
X-72382Y-4740D01*
Y-350D01*
X-71882Y-199D01*
X-71849Y-249D01*
D02*
G37*
G36*
X-54883Y-19142D02*
X-54865Y-19354D01*
X-54848Y-19450D01*
X-54826Y-19539D01*
X-54799Y-19621D01*
X-54767Y-19695D01*
X-54730Y-19763D01*
X-54688Y-19823D01*
X-54641Y-19877D01*
X-54923Y-20159D01*
X-54977Y-20112D01*
X-55037Y-20070D01*
X-55105Y-20033D01*
X-55180Y-20001D01*
X-55261Y-19974D01*
X-55350Y-19952D01*
X-55446Y-19935D01*
X-55549Y-19924D01*
X-55658Y-19917D01*
X-55775Y-19916D01*
X-54884Y-19025D01*
X-54883Y-19142D01*
D02*
G37*
G36*
X-37336Y-31243D02*
X-37405Y-31314D01*
X-37570Y-31506D01*
X-37610Y-31563D01*
X-37643Y-31616D01*
X-37668Y-31665D01*
X-37686Y-31711D01*
X-37697Y-31753D01*
X-37700Y-31791D01*
X-38591Y-30900D01*
X-38553Y-30897D01*
X-38511Y-30886D01*
X-38465Y-30868D01*
X-38416Y-30843D01*
X-38363Y-30810D01*
X-38306Y-30770D01*
X-38182Y-30667D01*
X-38114Y-30605D01*
X-38043Y-30536D01*
X-37336Y-31243D01*
D02*
G37*
G36*
X-35318Y-33019D02*
X-35389Y-33091D01*
X-35601Y-33332D01*
X-35637Y-33381D01*
X-35666Y-33425D01*
X-35687Y-33464D01*
X-35702Y-33498D01*
X-35709Y-33528D01*
X-36454Y-32512D01*
X-36413Y-32514D01*
X-36369Y-32509D01*
X-36321Y-32496D01*
X-36270Y-32474D01*
X-36215Y-32445D01*
X-36157Y-32408D01*
X-36096Y-32362D01*
X-36031Y-32309D01*
X-35892Y-32179D01*
X-35318Y-33019D01*
D02*
G37*
G36*
X-41033Y-32358D02*
X-40841Y-32522D01*
X-40784Y-32563D01*
X-40731Y-32595D01*
X-40682Y-32621D01*
X-40637Y-32639D01*
X-40595Y-32649D01*
X-40556Y-32653D01*
X-41447Y-33544D01*
X-41451Y-33505D01*
X-41461Y-33463D01*
X-41479Y-33418D01*
X-41505Y-33369D01*
X-41537Y-33316D01*
X-41578Y-33259D01*
X-41680Y-33134D01*
X-41742Y-33067D01*
X-41812Y-32995D01*
X-41105Y-32288D01*
X-41033Y-32358D01*
D02*
G37*
G36*
X-39644Y-33600D02*
X-39633Y-33642D01*
X-39615Y-33687D01*
X-39590Y-33737D01*
X-39557Y-33790D01*
X-39517Y-33847D01*
X-39415Y-33971D01*
X-39352Y-34039D01*
X-39283Y-34110D01*
X-39990Y-34817D01*
X-40061Y-34748D01*
X-40253Y-34583D01*
X-40310Y-34543D01*
X-40363Y-34510D01*
X-40413Y-34485D01*
X-40458Y-34467D01*
X-40500Y-34456D01*
X-40538Y-34453D01*
X-39647Y-33562D01*
X-39644Y-33600D01*
D02*
G37*
G36*
X-55856Y-36139D02*
X-55904Y-36193D01*
X-55946Y-36253D01*
X-55983Y-36321D01*
X-56015Y-36395D01*
X-56042Y-36477D01*
X-56064Y-36566D01*
X-56081Y-36661D01*
X-56092Y-36764D01*
X-56099Y-36874D01*
X-56100Y-36991D01*
X-56991Y-36100D01*
X-56874Y-36099D01*
X-56661Y-36081D01*
X-56566Y-36064D01*
X-56477Y-36042D01*
X-56395Y-36015D01*
X-56321Y-35983D01*
X-56253Y-35946D01*
X-56193Y-35904D01*
X-56139Y-35856D01*
X-55856Y-36139D01*
D02*
G37*
G36*
X-34119Y-40011D02*
X-34100Y-40264D01*
X-34088Y-40332D01*
X-34074Y-40393D01*
X-34057Y-40446D01*
X-34037Y-40491D01*
X-34015Y-40528D01*
X-33990Y-40557D01*
X-35250D01*
X-35226Y-40528D01*
X-35204Y-40491D01*
X-35184Y-40446D01*
X-35167Y-40393D01*
X-35153Y-40332D01*
X-35141Y-40264D01*
X-35126Y-40103D01*
X-35122Y-40011D01*
X-35120Y-39912D01*
X-34121D01*
X-34119Y-40011D01*
D02*
G37*
G36*
X2734Y-62013D02*
X2794Y-62073D01*
X2858Y-62126D01*
X2924Y-62172D01*
X2993Y-62211D01*
X3066Y-62243D01*
X3141Y-62268D01*
X3220Y-62286D01*
X3301Y-62296D01*
X3386Y-62300D01*
X3315Y-62900D01*
X3233Y-62903D01*
X3152Y-62912D01*
X3071Y-62927D01*
X2992Y-62948D01*
X2914Y-62974D01*
X2837Y-63007D01*
X2761Y-63046D01*
X2685Y-63090D01*
X2611Y-63141D01*
X2537Y-63197D01*
X2677Y-61945D01*
X2734Y-62013D01*
D02*
G37*
G36*
X-806Y-64730D02*
X-866Y-64795D01*
X-919Y-64861D01*
X-966Y-64929D01*
X-1006Y-64998D01*
X-1039Y-65069D01*
X-1065Y-65142D01*
X-1084Y-65216D01*
X-1097Y-65293D01*
X-1103Y-65370D01*
X-1101Y-65450D01*
X-1950Y-64601D01*
X-1870Y-64603D01*
X-1792Y-64597D01*
X-1716Y-64584D01*
X-1642Y-64565D01*
X-1569Y-64539D01*
X-1498Y-64506D01*
X-1429Y-64466D01*
X-1361Y-64420D01*
X-1295Y-64366D01*
X-1230Y-64306D01*
X-806Y-64730D01*
D02*
G37*
%LPC*%
G36*
X-60241Y4300D02*
X-60759D01*
X-61236Y4102D01*
X-61602Y3736D01*
X-61800Y3259D01*
Y2741D01*
X-61602Y2264D01*
X-61236Y1898D01*
X-60759Y1700D01*
X-60241D01*
X-59764Y1898D01*
X-59398Y2264D01*
X-59200Y2741D01*
Y3259D01*
X-59398Y3736D01*
X-59764Y4102D01*
X-60241Y4300D01*
D02*
G37*
G36*
X-42441Y-9300D02*
X-42959D01*
X-43436Y-9498D01*
X-43802Y-9864D01*
X-44000Y-10341D01*
Y-10859D01*
X-43802Y-11336D01*
X-43436Y-11702D01*
X-42959Y-11900D01*
X-42441D01*
X-41964Y-11702D01*
X-41598Y-11336D01*
X-41400Y-10859D01*
Y-10341D01*
X-41598Y-9864D01*
X-41964Y-9498D01*
X-42441Y-9300D01*
D02*
G37*
G36*
X-51641Y-9800D02*
X-52159D01*
X-52636Y-9998D01*
X-53002Y-10364D01*
X-53200Y-10841D01*
Y-11359D01*
X-53002Y-11836D01*
X-52636Y-12202D01*
X-52159Y-12400D01*
X-51641D01*
X-51164Y-12202D01*
X-50798Y-11836D01*
X-50600Y-11359D01*
Y-10841D01*
X-50798Y-10364D01*
X-51164Y-9998D01*
X-51641Y-9800D01*
D02*
G37*
G36*
X-22241Y-18000D02*
X-22759D01*
X-23236Y-18198D01*
X-23602Y-18564D01*
X-23800Y-19041D01*
Y-19559D01*
X-23602Y-20036D01*
X-23236Y-20402D01*
X-22759Y-20600D01*
X-22241D01*
X-21764Y-20402D01*
X-21398Y-20036D01*
X-21200Y-19559D01*
Y-19041D01*
X-21398Y-18564D01*
X-21764Y-18198D01*
X-22241Y-18000D01*
D02*
G37*
%LPD*%
G36*
X73548Y2774D02*
X73411Y2610D01*
X73355Y2531D01*
X73308Y2453D01*
X73269Y2376D01*
X73239Y2301D01*
X73217Y2227D01*
X73204Y2154D01*
X73200Y2083D01*
X72800D01*
X72796Y2154D01*
X72783Y2227D01*
X72761Y2301D01*
X72731Y2376D01*
X72693Y2453D01*
X72645Y2531D01*
X72589Y2610D01*
X72525Y2691D01*
X72452Y2774D01*
X72370Y2857D01*
X73630D01*
X73548Y2774D01*
D02*
G37*
G36*
X50726Y-3452D02*
X50889Y-3589D01*
X50969Y-3645D01*
X51047Y-3692D01*
X51124Y-3731D01*
X51199Y-3761D01*
X51274Y-3783D01*
X51346Y-3796D01*
X51417Y-3800D01*
Y-4200D01*
X51346Y-4204D01*
X51274Y-4217D01*
X51199Y-4239D01*
X51124Y-4269D01*
X51047Y-4307D01*
X50969Y-4355D01*
X50889Y-4411D01*
X50809Y-4475D01*
X50726Y-4548D01*
X50643Y-4630D01*
Y-3370D01*
X50726Y-3452D01*
D02*
G37*
G36*
X72991Y-5600D02*
X72874Y-5601D01*
X72662Y-5619D01*
X72566Y-5636D01*
X72477Y-5658D01*
X72395Y-5685D01*
X72321Y-5717D01*
X72253Y-5754D01*
X72193Y-5796D01*
X72139Y-5844D01*
X71856Y-5561D01*
X71904Y-5507D01*
X71946Y-5447D01*
X71983Y-5379D01*
X72015Y-5305D01*
X72042Y-5223D01*
X72064Y-5134D01*
X72081Y-5039D01*
X72092Y-4936D01*
X72099Y-4826D01*
X72100Y-4709D01*
X72991Y-5600D01*
D02*
G37*
G36*
X50726Y-6652D02*
X50889Y-6789D01*
X50969Y-6845D01*
X51047Y-6893D01*
X51124Y-6931D01*
X51199Y-6961D01*
X51274Y-6983D01*
X51346Y-6996D01*
X51417Y-7000D01*
Y-7400D01*
X51346Y-7404D01*
X51274Y-7417D01*
X51199Y-7439D01*
X51124Y-7469D01*
X51047Y-7508D01*
X50969Y-7555D01*
X50889Y-7611D01*
X50809Y-7675D01*
X50726Y-7748D01*
X50643Y-7830D01*
Y-6570D01*
X50726Y-6652D01*
D02*
G37*
G36*
X-9897Y-44147D02*
X-9886Y-44189D01*
X-9868Y-44235D01*
X-9843Y-44284D01*
X-9810Y-44337D01*
X-9770Y-44394D01*
X-9667Y-44518D01*
X-9605Y-44586D01*
X-9535Y-44657D01*
X-10243Y-45364D01*
X-10314Y-45295D01*
X-10506Y-45130D01*
X-10563Y-45090D01*
X-10616Y-45057D01*
X-10665Y-45032D01*
X-10711Y-45014D01*
X-10753Y-45003D01*
X-10791Y-45000D01*
X-9900Y-44109D01*
X-9897Y-44147D01*
D02*
G37*
G36*
X-10809Y-45000D02*
X-10847Y-45003D01*
X-10889Y-45014D01*
X-10935Y-45032D01*
X-10984Y-45057D01*
X-11037Y-45090D01*
X-11094Y-45130D01*
X-11218Y-45233D01*
X-11286Y-45295D01*
X-11296Y-45304D01*
X-11305Y-45314D01*
X-11470Y-45506D01*
X-11510Y-45563D01*
X-11543Y-45616D01*
X-11568Y-45665D01*
X-11586Y-45711D01*
X-11597Y-45753D01*
X-11600Y-45791D01*
X-12491Y-44900D01*
X-12453Y-44897D01*
X-12411Y-44886D01*
X-12365Y-44868D01*
X-12316Y-44843D01*
X-12263Y-44810D01*
X-12206Y-44770D01*
X-12082Y-44667D01*
X-12014Y-44605D01*
X-12004Y-44596D01*
X-11995Y-44586D01*
X-11830Y-44394D01*
X-11790Y-44337D01*
X-11757Y-44284D01*
X-11732Y-44235D01*
X-11714Y-44189D01*
X-11703Y-44147D01*
X-11700Y-44109D01*
X-10809Y-45000D01*
D02*
G37*
G36*
X7857Y-51730D02*
X7828Y-51705D01*
X7791Y-51683D01*
X7746Y-51664D01*
X7693Y-51647D01*
X7632Y-51632D01*
X7564Y-51621D01*
X7403Y-51605D01*
X7311Y-51601D01*
X7212Y-51600D01*
Y-50600D01*
X7311Y-50599D01*
X7564Y-50579D01*
X7632Y-50568D01*
X7693Y-50553D01*
X7746Y-50536D01*
X7791Y-50517D01*
X7828Y-50495D01*
X7857Y-50470D01*
Y-51730D01*
D02*
G37*
D10*
X-43600Y-27800D02*
Y-22100D01*
X-52300Y-17200D02*
X-48500D01*
X-43600Y-22100D01*
X-71200Y400D02*
X-68600Y-2200D01*
X-71200Y400D02*
Y5800D01*
X-62200Y14800D01*
X-65000Y15960D02*
Y27400D01*
X-74700Y-5700D02*
Y6260D01*
X-73300Y-5120D02*
Y5680D01*
X-74700Y6260D02*
X-65000Y15960D01*
X-62200Y14800D02*
Y23200D01*
X-73300Y5680D02*
X-63600Y15380D01*
Y24800D01*
X-65980Y-11600D02*
X-60780Y-16800D01*
X-74700Y-5700D02*
X-68800Y-11600D01*
X-65980D01*
X-58500Y26900D02*
X-56600D01*
X-62200Y23200D02*
X-58500Y26900D01*
X-63600Y24800D02*
X-57400Y31000D01*
X-65000Y27400D02*
X-59900Y32500D01*
X-68600Y-3800D02*
Y-2200D01*
Y-3800D02*
X-66600Y-5800D01*
X-41573D01*
X-32673Y-14700D01*
X-30900D01*
X-28200Y-12000D01*
Y-4800D01*
X-24800Y-1400D01*
X-14500D01*
X-57400Y31000D02*
Y33800D01*
X-60000Y36400D02*
X-57400Y33800D01*
X-60780Y-16800D02*
X-54900D01*
X-73300Y-5120D02*
X-68420Y-10000D01*
X-65600D01*
X-60200Y-15400D02*
X-54100D01*
X-65600Y-10000D02*
X-60200Y-15400D01*
X-53100Y-18600D02*
X-49200D01*
X-54900Y-16800D02*
X-53100Y-18600D01*
X-54100Y-15400D02*
X-52300Y-17200D01*
X-49200Y-18600D02*
X-45000Y-22800D01*
Y-29100D02*
X-40547Y-33553D01*
X-43600Y-27800D02*
X-39600Y-31800D01*
X-45000Y-29100D02*
Y-22800D01*
X-39600Y-31800D02*
X-38600D01*
X-2800Y-46700D02*
X1600Y-51100D01*
X-8200Y-46700D02*
X-2800D01*
X1600Y-51100D02*
X8500D01*
X10200Y-12800D02*
X12700Y-10300D01*
X-10800Y-12800D02*
X10200D01*
X12700Y-10300D02*
Y5600D01*
X10800Y7500D02*
X12700Y5600D01*
X-13100Y-13120D02*
Y-9200D01*
X-11400Y-7500D01*
X-16900Y-14840D02*
X-14500Y-12440D01*
Y-1400D01*
X-10600Y2500D01*
X-15500Y-15520D02*
X-13100Y-13120D01*
X-22820Y-31800D02*
X-16900Y-25880D01*
Y-14840D01*
X-21660Y-34600D02*
X-14100Y-27040D01*
Y-16100D02*
X-10800Y-12800D01*
X-14100Y-27040D02*
Y-16100D01*
X-15500Y-26460D02*
Y-15520D01*
X-22240Y-33200D02*
X-15500Y-26460D01*
X-23400Y-30400D02*
X-18300Y-25300D01*
Y-4200D01*
X-34806Y-31800D02*
X-22820D01*
X-32600Y-33200D02*
X-22240D01*
X-31000Y-34600D02*
X-21660D01*
X-37200Y-30400D02*
X-23400D01*
X-10800Y-44100D02*
X-8200Y-46700D01*
X-12500Y-45800D02*
X-10800Y-44100D01*
X-34620Y-38221D02*
X-31000Y-34600D01*
X-34620Y-41200D02*
Y-38221D01*
X-38000Y-36100D02*
X-35500D01*
X-32600Y-33200D01*
X-38600Y-31800D02*
X-37200Y-30400D01*
X-36600Y-33400D02*
X-36406D01*
X-34806Y-31800D01*
X-40547Y-33553D02*
X-38000Y-36100D01*
D11*
X50000Y-4000D02*
X69700D01*
X73000Y-700D02*
Y3500D01*
X69700Y-4000D02*
X73000Y-700D01*
X70500Y-7200D02*
X73000Y-4700D01*
X50000Y-7200D02*
X70500D01*
X-75200Y-65800D02*
Y-56700D01*
X-78400Y-53500D02*
X-75200Y-56700D01*
X-75500Y-53000D02*
Y-51200D01*
X-71366Y-47066D01*
X-75500Y-53000D02*
X-73500Y-55000D01*
X-71366Y-47066D02*
Y-45734D01*
X-73500Y-52000D02*
X-64100Y-42600D01*
X-62100D01*
X15800Y300D02*
X25300Y-9200D01*
X34600D01*
X35800Y-8000D01*
Y22900D01*
X30100Y28600D02*
X35800Y22900D01*
X30100Y28600D02*
Y31900D01*
X26900Y35100D02*
X30100Y31900D01*
X18500Y35100D02*
X26900D01*
X16600Y37000D02*
X18500Y35100D01*
X0Y37000D02*
X16600D01*
X-75200Y-65800D02*
X-67700Y-73300D01*
X-54900D01*
X-49700Y-68100D01*
Y-23300D01*
X-51000Y-22000D02*
X-49700Y-23300D01*
X-58500Y-41000D02*
X-57400D01*
X-53500Y-37100D01*
X-57000Y-37000D02*
X-55400Y-35400D01*
Y-30900D01*
X-53500Y-29000D02*
Y-21300D01*
X-55400Y-30900D02*
X-53500Y-29000D01*
X-55784Y-19016D02*
X-53500Y-21300D01*
X-35300Y-8400D02*
X-14400Y12500D01*
X-31800Y-6100D02*
X-14000Y11700D01*
X10400D01*
X29300Y-7200D01*
X-14400Y12500D02*
X12700D01*
X29300Y-4100D01*
X-31800Y-12300D02*
Y-6100D01*
X-53500Y-37100D02*
Y-33600D01*
X-51500Y-31600D01*
D14*
X-66600Y-2500D02*
X-64700Y-600D01*
Y5600D02*
X-61600Y8700D01*
X-64700Y-600D02*
Y5600D01*
X28100Y54000D02*
X28300D01*
X37100Y45200D01*
X-2000Y-65500D02*
X-1000Y-64500D01*
X29800D01*
X6100Y-62600D02*
X7000Y-63500D01*
X2069Y-62600D02*
X6100D01*
X7000Y-63500D02*
X29386D01*
X-35700Y26800D02*
X-21300D01*
X-53800Y8700D02*
X-35700Y26800D01*
X-21300D02*
X-14700Y33400D01*
X-61600Y8700D02*
X-53800D01*
X-14700Y33400D02*
X-6500D01*
X0Y39900D01*
Y43500D01*
X37100Y-55786D02*
Y45200D01*
X38100Y-56200D02*
Y47700D01*
X29800Y-64500D02*
X38100Y-56200D01*
X29386Y-63500D02*
X37100Y-55786D01*
X32100Y53700D02*
X38100Y47700D01*
D50*
X240Y-38640D02*
Y-33540D01*
X28500Y-18700D02*
Y-16400D01*
Y-21200D02*
Y-18700D01*
Y-24900D02*
Y-21200D01*
X26100Y-27300D02*
X28500Y-24900D01*
X4200Y-27300D02*
X26100D01*
X240Y-31260D02*
X4200Y-27300D01*
X240Y-33540D02*
Y-31260D01*
D54*
X-61024Y-61024D02*
D03*
X61024D02*
D03*
Y61024D02*
D03*
X-61024D02*
D03*
D55*
X8500Y-24100D02*
D03*
X5500D02*
D03*
X-44300Y26900D02*
D03*
X-44100Y31200D02*
D03*
X-53700Y30300D02*
D03*
X-53800Y23500D02*
D03*
X-57000D02*
D03*
X-56300Y12500D02*
D03*
X-59000Y17500D02*
D03*
X-56600Y26900D02*
D03*
X-60000Y36400D02*
D03*
X-59900Y32500D02*
D03*
X73000Y-4700D02*
D03*
Y3500D02*
D03*
X50000Y-7200D02*
D03*
Y-4000D02*
D03*
X28100Y54000D02*
D03*
X-2000Y-65500D02*
D03*
X1969Y-62500D02*
D03*
X-28000Y-63000D02*
D03*
X-73500Y-55000D02*
D03*
Y-52000D02*
D03*
X-71366Y-45734D02*
D03*
X-70800Y-3100D02*
D03*
X-66600Y-2500D02*
D03*
X0Y43500D02*
D03*
X15800Y300D02*
D03*
X0Y37000D02*
D03*
X-51000Y-22000D02*
D03*
X-67500Y100D02*
D03*
X-62100Y-42600D02*
D03*
X-78400Y-53500D02*
D03*
X-77000Y13000D02*
D03*
Y24000D02*
D03*
Y30000D02*
D03*
Y36000D02*
D03*
Y-21000D02*
D03*
Y-37500D02*
D03*
Y-34000D02*
D03*
Y-30500D02*
D03*
X-57500Y5000D02*
D03*
X-41000Y2500D02*
D03*
X-45000Y5000D02*
D03*
X-41000D02*
D03*
X-33500Y5500D02*
D03*
Y2000D02*
D03*
X-34500Y-59000D02*
D03*
X-37500D02*
D03*
X27000Y-49500D02*
D03*
X32500Y-37500D02*
D03*
Y-34500D02*
D03*
Y-31500D02*
D03*
Y-28500D02*
D03*
Y-25500D02*
D03*
Y-22500D02*
D03*
Y-19500D02*
D03*
Y-16500D02*
D03*
X15500Y-13000D02*
D03*
X18000D02*
D03*
X20500D02*
D03*
X23000D02*
D03*
X25500D02*
D03*
Y-15500D02*
D03*
X23000D02*
D03*
X-13500Y5500D02*
D03*
Y9500D02*
D03*
X-11000D02*
D03*
Y5500D02*
D03*
X-56500Y-42500D02*
D03*
X-58500Y-41000D02*
D03*
X-57000Y-37000D02*
D03*
X-3500Y-38000D02*
D03*
Y-35000D02*
D03*
X-5000Y-23000D02*
D03*
Y-20000D02*
D03*
X8500Y-21000D02*
D03*
X5500D02*
D03*
X17000Y-35000D02*
D03*
Y-32500D02*
D03*
X-2000Y-41500D02*
D03*
X-5000D02*
D03*
X-28500Y-43000D02*
D03*
X-27000Y-40500D02*
D03*
Y-38000D02*
D03*
X-23500D02*
D03*
X-66500Y-15500D02*
D03*
X-66000Y-22000D02*
D03*
X-55500Y-28000D02*
D03*
Y-25500D02*
D03*
Y-23000D02*
D03*
X-38000Y-17000D02*
D03*
X-40500D02*
D03*
X-35000Y-16500D02*
D03*
X-54300Y-41000D02*
D03*
X-52100Y-42400D02*
D03*
X10800Y7500D02*
D03*
X-11400Y-7500D02*
D03*
X-18300Y-4200D02*
D03*
X-31800Y-12300D02*
D03*
X-10600Y2500D02*
D03*
X32100Y53700D02*
D03*
X29300Y-4100D02*
D03*
Y-7200D02*
D03*
X-35300Y-8400D02*
D03*
X8500Y-51100D02*
D03*
X-12500Y-45800D02*
D03*
X-10800Y-44100D02*
D03*
X-51500Y-31600D02*
D03*
X28500Y-21200D02*
D03*
Y-18700D02*
D03*
Y-16400D02*
D03*
X300Y-38700D02*
D03*
Y-36200D02*
D03*
X240Y-33540D02*
D03*
X-40547Y-33553D02*
D03*
X-36600Y-33400D02*
D03*
X-34620Y-41200D02*
D03*
X-38600Y-31800D02*
D03*
X-50400Y4800D02*
D03*
X-54300D02*
D03*
X-52358Y658D02*
D03*
X-56500Y700D02*
D03*
X14500Y31000D02*
D03*
X9500D02*
D03*
X-9500D02*
D03*
X-14500D02*
D03*
X-55784Y-19016D02*
D03*
D56*
X32000Y16000D02*
D03*
X29000D02*
D03*
X26000D02*
D03*
X23000D02*
D03*
X20000D02*
D03*
X17000D02*
D03*
X14000D02*
D03*
X11000D02*
D03*
X8000D02*
D03*
X5000D02*
D03*
X2000D02*
D03*
X-1000D02*
D03*
X-4000D02*
D03*
X-7000D02*
D03*
X-10000D02*
D03*
X-13000D02*
D03*
X-16000D02*
D03*
X-19000D02*
D03*
X73000Y-15000D02*
D03*
X76000D02*
D03*
X70000D02*
D03*
Y-12000D02*
D03*
X73000D02*
D03*
X76000D02*
D03*
X73000Y-18000D02*
D03*
X76000D02*
D03*
X70000D02*
D03*
X73000Y15000D02*
D03*
Y12000D02*
D03*
Y18000D02*
D03*
X76000D02*
D03*
Y15000D02*
D03*
Y12000D02*
D03*
X70000Y15000D02*
D03*
Y12000D02*
D03*
Y18000D02*
D03*
X-30500Y63000D02*
D03*
Y60000D02*
D03*
Y66000D02*
D03*
X-27500D02*
D03*
Y63000D02*
D03*
Y60000D02*
D03*
X-33500Y63000D02*
D03*
Y60000D02*
D03*
Y66000D02*
D03*
X-39500Y63000D02*
D03*
Y60000D02*
D03*
Y66000D02*
D03*
X-36500D02*
D03*
Y63000D02*
D03*
Y60000D02*
D03*
X-42500Y63000D02*
D03*
Y60000D02*
D03*
Y66000D02*
D03*
X-39592Y-21500D02*
D03*
X-36546D02*
D03*
X-33500D02*
D03*
Y-24500D02*
D03*
X-36546D02*
D03*
X-39592Y-24566D02*
D03*
Y-27500D02*
D03*
X-36546D02*
D03*
X-33500D02*
D03*
X33100Y44400D02*
D03*
Y41400D02*
D03*
Y38400D02*
D03*
Y35400D02*
D03*
Y32400D02*
D03*
Y29400D02*
D03*
X-34200Y52000D02*
D03*
Y49000D02*
D03*
Y46000D02*
D03*
Y43000D02*
D03*
Y40000D02*
D03*
Y37000D02*
D03*
X12000Y43000D02*
D03*
X9000D02*
D03*
X15000D02*
D03*
Y40000D02*
D03*
X12000D02*
D03*
X9000D02*
D03*
X12000Y46000D02*
D03*
X9000D02*
D03*
X15000D02*
D03*
X-9000D02*
D03*
X-15000D02*
D03*
X-12000D02*
D03*
X-15000Y40000D02*
D03*
X-12000D02*
D03*
X-9000D02*
D03*
Y43000D02*
D03*
X-15000D02*
D03*
X-12000D02*
D03*
X43000Y-67000D02*
D03*
X40000D02*
D03*
X46000D02*
D03*
X43000Y-70000D02*
D03*
X40000D02*
D03*
X46000D02*
D03*
X43000Y-73000D02*
D03*
X40000D02*
D03*
X46000D02*
D03*
X34000Y-78500D02*
D03*
X31000D02*
D03*
X37000D02*
D03*
X25000D02*
D03*
X22000D02*
D03*
X28000D02*
D03*
X19000Y-75500D02*
D03*
Y-78500D02*
D03*
X-14000Y-72000D02*
D03*
X-20000D02*
D03*
X-17000D02*
D03*
X-14000Y-69000D02*
D03*
X-20000D02*
D03*
X-17000D02*
D03*
X-14000Y-66000D02*
D03*
X-20000D02*
D03*
X-17000D02*
D03*
D57*
Y-74000D02*
X-300D01*
X-17000Y-69000D02*
Y-66000D01*
Y-74000D02*
Y-72000D01*
Y-69000D01*
X4200Y-69500D02*
X43000D01*
X-300Y-74000D02*
X4200Y-69500D01*
X43000D02*
Y-67000D01*
Y-73000D02*
Y-70000D01*
Y-69500D01*
X45500D01*
D58*
X-19750Y25750D02*
X-14500Y31000D01*
X-48200Y8133D02*
X-33883Y22450D01*
X5950D02*
X14500Y31000D01*
X-50227Y7662D02*
X-34339Y23550D01*
X2050D01*
X-34794Y24650D02*
X-15850D01*
X-54327Y6673D02*
X-35250Y25750D01*
X-52400Y7044D02*
X-34794Y24650D01*
X-35250Y25750D02*
X-19750D01*
X-33883Y22450D02*
X5950D01*
X2050Y23550D02*
X9500Y31000D01*
X-15850Y24650D02*
X-9500Y31000D01*
X-50227Y4973D02*
Y7662D01*
X-52400Y3600D02*
Y7044D01*
X-50400Y4800D02*
X-50227Y4973D01*
X-54327Y4827D02*
Y6673D01*
X-48200Y3600D02*
Y8133D01*
X-49500Y2300D02*
X-48200Y3600D01*
X-53400Y2600D02*
X-52400Y3600D01*
X-54327Y4827D02*
X-54300Y4800D01*
X-52358Y658D02*
X-50717Y2300D01*
X-49500D01*
X-54600Y2600D02*
X-53400D01*
X-56500Y700D02*
X-54600Y2600D01*
M02*
