M48
;Layer_Color=9474304
;FILE_FORMAT=2:5
INCH,TZ
;TYPE=PLATED
T1F00S00C0.01000
T2F00S00C0.01575
T3F00S00C0.12205
%
T01
X-78400Y-53500
X-73500Y-55000
Y-52000
X-71366Y-45734
X-77000Y-37500
Y-34000
Y-30500
Y-21000
X-70800Y-3100
X-77000Y13000
Y24000
Y30000
Y36000
X-60000Y36400
X-59900Y40300
Y32500
X-53700Y30300
X-56600Y26900
X-57000Y23500
X-53800
X-59000Y17500
X-56300Y12500
X-57500Y5000
X-54300Y4800
X-50400
X-45000Y5000
X-41000
Y2500
X-33500Y2000
Y5500
X-35300Y-8400
X-31800Y-12300
X-35000Y-16500
X-38000Y-17000
X-40500
X-42700Y-10600
X-51900Y-11100
X-51400Y-14500
X-56300Y-13100
X-55784Y-19016
X-55500Y-23000
Y-25500
Y-28000
X-51500Y-31600
X-51000Y-22000
X-66000
X-66500Y-15500
X-66600Y-2500
X-67500Y100
X-60500Y3000
X-56500Y700
X-52358Y658
X-44300Y26900
X-44100Y31200
X-14500Y31000
X-9500
X0Y37000
Y43500
X9500Y31000
X14500
X10800Y7500
X15800Y300
X15500Y-13000
X18000
X20500
X23000
X25500
Y-15500
X23000
X19900Y-17400
X18000Y-16300
X15800
X19800Y-22100
X22454Y-21500
X28500Y-21200
Y-18700
Y-16400
X32500Y-16500
Y-19500
Y-22500
Y-25500
Y-28500
Y-31500
Y-34500
Y-37500
X27000Y-49500
X27300Y-52900
X29500Y-52300
X24000Y-57500
X8500Y-51100
X2500Y-47500
X-2000Y-41500
X-5000
X-3500Y-38000
Y-35000
X300Y-36200
Y-38700
X240Y-33540
X-11500Y-31900
X-10800Y-44100
X-12500Y-45800
X-28500Y-43000
X-27000Y-40500
Y-38000
X-23500
X-34620Y-41200
X-39700Y-41600
X-37700Y-43700
X-36600Y-33400
X-38600Y-31800
X-40547Y-33553
X-57000Y-37000
X-58500Y-41000
X-56500Y-42500
X-54300Y-41000
X-52100Y-42400
X-62100Y-42600
X-37500Y-59000
X-34500
X-28000Y-63000
X-2000Y-65500
X1969Y-62500
X5500Y-24100
X8500
Y-21000
X5500
X-5000Y-20000
Y-23000
X-22500Y-19300
X-18300Y-4200
X-11400Y-7500
X-10600Y2500
X-11000Y5500
X-13500
Y9500
X-11000
X29300Y-4100
Y-7200
X50000
Y-4000
X73000Y-4700
Y3500
X32100Y53700
X28100Y54000
X17000Y-32500
Y-35000
T02
X-20000Y-72000
X-17000
X-14000
Y-69000
X-17000
X-20000
Y-66000
X-17000
X-14000
X19000Y-75500
Y-78500
X22000
X25000
X28000
X31000
X34000
X37000
X40000Y-73000
Y-70000
Y-67000
X43000
X46000
Y-70000
X43000
Y-73000
X46000
X70000Y-18000
Y-15000
X73000
X76000
Y-12000
X73000
X70000
X73000Y-18000
X76000
Y12000
X73000
Y15000
Y18000
X76000
Y15000
X70000
Y12000
Y18000
X32000Y16000
X29000
X26000
X23000
X20000
X17000
X14000
X11000
X8000
X5000
X2000
X-1000
X-4000
X-7000
X-10000
X-13000
X-16000
X-19000
X-19500Y38000
Y41000
Y44000
X-15000Y43000
Y46000
X-12000
X-9000
Y43000
Y40000
X-12000
X-15000
X-12000Y43000
X-4200Y42100
Y45100
Y39100
X4300
Y42100
Y45100
X9000Y46000
Y43000
X12000
X15000
Y40000
X12000
X9000
X12000Y46000
X15000
X19300Y44700
Y41700
Y38700
X33100Y38400
Y41400
Y44400
Y35400
Y32400
Y29400
X4500Y52100
Y55100
X1500
Y52100
X-19500
X-22500
Y55100
X-19500
X-27500Y60000
X-30500
Y63000
Y66000
X-27500
Y63000
X-33500
Y60000
X-36500
X-39500
Y63000
Y66000
X-36500
X-33500
X-36500Y63000
X-42500
Y60000
Y66000
X-34200Y52000
Y49000
Y46000
Y43000
Y40000
Y37000
X-33500Y-21500
Y-24500
Y-27500
X-36546
Y-24500
Y-21500
X-39592
Y-24566
Y-27500
T03
X-61024Y-61024
X61024
Y61024
X-61024
M30
