G04*
G04 #@! TF.GenerationSoftware,Altium Limited,Altium Designer,22.0.2 (36)*
G04*
G04 Layer_Color=8388736*
%FSLAX25Y25*%
%MOIN*%
G70*
G04*
G04 #@! TF.SameCoordinates,B24A499B-10B0-4348-9313-877DE5855C24*
G04*
G04*
G04 #@! TF.FilePolarity,Positive*
G04*
G01*
G75*
%ADD86C,0.00200*%
G36*
X-15200Y-45342D02*
X-16106D01*
Y-43955D01*
X-19594D01*
X-18937Y-45166D01*
X-19770Y-45499D01*
X-20676Y-43769D01*
Y-42909D01*
X-16106D01*
Y-41716D01*
X-15200D01*
Y-45342D01*
D02*
G37*
G36*
X-17762Y-46202D02*
X-17605Y-46211D01*
X-17429Y-46230D01*
X-17235Y-46258D01*
X-17031Y-46295D01*
X-16837Y-46350D01*
X-16828D01*
X-16819Y-46360D01*
X-16791Y-46369D01*
X-16754Y-46378D01*
X-16652Y-46415D01*
X-16532Y-46470D01*
X-16393Y-46535D01*
X-16245Y-46619D01*
X-16097Y-46720D01*
X-15949Y-46841D01*
X-15931Y-46859D01*
X-15894Y-46896D01*
X-15829Y-46970D01*
X-15746Y-47072D01*
X-15653Y-47192D01*
X-15561Y-47340D01*
X-15477Y-47506D01*
X-15394Y-47692D01*
Y-47701D01*
X-15385Y-47710D01*
X-15376Y-47747D01*
X-15367Y-47784D01*
X-15348Y-47830D01*
X-15329Y-47886D01*
X-15311Y-47960D01*
X-15302Y-48034D01*
X-15265Y-48219D01*
X-15228Y-48422D01*
X-15209Y-48663D01*
X-15200Y-48922D01*
Y-50300D01*
X-20639D01*
Y-48533D01*
X-20630Y-48469D01*
X-20620Y-48320D01*
X-20602Y-48154D01*
X-20574Y-47969D01*
X-20537Y-47784D01*
X-20482Y-47608D01*
Y-47599D01*
X-20472Y-47590D01*
X-20454Y-47525D01*
X-20417Y-47442D01*
X-20361Y-47331D01*
X-20297Y-47210D01*
X-20213Y-47081D01*
X-20112Y-46942D01*
X-20001Y-46822D01*
X-19982Y-46804D01*
X-19945Y-46766D01*
X-19871Y-46711D01*
X-19779Y-46646D01*
X-19658Y-46572D01*
X-19520Y-46489D01*
X-19353Y-46415D01*
X-19177Y-46350D01*
X-19168D01*
X-19159Y-46341D01*
X-19131Y-46332D01*
X-19085Y-46323D01*
X-19039Y-46313D01*
X-18983Y-46304D01*
X-18845Y-46267D01*
X-18669Y-46239D01*
X-18465Y-46221D01*
X-18234Y-46202D01*
X-17984Y-46193D01*
X-17975D01*
X-17956D01*
X-17920D01*
X-17883D01*
X-17827D01*
X-17762Y-46202D01*
D02*
G37*
%LPC*%
G36*
X-17744Y-47294D02*
X-17920D01*
X-17929D01*
X-17938D01*
X-17993D01*
X-18077D01*
X-18179Y-47303D01*
X-18299Y-47312D01*
X-18428Y-47322D01*
X-18697Y-47368D01*
X-18715D01*
X-18752Y-47377D01*
X-18817Y-47396D01*
X-18900Y-47423D01*
X-18993Y-47460D01*
X-19094Y-47497D01*
X-19196Y-47553D01*
X-19288Y-47608D01*
X-19298Y-47618D01*
X-19326Y-47636D01*
X-19372Y-47673D01*
X-19427Y-47728D01*
X-19483Y-47793D01*
X-19538Y-47867D01*
X-19603Y-47960D01*
X-19649Y-48061D01*
X-19658Y-48071D01*
X-19668Y-48108D01*
X-19686Y-48173D01*
X-19714Y-48256D01*
X-19742Y-48348D01*
X-19760Y-48469D01*
X-19770Y-48607D01*
X-19779Y-48755D01*
Y-49273D01*
X-16060D01*
Y-48755D01*
X-16070Y-48709D01*
Y-48644D01*
X-16088Y-48570D01*
X-16116Y-48404D01*
X-16171Y-48219D01*
X-16245Y-48034D01*
X-16356Y-47849D01*
X-16430Y-47765D01*
X-16504Y-47692D01*
X-16513Y-47682D01*
X-16523Y-47673D01*
X-16551Y-47655D01*
X-16588Y-47627D01*
X-16643Y-47599D01*
X-16699Y-47562D01*
X-16772Y-47525D01*
X-16856Y-47488D01*
X-16948Y-47451D01*
X-17050Y-47423D01*
X-17161Y-47386D01*
X-17290Y-47359D01*
X-17429Y-47331D01*
X-17586Y-47312D01*
X-17744Y-47294D01*
D02*
G37*
%LPD*%
D86*
X-52300Y14200D02*
Y21200D01*
X-55700Y14200D02*
X-52300D01*
X-55700Y21200D02*
X-52300D01*
X-55700Y14200D02*
Y21200D01*
X-71000Y-800D02*
X-64000D01*
X-71000Y-4200D02*
Y-800D01*
X-64000Y-4200D02*
Y-800D01*
X-71000Y-4200D02*
X-64000D01*
X-1700Y36500D02*
Y43500D01*
Y36500D02*
X1700D01*
X-1700Y43500D02*
X1700D01*
Y36500D02*
Y43500D01*
X-1700D02*
Y50500D01*
Y43500D02*
X1700D01*
X-1700Y50500D02*
X1700D01*
Y43500D02*
Y50500D01*
X-18500Y-29700D02*
X-11500D01*
Y-26300D01*
X-18500Y-29700D02*
Y-26300D01*
X-11500D01*
X-27200Y-40000D02*
Y-33000D01*
Y-40000D02*
X-23800D01*
X-27200Y-33000D02*
X-23800D01*
Y-40000D02*
Y-33000D01*
X-71000Y-11300D02*
X-64000D01*
X-71000Y-14700D02*
Y-11300D01*
X-64000Y-14700D02*
Y-11300D01*
X-71000Y-14700D02*
X-64000D01*
X-63700Y-40000D02*
Y-33000D01*
Y-40000D02*
X-60300D01*
X-63700Y-33000D02*
X-60300D01*
Y-40000D02*
Y-33000D01*
X-14500Y28700D02*
X-7500D01*
X-14500Y25300D02*
Y28700D01*
X-7500Y25300D02*
Y28700D01*
X-14500Y25300D02*
X-7500D01*
X-28500Y28700D02*
X-21500D01*
X-28500Y25300D02*
Y28700D01*
X-21500Y25300D02*
Y28700D01*
X-28500Y25300D02*
X-21500D01*
X14500Y28700D02*
X21500D01*
X14500Y25300D02*
Y28700D01*
X21500Y25300D02*
Y28700D01*
X14500Y25300D02*
X21500D01*
X500Y28700D02*
X7500D01*
X500Y25300D02*
Y28700D01*
X7500Y25300D02*
Y28700D01*
X500Y25300D02*
X7500D01*
X-7500D02*
X-500D01*
Y28700D01*
X-7500Y25300D02*
Y28700D01*
X-500D01*
X-21500Y25300D02*
X-14500D01*
Y28700D01*
X-21500Y25300D02*
Y28700D01*
X-14500D01*
X21500Y25300D02*
X28500D01*
Y28700D01*
X21500Y25300D02*
Y28700D01*
X28500D01*
X7500D02*
X14500D01*
X7500Y25300D02*
Y28700D01*
X14500Y25300D02*
Y28700D01*
X7500Y25300D02*
X14500D01*
X66500Y-25500D02*
Y-4500D01*
X79500D01*
X66500Y-25500D02*
X79500D01*
Y-4500D01*
Y4500D02*
Y25500D01*
X66500Y4500D02*
X79500D01*
X66500Y25500D02*
X79500D01*
X66500Y4500D02*
Y25500D01*
X-18500Y-22800D02*
X-11500D01*
X-18500Y-26200D02*
Y-22800D01*
X-11500Y-26200D02*
Y-22800D01*
X-18500Y-26200D02*
X-11500D01*
X-71000Y-33200D02*
X-64000D01*
Y-29800D01*
X-71000Y-33200D02*
Y-29800D01*
X-64000D01*
X3800Y-23500D02*
Y-16500D01*
Y-23500D02*
X7200D01*
X3800Y-16500D02*
X7200D01*
Y-23500D02*
Y-16500D01*
X7300Y-23500D02*
Y-16500D01*
Y-23500D02*
X10700D01*
X7300Y-16500D02*
X10700D01*
Y-23500D02*
Y-16500D01*
X-18500Y-22700D02*
X-11500D01*
Y-19300D01*
X-18500Y-22700D02*
Y-19300D01*
X-11500D01*
X-71000Y-40200D02*
X-64000D01*
Y-36800D01*
X-71000Y-40200D02*
Y-36800D01*
X-64000D01*
X18500Y-36300D02*
X25500D01*
X18500Y-39700D02*
Y-36300D01*
X25500Y-39700D02*
Y-36300D01*
X18500Y-39700D02*
X25500D01*
X18500Y-54800D02*
X25500D01*
X18500Y-58200D02*
Y-54800D01*
X25500Y-58200D02*
Y-54800D01*
X18500Y-58200D02*
X25500D01*
X-71000Y-33300D02*
X-64000D01*
X-71000Y-36700D02*
Y-33300D01*
X-64000Y-36700D02*
Y-33300D01*
X-71000Y-36700D02*
X-64000D01*
X-3500Y-19200D02*
X3500D01*
Y-15800D01*
X-3500Y-19200D02*
Y-15800D01*
X3500D01*
X-3500Y-22700D02*
X3500D01*
Y-19300D01*
X-3500Y-22700D02*
Y-19300D01*
X3500D01*
X-11000Y-22700D02*
X-4000D01*
Y-19300D01*
X-11000Y-22700D02*
Y-19300D01*
X-4000D01*
X7200Y-31500D02*
Y-24500D01*
X3800D02*
X7200D01*
X3800Y-31500D02*
X7200D01*
X3800D02*
Y-24500D01*
X10700Y-31500D02*
Y-24500D01*
X7300D02*
X10700D01*
X7300Y-31500D02*
X10700D01*
X7300D02*
Y-24500D01*
X25700Y-27500D02*
Y-20500D01*
X22300D02*
X25700D01*
X22300Y-27500D02*
X25700D01*
X22300D02*
Y-20500D01*
X25700Y-36000D02*
Y-29000D01*
X22300D02*
X25700D01*
X22300Y-36000D02*
X25700D01*
X22300D02*
Y-29000D01*
X18500Y-20200D02*
X25500D01*
Y-16800D01*
X18500Y-20200D02*
Y-16800D01*
X25500D01*
X11000Y-20200D02*
X18000D01*
Y-16800D01*
X11000Y-20200D02*
Y-16800D01*
X18000D01*
X7300Y-39500D02*
Y-32500D01*
Y-39500D02*
X10700D01*
X7300Y-32500D02*
X10700D01*
Y-39500D02*
Y-32500D01*
X7200Y-39500D02*
Y-32500D01*
X3800D02*
X7200D01*
X3800Y-39500D02*
X7200D01*
X3800D02*
Y-32500D01*
X11000Y-39700D02*
X18000D01*
Y-36300D01*
X11000Y-39700D02*
Y-36300D01*
X18000D01*
X-30500Y-62000D02*
Y-51000D01*
X-24500D01*
X-30500Y-62000D02*
X-24500D01*
Y-51000D01*
X-12000Y-57000D02*
Y-35000D01*
X-24000Y-57000D02*
X-12000D01*
X-24000Y-35000D02*
X-12000D01*
X-24000Y-57000D02*
Y-35000D01*
Y-39500D02*
Y-500D01*
X-63000D02*
X-24000D01*
X-63000Y-39500D02*
X-63000Y-500D01*
X-63000Y-39500D02*
X-24000Y-39500D01*
X-37000Y-62000D02*
Y-51000D01*
X-31000D01*
X-37000Y-62000D02*
X-31000D01*
Y-51000D01*
Y-47500D02*
Y-36500D01*
X-37000Y-47500D02*
X-31000D01*
X-37000Y-36500D02*
X-31000D01*
X-37000Y-47500D02*
Y-36500D01*
X-24500Y-47500D02*
Y-36500D01*
X-30500Y-47500D02*
X-24500D01*
X-30500Y-36500D02*
X-24500D01*
X-30500Y-47500D02*
Y-36500D01*
M02*
