G04*
G04 #@! TF.GenerationSoftware,Altium Limited,Altium Designer,22.0.2 (36)*
G04*
G04 Layer_Color=128*
%FSLAX25Y25*%
%MOIN*%
G70*
G04*
G04 #@! TF.SameCoordinates,B24A499B-10B0-4348-9313-877DE5855C24*
G04*
G04*
G04 #@! TF.FilePolarity,Positive*
G04*
G01*
G75*
%ADD86C,0.00200*%
D86*
X-67126Y-61024D02*
X-54921D01*
X-61024Y-67126D02*
Y-54921D01*
X54921Y-61024D02*
X67126D01*
X61024Y-67126D02*
Y-54921D01*
X54921Y61024D02*
X67126D01*
X61024Y54921D02*
Y67126D01*
X-67126Y61024D02*
X-54921D01*
X-61024Y54921D02*
Y67126D01*
X8000Y-24100D02*
X9000D01*
X8500Y-24600D02*
Y-23600D01*
X5000Y-24100D02*
X6000D01*
X5500Y-24600D02*
Y-23600D01*
X-44800Y26900D02*
X-43800D01*
X-44300Y26400D02*
Y27400D01*
X-44600Y31200D02*
X-43600D01*
X-44100Y30700D02*
Y31700D01*
X-54200Y30300D02*
X-53200D01*
X-53700Y29800D02*
Y30800D01*
X-54300Y23500D02*
X-53300D01*
X-53800Y23000D02*
Y24000D01*
X-57500Y23500D02*
X-56500D01*
X-57000Y23000D02*
Y24000D01*
X-56800Y12500D02*
X-55800D01*
X-56300Y12000D02*
Y13000D01*
X-59500Y17500D02*
X-58500D01*
X-59000Y17000D02*
Y18000D01*
X-57100Y26900D02*
X-56100D01*
X-56600Y26400D02*
Y27400D01*
X-60400Y40300D02*
X-59400D01*
X-59900Y39800D02*
Y40800D01*
X-60500Y36400D02*
X-59500D01*
X-60000Y35900D02*
Y36900D01*
X-60400Y32500D02*
X-59400D01*
X-59900Y32000D02*
Y33000D01*
X-43200Y-10600D02*
X-42200D01*
X-42700Y-11100D02*
Y-10100D01*
X72500Y-4700D02*
X73500D01*
X73000Y-5200D02*
Y-4200D01*
X72500Y3500D02*
X73500D01*
X73000Y3000D02*
Y4000D01*
X49500Y-7200D02*
X50500D01*
X50000Y-7700D02*
Y-6700D01*
X49500Y-4000D02*
X50500D01*
X50000Y-4500D02*
Y-3500D01*
X27600Y54000D02*
X28600D01*
X28100Y53500D02*
Y54500D01*
X3713Y52100D02*
X5287D01*
X4500Y51313D02*
Y52887D01*
X3713Y55100D02*
X5287D01*
X4500Y54313D02*
Y55887D01*
X-2500Y-65500D02*
X-1500D01*
X-2000Y-66000D02*
Y-65000D01*
X2000Y-47500D02*
X3000D01*
X2500Y-48000D02*
Y-47000D01*
X1469Y-62500D02*
X2468D01*
X1969Y-63000D02*
Y-62000D01*
X-28500Y-63000D02*
X-27500D01*
X-28000Y-63500D02*
Y-62500D01*
X-74000Y-55000D02*
X-73000D01*
X-73500Y-55500D02*
Y-54500D01*
X-74000Y-52000D02*
X-73000D01*
X-73500Y-52500D02*
Y-51500D01*
X-71866Y-45734D02*
X-70866D01*
X-71366Y-46234D02*
Y-45234D01*
X-71300Y-3100D02*
X-70300D01*
X-70800Y-3600D02*
Y-2600D01*
X-67100Y-2500D02*
X-66100D01*
X-66600Y-3000D02*
Y-2000D01*
X-500Y43500D02*
X500D01*
X0Y43000D02*
Y44000D01*
X15300Y300D02*
X16300D01*
X15800Y-200D02*
Y800D01*
X-500Y37000D02*
X500D01*
X0Y36500D02*
Y37500D01*
X-51500Y-22000D02*
X-50500D01*
X-51000Y-22500D02*
Y-21500D01*
X-68000Y100D02*
X-67000D01*
X-67500Y-400D02*
Y600D01*
X-62600Y-42600D02*
X-61600D01*
X-62100Y-43100D02*
Y-42100D01*
X-78900Y-53500D02*
X-77900D01*
X-78400Y-54000D02*
Y-53000D01*
X31213Y16000D02*
X32787D01*
X32000Y15213D02*
Y16787D01*
X28213Y16000D02*
X29787D01*
X29000Y15213D02*
Y16787D01*
X25213Y16000D02*
X26787D01*
X26000Y15213D02*
Y16787D01*
X22213Y16000D02*
X23787D01*
X23000Y15213D02*
Y16787D01*
X19213Y16000D02*
X20787D01*
X20000Y15213D02*
Y16787D01*
X16213Y16000D02*
X17787D01*
X17000Y15213D02*
Y16787D01*
X13213Y16000D02*
X14787D01*
X14000Y15213D02*
Y16787D01*
X10213Y16000D02*
X11787D01*
X11000Y15213D02*
Y16787D01*
X7213Y16000D02*
X8787D01*
X8000Y15213D02*
Y16787D01*
X4213Y16000D02*
X5787D01*
X5000Y15213D02*
Y16787D01*
X1213Y16000D02*
X2787D01*
X2000Y15213D02*
Y16787D01*
X-1787Y16000D02*
X-213D01*
X-1000Y15213D02*
Y16787D01*
X-4787Y16000D02*
X-3213D01*
X-4000Y15213D02*
Y16787D01*
X-7787Y16000D02*
X-6213D01*
X-7000Y15213D02*
Y16787D01*
X-10787Y16000D02*
X-9213D01*
X-10000Y15213D02*
Y16787D01*
X-13787Y16000D02*
X-12213D01*
X-13000Y15213D02*
Y16787D01*
X-16787Y16000D02*
X-15213D01*
X-16000Y15213D02*
Y16787D01*
X-19787Y16000D02*
X-18213D01*
X-19000Y15213D02*
Y16787D01*
X72213Y-15000D02*
X73787D01*
X73000Y-15787D02*
Y-14213D01*
X75213Y-15000D02*
X76787D01*
X76000Y-15787D02*
Y-14213D01*
X69213Y-15000D02*
X70787D01*
X70000Y-15787D02*
Y-14213D01*
X69213Y-12000D02*
X70787D01*
X70000Y-12787D02*
Y-11213D01*
X72213Y-12000D02*
X73787D01*
X73000Y-12787D02*
Y-11213D01*
X75213Y-12000D02*
X76787D01*
X76000Y-12787D02*
Y-11213D01*
X72213Y-18000D02*
X73787D01*
X73000Y-18787D02*
Y-17213D01*
X75213Y-18000D02*
X76787D01*
X76000Y-18787D02*
Y-17213D01*
X69213Y-18000D02*
X70787D01*
X70000Y-18787D02*
Y-17213D01*
X72213Y15000D02*
X73787D01*
X73000Y14213D02*
Y15787D01*
X72213Y12000D02*
X73787D01*
X73000Y11213D02*
Y12787D01*
X72213Y18000D02*
X73787D01*
X73000Y17213D02*
Y18787D01*
X75213Y18000D02*
X76787D01*
X76000Y17213D02*
Y18787D01*
X75213Y15000D02*
X76787D01*
X76000Y14213D02*
Y15787D01*
X75213Y12000D02*
X76787D01*
X76000Y11213D02*
Y12787D01*
X69213Y15000D02*
X70787D01*
X70000Y14213D02*
Y15787D01*
X69213Y12000D02*
X70787D01*
X70000Y11213D02*
Y12787D01*
X69213Y18000D02*
X70787D01*
X70000Y17213D02*
Y18787D01*
X-31287Y63000D02*
X-29713D01*
X-30500Y62213D02*
Y63787D01*
X-31287Y60000D02*
X-29713D01*
X-30500Y59213D02*
Y60787D01*
X-31287Y66000D02*
X-29713D01*
X-30500Y65213D02*
Y66787D01*
X-28287Y66000D02*
X-26713D01*
X-27500Y65213D02*
Y66787D01*
X-28287Y63000D02*
X-26713D01*
X-27500Y62213D02*
Y63787D01*
X-28287Y60000D02*
X-26713D01*
X-27500Y59213D02*
Y60787D01*
X-34287Y63000D02*
X-32713D01*
X-33500Y62213D02*
Y63787D01*
X-34287Y60000D02*
X-32713D01*
X-33500Y59213D02*
Y60787D01*
X-34287Y66000D02*
X-32713D01*
X-33500Y65213D02*
Y66787D01*
X-40287Y63000D02*
X-38713D01*
X-39500Y62213D02*
Y63787D01*
X-40287Y60000D02*
X-38713D01*
X-39500Y59213D02*
Y60787D01*
X-40287Y66000D02*
X-38713D01*
X-39500Y65213D02*
Y66787D01*
X-37287Y66000D02*
X-35713D01*
X-36500Y65213D02*
Y66787D01*
X-37287Y63000D02*
X-35713D01*
X-36500Y62213D02*
Y63787D01*
X-37287Y60000D02*
X-35713D01*
X-36500Y59213D02*
Y60787D01*
X-43287Y63000D02*
X-41713D01*
X-42500Y62213D02*
Y63787D01*
X-43287Y60000D02*
X-41713D01*
X-42500Y59213D02*
Y60787D01*
X-43287Y66000D02*
X-41713D01*
X-42500Y65213D02*
Y66787D01*
X-77500Y13000D02*
X-76500D01*
X-77000Y12500D02*
Y13500D01*
X-77500Y24000D02*
X-76500D01*
X-77000Y23500D02*
Y24500D01*
X-77500Y30000D02*
X-76500D01*
X-77000Y29500D02*
Y30500D01*
X-77500Y36000D02*
X-76500D01*
X-77000Y35500D02*
Y36500D01*
X-77500Y-21000D02*
X-76500D01*
X-77000Y-21500D02*
Y-20500D01*
X-77500Y-37500D02*
X-76500D01*
X-77000Y-38000D02*
Y-37000D01*
X-77500Y-34000D02*
X-76500D01*
X-77000Y-34500D02*
Y-33500D01*
X-77500Y-30500D02*
X-76500D01*
X-77000Y-31000D02*
Y-30000D01*
X-58000Y5000D02*
X-57000D01*
X-57500Y4500D02*
Y5500D01*
X-61000Y3000D02*
X-60000D01*
X-60500Y2500D02*
Y3500D01*
X-41500Y2500D02*
X-40500D01*
X-41000Y2000D02*
Y3000D01*
X-45500Y5000D02*
X-44500D01*
X-45000Y4500D02*
Y5500D01*
X-41500Y5000D02*
X-40500D01*
X-41000Y4500D02*
Y5500D01*
X-34000D02*
X-33000D01*
X-33500Y5000D02*
Y6000D01*
X-34000Y2000D02*
X-33000D01*
X-33500Y1500D02*
Y2500D01*
X-35000Y-59000D02*
X-34000D01*
X-34500Y-59500D02*
Y-58500D01*
X-38000Y-59000D02*
X-37000D01*
X-37500Y-59500D02*
Y-58500D01*
X26500Y-49500D02*
X27500D01*
X27000Y-50000D02*
Y-49000D01*
X32000Y-37500D02*
X33000D01*
X32500Y-38000D02*
Y-37000D01*
X32000Y-34500D02*
X33000D01*
X32500Y-35000D02*
Y-34000D01*
X32000Y-31500D02*
X33000D01*
X32500Y-32000D02*
Y-31000D01*
X32000Y-28500D02*
X33000D01*
X32500Y-29000D02*
Y-28000D01*
X32000Y-25500D02*
X33000D01*
X32500Y-26000D02*
Y-25000D01*
X32000Y-22500D02*
X33000D01*
X32500Y-23000D02*
Y-22000D01*
X32000Y-19500D02*
X33000D01*
X32500Y-20000D02*
Y-19000D01*
X32000Y-16500D02*
X33000D01*
X32500Y-17000D02*
Y-16000D01*
X15000Y-13000D02*
X16000D01*
X15500Y-13500D02*
Y-12500D01*
X17500Y-13000D02*
X18500D01*
X18000Y-13500D02*
Y-12500D01*
X20000Y-13000D02*
X21000D01*
X20500Y-13500D02*
Y-12500D01*
X22500Y-13000D02*
X23500D01*
X23000Y-13500D02*
Y-12500D01*
X25000Y-13000D02*
X26000D01*
X25500Y-13500D02*
Y-12500D01*
X25000Y-15500D02*
X26000D01*
X25500Y-16000D02*
Y-15000D01*
X22500Y-15500D02*
X23500D01*
X23000Y-16000D02*
Y-15000D01*
X-14000Y5500D02*
X-13000D01*
X-13500Y5000D02*
Y6000D01*
X-14000Y9500D02*
X-13000D01*
X-13500Y9000D02*
Y10000D01*
X-11500Y9500D02*
X-10500D01*
X-11000Y9000D02*
Y10000D01*
X-11500Y5500D02*
X-10500D01*
X-11000Y5000D02*
Y6000D01*
X-57000Y-42500D02*
X-56000D01*
X-56500Y-43000D02*
Y-42000D01*
X-59000Y-41000D02*
X-58000D01*
X-58500Y-41500D02*
Y-40500D01*
X-57500Y-37000D02*
X-56500D01*
X-57000Y-37500D02*
Y-36500D01*
X-4000Y-38000D02*
X-3000D01*
X-3500Y-38500D02*
Y-37500D01*
X-4000Y-35000D02*
X-3000D01*
X-3500Y-35500D02*
Y-34500D01*
X-5500Y-23000D02*
X-4500D01*
X-5000Y-23500D02*
Y-22500D01*
X-5500Y-20000D02*
X-4500D01*
X-5000Y-20500D02*
Y-19500D01*
X8000Y-21000D02*
X9000D01*
X8500Y-21500D02*
Y-20500D01*
X5000Y-21000D02*
X6000D01*
X5500Y-21500D02*
Y-20500D01*
X16500Y-35000D02*
X17500D01*
X17000Y-35500D02*
Y-34500D01*
X16500Y-32500D02*
X17500D01*
X17000Y-33000D02*
Y-32000D01*
X-2500Y-41500D02*
X-1500D01*
X-2000Y-42000D02*
Y-41000D01*
X-5500Y-41500D02*
X-4500D01*
X-5000Y-42000D02*
Y-41000D01*
X-29000Y-43000D02*
X-28000D01*
X-28500Y-43500D02*
Y-42500D01*
X-27500Y-40500D02*
X-26500D01*
X-27000Y-41000D02*
Y-40000D01*
X-27500Y-38000D02*
X-26500D01*
X-27000Y-38500D02*
Y-37500D01*
X-24000Y-38000D02*
X-23000D01*
X-23500Y-38500D02*
Y-37500D01*
X-67000Y-15500D02*
X-66000D01*
X-66500Y-16000D02*
Y-15000D01*
Y-22000D02*
X-65500D01*
X-66000Y-22500D02*
Y-21500D01*
X-56000Y-28000D02*
X-55000D01*
X-55500Y-28500D02*
Y-27500D01*
X-56000Y-25500D02*
X-55000D01*
X-55500Y-26000D02*
Y-25000D01*
X-56000Y-23000D02*
X-55000D01*
X-55500Y-23500D02*
Y-22500D01*
X-38500Y-17000D02*
X-37500D01*
X-38000Y-17500D02*
Y-16500D01*
X-41000Y-17000D02*
X-40000D01*
X-40500Y-17500D02*
Y-16500D01*
X-35500D02*
X-34500D01*
X-35000Y-17000D02*
Y-16000D01*
X-40380Y-21500D02*
X-38805D01*
X-39592Y-22287D02*
Y-20713D01*
X-37334Y-21500D02*
X-35759D01*
X-36546Y-22287D02*
Y-20713D01*
X-34287Y-21500D02*
X-32713D01*
X-33500Y-22287D02*
Y-20713D01*
X-34287Y-24500D02*
X-32713D01*
X-33500Y-25287D02*
Y-23713D01*
X-37334Y-24500D02*
X-35759D01*
X-36546Y-25287D02*
Y-23713D01*
X-40380Y-24566D02*
X-38805D01*
X-39592Y-25354D02*
Y-23779D01*
X-40380Y-27500D02*
X-38805D01*
X-39592Y-28287D02*
Y-26713D01*
X-37334Y-27500D02*
X-35759D01*
X-36546Y-28287D02*
Y-26713D01*
X-34287Y-27500D02*
X-32713D01*
X-33500Y-28287D02*
Y-26713D01*
X-54800Y-41000D02*
X-53800D01*
X-54300Y-41500D02*
Y-40500D01*
X-52600Y-42400D02*
X-51600D01*
X-52100Y-42900D02*
Y-41900D01*
X-20287Y41000D02*
X-18713D01*
X-19500Y40213D02*
Y41787D01*
X-20287Y38000D02*
X-18713D01*
X-19500Y37213D02*
Y38787D01*
X-20287Y44000D02*
X-18713D01*
X-19500Y43213D02*
Y44787D01*
X10300Y7500D02*
X11300D01*
X10800Y7000D02*
Y8000D01*
X-11900Y-7500D02*
X-10900D01*
X-11400Y-8000D02*
Y-7000D01*
X-18800Y-4200D02*
X-17800D01*
X-18300Y-4700D02*
Y-3700D01*
X-32300Y-12300D02*
X-31300D01*
X-31800Y-12800D02*
Y-11800D01*
X-11100Y2500D02*
X-10100D01*
X-10600Y2000D02*
Y3000D01*
X-51900Y-14500D02*
X-50900D01*
X-51400Y-15000D02*
Y-14000D01*
X32313Y44400D02*
X33887D01*
X33100Y43613D02*
Y45187D01*
X32313Y41400D02*
X33887D01*
X33100Y40613D02*
Y42187D01*
X32313Y38400D02*
X33887D01*
X33100Y37613D02*
Y39187D01*
X32313Y35400D02*
X33887D01*
X33100Y34613D02*
Y36187D01*
X32313Y32400D02*
X33887D01*
X33100Y31613D02*
Y33187D01*
X32313Y29400D02*
X33887D01*
X33100Y28613D02*
Y30187D01*
X-34987Y52000D02*
X-33413D01*
X-34200Y51213D02*
Y52787D01*
X-34987Y49000D02*
X-33413D01*
X-34200Y48213D02*
Y49787D01*
X-34987Y46000D02*
X-33413D01*
X-34200Y45213D02*
Y46787D01*
X-34987Y43000D02*
X-33413D01*
X-34200Y42213D02*
Y43787D01*
X-34987Y40000D02*
X-33413D01*
X-34200Y39213D02*
Y40787D01*
X-34987Y37000D02*
X-33413D01*
X-34200Y36213D02*
Y37787D01*
X18513Y44700D02*
X20087D01*
X19300Y43913D02*
Y45487D01*
X18513Y41700D02*
X20087D01*
X19300Y40913D02*
Y42487D01*
X18513Y38700D02*
X20087D01*
X19300Y37913D02*
Y39487D01*
X3513Y45100D02*
X5087D01*
X4300Y44313D02*
Y45887D01*
X3513Y42100D02*
X5087D01*
X4300Y41313D02*
Y42887D01*
X3513Y39100D02*
X5087D01*
X4300Y38313D02*
Y39887D01*
X-4987Y45100D02*
X-3413D01*
X-4200Y44313D02*
Y45887D01*
X-4987Y42100D02*
X-3413D01*
X-4200Y41313D02*
Y42887D01*
X-4987Y39100D02*
X-3413D01*
X-4200Y38313D02*
Y39887D01*
X11213Y43000D02*
X12787D01*
X12000Y42213D02*
Y43787D01*
X8213Y43000D02*
X9787D01*
X9000Y42213D02*
Y43787D01*
X14213Y43000D02*
X15787D01*
X15000Y42213D02*
Y43787D01*
X14213Y40000D02*
X15787D01*
X15000Y39213D02*
Y40787D01*
X11213Y40000D02*
X12787D01*
X12000Y39213D02*
Y40787D01*
X8213Y40000D02*
X9787D01*
X9000Y39213D02*
Y40787D01*
X11213Y46000D02*
X12787D01*
X12000Y45213D02*
Y46787D01*
X8213Y46000D02*
X9787D01*
X9000Y45213D02*
Y46787D01*
X14213Y46000D02*
X15787D01*
X15000Y45213D02*
Y46787D01*
X-9787Y46000D02*
X-8213D01*
X-9000Y45213D02*
Y46787D01*
X-15787Y46000D02*
X-14213D01*
X-15000Y45213D02*
Y46787D01*
X-12787Y46000D02*
X-11213D01*
X-12000Y45213D02*
Y46787D01*
X-15787Y40000D02*
X-14213D01*
X-15000Y39213D02*
Y40787D01*
X-12787Y40000D02*
X-11213D01*
X-12000Y39213D02*
Y40787D01*
X-9787Y40000D02*
X-8213D01*
X-9000Y39213D02*
Y40787D01*
X-9787Y43000D02*
X-8213D01*
X-9000Y42213D02*
Y43787D01*
X-15787Y43000D02*
X-14213D01*
X-15000Y42213D02*
Y43787D01*
X-12787Y43000D02*
X-11213D01*
X-12000Y42213D02*
Y43787D01*
X713Y52100D02*
X2287D01*
X1500Y51313D02*
Y52887D01*
X713Y55100D02*
X2287D01*
X1500Y54313D02*
Y55887D01*
X-23287Y52100D02*
X-21713D01*
X-22500Y51313D02*
Y52887D01*
X-20287Y52100D02*
X-18713D01*
X-19500Y51313D02*
Y52887D01*
X-23287Y55100D02*
X-21713D01*
X-22500Y54313D02*
Y55887D01*
X-20287Y55100D02*
X-18713D01*
X-19500Y54313D02*
Y55887D01*
X31600Y53700D02*
X32600D01*
X32100Y53200D02*
Y54200D01*
X28800Y-4100D02*
X29800D01*
X29300Y-4600D02*
Y-3600D01*
X28800Y-7200D02*
X29800D01*
X29300Y-7700D02*
Y-6700D01*
X-35800Y-8400D02*
X-34800D01*
X-35300Y-8900D02*
Y-7900D01*
X19300Y-22100D02*
X20300D01*
X19800Y-22600D02*
Y-21600D01*
X21953Y-21500D02*
X22953D01*
X22454Y-22000D02*
Y-21000D01*
X8000Y-51100D02*
X9000D01*
X8500Y-51600D02*
Y-50600D01*
X-13000Y-45800D02*
X-12000D01*
X-12500Y-46300D02*
Y-45300D01*
X-11300Y-44100D02*
X-10300D01*
X-10800Y-44600D02*
Y-43600D01*
X-12000Y-31900D02*
X-11000D01*
X-11500Y-32400D02*
Y-31400D01*
X-52000Y-31600D02*
X-51000D01*
X-51500Y-32100D02*
Y-31100D01*
X-52400Y-11100D02*
X-51400D01*
X-51900Y-11600D02*
Y-10600D01*
X28000Y-21200D02*
X29000D01*
X28500Y-21700D02*
Y-20700D01*
X28000Y-18700D02*
X29000D01*
X28500Y-19200D02*
Y-18200D01*
X28000Y-16400D02*
X29000D01*
X28500Y-16900D02*
Y-15900D01*
X-200Y-38700D02*
X800D01*
X300Y-39200D02*
Y-38200D01*
X-200Y-36200D02*
X800D01*
X300Y-36700D02*
Y-35700D01*
X-260Y-33540D02*
X740D01*
X240Y-34040D02*
Y-33040D01*
X17500Y-16300D02*
X18500D01*
X18000Y-16800D02*
Y-15800D01*
X15300Y-16300D02*
X16300D01*
X15800Y-16800D02*
Y-15800D01*
X19400Y-17400D02*
X20400D01*
X19900Y-17900D02*
Y-16900D01*
X42213Y-67000D02*
X43787D01*
X43000Y-67787D02*
Y-66213D01*
X39213Y-67000D02*
X40787D01*
X40000Y-67787D02*
Y-66213D01*
X45213Y-67000D02*
X46787D01*
X46000Y-67787D02*
Y-66213D01*
X42213Y-70000D02*
X43787D01*
X43000Y-70787D02*
Y-69213D01*
X39213Y-70000D02*
X40787D01*
X40000Y-70787D02*
Y-69213D01*
X45213Y-70000D02*
X46787D01*
X46000Y-70787D02*
Y-69213D01*
X42213Y-73000D02*
X43787D01*
X43000Y-73787D02*
Y-72213D01*
X39213Y-73000D02*
X40787D01*
X40000Y-73787D02*
Y-72213D01*
X45213Y-73000D02*
X46787D01*
X46000Y-73787D02*
Y-72213D01*
X33213Y-78500D02*
X34787D01*
X34000Y-79287D02*
Y-77713D01*
X30213Y-78500D02*
X31787D01*
X31000Y-79287D02*
Y-77713D01*
X36213Y-78500D02*
X37787D01*
X37000Y-79287D02*
Y-77713D01*
X24213Y-78500D02*
X25787D01*
X25000Y-79287D02*
Y-77713D01*
X21213Y-78500D02*
X22787D01*
X22000Y-79287D02*
Y-77713D01*
X27213Y-78500D02*
X28787D01*
X28000Y-79287D02*
Y-77713D01*
X18213Y-75500D02*
X19787D01*
X19000Y-76287D02*
Y-74713D01*
X18213Y-78500D02*
X19787D01*
X19000Y-79287D02*
Y-77713D01*
X-14787Y-72000D02*
X-13213D01*
X-14000Y-72787D02*
Y-71213D01*
X-20787Y-72000D02*
X-19213D01*
X-20000Y-72787D02*
Y-71213D01*
X-17787Y-72000D02*
X-16213D01*
X-17000Y-72787D02*
Y-71213D01*
X-14787Y-69000D02*
X-13213D01*
X-14000Y-69787D02*
Y-68213D01*
X-20787Y-69000D02*
X-19213D01*
X-20000Y-69787D02*
Y-68213D01*
X-17787Y-69000D02*
X-16213D01*
X-17000Y-69787D02*
Y-68213D01*
X-14787Y-66000D02*
X-13213D01*
X-14000Y-66787D02*
Y-65213D01*
X-20787Y-66000D02*
X-19213D01*
X-20000Y-66787D02*
Y-65213D01*
X-17787Y-66000D02*
X-16213D01*
X-17000Y-66787D02*
Y-65213D01*
X-40200Y-41600D02*
X-39200D01*
X-39700Y-42100D02*
Y-41100D01*
X-38200Y-43700D02*
X-37200D01*
X-37700Y-44200D02*
Y-43200D01*
X23500Y-57500D02*
X24500D01*
X24000Y-58000D02*
Y-57000D01*
X26800Y-52900D02*
X27800D01*
X27300Y-53400D02*
Y-52400D01*
X-56800Y-13100D02*
X-55800D01*
X-56300Y-13600D02*
Y-12600D01*
X-23000Y-19300D02*
X-22000D01*
X-22500Y-19800D02*
Y-18800D01*
X-41047Y-33553D02*
X-40047D01*
X-40547Y-34053D02*
Y-33053D01*
X-37100Y-33400D02*
X-36100D01*
X-36600Y-33900D02*
Y-32900D01*
X-35120Y-41200D02*
X-34121D01*
X-34620Y-41700D02*
Y-40700D01*
X-39100Y-31800D02*
X-38100D01*
X-38600Y-32300D02*
Y-31300D01*
X-50900Y4800D02*
X-49900D01*
X-50400Y4300D02*
Y5300D01*
X-54800Y4800D02*
X-53800D01*
X-54300Y4300D02*
Y5300D01*
X-52858Y658D02*
X-51858D01*
X-52358Y158D02*
Y1158D01*
X-57000Y700D02*
X-56000D01*
X-56500Y200D02*
Y1200D01*
X14000Y31000D02*
X15000D01*
X14500Y30500D02*
Y31500D01*
X9000Y31000D02*
X10000D01*
X9500Y30500D02*
Y31500D01*
X-10000Y31000D02*
X-9000D01*
X-9500Y30500D02*
Y31500D01*
X-15000Y31000D02*
X-14000D01*
X-14500Y30500D02*
Y31500D01*
X-56284Y-19016D02*
X-55284D01*
X-55784Y-19516D02*
Y-18516D01*
X29000Y-52300D02*
X30000D01*
X29500Y-52800D02*
Y-51800D01*
M02*
