G04*
G04 #@! TF.GenerationSoftware,Altium Limited,Altium Designer,22.0.2 (36)*
G04*
G04 Layer_Color=32768*
%FSLAX25Y25*%
%MOIN*%
G70*
G04*
G04 #@! TF.SameCoordinates,B24A499B-10B0-4348-9313-877DE5855C24*
G04*
G04*
G04 #@! TF.FilePolarity,Positive*
G04*
G01*
G75*
%ADD13C,0.00787*%
%ADD85C,0.00394*%
D13*
X-29740Y50398D02*
X-22260D01*
Y35602D02*
Y50398D01*
X-29740Y35602D02*
X-22260D01*
X-29740D02*
Y50398D01*
X22260Y35602D02*
Y50398D01*
Y35602D02*
X29740D01*
Y50398D01*
X22260D02*
X29740D01*
X-39291Y-17850D02*
X-10709D01*
Y-34150D02*
Y-17850D01*
X-39291Y-34150D02*
X-10709D01*
X-39291D02*
Y-17850D01*
X19988Y-25437D02*
Y-17563D01*
Y-25437D02*
X31012D01*
Y-17563D01*
X19988D02*
X31012D01*
D85*
X-51387Y13200D02*
X-37213D01*
X-51387Y29200D02*
X-37213D01*
X-51387Y13200D02*
Y29200D01*
X-37213Y13200D02*
Y29200D01*
X-44300Y19231D02*
Y23168D01*
X-46268Y21200D02*
X-42331D01*
X-27968Y43000D02*
X-24032D01*
X-26000Y41032D02*
Y44969D01*
X-23024Y26465D02*
X500D01*
X-23024Y59535D02*
X500D01*
Y26465D02*
Y59535D01*
X-23024Y26465D02*
Y59535D01*
X-12000Y41032D02*
Y44969D01*
X-13969Y43000D02*
X-10031D01*
X27200Y-55700D02*
X30800D01*
X27200Y-62300D02*
Y-55700D01*
X30800Y-62300D02*
Y-55700D01*
X27200Y-62300D02*
X30800D01*
X26000Y41032D02*
Y44969D01*
X24032Y43000D02*
X27968D01*
X-5469Y-31000D02*
X-1531D01*
X-3500Y-32969D02*
Y-29032D01*
X-10587Y-40000D02*
Y-22000D01*
X3587Y-40000D02*
Y-22000D01*
X-10587D02*
X3587D01*
X-10587Y-40000D02*
X3587D01*
X14532Y-28000D02*
X18469D01*
X16500Y-29969D02*
Y-26032D01*
X8429Y-37252D02*
Y-18748D01*
X24571Y-37252D02*
Y-18748D01*
X8429D02*
X24571D01*
X8429Y-37252D02*
X24571D01*
X-26969Y-26000D02*
X-23031D01*
X-25000Y-27968D02*
Y-24032D01*
X-24035Y-62500D02*
Y-38976D01*
X9035Y-62500D02*
Y-38976D01*
X-24035Y-62500D02*
X9035D01*
X-24035Y-38976D02*
X9035D01*
X-9469Y-50000D02*
X-5531D01*
X-7500Y-51968D02*
Y-48031D01*
X10031Y43000D02*
X13969D01*
X12000Y41032D02*
Y44969D01*
X976Y26465D02*
Y59535D01*
X24500Y26465D02*
Y59535D01*
X976D02*
X24500D01*
X976Y26465D02*
X24500D01*
X16535Y-11024D02*
Y12500D01*
X-16535Y-11024D02*
Y12500D01*
X16535D01*
X-16535Y-11024D02*
X16535D01*
X-1969Y0D02*
X1969D01*
X0Y-1969D02*
Y1969D01*
X25500Y-23469D02*
Y-19532D01*
X23531Y-21500D02*
X27468D01*
M02*
